G04 #@! TF.GenerationSoftware,KiCad,Pcbnew,9.0.1-1.fc42*
G04 #@! TF.CreationDate,2025-04-24T00:42:17-05:00*
G04 #@! TF.ProjectId,pico_driver,7069636f-5f64-4726-9976-65722e6b6963,rev?*
G04 #@! TF.SameCoordinates,Original*
G04 #@! TF.FileFunction,Legend,Bot*
G04 #@! TF.FilePolarity,Positive*
%FSLAX46Y46*%
G04 Gerber Fmt 4.6, Leading zero omitted, Abs format (unit mm)*
G04 Created by KiCad (PCBNEW 9.0.1-1.fc42) date 2025-04-24 00:42:17*
%MOMM*%
%LPD*%
G01*
G04 APERTURE LIST*
%ADD10C,0.150000*%
%ADD11C,0.120000*%
G04 APERTURE END LIST*
D10*
X160791792Y-59632390D02*
X160867982Y-59594295D01*
X160867982Y-59594295D02*
X160982268Y-59594295D01*
X160982268Y-59594295D02*
X161096554Y-59632390D01*
X161096554Y-59632390D02*
X161172744Y-59708580D01*
X161172744Y-59708580D02*
X161210839Y-59784771D01*
X161210839Y-59784771D02*
X161248935Y-59937152D01*
X161248935Y-59937152D02*
X161248935Y-60051438D01*
X161248935Y-60051438D02*
X161210839Y-60203819D01*
X161210839Y-60203819D02*
X161172744Y-60280009D01*
X161172744Y-60280009D02*
X161096554Y-60356200D01*
X161096554Y-60356200D02*
X160982268Y-60394295D01*
X160982268Y-60394295D02*
X160906077Y-60394295D01*
X160906077Y-60394295D02*
X160791792Y-60356200D01*
X160791792Y-60356200D02*
X160753696Y-60318104D01*
X160753696Y-60318104D02*
X160753696Y-60051438D01*
X160753696Y-60051438D02*
X160906077Y-60051438D01*
X160410839Y-60394295D02*
X160410839Y-59594295D01*
X160410839Y-59594295D02*
X160106077Y-59594295D01*
X160106077Y-59594295D02*
X160029887Y-59632390D01*
X160029887Y-59632390D02*
X159991792Y-59670485D01*
X159991792Y-59670485D02*
X159953696Y-59746676D01*
X159953696Y-59746676D02*
X159953696Y-59860961D01*
X159953696Y-59860961D02*
X159991792Y-59937152D01*
X159991792Y-59937152D02*
X160029887Y-59975247D01*
X160029887Y-59975247D02*
X160106077Y-60013342D01*
X160106077Y-60013342D02*
X160410839Y-60013342D01*
X159687030Y-59594295D02*
X159191792Y-59594295D01*
X159191792Y-59594295D02*
X159458458Y-59899057D01*
X159458458Y-59899057D02*
X159344173Y-59899057D01*
X159344173Y-59899057D02*
X159267982Y-59937152D01*
X159267982Y-59937152D02*
X159229887Y-59975247D01*
X159229887Y-59975247D02*
X159191792Y-60051438D01*
X159191792Y-60051438D02*
X159191792Y-60241914D01*
X159191792Y-60241914D02*
X159229887Y-60318104D01*
X159229887Y-60318104D02*
X159267982Y-60356200D01*
X159267982Y-60356200D02*
X159344173Y-60394295D01*
X159344173Y-60394295D02*
X159572744Y-60394295D01*
X159572744Y-60394295D02*
X159648935Y-60356200D01*
X159648935Y-60356200D02*
X159687030Y-60318104D01*
X160291792Y-53132390D02*
X160367982Y-53094295D01*
X160367982Y-53094295D02*
X160482268Y-53094295D01*
X160482268Y-53094295D02*
X160596554Y-53132390D01*
X160596554Y-53132390D02*
X160672744Y-53208580D01*
X160672744Y-53208580D02*
X160710839Y-53284771D01*
X160710839Y-53284771D02*
X160748935Y-53437152D01*
X160748935Y-53437152D02*
X160748935Y-53551438D01*
X160748935Y-53551438D02*
X160710839Y-53703819D01*
X160710839Y-53703819D02*
X160672744Y-53780009D01*
X160672744Y-53780009D02*
X160596554Y-53856200D01*
X160596554Y-53856200D02*
X160482268Y-53894295D01*
X160482268Y-53894295D02*
X160406077Y-53894295D01*
X160406077Y-53894295D02*
X160291792Y-53856200D01*
X160291792Y-53856200D02*
X160253696Y-53818104D01*
X160253696Y-53818104D02*
X160253696Y-53551438D01*
X160253696Y-53551438D02*
X160406077Y-53551438D01*
X159910839Y-53894295D02*
X159910839Y-53094295D01*
X159910839Y-53094295D02*
X159606077Y-53094295D01*
X159606077Y-53094295D02*
X159529887Y-53132390D01*
X159529887Y-53132390D02*
X159491792Y-53170485D01*
X159491792Y-53170485D02*
X159453696Y-53246676D01*
X159453696Y-53246676D02*
X159453696Y-53360961D01*
X159453696Y-53360961D02*
X159491792Y-53437152D01*
X159491792Y-53437152D02*
X159529887Y-53475247D01*
X159529887Y-53475247D02*
X159606077Y-53513342D01*
X159606077Y-53513342D02*
X159910839Y-53513342D01*
X158958458Y-53094295D02*
X158882268Y-53094295D01*
X158882268Y-53094295D02*
X158806077Y-53132390D01*
X158806077Y-53132390D02*
X158767982Y-53170485D01*
X158767982Y-53170485D02*
X158729887Y-53246676D01*
X158729887Y-53246676D02*
X158691792Y-53399057D01*
X158691792Y-53399057D02*
X158691792Y-53589533D01*
X158691792Y-53589533D02*
X158729887Y-53741914D01*
X158729887Y-53741914D02*
X158767982Y-53818104D01*
X158767982Y-53818104D02*
X158806077Y-53856200D01*
X158806077Y-53856200D02*
X158882268Y-53894295D01*
X158882268Y-53894295D02*
X158958458Y-53894295D01*
X158958458Y-53894295D02*
X159034649Y-53856200D01*
X159034649Y-53856200D02*
X159072744Y-53818104D01*
X159072744Y-53818104D02*
X159110839Y-53741914D01*
X159110839Y-53741914D02*
X159148935Y-53589533D01*
X159148935Y-53589533D02*
X159148935Y-53399057D01*
X159148935Y-53399057D02*
X159110839Y-53246676D01*
X159110839Y-53246676D02*
X159072744Y-53170485D01*
X159072744Y-53170485D02*
X159034649Y-53132390D01*
X159034649Y-53132390D02*
X158958458Y-53094295D01*
X160791792Y-65632390D02*
X160867982Y-65594295D01*
X160867982Y-65594295D02*
X160982268Y-65594295D01*
X160982268Y-65594295D02*
X161096554Y-65632390D01*
X161096554Y-65632390D02*
X161172744Y-65708580D01*
X161172744Y-65708580D02*
X161210839Y-65784771D01*
X161210839Y-65784771D02*
X161248935Y-65937152D01*
X161248935Y-65937152D02*
X161248935Y-66051438D01*
X161248935Y-66051438D02*
X161210839Y-66203819D01*
X161210839Y-66203819D02*
X161172744Y-66280009D01*
X161172744Y-66280009D02*
X161096554Y-66356200D01*
X161096554Y-66356200D02*
X160982268Y-66394295D01*
X160982268Y-66394295D02*
X160906077Y-66394295D01*
X160906077Y-66394295D02*
X160791792Y-66356200D01*
X160791792Y-66356200D02*
X160753696Y-66318104D01*
X160753696Y-66318104D02*
X160753696Y-66051438D01*
X160753696Y-66051438D02*
X160906077Y-66051438D01*
X160410839Y-66394295D02*
X160410839Y-65594295D01*
X160410839Y-65594295D02*
X160106077Y-65594295D01*
X160106077Y-65594295D02*
X160029887Y-65632390D01*
X160029887Y-65632390D02*
X159991792Y-65670485D01*
X159991792Y-65670485D02*
X159953696Y-65746676D01*
X159953696Y-65746676D02*
X159953696Y-65860961D01*
X159953696Y-65860961D02*
X159991792Y-65937152D01*
X159991792Y-65937152D02*
X160029887Y-65975247D01*
X160029887Y-65975247D02*
X160106077Y-66013342D01*
X160106077Y-66013342D02*
X160410839Y-66013342D01*
X159229887Y-65594295D02*
X159610839Y-65594295D01*
X159610839Y-65594295D02*
X159648935Y-65975247D01*
X159648935Y-65975247D02*
X159610839Y-65937152D01*
X159610839Y-65937152D02*
X159534649Y-65899057D01*
X159534649Y-65899057D02*
X159344173Y-65899057D01*
X159344173Y-65899057D02*
X159267982Y-65937152D01*
X159267982Y-65937152D02*
X159229887Y-65975247D01*
X159229887Y-65975247D02*
X159191792Y-66051438D01*
X159191792Y-66051438D02*
X159191792Y-66241914D01*
X159191792Y-66241914D02*
X159229887Y-66318104D01*
X159229887Y-66318104D02*
X159267982Y-66356200D01*
X159267982Y-66356200D02*
X159344173Y-66394295D01*
X159344173Y-66394295D02*
X159534649Y-66394295D01*
X159534649Y-66394295D02*
X159610839Y-66356200D01*
X159610839Y-66356200D02*
X159648935Y-66318104D01*
X160791792Y-63132390D02*
X160867982Y-63094295D01*
X160867982Y-63094295D02*
X160982268Y-63094295D01*
X160982268Y-63094295D02*
X161096554Y-63132390D01*
X161096554Y-63132390D02*
X161172744Y-63208580D01*
X161172744Y-63208580D02*
X161210839Y-63284771D01*
X161210839Y-63284771D02*
X161248935Y-63437152D01*
X161248935Y-63437152D02*
X161248935Y-63551438D01*
X161248935Y-63551438D02*
X161210839Y-63703819D01*
X161210839Y-63703819D02*
X161172744Y-63780009D01*
X161172744Y-63780009D02*
X161096554Y-63856200D01*
X161096554Y-63856200D02*
X160982268Y-63894295D01*
X160982268Y-63894295D02*
X160906077Y-63894295D01*
X160906077Y-63894295D02*
X160791792Y-63856200D01*
X160791792Y-63856200D02*
X160753696Y-63818104D01*
X160753696Y-63818104D02*
X160753696Y-63551438D01*
X160753696Y-63551438D02*
X160906077Y-63551438D01*
X160410839Y-63894295D02*
X160410839Y-63094295D01*
X160410839Y-63094295D02*
X160106077Y-63094295D01*
X160106077Y-63094295D02*
X160029887Y-63132390D01*
X160029887Y-63132390D02*
X159991792Y-63170485D01*
X159991792Y-63170485D02*
X159953696Y-63246676D01*
X159953696Y-63246676D02*
X159953696Y-63360961D01*
X159953696Y-63360961D02*
X159991792Y-63437152D01*
X159991792Y-63437152D02*
X160029887Y-63475247D01*
X160029887Y-63475247D02*
X160106077Y-63513342D01*
X160106077Y-63513342D02*
X160410839Y-63513342D01*
X159267982Y-63360961D02*
X159267982Y-63894295D01*
X159458458Y-63056200D02*
X159648935Y-63627628D01*
X159648935Y-63627628D02*
X159153696Y-63627628D01*
X160791792Y-68632390D02*
X160867982Y-68594295D01*
X160867982Y-68594295D02*
X160982268Y-68594295D01*
X160982268Y-68594295D02*
X161096554Y-68632390D01*
X161096554Y-68632390D02*
X161172744Y-68708580D01*
X161172744Y-68708580D02*
X161210839Y-68784771D01*
X161210839Y-68784771D02*
X161248935Y-68937152D01*
X161248935Y-68937152D02*
X161248935Y-69051438D01*
X161248935Y-69051438D02*
X161210839Y-69203819D01*
X161210839Y-69203819D02*
X161172744Y-69280009D01*
X161172744Y-69280009D02*
X161096554Y-69356200D01*
X161096554Y-69356200D02*
X160982268Y-69394295D01*
X160982268Y-69394295D02*
X160906077Y-69394295D01*
X160906077Y-69394295D02*
X160791792Y-69356200D01*
X160791792Y-69356200D02*
X160753696Y-69318104D01*
X160753696Y-69318104D02*
X160753696Y-69051438D01*
X160753696Y-69051438D02*
X160906077Y-69051438D01*
X160410839Y-69394295D02*
X160410839Y-68594295D01*
X160410839Y-68594295D02*
X160106077Y-68594295D01*
X160106077Y-68594295D02*
X160029887Y-68632390D01*
X160029887Y-68632390D02*
X159991792Y-68670485D01*
X159991792Y-68670485D02*
X159953696Y-68746676D01*
X159953696Y-68746676D02*
X159953696Y-68860961D01*
X159953696Y-68860961D02*
X159991792Y-68937152D01*
X159991792Y-68937152D02*
X160029887Y-68975247D01*
X160029887Y-68975247D02*
X160106077Y-69013342D01*
X160106077Y-69013342D02*
X160410839Y-69013342D01*
X159267982Y-68594295D02*
X159420363Y-68594295D01*
X159420363Y-68594295D02*
X159496554Y-68632390D01*
X159496554Y-68632390D02*
X159534649Y-68670485D01*
X159534649Y-68670485D02*
X159610839Y-68784771D01*
X159610839Y-68784771D02*
X159648935Y-68937152D01*
X159648935Y-68937152D02*
X159648935Y-69241914D01*
X159648935Y-69241914D02*
X159610839Y-69318104D01*
X159610839Y-69318104D02*
X159572744Y-69356200D01*
X159572744Y-69356200D02*
X159496554Y-69394295D01*
X159496554Y-69394295D02*
X159344173Y-69394295D01*
X159344173Y-69394295D02*
X159267982Y-69356200D01*
X159267982Y-69356200D02*
X159229887Y-69318104D01*
X159229887Y-69318104D02*
X159191792Y-69241914D01*
X159191792Y-69241914D02*
X159191792Y-69051438D01*
X159191792Y-69051438D02*
X159229887Y-68975247D01*
X159229887Y-68975247D02*
X159267982Y-68937152D01*
X159267982Y-68937152D02*
X159344173Y-68899057D01*
X159344173Y-68899057D02*
X159496554Y-68899057D01*
X159496554Y-68899057D02*
X159572744Y-68937152D01*
X159572744Y-68937152D02*
X159610839Y-68975247D01*
X159610839Y-68975247D02*
X159648935Y-69051438D01*
X160791792Y-77632390D02*
X160867982Y-77594295D01*
X160867982Y-77594295D02*
X160982268Y-77594295D01*
X160982268Y-77594295D02*
X161096554Y-77632390D01*
X161096554Y-77632390D02*
X161172744Y-77708580D01*
X161172744Y-77708580D02*
X161210839Y-77784771D01*
X161210839Y-77784771D02*
X161248935Y-77937152D01*
X161248935Y-77937152D02*
X161248935Y-78051438D01*
X161248935Y-78051438D02*
X161210839Y-78203819D01*
X161210839Y-78203819D02*
X161172744Y-78280009D01*
X161172744Y-78280009D02*
X161096554Y-78356200D01*
X161096554Y-78356200D02*
X160982268Y-78394295D01*
X160982268Y-78394295D02*
X160906077Y-78394295D01*
X160906077Y-78394295D02*
X160791792Y-78356200D01*
X160791792Y-78356200D02*
X160753696Y-78318104D01*
X160753696Y-78318104D02*
X160753696Y-78051438D01*
X160753696Y-78051438D02*
X160906077Y-78051438D01*
X160410839Y-78394295D02*
X160410839Y-77594295D01*
X160410839Y-77594295D02*
X160106077Y-77594295D01*
X160106077Y-77594295D02*
X160029887Y-77632390D01*
X160029887Y-77632390D02*
X159991792Y-77670485D01*
X159991792Y-77670485D02*
X159953696Y-77746676D01*
X159953696Y-77746676D02*
X159953696Y-77860961D01*
X159953696Y-77860961D02*
X159991792Y-77937152D01*
X159991792Y-77937152D02*
X160029887Y-77975247D01*
X160029887Y-77975247D02*
X160106077Y-78013342D01*
X160106077Y-78013342D02*
X160410839Y-78013342D01*
X159648935Y-77670485D02*
X159610839Y-77632390D01*
X159610839Y-77632390D02*
X159534649Y-77594295D01*
X159534649Y-77594295D02*
X159344173Y-77594295D01*
X159344173Y-77594295D02*
X159267982Y-77632390D01*
X159267982Y-77632390D02*
X159229887Y-77670485D01*
X159229887Y-77670485D02*
X159191792Y-77746676D01*
X159191792Y-77746676D02*
X159191792Y-77822866D01*
X159191792Y-77822866D02*
X159229887Y-77937152D01*
X159229887Y-77937152D02*
X159687030Y-78394295D01*
X159687030Y-78394295D02*
X159191792Y-78394295D01*
X158734649Y-77937152D02*
X158810839Y-77899057D01*
X158810839Y-77899057D02*
X158848934Y-77860961D01*
X158848934Y-77860961D02*
X158887030Y-77784771D01*
X158887030Y-77784771D02*
X158887030Y-77746676D01*
X158887030Y-77746676D02*
X158848934Y-77670485D01*
X158848934Y-77670485D02*
X158810839Y-77632390D01*
X158810839Y-77632390D02*
X158734649Y-77594295D01*
X158734649Y-77594295D02*
X158582268Y-77594295D01*
X158582268Y-77594295D02*
X158506077Y-77632390D01*
X158506077Y-77632390D02*
X158467982Y-77670485D01*
X158467982Y-77670485D02*
X158429887Y-77746676D01*
X158429887Y-77746676D02*
X158429887Y-77784771D01*
X158429887Y-77784771D02*
X158467982Y-77860961D01*
X158467982Y-77860961D02*
X158506077Y-77899057D01*
X158506077Y-77899057D02*
X158582268Y-77937152D01*
X158582268Y-77937152D02*
X158734649Y-77937152D01*
X158734649Y-77937152D02*
X158810839Y-77975247D01*
X158810839Y-77975247D02*
X158848934Y-78013342D01*
X158848934Y-78013342D02*
X158887030Y-78089533D01*
X158887030Y-78089533D02*
X158887030Y-78241914D01*
X158887030Y-78241914D02*
X158848934Y-78318104D01*
X158848934Y-78318104D02*
X158810839Y-78356200D01*
X158810839Y-78356200D02*
X158734649Y-78394295D01*
X158734649Y-78394295D02*
X158582268Y-78394295D01*
X158582268Y-78394295D02*
X158506077Y-78356200D01*
X158506077Y-78356200D02*
X158467982Y-78318104D01*
X158467982Y-78318104D02*
X158429887Y-78241914D01*
X158429887Y-78241914D02*
X158429887Y-78089533D01*
X158429887Y-78089533D02*
X158467982Y-78013342D01*
X158467982Y-78013342D02*
X158506077Y-77975247D01*
X158506077Y-77975247D02*
X158582268Y-77937152D01*
X160791792Y-70632390D02*
X160867982Y-70594295D01*
X160867982Y-70594295D02*
X160982268Y-70594295D01*
X160982268Y-70594295D02*
X161096554Y-70632390D01*
X161096554Y-70632390D02*
X161172744Y-70708580D01*
X161172744Y-70708580D02*
X161210839Y-70784771D01*
X161210839Y-70784771D02*
X161248935Y-70937152D01*
X161248935Y-70937152D02*
X161248935Y-71051438D01*
X161248935Y-71051438D02*
X161210839Y-71203819D01*
X161210839Y-71203819D02*
X161172744Y-71280009D01*
X161172744Y-71280009D02*
X161096554Y-71356200D01*
X161096554Y-71356200D02*
X160982268Y-71394295D01*
X160982268Y-71394295D02*
X160906077Y-71394295D01*
X160906077Y-71394295D02*
X160791792Y-71356200D01*
X160791792Y-71356200D02*
X160753696Y-71318104D01*
X160753696Y-71318104D02*
X160753696Y-71051438D01*
X160753696Y-71051438D02*
X160906077Y-71051438D01*
X160410839Y-71394295D02*
X160410839Y-70594295D01*
X160410839Y-70594295D02*
X160106077Y-70594295D01*
X160106077Y-70594295D02*
X160029887Y-70632390D01*
X160029887Y-70632390D02*
X159991792Y-70670485D01*
X159991792Y-70670485D02*
X159953696Y-70746676D01*
X159953696Y-70746676D02*
X159953696Y-70860961D01*
X159953696Y-70860961D02*
X159991792Y-70937152D01*
X159991792Y-70937152D02*
X160029887Y-70975247D01*
X160029887Y-70975247D02*
X160106077Y-71013342D01*
X160106077Y-71013342D02*
X160410839Y-71013342D01*
X159687030Y-70594295D02*
X159153696Y-70594295D01*
X159153696Y-70594295D02*
X159496554Y-71394295D01*
X160791792Y-76132390D02*
X160867982Y-76094295D01*
X160867982Y-76094295D02*
X160982268Y-76094295D01*
X160982268Y-76094295D02*
X161096554Y-76132390D01*
X161096554Y-76132390D02*
X161172744Y-76208580D01*
X161172744Y-76208580D02*
X161210839Y-76284771D01*
X161210839Y-76284771D02*
X161248935Y-76437152D01*
X161248935Y-76437152D02*
X161248935Y-76551438D01*
X161248935Y-76551438D02*
X161210839Y-76703819D01*
X161210839Y-76703819D02*
X161172744Y-76780009D01*
X161172744Y-76780009D02*
X161096554Y-76856200D01*
X161096554Y-76856200D02*
X160982268Y-76894295D01*
X160982268Y-76894295D02*
X160906077Y-76894295D01*
X160906077Y-76894295D02*
X160791792Y-76856200D01*
X160791792Y-76856200D02*
X160753696Y-76818104D01*
X160753696Y-76818104D02*
X160753696Y-76551438D01*
X160753696Y-76551438D02*
X160906077Y-76551438D01*
X160410839Y-76894295D02*
X160410839Y-76094295D01*
X160410839Y-76094295D02*
X160106077Y-76094295D01*
X160106077Y-76094295D02*
X160029887Y-76132390D01*
X160029887Y-76132390D02*
X159991792Y-76170485D01*
X159991792Y-76170485D02*
X159953696Y-76246676D01*
X159953696Y-76246676D02*
X159953696Y-76360961D01*
X159953696Y-76360961D02*
X159991792Y-76437152D01*
X159991792Y-76437152D02*
X160029887Y-76475247D01*
X160029887Y-76475247D02*
X160106077Y-76513342D01*
X160106077Y-76513342D02*
X160410839Y-76513342D01*
X159648935Y-76170485D02*
X159610839Y-76132390D01*
X159610839Y-76132390D02*
X159534649Y-76094295D01*
X159534649Y-76094295D02*
X159344173Y-76094295D01*
X159344173Y-76094295D02*
X159267982Y-76132390D01*
X159267982Y-76132390D02*
X159229887Y-76170485D01*
X159229887Y-76170485D02*
X159191792Y-76246676D01*
X159191792Y-76246676D02*
X159191792Y-76322866D01*
X159191792Y-76322866D02*
X159229887Y-76437152D01*
X159229887Y-76437152D02*
X159687030Y-76894295D01*
X159687030Y-76894295D02*
X159191792Y-76894295D01*
X158887030Y-76170485D02*
X158848934Y-76132390D01*
X158848934Y-76132390D02*
X158772744Y-76094295D01*
X158772744Y-76094295D02*
X158582268Y-76094295D01*
X158582268Y-76094295D02*
X158506077Y-76132390D01*
X158506077Y-76132390D02*
X158467982Y-76170485D01*
X158467982Y-76170485D02*
X158429887Y-76246676D01*
X158429887Y-76246676D02*
X158429887Y-76322866D01*
X158429887Y-76322866D02*
X158467982Y-76437152D01*
X158467982Y-76437152D02*
X158925125Y-76894295D01*
X158925125Y-76894295D02*
X158429887Y-76894295D01*
X160791792Y-58132390D02*
X160867982Y-58094295D01*
X160867982Y-58094295D02*
X160982268Y-58094295D01*
X160982268Y-58094295D02*
X161096554Y-58132390D01*
X161096554Y-58132390D02*
X161172744Y-58208580D01*
X161172744Y-58208580D02*
X161210839Y-58284771D01*
X161210839Y-58284771D02*
X161248935Y-58437152D01*
X161248935Y-58437152D02*
X161248935Y-58551438D01*
X161248935Y-58551438D02*
X161210839Y-58703819D01*
X161210839Y-58703819D02*
X161172744Y-58780009D01*
X161172744Y-58780009D02*
X161096554Y-58856200D01*
X161096554Y-58856200D02*
X160982268Y-58894295D01*
X160982268Y-58894295D02*
X160906077Y-58894295D01*
X160906077Y-58894295D02*
X160791792Y-58856200D01*
X160791792Y-58856200D02*
X160753696Y-58818104D01*
X160753696Y-58818104D02*
X160753696Y-58551438D01*
X160753696Y-58551438D02*
X160906077Y-58551438D01*
X160410839Y-58894295D02*
X160410839Y-58094295D01*
X160410839Y-58094295D02*
X160106077Y-58094295D01*
X160106077Y-58094295D02*
X160029887Y-58132390D01*
X160029887Y-58132390D02*
X159991792Y-58170485D01*
X159991792Y-58170485D02*
X159953696Y-58246676D01*
X159953696Y-58246676D02*
X159953696Y-58360961D01*
X159953696Y-58360961D02*
X159991792Y-58437152D01*
X159991792Y-58437152D02*
X160029887Y-58475247D01*
X160029887Y-58475247D02*
X160106077Y-58513342D01*
X160106077Y-58513342D02*
X160410839Y-58513342D01*
X159648935Y-58170485D02*
X159610839Y-58132390D01*
X159610839Y-58132390D02*
X159534649Y-58094295D01*
X159534649Y-58094295D02*
X159344173Y-58094295D01*
X159344173Y-58094295D02*
X159267982Y-58132390D01*
X159267982Y-58132390D02*
X159229887Y-58170485D01*
X159229887Y-58170485D02*
X159191792Y-58246676D01*
X159191792Y-58246676D02*
X159191792Y-58322866D01*
X159191792Y-58322866D02*
X159229887Y-58437152D01*
X159229887Y-58437152D02*
X159687030Y-58894295D01*
X159687030Y-58894295D02*
X159191792Y-58894295D01*
X161248935Y-81665723D02*
X160867982Y-81665723D01*
X161325125Y-81894295D02*
X161058458Y-81094295D01*
X161058458Y-81094295D02*
X160791792Y-81894295D01*
X160525125Y-81894295D02*
X160525125Y-81094295D01*
X160525125Y-81094295D02*
X160334649Y-81094295D01*
X160334649Y-81094295D02*
X160220363Y-81132390D01*
X160220363Y-81132390D02*
X160144173Y-81208580D01*
X160144173Y-81208580D02*
X160106078Y-81284771D01*
X160106078Y-81284771D02*
X160067982Y-81437152D01*
X160067982Y-81437152D02*
X160067982Y-81551438D01*
X160067982Y-81551438D02*
X160106078Y-81703819D01*
X160106078Y-81703819D02*
X160144173Y-81780009D01*
X160144173Y-81780009D02*
X160220363Y-81856200D01*
X160220363Y-81856200D02*
X160334649Y-81894295D01*
X160334649Y-81894295D02*
X160525125Y-81894295D01*
X159267982Y-81818104D02*
X159306078Y-81856200D01*
X159306078Y-81856200D02*
X159420363Y-81894295D01*
X159420363Y-81894295D02*
X159496554Y-81894295D01*
X159496554Y-81894295D02*
X159610840Y-81856200D01*
X159610840Y-81856200D02*
X159687030Y-81780009D01*
X159687030Y-81780009D02*
X159725125Y-81703819D01*
X159725125Y-81703819D02*
X159763221Y-81551438D01*
X159763221Y-81551438D02*
X159763221Y-81437152D01*
X159763221Y-81437152D02*
X159725125Y-81284771D01*
X159725125Y-81284771D02*
X159687030Y-81208580D01*
X159687030Y-81208580D02*
X159610840Y-81132390D01*
X159610840Y-81132390D02*
X159496554Y-81094295D01*
X159496554Y-81094295D02*
X159420363Y-81094295D01*
X159420363Y-81094295D02*
X159306078Y-81132390D01*
X159306078Y-81132390D02*
X159267982Y-81170485D01*
X159115602Y-81970485D02*
X158506078Y-81970485D01*
X158429887Y-81094295D02*
X158163220Y-81894295D01*
X158163220Y-81894295D02*
X157896554Y-81094295D01*
X157172744Y-81894295D02*
X157439411Y-81513342D01*
X157629887Y-81894295D02*
X157629887Y-81094295D01*
X157629887Y-81094295D02*
X157325125Y-81094295D01*
X157325125Y-81094295D02*
X157248935Y-81132390D01*
X157248935Y-81132390D02*
X157210840Y-81170485D01*
X157210840Y-81170485D02*
X157172744Y-81246676D01*
X157172744Y-81246676D02*
X157172744Y-81360961D01*
X157172744Y-81360961D02*
X157210840Y-81437152D01*
X157210840Y-81437152D02*
X157248935Y-81475247D01*
X157248935Y-81475247D02*
X157325125Y-81513342D01*
X157325125Y-81513342D02*
X157629887Y-81513342D01*
X156829887Y-81475247D02*
X156563221Y-81475247D01*
X156448935Y-81894295D02*
X156829887Y-81894295D01*
X156829887Y-81894295D02*
X156829887Y-81094295D01*
X156829887Y-81094295D02*
X156448935Y-81094295D01*
X155839411Y-81475247D02*
X156106077Y-81475247D01*
X156106077Y-81894295D02*
X156106077Y-81094295D01*
X156106077Y-81094295D02*
X155725125Y-81094295D01*
X160791792Y-74132390D02*
X160867982Y-74094295D01*
X160867982Y-74094295D02*
X160982268Y-74094295D01*
X160982268Y-74094295D02*
X161096554Y-74132390D01*
X161096554Y-74132390D02*
X161172744Y-74208580D01*
X161172744Y-74208580D02*
X161210839Y-74284771D01*
X161210839Y-74284771D02*
X161248935Y-74437152D01*
X161248935Y-74437152D02*
X161248935Y-74551438D01*
X161248935Y-74551438D02*
X161210839Y-74703819D01*
X161210839Y-74703819D02*
X161172744Y-74780009D01*
X161172744Y-74780009D02*
X161096554Y-74856200D01*
X161096554Y-74856200D02*
X160982268Y-74894295D01*
X160982268Y-74894295D02*
X160906077Y-74894295D01*
X160906077Y-74894295D02*
X160791792Y-74856200D01*
X160791792Y-74856200D02*
X160753696Y-74818104D01*
X160753696Y-74818104D02*
X160753696Y-74551438D01*
X160753696Y-74551438D02*
X160906077Y-74551438D01*
X160410839Y-74894295D02*
X160410839Y-74094295D01*
X160410839Y-74094295D02*
X160106077Y-74094295D01*
X160106077Y-74094295D02*
X160029887Y-74132390D01*
X160029887Y-74132390D02*
X159991792Y-74170485D01*
X159991792Y-74170485D02*
X159953696Y-74246676D01*
X159953696Y-74246676D02*
X159953696Y-74360961D01*
X159953696Y-74360961D02*
X159991792Y-74437152D01*
X159991792Y-74437152D02*
X160029887Y-74475247D01*
X160029887Y-74475247D02*
X160106077Y-74513342D01*
X160106077Y-74513342D02*
X160410839Y-74513342D01*
X159191792Y-74894295D02*
X159648935Y-74894295D01*
X159420363Y-74894295D02*
X159420363Y-74094295D01*
X159420363Y-74094295D02*
X159496554Y-74208580D01*
X159496554Y-74208580D02*
X159572744Y-74284771D01*
X159572744Y-74284771D02*
X159648935Y-74322866D01*
X158925125Y-74094295D02*
X158391791Y-74094295D01*
X158391791Y-74094295D02*
X158734649Y-74894295D01*
X160291792Y-55632390D02*
X160367982Y-55594295D01*
X160367982Y-55594295D02*
X160482268Y-55594295D01*
X160482268Y-55594295D02*
X160596554Y-55632390D01*
X160596554Y-55632390D02*
X160672744Y-55708580D01*
X160672744Y-55708580D02*
X160710839Y-55784771D01*
X160710839Y-55784771D02*
X160748935Y-55937152D01*
X160748935Y-55937152D02*
X160748935Y-56051438D01*
X160748935Y-56051438D02*
X160710839Y-56203819D01*
X160710839Y-56203819D02*
X160672744Y-56280009D01*
X160672744Y-56280009D02*
X160596554Y-56356200D01*
X160596554Y-56356200D02*
X160482268Y-56394295D01*
X160482268Y-56394295D02*
X160406077Y-56394295D01*
X160406077Y-56394295D02*
X160291792Y-56356200D01*
X160291792Y-56356200D02*
X160253696Y-56318104D01*
X160253696Y-56318104D02*
X160253696Y-56051438D01*
X160253696Y-56051438D02*
X160406077Y-56051438D01*
X159910839Y-56394295D02*
X159910839Y-55594295D01*
X159910839Y-55594295D02*
X159606077Y-55594295D01*
X159606077Y-55594295D02*
X159529887Y-55632390D01*
X159529887Y-55632390D02*
X159491792Y-55670485D01*
X159491792Y-55670485D02*
X159453696Y-55746676D01*
X159453696Y-55746676D02*
X159453696Y-55860961D01*
X159453696Y-55860961D02*
X159491792Y-55937152D01*
X159491792Y-55937152D02*
X159529887Y-55975247D01*
X159529887Y-55975247D02*
X159606077Y-56013342D01*
X159606077Y-56013342D02*
X159910839Y-56013342D01*
X158958458Y-55594295D02*
X158882268Y-55594295D01*
X158882268Y-55594295D02*
X158806077Y-55632390D01*
X158806077Y-55632390D02*
X158767982Y-55670485D01*
X158767982Y-55670485D02*
X158729887Y-55746676D01*
X158729887Y-55746676D02*
X158691792Y-55899057D01*
X158691792Y-55899057D02*
X158691792Y-56089533D01*
X158691792Y-56089533D02*
X158729887Y-56241914D01*
X158729887Y-56241914D02*
X158767982Y-56318104D01*
X158767982Y-56318104D02*
X158806077Y-56356200D01*
X158806077Y-56356200D02*
X158882268Y-56394295D01*
X158882268Y-56394295D02*
X158958458Y-56394295D01*
X158958458Y-56394295D02*
X159034649Y-56356200D01*
X159034649Y-56356200D02*
X159072744Y-56318104D01*
X159072744Y-56318104D02*
X159110839Y-56241914D01*
X159110839Y-56241914D02*
X159148935Y-56089533D01*
X159148935Y-56089533D02*
X159148935Y-55899057D01*
X159148935Y-55899057D02*
X159110839Y-55746676D01*
X159110839Y-55746676D02*
X159072744Y-55670485D01*
X159072744Y-55670485D02*
X159034649Y-55632390D01*
X159034649Y-55632390D02*
X158958458Y-55594295D01*
X108703333Y-50724819D02*
X108703333Y-51439104D01*
X108703333Y-51439104D02*
X108750952Y-51581961D01*
X108750952Y-51581961D02*
X108846190Y-51677200D01*
X108846190Y-51677200D02*
X108989047Y-51724819D01*
X108989047Y-51724819D02*
X109084285Y-51724819D01*
X107703333Y-51724819D02*
X108274761Y-51724819D01*
X107989047Y-51724819D02*
X107989047Y-50724819D01*
X107989047Y-50724819D02*
X108084285Y-50867676D01*
X108084285Y-50867676D02*
X108179523Y-50962914D01*
X108179523Y-50962914D02*
X108274761Y-51010533D01*
D11*
X107040000Y-44900000D02*
X107040000Y-47500000D01*
X107040000Y-44900000D02*
X157960000Y-44900000D01*
X107040000Y-47500000D02*
X109640000Y-47500000D01*
X107040000Y-48770000D02*
X107040000Y-50100000D01*
X107040000Y-50100000D02*
X108370000Y-50100000D01*
X109640000Y-47500000D02*
X109640000Y-50100000D01*
X109640000Y-50100000D02*
X157960000Y-50100000D01*
X157960000Y-44900000D02*
X157960000Y-50100000D01*
%LPC*%
G36*
X129840285Y-96343060D02*
G01*
X130021397Y-96418079D01*
X130184393Y-96526990D01*
X130323010Y-96665607D01*
X130431921Y-96828603D01*
X130506940Y-97009715D01*
X130545185Y-97201983D01*
X130545185Y-97398017D01*
X130506940Y-97590285D01*
X130431921Y-97771397D01*
X130323010Y-97934393D01*
X130184393Y-98073010D01*
X130021397Y-98181921D01*
X129840285Y-98256940D01*
X129648017Y-98295185D01*
X129451983Y-98295185D01*
X129259715Y-98256940D01*
X129078603Y-98181921D01*
X128915607Y-98073010D01*
X128776990Y-97934393D01*
X128668079Y-97771397D01*
X128593060Y-97590285D01*
X128554815Y-97398017D01*
X128554815Y-97201983D01*
X128593060Y-97009715D01*
X128668079Y-96828603D01*
X128776990Y-96665607D01*
X128915607Y-96526990D01*
X129078603Y-96418079D01*
X129259715Y-96343060D01*
X129451983Y-96304815D01*
X129648017Y-96304815D01*
X129840285Y-96343060D01*
G37*
G36*
X134340285Y-96343060D02*
G01*
X134521397Y-96418079D01*
X134684393Y-96526990D01*
X134823010Y-96665607D01*
X134931921Y-96828603D01*
X135006940Y-97009715D01*
X135045185Y-97201983D01*
X135045185Y-97398017D01*
X135006940Y-97590285D01*
X134931921Y-97771397D01*
X134823010Y-97934393D01*
X134684393Y-98073010D01*
X134521397Y-98181921D01*
X134340285Y-98256940D01*
X134148017Y-98295185D01*
X133951983Y-98295185D01*
X133759715Y-98256940D01*
X133578603Y-98181921D01*
X133415607Y-98073010D01*
X133276990Y-97934393D01*
X133168079Y-97771397D01*
X133093060Y-97590285D01*
X133054815Y-97398017D01*
X133054815Y-97201983D01*
X133093060Y-97009715D01*
X133168079Y-96828603D01*
X133276990Y-96665607D01*
X133415607Y-96526990D01*
X133578603Y-96418079D01*
X133759715Y-96343060D01*
X133951983Y-96304815D01*
X134148017Y-96304815D01*
X134340285Y-96343060D01*
G37*
G36*
X138940285Y-96293060D02*
G01*
X139121397Y-96368079D01*
X139284393Y-96476990D01*
X139423010Y-96615607D01*
X139531921Y-96778603D01*
X139606940Y-96959715D01*
X139645185Y-97151983D01*
X139645185Y-97348017D01*
X139606940Y-97540285D01*
X139531921Y-97721397D01*
X139423010Y-97884393D01*
X139284393Y-98023010D01*
X139121397Y-98131921D01*
X138940285Y-98206940D01*
X138748017Y-98245185D01*
X138551983Y-98245185D01*
X138359715Y-98206940D01*
X138178603Y-98131921D01*
X138015607Y-98023010D01*
X137876990Y-97884393D01*
X137768079Y-97721397D01*
X137693060Y-97540285D01*
X137654815Y-97348017D01*
X137654815Y-97151983D01*
X137693060Y-96959715D01*
X137768079Y-96778603D01*
X137876990Y-96615607D01*
X138015607Y-96476990D01*
X138178603Y-96368079D01*
X138359715Y-96293060D01*
X138551983Y-96254815D01*
X138748017Y-96254815D01*
X138940285Y-96293060D01*
G37*
G36*
X143440285Y-96293060D02*
G01*
X143621397Y-96368079D01*
X143784393Y-96476990D01*
X143923010Y-96615607D01*
X144031921Y-96778603D01*
X144106940Y-96959715D01*
X144145185Y-97151983D01*
X144145185Y-97348017D01*
X144106940Y-97540285D01*
X144031921Y-97721397D01*
X143923010Y-97884393D01*
X143784393Y-98023010D01*
X143621397Y-98131921D01*
X143440285Y-98206940D01*
X143248017Y-98245185D01*
X143051983Y-98245185D01*
X142859715Y-98206940D01*
X142678603Y-98131921D01*
X142515607Y-98023010D01*
X142376990Y-97884393D01*
X142268079Y-97721397D01*
X142193060Y-97540285D01*
X142154815Y-97348017D01*
X142154815Y-97151983D01*
X142193060Y-96959715D01*
X142268079Y-96778603D01*
X142376990Y-96615607D01*
X142515607Y-96476990D01*
X142678603Y-96368079D01*
X142859715Y-96293060D01*
X143051983Y-96254815D01*
X143248017Y-96254815D01*
X143440285Y-96293060D01*
G37*
G36*
X103815151Y-95187301D02*
G01*
X104016623Y-95252763D01*
X104205373Y-95348936D01*
X104376755Y-95473452D01*
X104526548Y-95623245D01*
X104651064Y-95794627D01*
X104747237Y-95983377D01*
X104812699Y-96184849D01*
X104845838Y-96394080D01*
X104845838Y-96605920D01*
X104812699Y-96815151D01*
X104747237Y-97016623D01*
X104651064Y-97205373D01*
X104526548Y-97376755D01*
X104376755Y-97526548D01*
X104205373Y-97651064D01*
X104016623Y-97747237D01*
X103815151Y-97812699D01*
X103605920Y-97845838D01*
X103394080Y-97845838D01*
X103184849Y-97812699D01*
X102983377Y-97747237D01*
X102794627Y-97651064D01*
X102623245Y-97526548D01*
X102473452Y-97376755D01*
X102348936Y-97205373D01*
X102252763Y-97016623D01*
X102187301Y-96815151D01*
X102154162Y-96605920D01*
X102154162Y-96394080D01*
X102187301Y-96184849D01*
X102252763Y-95983377D01*
X102348936Y-95794627D01*
X102473452Y-95623245D01*
X102623245Y-95473452D01*
X102794627Y-95348936D01*
X102983377Y-95252763D01*
X103184849Y-95187301D01*
X103394080Y-95154162D01*
X103605920Y-95154162D01*
X103815151Y-95187301D01*
G37*
G36*
X161815151Y-95187301D02*
G01*
X162016623Y-95252763D01*
X162205373Y-95348936D01*
X162376755Y-95473452D01*
X162526548Y-95623245D01*
X162651064Y-95794627D01*
X162747237Y-95983377D01*
X162812699Y-96184849D01*
X162845838Y-96394080D01*
X162845838Y-96605920D01*
X162812699Y-96815151D01*
X162747237Y-97016623D01*
X162651064Y-97205373D01*
X162526548Y-97376755D01*
X162376755Y-97526548D01*
X162205373Y-97651064D01*
X162016623Y-97747237D01*
X161815151Y-97812699D01*
X161605920Y-97845838D01*
X161394080Y-97845838D01*
X161184849Y-97812699D01*
X160983377Y-97747237D01*
X160794627Y-97651064D01*
X160623245Y-97526548D01*
X160473452Y-97376755D01*
X160348936Y-97205373D01*
X160252763Y-97016623D01*
X160187301Y-96815151D01*
X160154162Y-96605920D01*
X160154162Y-96394080D01*
X160187301Y-96184849D01*
X160252763Y-95983377D01*
X160348936Y-95794627D01*
X160473452Y-95623245D01*
X160623245Y-95473452D01*
X160794627Y-95348936D01*
X160983377Y-95252763D01*
X161184849Y-95187301D01*
X161394080Y-95154162D01*
X161605920Y-95154162D01*
X161815151Y-95187301D01*
G37*
G36*
X110566742Y-94826601D02*
G01*
X110720687Y-94890367D01*
X110859234Y-94982941D01*
X110977059Y-95100766D01*
X111069633Y-95239313D01*
X111133399Y-95393258D01*
X111165907Y-95556685D01*
X111165907Y-95723315D01*
X111133399Y-95886742D01*
X111069633Y-96040687D01*
X110977059Y-96179234D01*
X110859234Y-96297059D01*
X110720687Y-96389633D01*
X110566742Y-96453399D01*
X110403315Y-96485907D01*
X110236685Y-96485907D01*
X110073258Y-96453399D01*
X109919313Y-96389633D01*
X109780766Y-96297059D01*
X109662941Y-96179234D01*
X109570367Y-96040687D01*
X109506601Y-95886742D01*
X109474093Y-95723315D01*
X109474093Y-95556685D01*
X109506601Y-95393258D01*
X109570367Y-95239313D01*
X109662941Y-95100766D01*
X109780766Y-94982941D01*
X109919313Y-94890367D01*
X110073258Y-94826601D01*
X110236685Y-94794093D01*
X110403315Y-94794093D01*
X110566742Y-94826601D01*
G37*
G36*
X115656742Y-94826601D02*
G01*
X115810687Y-94890367D01*
X115949234Y-94982941D01*
X116067059Y-95100766D01*
X116159633Y-95239313D01*
X116223399Y-95393258D01*
X116255907Y-95556685D01*
X116255907Y-95723315D01*
X116223399Y-95886742D01*
X116159633Y-96040687D01*
X116067059Y-96179234D01*
X115949234Y-96297059D01*
X115810687Y-96389633D01*
X115656742Y-96453399D01*
X115493315Y-96485907D01*
X115326685Y-96485907D01*
X115163258Y-96453399D01*
X115009313Y-96389633D01*
X114870766Y-96297059D01*
X114752941Y-96179234D01*
X114660367Y-96040687D01*
X114596601Y-95886742D01*
X114564093Y-95723315D01*
X114564093Y-95556685D01*
X114596601Y-95393258D01*
X114660367Y-95239313D01*
X114752941Y-95100766D01*
X114870766Y-94982941D01*
X115009313Y-94890367D01*
X115163258Y-94826601D01*
X115326685Y-94794093D01*
X115493315Y-94794093D01*
X115656742Y-94826601D01*
G37*
G36*
X119873000Y-95200000D02*
G01*
X118073000Y-95200000D01*
X118073000Y-93400000D01*
X119873000Y-93400000D01*
X119873000Y-95200000D01*
G37*
G36*
X121393256Y-93438754D02*
G01*
X121556257Y-93506271D01*
X121702954Y-93604291D01*
X121827709Y-93729046D01*
X121925729Y-93875743D01*
X121993246Y-94038744D01*
X122027666Y-94211785D01*
X122027666Y-94388215D01*
X121993246Y-94561256D01*
X121925729Y-94724257D01*
X121827709Y-94870954D01*
X121702954Y-94995709D01*
X121556257Y-95093729D01*
X121393256Y-95161246D01*
X121220215Y-95195666D01*
X121043785Y-95195666D01*
X120870744Y-95161246D01*
X120707743Y-95093729D01*
X120561046Y-94995709D01*
X120436291Y-94870954D01*
X120338271Y-94724257D01*
X120270754Y-94561256D01*
X120236334Y-94388215D01*
X120236334Y-94211785D01*
X120270754Y-94038744D01*
X120338271Y-93875743D01*
X120436291Y-93729046D01*
X120561046Y-93604291D01*
X120707743Y-93506271D01*
X120870744Y-93438754D01*
X121043785Y-93404334D01*
X121220215Y-93404334D01*
X121393256Y-93438754D01*
G37*
G36*
X123552256Y-93438754D02*
G01*
X123715257Y-93506271D01*
X123861954Y-93604291D01*
X123986709Y-93729046D01*
X124084729Y-93875743D01*
X124152246Y-94038744D01*
X124186666Y-94211785D01*
X124186666Y-94388215D01*
X124152246Y-94561256D01*
X124084729Y-94724257D01*
X123986709Y-94870954D01*
X123861954Y-94995709D01*
X123715257Y-95093729D01*
X123552256Y-95161246D01*
X123379215Y-95195666D01*
X123202785Y-95195666D01*
X123029744Y-95161246D01*
X122866743Y-95093729D01*
X122720046Y-94995709D01*
X122595291Y-94870954D01*
X122497271Y-94724257D01*
X122429754Y-94561256D01*
X122395334Y-94388215D01*
X122395334Y-94211785D01*
X122429754Y-94038744D01*
X122497271Y-93875743D01*
X122595291Y-93729046D01*
X122720046Y-93604291D01*
X122866743Y-93506271D01*
X123029744Y-93438754D01*
X123202785Y-93404334D01*
X123379215Y-93404334D01*
X123552256Y-93438754D01*
G37*
G36*
X125711256Y-93438754D02*
G01*
X125874257Y-93506271D01*
X126020954Y-93604291D01*
X126145709Y-93729046D01*
X126243729Y-93875743D01*
X126311246Y-94038744D01*
X126345666Y-94211785D01*
X126345666Y-94388215D01*
X126311246Y-94561256D01*
X126243729Y-94724257D01*
X126145709Y-94870954D01*
X126020954Y-94995709D01*
X125874257Y-95093729D01*
X125711256Y-95161246D01*
X125538215Y-95195666D01*
X125361785Y-95195666D01*
X125188744Y-95161246D01*
X125025743Y-95093729D01*
X124879046Y-94995709D01*
X124754291Y-94870954D01*
X124656271Y-94724257D01*
X124588754Y-94561256D01*
X124554334Y-94388215D01*
X124554334Y-94211785D01*
X124588754Y-94038744D01*
X124656271Y-93875743D01*
X124754291Y-93729046D01*
X124879046Y-93604291D01*
X125025743Y-93506271D01*
X125188744Y-93438754D01*
X125361785Y-93404334D01*
X125538215Y-93404334D01*
X125711256Y-93438754D01*
G37*
G36*
X110566742Y-92286601D02*
G01*
X110720687Y-92350367D01*
X110859234Y-92442941D01*
X110977059Y-92560766D01*
X111069633Y-92699313D01*
X111133399Y-92853258D01*
X111165907Y-93016685D01*
X111165907Y-93183315D01*
X111133399Y-93346742D01*
X111069633Y-93500687D01*
X110977059Y-93639234D01*
X110859234Y-93757059D01*
X110720687Y-93849633D01*
X110566742Y-93913399D01*
X110403315Y-93945907D01*
X110236685Y-93945907D01*
X110073258Y-93913399D01*
X109919313Y-93849633D01*
X109780766Y-93757059D01*
X109662941Y-93639234D01*
X109570367Y-93500687D01*
X109506601Y-93346742D01*
X109474093Y-93183315D01*
X109474093Y-93016685D01*
X109506601Y-92853258D01*
X109570367Y-92699313D01*
X109662941Y-92560766D01*
X109780766Y-92442941D01*
X109919313Y-92350367D01*
X110073258Y-92286601D01*
X110236685Y-92254093D01*
X110403315Y-92254093D01*
X110566742Y-92286601D01*
G37*
G36*
X115656742Y-92286601D02*
G01*
X115810687Y-92350367D01*
X115949234Y-92442941D01*
X116067059Y-92560766D01*
X116159633Y-92699313D01*
X116223399Y-92853258D01*
X116255907Y-93016685D01*
X116255907Y-93183315D01*
X116223399Y-93346742D01*
X116159633Y-93500687D01*
X116067059Y-93639234D01*
X115949234Y-93757059D01*
X115810687Y-93849633D01*
X115656742Y-93913399D01*
X115493315Y-93945907D01*
X115326685Y-93945907D01*
X115163258Y-93913399D01*
X115009313Y-93849633D01*
X114870766Y-93757059D01*
X114752941Y-93639234D01*
X114660367Y-93500687D01*
X114596601Y-93346742D01*
X114564093Y-93183315D01*
X114564093Y-93016685D01*
X114596601Y-92853258D01*
X114660367Y-92699313D01*
X114752941Y-92560766D01*
X114870766Y-92442941D01*
X115009313Y-92350367D01*
X115163258Y-92286601D01*
X115326685Y-92254093D01*
X115493315Y-92254093D01*
X115656742Y-92286601D01*
G37*
G36*
X129840285Y-89843060D02*
G01*
X130021397Y-89918079D01*
X130184393Y-90026990D01*
X130323010Y-90165607D01*
X130431921Y-90328603D01*
X130506940Y-90509715D01*
X130545185Y-90701983D01*
X130545185Y-90898017D01*
X130506940Y-91090285D01*
X130431921Y-91271397D01*
X130323010Y-91434393D01*
X130184393Y-91573010D01*
X130021397Y-91681921D01*
X129840285Y-91756940D01*
X129648017Y-91795185D01*
X129451983Y-91795185D01*
X129259715Y-91756940D01*
X129078603Y-91681921D01*
X128915607Y-91573010D01*
X128776990Y-91434393D01*
X128668079Y-91271397D01*
X128593060Y-91090285D01*
X128554815Y-90898017D01*
X128554815Y-90701983D01*
X128593060Y-90509715D01*
X128668079Y-90328603D01*
X128776990Y-90165607D01*
X128915607Y-90026990D01*
X129078603Y-89918079D01*
X129259715Y-89843060D01*
X129451983Y-89804815D01*
X129648017Y-89804815D01*
X129840285Y-89843060D01*
G37*
G36*
X134340285Y-89843060D02*
G01*
X134521397Y-89918079D01*
X134684393Y-90026990D01*
X134823010Y-90165607D01*
X134931921Y-90328603D01*
X135006940Y-90509715D01*
X135045185Y-90701983D01*
X135045185Y-90898017D01*
X135006940Y-91090285D01*
X134931921Y-91271397D01*
X134823010Y-91434393D01*
X134684393Y-91573010D01*
X134521397Y-91681921D01*
X134340285Y-91756940D01*
X134148017Y-91795185D01*
X133951983Y-91795185D01*
X133759715Y-91756940D01*
X133578603Y-91681921D01*
X133415607Y-91573010D01*
X133276990Y-91434393D01*
X133168079Y-91271397D01*
X133093060Y-91090285D01*
X133054815Y-90898017D01*
X133054815Y-90701983D01*
X133093060Y-90509715D01*
X133168079Y-90328603D01*
X133276990Y-90165607D01*
X133415607Y-90026990D01*
X133578603Y-89918079D01*
X133759715Y-89843060D01*
X133951983Y-89804815D01*
X134148017Y-89804815D01*
X134340285Y-89843060D01*
G37*
G36*
X138940285Y-89793060D02*
G01*
X139121397Y-89868079D01*
X139284393Y-89976990D01*
X139423010Y-90115607D01*
X139531921Y-90278603D01*
X139606940Y-90459715D01*
X139645185Y-90651983D01*
X139645185Y-90848017D01*
X139606940Y-91040285D01*
X139531921Y-91221397D01*
X139423010Y-91384393D01*
X139284393Y-91523010D01*
X139121397Y-91631921D01*
X138940285Y-91706940D01*
X138748017Y-91745185D01*
X138551983Y-91745185D01*
X138359715Y-91706940D01*
X138178603Y-91631921D01*
X138015607Y-91523010D01*
X137876990Y-91384393D01*
X137768079Y-91221397D01*
X137693060Y-91040285D01*
X137654815Y-90848017D01*
X137654815Y-90651983D01*
X137693060Y-90459715D01*
X137768079Y-90278603D01*
X137876990Y-90115607D01*
X138015607Y-89976990D01*
X138178603Y-89868079D01*
X138359715Y-89793060D01*
X138551983Y-89754815D01*
X138748017Y-89754815D01*
X138940285Y-89793060D01*
G37*
G36*
X143440285Y-89793060D02*
G01*
X143621397Y-89868079D01*
X143784393Y-89976990D01*
X143923010Y-90115607D01*
X144031921Y-90278603D01*
X144106940Y-90459715D01*
X144145185Y-90651983D01*
X144145185Y-90848017D01*
X144106940Y-91040285D01*
X144031921Y-91221397D01*
X143923010Y-91384393D01*
X143784393Y-91523010D01*
X143621397Y-91631921D01*
X143440285Y-91706940D01*
X143248017Y-91745185D01*
X143051983Y-91745185D01*
X142859715Y-91706940D01*
X142678603Y-91631921D01*
X142515607Y-91523010D01*
X142376990Y-91384393D01*
X142268079Y-91221397D01*
X142193060Y-91040285D01*
X142154815Y-90848017D01*
X142154815Y-90651983D01*
X142193060Y-90459715D01*
X142268079Y-90278603D01*
X142376990Y-90115607D01*
X142515607Y-89976990D01*
X142678603Y-89868079D01*
X142859715Y-89793060D01*
X143051983Y-89754815D01*
X143248017Y-89754815D01*
X143440285Y-89793060D01*
G37*
G36*
X111170000Y-91410000D02*
G01*
X109470000Y-91410000D01*
X109470000Y-89710000D01*
X111170000Y-89710000D01*
X111170000Y-91410000D01*
G37*
G36*
X116260000Y-91410000D02*
G01*
X114560000Y-91410000D01*
X114560000Y-89710000D01*
X116260000Y-89710000D01*
X116260000Y-91410000D01*
G37*
G36*
X162746742Y-87686601D02*
G01*
X162900687Y-87750367D01*
X163039234Y-87842941D01*
X163157059Y-87960766D01*
X163249633Y-88099313D01*
X163313399Y-88253258D01*
X163345907Y-88416685D01*
X163345907Y-88583315D01*
X163313399Y-88746742D01*
X163249633Y-88900687D01*
X163157059Y-89039234D01*
X163039234Y-89157059D01*
X162900687Y-89249633D01*
X162746742Y-89313399D01*
X162583315Y-89345907D01*
X162416685Y-89345907D01*
X162253258Y-89313399D01*
X162099313Y-89249633D01*
X161960766Y-89157059D01*
X161842941Y-89039234D01*
X161750367Y-88900687D01*
X161686601Y-88746742D01*
X161654093Y-88583315D01*
X161654093Y-88416685D01*
X161686601Y-88253258D01*
X161750367Y-88099313D01*
X161842941Y-87960766D01*
X161960766Y-87842941D01*
X162099313Y-87750367D01*
X162253258Y-87686601D01*
X162416685Y-87654093D01*
X162583315Y-87654093D01*
X162746742Y-87686601D01*
G37*
G36*
X101882228Y-87584448D02*
G01*
X102027117Y-87644463D01*
X102157515Y-87731592D01*
X102268408Y-87842485D01*
X102355537Y-87972883D01*
X102415552Y-88117772D01*
X102446148Y-88271586D01*
X102446148Y-88428414D01*
X102415552Y-88582228D01*
X102355537Y-88727117D01*
X102268408Y-88857515D01*
X102157515Y-88968408D01*
X102027117Y-89055537D01*
X101882228Y-89115552D01*
X101728414Y-89146148D01*
X101571586Y-89146148D01*
X101417772Y-89115552D01*
X101272883Y-89055537D01*
X101142485Y-88968408D01*
X101031592Y-88857515D01*
X100944463Y-88727117D01*
X100884448Y-88582228D01*
X100853852Y-88428414D01*
X100853852Y-88271586D01*
X100884448Y-88117772D01*
X100944463Y-87972883D01*
X101031592Y-87842485D01*
X101142485Y-87731592D01*
X101272883Y-87644463D01*
X101417772Y-87584448D01*
X101571586Y-87553852D01*
X101728414Y-87553852D01*
X101882228Y-87584448D01*
G37*
G36*
X105082228Y-87584448D02*
G01*
X105227117Y-87644463D01*
X105357515Y-87731592D01*
X105468408Y-87842485D01*
X105555537Y-87972883D01*
X105615552Y-88117772D01*
X105646148Y-88271586D01*
X105646148Y-88428414D01*
X105615552Y-88582228D01*
X105555537Y-88727117D01*
X105468408Y-88857515D01*
X105357515Y-88968408D01*
X105227117Y-89055537D01*
X105082228Y-89115552D01*
X104928414Y-89146148D01*
X104771586Y-89146148D01*
X104617772Y-89115552D01*
X104472883Y-89055537D01*
X104342485Y-88968408D01*
X104231592Y-88857515D01*
X104144463Y-88727117D01*
X104084448Y-88582228D01*
X104053852Y-88428414D01*
X104053852Y-88271586D01*
X104084448Y-88117772D01*
X104144463Y-87972883D01*
X104231592Y-87842485D01*
X104342485Y-87731592D01*
X104472883Y-87644463D01*
X104617772Y-87584448D01*
X104771586Y-87553852D01*
X104928414Y-87553852D01*
X105082228Y-87584448D01*
G37*
G36*
X163350000Y-86810000D02*
G01*
X161650000Y-86810000D01*
X161650000Y-85110000D01*
X163350000Y-85110000D01*
X163350000Y-86810000D01*
G37*
G36*
X101882228Y-85084448D02*
G01*
X102027117Y-85144463D01*
X102157515Y-85231592D01*
X102268408Y-85342485D01*
X102355537Y-85472883D01*
X102415552Y-85617772D01*
X102446148Y-85771586D01*
X102446148Y-85928414D01*
X102415552Y-86082228D01*
X102355537Y-86227117D01*
X102268408Y-86357515D01*
X102157515Y-86468408D01*
X102027117Y-86555537D01*
X101882228Y-86615552D01*
X101728414Y-86646148D01*
X101571586Y-86646148D01*
X101417772Y-86615552D01*
X101272883Y-86555537D01*
X101142485Y-86468408D01*
X101031592Y-86357515D01*
X100944463Y-86227117D01*
X100884448Y-86082228D01*
X100853852Y-85928414D01*
X100853852Y-85771586D01*
X100884448Y-85617772D01*
X100944463Y-85472883D01*
X101031592Y-85342485D01*
X101142485Y-85231592D01*
X101272883Y-85144463D01*
X101417772Y-85084448D01*
X101571586Y-85053852D01*
X101728414Y-85053852D01*
X101882228Y-85084448D01*
G37*
G36*
X105082228Y-85084448D02*
G01*
X105227117Y-85144463D01*
X105357515Y-85231592D01*
X105468408Y-85342485D01*
X105555537Y-85472883D01*
X105615552Y-85617772D01*
X105646148Y-85771586D01*
X105646148Y-85928414D01*
X105615552Y-86082228D01*
X105555537Y-86227117D01*
X105468408Y-86357515D01*
X105357515Y-86468408D01*
X105227117Y-86555537D01*
X105082228Y-86615552D01*
X104928414Y-86646148D01*
X104771586Y-86646148D01*
X104617772Y-86615552D01*
X104472883Y-86555537D01*
X104342485Y-86468408D01*
X104231592Y-86357515D01*
X104144463Y-86227117D01*
X104084448Y-86082228D01*
X104053852Y-85928414D01*
X104053852Y-85771586D01*
X104084448Y-85617772D01*
X104144463Y-85472883D01*
X104231592Y-85342485D01*
X104342485Y-85231592D01*
X104472883Y-85144463D01*
X104617772Y-85084448D01*
X104771586Y-85053852D01*
X104928414Y-85053852D01*
X105082228Y-85084448D01*
G37*
G36*
X105650000Y-84150000D02*
G01*
X104050000Y-84150000D01*
X104050000Y-82550000D01*
X105650000Y-82550000D01*
X105650000Y-84150000D01*
G37*
G36*
X101882228Y-82584448D02*
G01*
X102027117Y-82644463D01*
X102157515Y-82731592D01*
X102268408Y-82842485D01*
X102355537Y-82972883D01*
X102415552Y-83117772D01*
X102446148Y-83271586D01*
X102446148Y-83428414D01*
X102415552Y-83582228D01*
X102355537Y-83727117D01*
X102268408Y-83857515D01*
X102157515Y-83968408D01*
X102027117Y-84055537D01*
X101882228Y-84115552D01*
X101728414Y-84146148D01*
X101571586Y-84146148D01*
X101417772Y-84115552D01*
X101272883Y-84055537D01*
X101142485Y-83968408D01*
X101031592Y-83857515D01*
X100944463Y-83727117D01*
X100884448Y-83582228D01*
X100853852Y-83428414D01*
X100853852Y-83271586D01*
X100884448Y-83117772D01*
X100944463Y-82972883D01*
X101031592Y-82842485D01*
X101142485Y-82731592D01*
X101272883Y-82644463D01*
X101417772Y-82584448D01*
X101571586Y-82553852D01*
X101728414Y-82553852D01*
X101882228Y-82584448D01*
G37*
G36*
X162746742Y-80506601D02*
G01*
X162900687Y-80570367D01*
X163039234Y-80662941D01*
X163157059Y-80780766D01*
X163249633Y-80919313D01*
X163313399Y-81073258D01*
X163345907Y-81236685D01*
X163345907Y-81403315D01*
X163313399Y-81566742D01*
X163249633Y-81720687D01*
X163157059Y-81859234D01*
X163039234Y-81977059D01*
X162900687Y-82069633D01*
X162746742Y-82133399D01*
X162583315Y-82165907D01*
X162416685Y-82165907D01*
X162253258Y-82133399D01*
X162099313Y-82069633D01*
X161960766Y-81977059D01*
X161842941Y-81859234D01*
X161750367Y-81720687D01*
X161686601Y-81566742D01*
X161654093Y-81403315D01*
X161654093Y-81236685D01*
X161686601Y-81073258D01*
X161750367Y-80919313D01*
X161842941Y-80780766D01*
X161960766Y-80662941D01*
X162099313Y-80570367D01*
X162253258Y-80506601D01*
X162416685Y-80474093D01*
X162583315Y-80474093D01*
X162746742Y-80506601D01*
G37*
G36*
X114730000Y-80300000D02*
G01*
X113030000Y-80300000D01*
X113030000Y-78600000D01*
X114730000Y-78600000D01*
X114730000Y-80300000D01*
G37*
G36*
X127430000Y-80300000D02*
G01*
X125730000Y-80300000D01*
X125730000Y-78600000D01*
X127430000Y-78600000D01*
X127430000Y-80300000D01*
G37*
G36*
X140130000Y-80300000D02*
G01*
X138430000Y-80300000D01*
X138430000Y-78600000D01*
X140130000Y-78600000D01*
X140130000Y-80300000D01*
G37*
G36*
X152830000Y-80300000D02*
G01*
X151130000Y-80300000D01*
X151130000Y-78600000D01*
X152830000Y-78600000D01*
X152830000Y-80300000D01*
G37*
G36*
X109046742Y-78636601D02*
G01*
X109200687Y-78700367D01*
X109339234Y-78792941D01*
X109457059Y-78910766D01*
X109549633Y-79049313D01*
X109613399Y-79203258D01*
X109645907Y-79366685D01*
X109645907Y-79533315D01*
X109613399Y-79696742D01*
X109549633Y-79850687D01*
X109457059Y-79989234D01*
X109339234Y-80107059D01*
X109200687Y-80199633D01*
X109046742Y-80263399D01*
X108883315Y-80295907D01*
X108716685Y-80295907D01*
X108553258Y-80263399D01*
X108399313Y-80199633D01*
X108260766Y-80107059D01*
X108142941Y-79989234D01*
X108050367Y-79850687D01*
X107986601Y-79696742D01*
X107954093Y-79533315D01*
X107954093Y-79366685D01*
X107986601Y-79203258D01*
X108050367Y-79049313D01*
X108142941Y-78910766D01*
X108260766Y-78792941D01*
X108399313Y-78700367D01*
X108553258Y-78636601D01*
X108716685Y-78604093D01*
X108883315Y-78604093D01*
X109046742Y-78636601D01*
G37*
G36*
X111586742Y-78636601D02*
G01*
X111740687Y-78700367D01*
X111879234Y-78792941D01*
X111997059Y-78910766D01*
X112089633Y-79049313D01*
X112153399Y-79203258D01*
X112185907Y-79366685D01*
X112185907Y-79533315D01*
X112153399Y-79696742D01*
X112089633Y-79850687D01*
X111997059Y-79989234D01*
X111879234Y-80107059D01*
X111740687Y-80199633D01*
X111586742Y-80263399D01*
X111423315Y-80295907D01*
X111256685Y-80295907D01*
X111093258Y-80263399D01*
X110939313Y-80199633D01*
X110800766Y-80107059D01*
X110682941Y-79989234D01*
X110590367Y-79850687D01*
X110526601Y-79696742D01*
X110494093Y-79533315D01*
X110494093Y-79366685D01*
X110526601Y-79203258D01*
X110590367Y-79049313D01*
X110682941Y-78910766D01*
X110800766Y-78792941D01*
X110939313Y-78700367D01*
X111093258Y-78636601D01*
X111256685Y-78604093D01*
X111423315Y-78604093D01*
X111586742Y-78636601D01*
G37*
G36*
X116666742Y-78636601D02*
G01*
X116820687Y-78700367D01*
X116959234Y-78792941D01*
X117077059Y-78910766D01*
X117169633Y-79049313D01*
X117233399Y-79203258D01*
X117265907Y-79366685D01*
X117265907Y-79533315D01*
X117233399Y-79696742D01*
X117169633Y-79850687D01*
X117077059Y-79989234D01*
X116959234Y-80107059D01*
X116820687Y-80199633D01*
X116666742Y-80263399D01*
X116503315Y-80295907D01*
X116336685Y-80295907D01*
X116173258Y-80263399D01*
X116019313Y-80199633D01*
X115880766Y-80107059D01*
X115762941Y-79989234D01*
X115670367Y-79850687D01*
X115606601Y-79696742D01*
X115574093Y-79533315D01*
X115574093Y-79366685D01*
X115606601Y-79203258D01*
X115670367Y-79049313D01*
X115762941Y-78910766D01*
X115880766Y-78792941D01*
X116019313Y-78700367D01*
X116173258Y-78636601D01*
X116336685Y-78604093D01*
X116503315Y-78604093D01*
X116666742Y-78636601D01*
G37*
G36*
X119206742Y-78636601D02*
G01*
X119360687Y-78700367D01*
X119499234Y-78792941D01*
X119617059Y-78910766D01*
X119709633Y-79049313D01*
X119773399Y-79203258D01*
X119805907Y-79366685D01*
X119805907Y-79533315D01*
X119773399Y-79696742D01*
X119709633Y-79850687D01*
X119617059Y-79989234D01*
X119499234Y-80107059D01*
X119360687Y-80199633D01*
X119206742Y-80263399D01*
X119043315Y-80295907D01*
X118876685Y-80295907D01*
X118713258Y-80263399D01*
X118559313Y-80199633D01*
X118420766Y-80107059D01*
X118302941Y-79989234D01*
X118210367Y-79850687D01*
X118146601Y-79696742D01*
X118114093Y-79533315D01*
X118114093Y-79366685D01*
X118146601Y-79203258D01*
X118210367Y-79049313D01*
X118302941Y-78910766D01*
X118420766Y-78792941D01*
X118559313Y-78700367D01*
X118713258Y-78636601D01*
X118876685Y-78604093D01*
X119043315Y-78604093D01*
X119206742Y-78636601D01*
G37*
G36*
X121746742Y-78636601D02*
G01*
X121900687Y-78700367D01*
X122039234Y-78792941D01*
X122157059Y-78910766D01*
X122249633Y-79049313D01*
X122313399Y-79203258D01*
X122345907Y-79366685D01*
X122345907Y-79533315D01*
X122313399Y-79696742D01*
X122249633Y-79850687D01*
X122157059Y-79989234D01*
X122039234Y-80107059D01*
X121900687Y-80199633D01*
X121746742Y-80263399D01*
X121583315Y-80295907D01*
X121416685Y-80295907D01*
X121253258Y-80263399D01*
X121099313Y-80199633D01*
X120960766Y-80107059D01*
X120842941Y-79989234D01*
X120750367Y-79850687D01*
X120686601Y-79696742D01*
X120654093Y-79533315D01*
X120654093Y-79366685D01*
X120686601Y-79203258D01*
X120750367Y-79049313D01*
X120842941Y-78910766D01*
X120960766Y-78792941D01*
X121099313Y-78700367D01*
X121253258Y-78636601D01*
X121416685Y-78604093D01*
X121583315Y-78604093D01*
X121746742Y-78636601D01*
G37*
G36*
X124286742Y-78636601D02*
G01*
X124440687Y-78700367D01*
X124579234Y-78792941D01*
X124697059Y-78910766D01*
X124789633Y-79049313D01*
X124853399Y-79203258D01*
X124885907Y-79366685D01*
X124885907Y-79533315D01*
X124853399Y-79696742D01*
X124789633Y-79850687D01*
X124697059Y-79989234D01*
X124579234Y-80107059D01*
X124440687Y-80199633D01*
X124286742Y-80263399D01*
X124123315Y-80295907D01*
X123956685Y-80295907D01*
X123793258Y-80263399D01*
X123639313Y-80199633D01*
X123500766Y-80107059D01*
X123382941Y-79989234D01*
X123290367Y-79850687D01*
X123226601Y-79696742D01*
X123194093Y-79533315D01*
X123194093Y-79366685D01*
X123226601Y-79203258D01*
X123290367Y-79049313D01*
X123382941Y-78910766D01*
X123500766Y-78792941D01*
X123639313Y-78700367D01*
X123793258Y-78636601D01*
X123956685Y-78604093D01*
X124123315Y-78604093D01*
X124286742Y-78636601D01*
G37*
G36*
X129366742Y-78636601D02*
G01*
X129520687Y-78700367D01*
X129659234Y-78792941D01*
X129777059Y-78910766D01*
X129869633Y-79049313D01*
X129933399Y-79203258D01*
X129965907Y-79366685D01*
X129965907Y-79533315D01*
X129933399Y-79696742D01*
X129869633Y-79850687D01*
X129777059Y-79989234D01*
X129659234Y-80107059D01*
X129520687Y-80199633D01*
X129366742Y-80263399D01*
X129203315Y-80295907D01*
X129036685Y-80295907D01*
X128873258Y-80263399D01*
X128719313Y-80199633D01*
X128580766Y-80107059D01*
X128462941Y-79989234D01*
X128370367Y-79850687D01*
X128306601Y-79696742D01*
X128274093Y-79533315D01*
X128274093Y-79366685D01*
X128306601Y-79203258D01*
X128370367Y-79049313D01*
X128462941Y-78910766D01*
X128580766Y-78792941D01*
X128719313Y-78700367D01*
X128873258Y-78636601D01*
X129036685Y-78604093D01*
X129203315Y-78604093D01*
X129366742Y-78636601D01*
G37*
G36*
X131906742Y-78636601D02*
G01*
X132060687Y-78700367D01*
X132199234Y-78792941D01*
X132317059Y-78910766D01*
X132409633Y-79049313D01*
X132473399Y-79203258D01*
X132505907Y-79366685D01*
X132505907Y-79533315D01*
X132473399Y-79696742D01*
X132409633Y-79850687D01*
X132317059Y-79989234D01*
X132199234Y-80107059D01*
X132060687Y-80199633D01*
X131906742Y-80263399D01*
X131743315Y-80295907D01*
X131576685Y-80295907D01*
X131413258Y-80263399D01*
X131259313Y-80199633D01*
X131120766Y-80107059D01*
X131002941Y-79989234D01*
X130910367Y-79850687D01*
X130846601Y-79696742D01*
X130814093Y-79533315D01*
X130814093Y-79366685D01*
X130846601Y-79203258D01*
X130910367Y-79049313D01*
X131002941Y-78910766D01*
X131120766Y-78792941D01*
X131259313Y-78700367D01*
X131413258Y-78636601D01*
X131576685Y-78604093D01*
X131743315Y-78604093D01*
X131906742Y-78636601D01*
G37*
G36*
X134446742Y-78636601D02*
G01*
X134600687Y-78700367D01*
X134739234Y-78792941D01*
X134857059Y-78910766D01*
X134949633Y-79049313D01*
X135013399Y-79203258D01*
X135045907Y-79366685D01*
X135045907Y-79533315D01*
X135013399Y-79696742D01*
X134949633Y-79850687D01*
X134857059Y-79989234D01*
X134739234Y-80107059D01*
X134600687Y-80199633D01*
X134446742Y-80263399D01*
X134283315Y-80295907D01*
X134116685Y-80295907D01*
X133953258Y-80263399D01*
X133799313Y-80199633D01*
X133660766Y-80107059D01*
X133542941Y-79989234D01*
X133450367Y-79850687D01*
X133386601Y-79696742D01*
X133354093Y-79533315D01*
X133354093Y-79366685D01*
X133386601Y-79203258D01*
X133450367Y-79049313D01*
X133542941Y-78910766D01*
X133660766Y-78792941D01*
X133799313Y-78700367D01*
X133953258Y-78636601D01*
X134116685Y-78604093D01*
X134283315Y-78604093D01*
X134446742Y-78636601D01*
G37*
G36*
X136986742Y-78636601D02*
G01*
X137140687Y-78700367D01*
X137279234Y-78792941D01*
X137397059Y-78910766D01*
X137489633Y-79049313D01*
X137553399Y-79203258D01*
X137585907Y-79366685D01*
X137585907Y-79533315D01*
X137553399Y-79696742D01*
X137489633Y-79850687D01*
X137397059Y-79989234D01*
X137279234Y-80107059D01*
X137140687Y-80199633D01*
X136986742Y-80263399D01*
X136823315Y-80295907D01*
X136656685Y-80295907D01*
X136493258Y-80263399D01*
X136339313Y-80199633D01*
X136200766Y-80107059D01*
X136082941Y-79989234D01*
X135990367Y-79850687D01*
X135926601Y-79696742D01*
X135894093Y-79533315D01*
X135894093Y-79366685D01*
X135926601Y-79203258D01*
X135990367Y-79049313D01*
X136082941Y-78910766D01*
X136200766Y-78792941D01*
X136339313Y-78700367D01*
X136493258Y-78636601D01*
X136656685Y-78604093D01*
X136823315Y-78604093D01*
X136986742Y-78636601D01*
G37*
G36*
X142066742Y-78636601D02*
G01*
X142220687Y-78700367D01*
X142359234Y-78792941D01*
X142477059Y-78910766D01*
X142569633Y-79049313D01*
X142633399Y-79203258D01*
X142665907Y-79366685D01*
X142665907Y-79533315D01*
X142633399Y-79696742D01*
X142569633Y-79850687D01*
X142477059Y-79989234D01*
X142359234Y-80107059D01*
X142220687Y-80199633D01*
X142066742Y-80263399D01*
X141903315Y-80295907D01*
X141736685Y-80295907D01*
X141573258Y-80263399D01*
X141419313Y-80199633D01*
X141280766Y-80107059D01*
X141162941Y-79989234D01*
X141070367Y-79850687D01*
X141006601Y-79696742D01*
X140974093Y-79533315D01*
X140974093Y-79366685D01*
X141006601Y-79203258D01*
X141070367Y-79049313D01*
X141162941Y-78910766D01*
X141280766Y-78792941D01*
X141419313Y-78700367D01*
X141573258Y-78636601D01*
X141736685Y-78604093D01*
X141903315Y-78604093D01*
X142066742Y-78636601D01*
G37*
G36*
X144606742Y-78636601D02*
G01*
X144760687Y-78700367D01*
X144899234Y-78792941D01*
X145017059Y-78910766D01*
X145109633Y-79049313D01*
X145173399Y-79203258D01*
X145205907Y-79366685D01*
X145205907Y-79533315D01*
X145173399Y-79696742D01*
X145109633Y-79850687D01*
X145017059Y-79989234D01*
X144899234Y-80107059D01*
X144760687Y-80199633D01*
X144606742Y-80263399D01*
X144443315Y-80295907D01*
X144276685Y-80295907D01*
X144113258Y-80263399D01*
X143959313Y-80199633D01*
X143820766Y-80107059D01*
X143702941Y-79989234D01*
X143610367Y-79850687D01*
X143546601Y-79696742D01*
X143514093Y-79533315D01*
X143514093Y-79366685D01*
X143546601Y-79203258D01*
X143610367Y-79049313D01*
X143702941Y-78910766D01*
X143820766Y-78792941D01*
X143959313Y-78700367D01*
X144113258Y-78636601D01*
X144276685Y-78604093D01*
X144443315Y-78604093D01*
X144606742Y-78636601D01*
G37*
G36*
X147146742Y-78636601D02*
G01*
X147300687Y-78700367D01*
X147439234Y-78792941D01*
X147557059Y-78910766D01*
X147649633Y-79049313D01*
X147713399Y-79203258D01*
X147745907Y-79366685D01*
X147745907Y-79533315D01*
X147713399Y-79696742D01*
X147649633Y-79850687D01*
X147557059Y-79989234D01*
X147439234Y-80107059D01*
X147300687Y-80199633D01*
X147146742Y-80263399D01*
X146983315Y-80295907D01*
X146816685Y-80295907D01*
X146653258Y-80263399D01*
X146499313Y-80199633D01*
X146360766Y-80107059D01*
X146242941Y-79989234D01*
X146150367Y-79850687D01*
X146086601Y-79696742D01*
X146054093Y-79533315D01*
X146054093Y-79366685D01*
X146086601Y-79203258D01*
X146150367Y-79049313D01*
X146242941Y-78910766D01*
X146360766Y-78792941D01*
X146499313Y-78700367D01*
X146653258Y-78636601D01*
X146816685Y-78604093D01*
X146983315Y-78604093D01*
X147146742Y-78636601D01*
G37*
G36*
X149686742Y-78636601D02*
G01*
X149840687Y-78700367D01*
X149979234Y-78792941D01*
X150097059Y-78910766D01*
X150189633Y-79049313D01*
X150253399Y-79203258D01*
X150285907Y-79366685D01*
X150285907Y-79533315D01*
X150253399Y-79696742D01*
X150189633Y-79850687D01*
X150097059Y-79989234D01*
X149979234Y-80107059D01*
X149840687Y-80199633D01*
X149686742Y-80263399D01*
X149523315Y-80295907D01*
X149356685Y-80295907D01*
X149193258Y-80263399D01*
X149039313Y-80199633D01*
X148900766Y-80107059D01*
X148782941Y-79989234D01*
X148690367Y-79850687D01*
X148626601Y-79696742D01*
X148594093Y-79533315D01*
X148594093Y-79366685D01*
X148626601Y-79203258D01*
X148690367Y-79049313D01*
X148782941Y-78910766D01*
X148900766Y-78792941D01*
X149039313Y-78700367D01*
X149193258Y-78636601D01*
X149356685Y-78604093D01*
X149523315Y-78604093D01*
X149686742Y-78636601D01*
G37*
G36*
X154766742Y-78636601D02*
G01*
X154920687Y-78700367D01*
X155059234Y-78792941D01*
X155177059Y-78910766D01*
X155269633Y-79049313D01*
X155333399Y-79203258D01*
X155365907Y-79366685D01*
X155365907Y-79533315D01*
X155333399Y-79696742D01*
X155269633Y-79850687D01*
X155177059Y-79989234D01*
X155059234Y-80107059D01*
X154920687Y-80199633D01*
X154766742Y-80263399D01*
X154603315Y-80295907D01*
X154436685Y-80295907D01*
X154273258Y-80263399D01*
X154119313Y-80199633D01*
X153980766Y-80107059D01*
X153862941Y-79989234D01*
X153770367Y-79850687D01*
X153706601Y-79696742D01*
X153674093Y-79533315D01*
X153674093Y-79366685D01*
X153706601Y-79203258D01*
X153770367Y-79049313D01*
X153862941Y-78910766D01*
X153980766Y-78792941D01*
X154119313Y-78700367D01*
X154273258Y-78636601D01*
X154436685Y-78604093D01*
X154603315Y-78604093D01*
X154766742Y-78636601D01*
G37*
G36*
X157306742Y-78636601D02*
G01*
X157460687Y-78700367D01*
X157599234Y-78792941D01*
X157717059Y-78910766D01*
X157809633Y-79049313D01*
X157873399Y-79203258D01*
X157905907Y-79366685D01*
X157905907Y-79533315D01*
X157873399Y-79696742D01*
X157809633Y-79850687D01*
X157717059Y-79989234D01*
X157599234Y-80107059D01*
X157460687Y-80199633D01*
X157306742Y-80263399D01*
X157143315Y-80295907D01*
X156976685Y-80295907D01*
X156813258Y-80263399D01*
X156659313Y-80199633D01*
X156520766Y-80107059D01*
X156402941Y-79989234D01*
X156310367Y-79850687D01*
X156246601Y-79696742D01*
X156214093Y-79533315D01*
X156214093Y-79366685D01*
X156246601Y-79203258D01*
X156310367Y-79049313D01*
X156402941Y-78910766D01*
X156520766Y-78792941D01*
X156659313Y-78700367D01*
X156813258Y-78636601D01*
X156976685Y-78604093D01*
X157143315Y-78604093D01*
X157306742Y-78636601D01*
G37*
G36*
X162746742Y-77966601D02*
G01*
X162900687Y-78030367D01*
X163039234Y-78122941D01*
X163157059Y-78240766D01*
X163249633Y-78379313D01*
X163313399Y-78533258D01*
X163345907Y-78696685D01*
X163345907Y-78863315D01*
X163313399Y-79026742D01*
X163249633Y-79180687D01*
X163157059Y-79319234D01*
X163039234Y-79437059D01*
X162900687Y-79529633D01*
X162746742Y-79593399D01*
X162583315Y-79625907D01*
X162416685Y-79625907D01*
X162253258Y-79593399D01*
X162099313Y-79529633D01*
X161960766Y-79437059D01*
X161842941Y-79319234D01*
X161750367Y-79180687D01*
X161686601Y-79026742D01*
X161654093Y-78863315D01*
X161654093Y-78696685D01*
X161686601Y-78533258D01*
X161750367Y-78379313D01*
X161842941Y-78240766D01*
X161960766Y-78122941D01*
X162099313Y-78030367D01*
X162253258Y-77966601D01*
X162416685Y-77934093D01*
X162583315Y-77934093D01*
X162746742Y-77966601D01*
G37*
G36*
X162746742Y-75426601D02*
G01*
X162900687Y-75490367D01*
X163039234Y-75582941D01*
X163157059Y-75700766D01*
X163249633Y-75839313D01*
X163313399Y-75993258D01*
X163345907Y-76156685D01*
X163345907Y-76323315D01*
X163313399Y-76486742D01*
X163249633Y-76640687D01*
X163157059Y-76779234D01*
X163039234Y-76897059D01*
X162900687Y-76989633D01*
X162746742Y-77053399D01*
X162583315Y-77085907D01*
X162416685Y-77085907D01*
X162253258Y-77053399D01*
X162099313Y-76989633D01*
X161960766Y-76897059D01*
X161842941Y-76779234D01*
X161750367Y-76640687D01*
X161686601Y-76486742D01*
X161654093Y-76323315D01*
X161654093Y-76156685D01*
X161686601Y-75993258D01*
X161750367Y-75839313D01*
X161842941Y-75700766D01*
X161960766Y-75582941D01*
X162099313Y-75490367D01*
X162253258Y-75426601D01*
X162416685Y-75394093D01*
X162583315Y-75394093D01*
X162746742Y-75426601D01*
G37*
G36*
X162746742Y-72886601D02*
G01*
X162900687Y-72950367D01*
X163039234Y-73042941D01*
X163157059Y-73160766D01*
X163249633Y-73299313D01*
X163313399Y-73453258D01*
X163345907Y-73616685D01*
X163345907Y-73783315D01*
X163313399Y-73946742D01*
X163249633Y-74100687D01*
X163157059Y-74239234D01*
X163039234Y-74357059D01*
X162900687Y-74449633D01*
X162746742Y-74513399D01*
X162583315Y-74545907D01*
X162416685Y-74545907D01*
X162253258Y-74513399D01*
X162099313Y-74449633D01*
X161960766Y-74357059D01*
X161842941Y-74239234D01*
X161750367Y-74100687D01*
X161686601Y-73946742D01*
X161654093Y-73783315D01*
X161654093Y-73616685D01*
X161686601Y-73453258D01*
X161750367Y-73299313D01*
X161842941Y-73160766D01*
X161960766Y-73042941D01*
X162099313Y-72950367D01*
X162253258Y-72886601D01*
X162416685Y-72854093D01*
X162583315Y-72854093D01*
X162746742Y-72886601D01*
G37*
G36*
X157191256Y-72423754D02*
G01*
X157354257Y-72491271D01*
X157500954Y-72589291D01*
X157625709Y-72714046D01*
X157723729Y-72860743D01*
X157791246Y-73023744D01*
X157825666Y-73196785D01*
X157825666Y-73373215D01*
X157791246Y-73546256D01*
X157723729Y-73709257D01*
X157625709Y-73855954D01*
X157500954Y-73980709D01*
X157354257Y-74078729D01*
X157191256Y-74146246D01*
X157018215Y-74180666D01*
X156841785Y-74180666D01*
X156668744Y-74146246D01*
X156505743Y-74078729D01*
X156359046Y-73980709D01*
X156234291Y-73855954D01*
X156136271Y-73709257D01*
X156068754Y-73546256D01*
X156034334Y-73373215D01*
X156034334Y-73196785D01*
X156068754Y-73023744D01*
X156136271Y-72860743D01*
X156234291Y-72714046D01*
X156359046Y-72589291D01*
X156505743Y-72491271D01*
X156668744Y-72423754D01*
X156841785Y-72389334D01*
X157018215Y-72389334D01*
X157191256Y-72423754D01*
G37*
G36*
X109276742Y-72286601D02*
G01*
X109430687Y-72350367D01*
X109569234Y-72442941D01*
X109687059Y-72560766D01*
X109779633Y-72699313D01*
X109843399Y-72853258D01*
X109875907Y-73016685D01*
X109875907Y-73183315D01*
X109843399Y-73346742D01*
X109779633Y-73500687D01*
X109687059Y-73639234D01*
X109569234Y-73757059D01*
X109430687Y-73849633D01*
X109276742Y-73913399D01*
X109113315Y-73945907D01*
X108946685Y-73945907D01*
X108783258Y-73913399D01*
X108629313Y-73849633D01*
X108490766Y-73757059D01*
X108372941Y-73639234D01*
X108280367Y-73500687D01*
X108216601Y-73346742D01*
X108184093Y-73183315D01*
X108184093Y-73016685D01*
X108216601Y-72853258D01*
X108280367Y-72699313D01*
X108372941Y-72560766D01*
X108490766Y-72442941D01*
X108629313Y-72350367D01*
X108783258Y-72286601D01*
X108946685Y-72254093D01*
X109113315Y-72254093D01*
X109276742Y-72286601D01*
G37*
G36*
X154117714Y-72267295D02*
G01*
X154253548Y-72323559D01*
X154375795Y-72405242D01*
X154479758Y-72509205D01*
X154561441Y-72631452D01*
X154617705Y-72767286D01*
X154646389Y-72911487D01*
X154646389Y-73058513D01*
X154617705Y-73202714D01*
X154561441Y-73338548D01*
X154479758Y-73460795D01*
X154375795Y-73564758D01*
X154253548Y-73646441D01*
X154117714Y-73702705D01*
X153973513Y-73731389D01*
X153826487Y-73731389D01*
X153682286Y-73702705D01*
X153546452Y-73646441D01*
X153424205Y-73564758D01*
X153320242Y-73460795D01*
X153238559Y-73338548D01*
X153182295Y-73202714D01*
X153153611Y-73058513D01*
X153153611Y-72911487D01*
X153182295Y-72767286D01*
X153238559Y-72631452D01*
X153320242Y-72509205D01*
X153424205Y-72405242D01*
X153546452Y-72323559D01*
X153682286Y-72267295D01*
X153826487Y-72238611D01*
X153973513Y-72238611D01*
X154117714Y-72267295D01*
G37*
G36*
X162746742Y-70346601D02*
G01*
X162900687Y-70410367D01*
X163039234Y-70502941D01*
X163157059Y-70620766D01*
X163249633Y-70759313D01*
X163313399Y-70913258D01*
X163345907Y-71076685D01*
X163345907Y-71243315D01*
X163313399Y-71406742D01*
X163249633Y-71560687D01*
X163157059Y-71699234D01*
X163039234Y-71817059D01*
X162900687Y-71909633D01*
X162746742Y-71973399D01*
X162583315Y-72005907D01*
X162416685Y-72005907D01*
X162253258Y-71973399D01*
X162099313Y-71909633D01*
X161960766Y-71817059D01*
X161842941Y-71699234D01*
X161750367Y-71560687D01*
X161686601Y-71406742D01*
X161654093Y-71243315D01*
X161654093Y-71076685D01*
X161686601Y-70913258D01*
X161750367Y-70759313D01*
X161842941Y-70620766D01*
X161960766Y-70502941D01*
X162099313Y-70410367D01*
X162253258Y-70346601D01*
X162416685Y-70314093D01*
X162583315Y-70314093D01*
X162746742Y-70346601D01*
G37*
G36*
X109880000Y-71410000D02*
G01*
X108180000Y-71410000D01*
X108180000Y-69710000D01*
X109880000Y-69710000D01*
X109880000Y-71410000D01*
G37*
G36*
X162746742Y-67806601D02*
G01*
X162900687Y-67870367D01*
X163039234Y-67962941D01*
X163157059Y-68080766D01*
X163249633Y-68219313D01*
X163313399Y-68373258D01*
X163345907Y-68536685D01*
X163345907Y-68703315D01*
X163313399Y-68866742D01*
X163249633Y-69020687D01*
X163157059Y-69159234D01*
X163039234Y-69277059D01*
X162900687Y-69369633D01*
X162746742Y-69433399D01*
X162583315Y-69465907D01*
X162416685Y-69465907D01*
X162253258Y-69433399D01*
X162099313Y-69369633D01*
X161960766Y-69277059D01*
X161842941Y-69159234D01*
X161750367Y-69020687D01*
X161686601Y-68866742D01*
X161654093Y-68703315D01*
X161654093Y-68536685D01*
X161686601Y-68373258D01*
X161750367Y-68219313D01*
X161842941Y-68080766D01*
X161960766Y-67962941D01*
X162099313Y-67870367D01*
X162253258Y-67806601D01*
X162416685Y-67774093D01*
X162583315Y-67774093D01*
X162746742Y-67806601D01*
G37*
G36*
X154117714Y-67417295D02*
G01*
X154253548Y-67473559D01*
X154375795Y-67555242D01*
X154479758Y-67659205D01*
X154561441Y-67781452D01*
X154617705Y-67917286D01*
X154646389Y-68061487D01*
X154646389Y-68208513D01*
X154617705Y-68352714D01*
X154561441Y-68488548D01*
X154479758Y-68610795D01*
X154375795Y-68714758D01*
X154253548Y-68796441D01*
X154117714Y-68852705D01*
X153973513Y-68881389D01*
X153826487Y-68881389D01*
X153682286Y-68852705D01*
X153546452Y-68796441D01*
X153424205Y-68714758D01*
X153320242Y-68610795D01*
X153238559Y-68488548D01*
X153182295Y-68352714D01*
X153153611Y-68208513D01*
X153153611Y-68061487D01*
X153182295Y-67917286D01*
X153238559Y-67781452D01*
X153320242Y-67659205D01*
X153424205Y-67555242D01*
X153546452Y-67473559D01*
X153682286Y-67417295D01*
X153826487Y-67388611D01*
X153973513Y-67388611D01*
X154117714Y-67417295D01*
G37*
G36*
X109276742Y-67206601D02*
G01*
X109430687Y-67270367D01*
X109569234Y-67362941D01*
X109687059Y-67480766D01*
X109779633Y-67619313D01*
X109843399Y-67773258D01*
X109875907Y-67936685D01*
X109875907Y-68103315D01*
X109843399Y-68266742D01*
X109779633Y-68420687D01*
X109687059Y-68559234D01*
X109569234Y-68677059D01*
X109430687Y-68769633D01*
X109276742Y-68833399D01*
X109113315Y-68865907D01*
X108946685Y-68865907D01*
X108783258Y-68833399D01*
X108629313Y-68769633D01*
X108490766Y-68677059D01*
X108372941Y-68559234D01*
X108280367Y-68420687D01*
X108216601Y-68266742D01*
X108184093Y-68103315D01*
X108184093Y-67936685D01*
X108216601Y-67773258D01*
X108280367Y-67619313D01*
X108372941Y-67480766D01*
X108490766Y-67362941D01*
X108629313Y-67270367D01*
X108783258Y-67206601D01*
X108946685Y-67174093D01*
X109113315Y-67174093D01*
X109276742Y-67206601D01*
G37*
G36*
X157191256Y-66973754D02*
G01*
X157354257Y-67041271D01*
X157500954Y-67139291D01*
X157625709Y-67264046D01*
X157723729Y-67410743D01*
X157791246Y-67573744D01*
X157825666Y-67746785D01*
X157825666Y-67923215D01*
X157791246Y-68096256D01*
X157723729Y-68259257D01*
X157625709Y-68405954D01*
X157500954Y-68530709D01*
X157354257Y-68628729D01*
X157191256Y-68696246D01*
X157018215Y-68730666D01*
X156841785Y-68730666D01*
X156668744Y-68696246D01*
X156505743Y-68628729D01*
X156359046Y-68530709D01*
X156234291Y-68405954D01*
X156136271Y-68259257D01*
X156068754Y-68096256D01*
X156034334Y-67923215D01*
X156034334Y-67746785D01*
X156068754Y-67573744D01*
X156136271Y-67410743D01*
X156234291Y-67264046D01*
X156359046Y-67139291D01*
X156505743Y-67041271D01*
X156668744Y-66973754D01*
X156841785Y-66939334D01*
X157018215Y-66939334D01*
X157191256Y-66973754D01*
G37*
G36*
X162746742Y-65266601D02*
G01*
X162900687Y-65330367D01*
X163039234Y-65422941D01*
X163157059Y-65540766D01*
X163249633Y-65679313D01*
X163313399Y-65833258D01*
X163345907Y-65996685D01*
X163345907Y-66163315D01*
X163313399Y-66326742D01*
X163249633Y-66480687D01*
X163157059Y-66619234D01*
X163039234Y-66737059D01*
X162900687Y-66829633D01*
X162746742Y-66893399D01*
X162583315Y-66925907D01*
X162416685Y-66925907D01*
X162253258Y-66893399D01*
X162099313Y-66829633D01*
X161960766Y-66737059D01*
X161842941Y-66619234D01*
X161750367Y-66480687D01*
X161686601Y-66326742D01*
X161654093Y-66163315D01*
X161654093Y-65996685D01*
X161686601Y-65833258D01*
X161750367Y-65679313D01*
X161842941Y-65540766D01*
X161960766Y-65422941D01*
X162099313Y-65330367D01*
X162253258Y-65266601D01*
X162416685Y-65234093D01*
X162583315Y-65234093D01*
X162746742Y-65266601D01*
G37*
G36*
X162746742Y-62726601D02*
G01*
X162900687Y-62790367D01*
X163039234Y-62882941D01*
X163157059Y-63000766D01*
X163249633Y-63139313D01*
X163313399Y-63293258D01*
X163345907Y-63456685D01*
X163345907Y-63623315D01*
X163313399Y-63786742D01*
X163249633Y-63940687D01*
X163157059Y-64079234D01*
X163039234Y-64197059D01*
X162900687Y-64289633D01*
X162746742Y-64353399D01*
X162583315Y-64385907D01*
X162416685Y-64385907D01*
X162253258Y-64353399D01*
X162099313Y-64289633D01*
X161960766Y-64197059D01*
X161842941Y-64079234D01*
X161750367Y-63940687D01*
X161686601Y-63786742D01*
X161654093Y-63623315D01*
X161654093Y-63456685D01*
X161686601Y-63293258D01*
X161750367Y-63139313D01*
X161842941Y-63000766D01*
X161960766Y-62882941D01*
X162099313Y-62790367D01*
X162253258Y-62726601D01*
X162416685Y-62694093D01*
X162583315Y-62694093D01*
X162746742Y-62726601D01*
G37*
G36*
X114730000Y-62520000D02*
G01*
X113030000Y-62520000D01*
X113030000Y-60820000D01*
X114730000Y-60820000D01*
X114730000Y-62520000D01*
G37*
G36*
X127430000Y-62520000D02*
G01*
X125730000Y-62520000D01*
X125730000Y-60820000D01*
X127430000Y-60820000D01*
X127430000Y-62520000D01*
G37*
G36*
X140130000Y-62520000D02*
G01*
X138430000Y-62520000D01*
X138430000Y-60820000D01*
X140130000Y-60820000D01*
X140130000Y-62520000D01*
G37*
G36*
X152830000Y-62520000D02*
G01*
X151130000Y-62520000D01*
X151130000Y-60820000D01*
X152830000Y-60820000D01*
X152830000Y-62520000D01*
G37*
G36*
X109046742Y-60856601D02*
G01*
X109200687Y-60920367D01*
X109339234Y-61012941D01*
X109457059Y-61130766D01*
X109549633Y-61269313D01*
X109613399Y-61423258D01*
X109645907Y-61586685D01*
X109645907Y-61753315D01*
X109613399Y-61916742D01*
X109549633Y-62070687D01*
X109457059Y-62209234D01*
X109339234Y-62327059D01*
X109200687Y-62419633D01*
X109046742Y-62483399D01*
X108883315Y-62515907D01*
X108716685Y-62515907D01*
X108553258Y-62483399D01*
X108399313Y-62419633D01*
X108260766Y-62327059D01*
X108142941Y-62209234D01*
X108050367Y-62070687D01*
X107986601Y-61916742D01*
X107954093Y-61753315D01*
X107954093Y-61586685D01*
X107986601Y-61423258D01*
X108050367Y-61269313D01*
X108142941Y-61130766D01*
X108260766Y-61012941D01*
X108399313Y-60920367D01*
X108553258Y-60856601D01*
X108716685Y-60824093D01*
X108883315Y-60824093D01*
X109046742Y-60856601D01*
G37*
G36*
X111586742Y-60856601D02*
G01*
X111740687Y-60920367D01*
X111879234Y-61012941D01*
X111997059Y-61130766D01*
X112089633Y-61269313D01*
X112153399Y-61423258D01*
X112185907Y-61586685D01*
X112185907Y-61753315D01*
X112153399Y-61916742D01*
X112089633Y-62070687D01*
X111997059Y-62209234D01*
X111879234Y-62327059D01*
X111740687Y-62419633D01*
X111586742Y-62483399D01*
X111423315Y-62515907D01*
X111256685Y-62515907D01*
X111093258Y-62483399D01*
X110939313Y-62419633D01*
X110800766Y-62327059D01*
X110682941Y-62209234D01*
X110590367Y-62070687D01*
X110526601Y-61916742D01*
X110494093Y-61753315D01*
X110494093Y-61586685D01*
X110526601Y-61423258D01*
X110590367Y-61269313D01*
X110682941Y-61130766D01*
X110800766Y-61012941D01*
X110939313Y-60920367D01*
X111093258Y-60856601D01*
X111256685Y-60824093D01*
X111423315Y-60824093D01*
X111586742Y-60856601D01*
G37*
G36*
X116666742Y-60856601D02*
G01*
X116820687Y-60920367D01*
X116959234Y-61012941D01*
X117077059Y-61130766D01*
X117169633Y-61269313D01*
X117233399Y-61423258D01*
X117265907Y-61586685D01*
X117265907Y-61753315D01*
X117233399Y-61916742D01*
X117169633Y-62070687D01*
X117077059Y-62209234D01*
X116959234Y-62327059D01*
X116820687Y-62419633D01*
X116666742Y-62483399D01*
X116503315Y-62515907D01*
X116336685Y-62515907D01*
X116173258Y-62483399D01*
X116019313Y-62419633D01*
X115880766Y-62327059D01*
X115762941Y-62209234D01*
X115670367Y-62070687D01*
X115606601Y-61916742D01*
X115574093Y-61753315D01*
X115574093Y-61586685D01*
X115606601Y-61423258D01*
X115670367Y-61269313D01*
X115762941Y-61130766D01*
X115880766Y-61012941D01*
X116019313Y-60920367D01*
X116173258Y-60856601D01*
X116336685Y-60824093D01*
X116503315Y-60824093D01*
X116666742Y-60856601D01*
G37*
G36*
X119206742Y-60856601D02*
G01*
X119360687Y-60920367D01*
X119499234Y-61012941D01*
X119617059Y-61130766D01*
X119709633Y-61269313D01*
X119773399Y-61423258D01*
X119805907Y-61586685D01*
X119805907Y-61753315D01*
X119773399Y-61916742D01*
X119709633Y-62070687D01*
X119617059Y-62209234D01*
X119499234Y-62327059D01*
X119360687Y-62419633D01*
X119206742Y-62483399D01*
X119043315Y-62515907D01*
X118876685Y-62515907D01*
X118713258Y-62483399D01*
X118559313Y-62419633D01*
X118420766Y-62327059D01*
X118302941Y-62209234D01*
X118210367Y-62070687D01*
X118146601Y-61916742D01*
X118114093Y-61753315D01*
X118114093Y-61586685D01*
X118146601Y-61423258D01*
X118210367Y-61269313D01*
X118302941Y-61130766D01*
X118420766Y-61012941D01*
X118559313Y-60920367D01*
X118713258Y-60856601D01*
X118876685Y-60824093D01*
X119043315Y-60824093D01*
X119206742Y-60856601D01*
G37*
G36*
X121746742Y-60856601D02*
G01*
X121900687Y-60920367D01*
X122039234Y-61012941D01*
X122157059Y-61130766D01*
X122249633Y-61269313D01*
X122313399Y-61423258D01*
X122345907Y-61586685D01*
X122345907Y-61753315D01*
X122313399Y-61916742D01*
X122249633Y-62070687D01*
X122157059Y-62209234D01*
X122039234Y-62327059D01*
X121900687Y-62419633D01*
X121746742Y-62483399D01*
X121583315Y-62515907D01*
X121416685Y-62515907D01*
X121253258Y-62483399D01*
X121099313Y-62419633D01*
X120960766Y-62327059D01*
X120842941Y-62209234D01*
X120750367Y-62070687D01*
X120686601Y-61916742D01*
X120654093Y-61753315D01*
X120654093Y-61586685D01*
X120686601Y-61423258D01*
X120750367Y-61269313D01*
X120842941Y-61130766D01*
X120960766Y-61012941D01*
X121099313Y-60920367D01*
X121253258Y-60856601D01*
X121416685Y-60824093D01*
X121583315Y-60824093D01*
X121746742Y-60856601D01*
G37*
G36*
X124286742Y-60856601D02*
G01*
X124440687Y-60920367D01*
X124579234Y-61012941D01*
X124697059Y-61130766D01*
X124789633Y-61269313D01*
X124853399Y-61423258D01*
X124885907Y-61586685D01*
X124885907Y-61753315D01*
X124853399Y-61916742D01*
X124789633Y-62070687D01*
X124697059Y-62209234D01*
X124579234Y-62327059D01*
X124440687Y-62419633D01*
X124286742Y-62483399D01*
X124123315Y-62515907D01*
X123956685Y-62515907D01*
X123793258Y-62483399D01*
X123639313Y-62419633D01*
X123500766Y-62327059D01*
X123382941Y-62209234D01*
X123290367Y-62070687D01*
X123226601Y-61916742D01*
X123194093Y-61753315D01*
X123194093Y-61586685D01*
X123226601Y-61423258D01*
X123290367Y-61269313D01*
X123382941Y-61130766D01*
X123500766Y-61012941D01*
X123639313Y-60920367D01*
X123793258Y-60856601D01*
X123956685Y-60824093D01*
X124123315Y-60824093D01*
X124286742Y-60856601D01*
G37*
G36*
X129366742Y-60856601D02*
G01*
X129520687Y-60920367D01*
X129659234Y-61012941D01*
X129777059Y-61130766D01*
X129869633Y-61269313D01*
X129933399Y-61423258D01*
X129965907Y-61586685D01*
X129965907Y-61753315D01*
X129933399Y-61916742D01*
X129869633Y-62070687D01*
X129777059Y-62209234D01*
X129659234Y-62327059D01*
X129520687Y-62419633D01*
X129366742Y-62483399D01*
X129203315Y-62515907D01*
X129036685Y-62515907D01*
X128873258Y-62483399D01*
X128719313Y-62419633D01*
X128580766Y-62327059D01*
X128462941Y-62209234D01*
X128370367Y-62070687D01*
X128306601Y-61916742D01*
X128274093Y-61753315D01*
X128274093Y-61586685D01*
X128306601Y-61423258D01*
X128370367Y-61269313D01*
X128462941Y-61130766D01*
X128580766Y-61012941D01*
X128719313Y-60920367D01*
X128873258Y-60856601D01*
X129036685Y-60824093D01*
X129203315Y-60824093D01*
X129366742Y-60856601D01*
G37*
G36*
X131906742Y-60856601D02*
G01*
X132060687Y-60920367D01*
X132199234Y-61012941D01*
X132317059Y-61130766D01*
X132409633Y-61269313D01*
X132473399Y-61423258D01*
X132505907Y-61586685D01*
X132505907Y-61753315D01*
X132473399Y-61916742D01*
X132409633Y-62070687D01*
X132317059Y-62209234D01*
X132199234Y-62327059D01*
X132060687Y-62419633D01*
X131906742Y-62483399D01*
X131743315Y-62515907D01*
X131576685Y-62515907D01*
X131413258Y-62483399D01*
X131259313Y-62419633D01*
X131120766Y-62327059D01*
X131002941Y-62209234D01*
X130910367Y-62070687D01*
X130846601Y-61916742D01*
X130814093Y-61753315D01*
X130814093Y-61586685D01*
X130846601Y-61423258D01*
X130910367Y-61269313D01*
X131002941Y-61130766D01*
X131120766Y-61012941D01*
X131259313Y-60920367D01*
X131413258Y-60856601D01*
X131576685Y-60824093D01*
X131743315Y-60824093D01*
X131906742Y-60856601D01*
G37*
G36*
X134446742Y-60856601D02*
G01*
X134600687Y-60920367D01*
X134739234Y-61012941D01*
X134857059Y-61130766D01*
X134949633Y-61269313D01*
X135013399Y-61423258D01*
X135045907Y-61586685D01*
X135045907Y-61753315D01*
X135013399Y-61916742D01*
X134949633Y-62070687D01*
X134857059Y-62209234D01*
X134739234Y-62327059D01*
X134600687Y-62419633D01*
X134446742Y-62483399D01*
X134283315Y-62515907D01*
X134116685Y-62515907D01*
X133953258Y-62483399D01*
X133799313Y-62419633D01*
X133660766Y-62327059D01*
X133542941Y-62209234D01*
X133450367Y-62070687D01*
X133386601Y-61916742D01*
X133354093Y-61753315D01*
X133354093Y-61586685D01*
X133386601Y-61423258D01*
X133450367Y-61269313D01*
X133542941Y-61130766D01*
X133660766Y-61012941D01*
X133799313Y-60920367D01*
X133953258Y-60856601D01*
X134116685Y-60824093D01*
X134283315Y-60824093D01*
X134446742Y-60856601D01*
G37*
G36*
X136986742Y-60856601D02*
G01*
X137140687Y-60920367D01*
X137279234Y-61012941D01*
X137397059Y-61130766D01*
X137489633Y-61269313D01*
X137553399Y-61423258D01*
X137585907Y-61586685D01*
X137585907Y-61753315D01*
X137553399Y-61916742D01*
X137489633Y-62070687D01*
X137397059Y-62209234D01*
X137279234Y-62327059D01*
X137140687Y-62419633D01*
X136986742Y-62483399D01*
X136823315Y-62515907D01*
X136656685Y-62515907D01*
X136493258Y-62483399D01*
X136339313Y-62419633D01*
X136200766Y-62327059D01*
X136082941Y-62209234D01*
X135990367Y-62070687D01*
X135926601Y-61916742D01*
X135894093Y-61753315D01*
X135894093Y-61586685D01*
X135926601Y-61423258D01*
X135990367Y-61269313D01*
X136082941Y-61130766D01*
X136200766Y-61012941D01*
X136339313Y-60920367D01*
X136493258Y-60856601D01*
X136656685Y-60824093D01*
X136823315Y-60824093D01*
X136986742Y-60856601D01*
G37*
G36*
X142066742Y-60856601D02*
G01*
X142220687Y-60920367D01*
X142359234Y-61012941D01*
X142477059Y-61130766D01*
X142569633Y-61269313D01*
X142633399Y-61423258D01*
X142665907Y-61586685D01*
X142665907Y-61753315D01*
X142633399Y-61916742D01*
X142569633Y-62070687D01*
X142477059Y-62209234D01*
X142359234Y-62327059D01*
X142220687Y-62419633D01*
X142066742Y-62483399D01*
X141903315Y-62515907D01*
X141736685Y-62515907D01*
X141573258Y-62483399D01*
X141419313Y-62419633D01*
X141280766Y-62327059D01*
X141162941Y-62209234D01*
X141070367Y-62070687D01*
X141006601Y-61916742D01*
X140974093Y-61753315D01*
X140974093Y-61586685D01*
X141006601Y-61423258D01*
X141070367Y-61269313D01*
X141162941Y-61130766D01*
X141280766Y-61012941D01*
X141419313Y-60920367D01*
X141573258Y-60856601D01*
X141736685Y-60824093D01*
X141903315Y-60824093D01*
X142066742Y-60856601D01*
G37*
G36*
X144606742Y-60856601D02*
G01*
X144760687Y-60920367D01*
X144899234Y-61012941D01*
X145017059Y-61130766D01*
X145109633Y-61269313D01*
X145173399Y-61423258D01*
X145205907Y-61586685D01*
X145205907Y-61753315D01*
X145173399Y-61916742D01*
X145109633Y-62070687D01*
X145017059Y-62209234D01*
X144899234Y-62327059D01*
X144760687Y-62419633D01*
X144606742Y-62483399D01*
X144443315Y-62515907D01*
X144276685Y-62515907D01*
X144113258Y-62483399D01*
X143959313Y-62419633D01*
X143820766Y-62327059D01*
X143702941Y-62209234D01*
X143610367Y-62070687D01*
X143546601Y-61916742D01*
X143514093Y-61753315D01*
X143514093Y-61586685D01*
X143546601Y-61423258D01*
X143610367Y-61269313D01*
X143702941Y-61130766D01*
X143820766Y-61012941D01*
X143959313Y-60920367D01*
X144113258Y-60856601D01*
X144276685Y-60824093D01*
X144443315Y-60824093D01*
X144606742Y-60856601D01*
G37*
G36*
X147146742Y-60856601D02*
G01*
X147300687Y-60920367D01*
X147439234Y-61012941D01*
X147557059Y-61130766D01*
X147649633Y-61269313D01*
X147713399Y-61423258D01*
X147745907Y-61586685D01*
X147745907Y-61753315D01*
X147713399Y-61916742D01*
X147649633Y-62070687D01*
X147557059Y-62209234D01*
X147439234Y-62327059D01*
X147300687Y-62419633D01*
X147146742Y-62483399D01*
X146983315Y-62515907D01*
X146816685Y-62515907D01*
X146653258Y-62483399D01*
X146499313Y-62419633D01*
X146360766Y-62327059D01*
X146242941Y-62209234D01*
X146150367Y-62070687D01*
X146086601Y-61916742D01*
X146054093Y-61753315D01*
X146054093Y-61586685D01*
X146086601Y-61423258D01*
X146150367Y-61269313D01*
X146242941Y-61130766D01*
X146360766Y-61012941D01*
X146499313Y-60920367D01*
X146653258Y-60856601D01*
X146816685Y-60824093D01*
X146983315Y-60824093D01*
X147146742Y-60856601D01*
G37*
G36*
X149686742Y-60856601D02*
G01*
X149840687Y-60920367D01*
X149979234Y-61012941D01*
X150097059Y-61130766D01*
X150189633Y-61269313D01*
X150253399Y-61423258D01*
X150285907Y-61586685D01*
X150285907Y-61753315D01*
X150253399Y-61916742D01*
X150189633Y-62070687D01*
X150097059Y-62209234D01*
X149979234Y-62327059D01*
X149840687Y-62419633D01*
X149686742Y-62483399D01*
X149523315Y-62515907D01*
X149356685Y-62515907D01*
X149193258Y-62483399D01*
X149039313Y-62419633D01*
X148900766Y-62327059D01*
X148782941Y-62209234D01*
X148690367Y-62070687D01*
X148626601Y-61916742D01*
X148594093Y-61753315D01*
X148594093Y-61586685D01*
X148626601Y-61423258D01*
X148690367Y-61269313D01*
X148782941Y-61130766D01*
X148900766Y-61012941D01*
X149039313Y-60920367D01*
X149193258Y-60856601D01*
X149356685Y-60824093D01*
X149523315Y-60824093D01*
X149686742Y-60856601D01*
G37*
G36*
X154766742Y-60856601D02*
G01*
X154920687Y-60920367D01*
X155059234Y-61012941D01*
X155177059Y-61130766D01*
X155269633Y-61269313D01*
X155333399Y-61423258D01*
X155365907Y-61586685D01*
X155365907Y-61753315D01*
X155333399Y-61916742D01*
X155269633Y-62070687D01*
X155177059Y-62209234D01*
X155059234Y-62327059D01*
X154920687Y-62419633D01*
X154766742Y-62483399D01*
X154603315Y-62515907D01*
X154436685Y-62515907D01*
X154273258Y-62483399D01*
X154119313Y-62419633D01*
X153980766Y-62327059D01*
X153862941Y-62209234D01*
X153770367Y-62070687D01*
X153706601Y-61916742D01*
X153674093Y-61753315D01*
X153674093Y-61586685D01*
X153706601Y-61423258D01*
X153770367Y-61269313D01*
X153862941Y-61130766D01*
X153980766Y-61012941D01*
X154119313Y-60920367D01*
X154273258Y-60856601D01*
X154436685Y-60824093D01*
X154603315Y-60824093D01*
X154766742Y-60856601D01*
G37*
G36*
X157306742Y-60856601D02*
G01*
X157460687Y-60920367D01*
X157599234Y-61012941D01*
X157717059Y-61130766D01*
X157809633Y-61269313D01*
X157873399Y-61423258D01*
X157905907Y-61586685D01*
X157905907Y-61753315D01*
X157873399Y-61916742D01*
X157809633Y-62070687D01*
X157717059Y-62209234D01*
X157599234Y-62327059D01*
X157460687Y-62419633D01*
X157306742Y-62483399D01*
X157143315Y-62515907D01*
X156976685Y-62515907D01*
X156813258Y-62483399D01*
X156659313Y-62419633D01*
X156520766Y-62327059D01*
X156402941Y-62209234D01*
X156310367Y-62070687D01*
X156246601Y-61916742D01*
X156214093Y-61753315D01*
X156214093Y-61586685D01*
X156246601Y-61423258D01*
X156310367Y-61269313D01*
X156402941Y-61130766D01*
X156520766Y-61012941D01*
X156659313Y-60920367D01*
X156813258Y-60856601D01*
X156976685Y-60824093D01*
X157143315Y-60824093D01*
X157306742Y-60856601D01*
G37*
G36*
X162746742Y-60186601D02*
G01*
X162900687Y-60250367D01*
X163039234Y-60342941D01*
X163157059Y-60460766D01*
X163249633Y-60599313D01*
X163313399Y-60753258D01*
X163345907Y-60916685D01*
X163345907Y-61083315D01*
X163313399Y-61246742D01*
X163249633Y-61400687D01*
X163157059Y-61539234D01*
X163039234Y-61657059D01*
X162900687Y-61749633D01*
X162746742Y-61813399D01*
X162583315Y-61845907D01*
X162416685Y-61845907D01*
X162253258Y-61813399D01*
X162099313Y-61749633D01*
X161960766Y-61657059D01*
X161842941Y-61539234D01*
X161750367Y-61400687D01*
X161686601Y-61246742D01*
X161654093Y-61083315D01*
X161654093Y-60916685D01*
X161686601Y-60753258D01*
X161750367Y-60599313D01*
X161842941Y-60460766D01*
X161960766Y-60342941D01*
X162099313Y-60250367D01*
X162253258Y-60186601D01*
X162416685Y-60154093D01*
X162583315Y-60154093D01*
X162746742Y-60186601D01*
G37*
G36*
X162746742Y-57646601D02*
G01*
X162900687Y-57710367D01*
X163039234Y-57802941D01*
X163157059Y-57920766D01*
X163249633Y-58059313D01*
X163313399Y-58213258D01*
X163345907Y-58376685D01*
X163345907Y-58543315D01*
X163313399Y-58706742D01*
X163249633Y-58860687D01*
X163157059Y-58999234D01*
X163039234Y-59117059D01*
X162900687Y-59209633D01*
X162746742Y-59273399D01*
X162583315Y-59305907D01*
X162416685Y-59305907D01*
X162253258Y-59273399D01*
X162099313Y-59209633D01*
X161960766Y-59117059D01*
X161842941Y-58999234D01*
X161750367Y-58860687D01*
X161686601Y-58706742D01*
X161654093Y-58543315D01*
X161654093Y-58376685D01*
X161686601Y-58213258D01*
X161750367Y-58059313D01*
X161842941Y-57920766D01*
X161960766Y-57802941D01*
X162099313Y-57710367D01*
X162253258Y-57646601D01*
X162416685Y-57614093D01*
X162583315Y-57614093D01*
X162746742Y-57646601D01*
G37*
G36*
X162746742Y-55106601D02*
G01*
X162900687Y-55170367D01*
X163039234Y-55262941D01*
X163157059Y-55380766D01*
X163249633Y-55519313D01*
X163313399Y-55673258D01*
X163345907Y-55836685D01*
X163345907Y-56003315D01*
X163313399Y-56166742D01*
X163249633Y-56320687D01*
X163157059Y-56459234D01*
X163039234Y-56577059D01*
X162900687Y-56669633D01*
X162746742Y-56733399D01*
X162583315Y-56765907D01*
X162416685Y-56765907D01*
X162253258Y-56733399D01*
X162099313Y-56669633D01*
X161960766Y-56577059D01*
X161842941Y-56459234D01*
X161750367Y-56320687D01*
X161686601Y-56166742D01*
X161654093Y-56003315D01*
X161654093Y-55836685D01*
X161686601Y-55673258D01*
X161750367Y-55519313D01*
X161842941Y-55380766D01*
X161960766Y-55262941D01*
X162099313Y-55170367D01*
X162253258Y-55106601D01*
X162416685Y-55074093D01*
X162583315Y-55074093D01*
X162746742Y-55106601D01*
G37*
G36*
X163350000Y-54230000D02*
G01*
X161650000Y-54230000D01*
X161650000Y-52530000D01*
X163350000Y-52530000D01*
X163350000Y-54230000D01*
G37*
G36*
X109220000Y-49620000D02*
G01*
X107520000Y-49620000D01*
X107520000Y-47920000D01*
X109220000Y-47920000D01*
X109220000Y-49620000D01*
G37*
G36*
X111156742Y-47956601D02*
G01*
X111310687Y-48020367D01*
X111449234Y-48112941D01*
X111567059Y-48230766D01*
X111659633Y-48369313D01*
X111723399Y-48523258D01*
X111755907Y-48686685D01*
X111755907Y-48853315D01*
X111723399Y-49016742D01*
X111659633Y-49170687D01*
X111567059Y-49309234D01*
X111449234Y-49427059D01*
X111310687Y-49519633D01*
X111156742Y-49583399D01*
X110993315Y-49615907D01*
X110826685Y-49615907D01*
X110663258Y-49583399D01*
X110509313Y-49519633D01*
X110370766Y-49427059D01*
X110252941Y-49309234D01*
X110160367Y-49170687D01*
X110096601Y-49016742D01*
X110064093Y-48853315D01*
X110064093Y-48686685D01*
X110096601Y-48523258D01*
X110160367Y-48369313D01*
X110252941Y-48230766D01*
X110370766Y-48112941D01*
X110509313Y-48020367D01*
X110663258Y-47956601D01*
X110826685Y-47924093D01*
X110993315Y-47924093D01*
X111156742Y-47956601D01*
G37*
G36*
X113696742Y-47956601D02*
G01*
X113850687Y-48020367D01*
X113989234Y-48112941D01*
X114107059Y-48230766D01*
X114199633Y-48369313D01*
X114263399Y-48523258D01*
X114295907Y-48686685D01*
X114295907Y-48853315D01*
X114263399Y-49016742D01*
X114199633Y-49170687D01*
X114107059Y-49309234D01*
X113989234Y-49427059D01*
X113850687Y-49519633D01*
X113696742Y-49583399D01*
X113533315Y-49615907D01*
X113366685Y-49615907D01*
X113203258Y-49583399D01*
X113049313Y-49519633D01*
X112910766Y-49427059D01*
X112792941Y-49309234D01*
X112700367Y-49170687D01*
X112636601Y-49016742D01*
X112604093Y-48853315D01*
X112604093Y-48686685D01*
X112636601Y-48523258D01*
X112700367Y-48369313D01*
X112792941Y-48230766D01*
X112910766Y-48112941D01*
X113049313Y-48020367D01*
X113203258Y-47956601D01*
X113366685Y-47924093D01*
X113533315Y-47924093D01*
X113696742Y-47956601D01*
G37*
G36*
X116236742Y-47956601D02*
G01*
X116390687Y-48020367D01*
X116529234Y-48112941D01*
X116647059Y-48230766D01*
X116739633Y-48369313D01*
X116803399Y-48523258D01*
X116835907Y-48686685D01*
X116835907Y-48853315D01*
X116803399Y-49016742D01*
X116739633Y-49170687D01*
X116647059Y-49309234D01*
X116529234Y-49427059D01*
X116390687Y-49519633D01*
X116236742Y-49583399D01*
X116073315Y-49615907D01*
X115906685Y-49615907D01*
X115743258Y-49583399D01*
X115589313Y-49519633D01*
X115450766Y-49427059D01*
X115332941Y-49309234D01*
X115240367Y-49170687D01*
X115176601Y-49016742D01*
X115144093Y-48853315D01*
X115144093Y-48686685D01*
X115176601Y-48523258D01*
X115240367Y-48369313D01*
X115332941Y-48230766D01*
X115450766Y-48112941D01*
X115589313Y-48020367D01*
X115743258Y-47956601D01*
X115906685Y-47924093D01*
X116073315Y-47924093D01*
X116236742Y-47956601D01*
G37*
G36*
X118776742Y-47956601D02*
G01*
X118930687Y-48020367D01*
X119069234Y-48112941D01*
X119187059Y-48230766D01*
X119279633Y-48369313D01*
X119343399Y-48523258D01*
X119375907Y-48686685D01*
X119375907Y-48853315D01*
X119343399Y-49016742D01*
X119279633Y-49170687D01*
X119187059Y-49309234D01*
X119069234Y-49427059D01*
X118930687Y-49519633D01*
X118776742Y-49583399D01*
X118613315Y-49615907D01*
X118446685Y-49615907D01*
X118283258Y-49583399D01*
X118129313Y-49519633D01*
X117990766Y-49427059D01*
X117872941Y-49309234D01*
X117780367Y-49170687D01*
X117716601Y-49016742D01*
X117684093Y-48853315D01*
X117684093Y-48686685D01*
X117716601Y-48523258D01*
X117780367Y-48369313D01*
X117872941Y-48230766D01*
X117990766Y-48112941D01*
X118129313Y-48020367D01*
X118283258Y-47956601D01*
X118446685Y-47924093D01*
X118613315Y-47924093D01*
X118776742Y-47956601D01*
G37*
G36*
X121316742Y-47956601D02*
G01*
X121470687Y-48020367D01*
X121609234Y-48112941D01*
X121727059Y-48230766D01*
X121819633Y-48369313D01*
X121883399Y-48523258D01*
X121915907Y-48686685D01*
X121915907Y-48853315D01*
X121883399Y-49016742D01*
X121819633Y-49170687D01*
X121727059Y-49309234D01*
X121609234Y-49427059D01*
X121470687Y-49519633D01*
X121316742Y-49583399D01*
X121153315Y-49615907D01*
X120986685Y-49615907D01*
X120823258Y-49583399D01*
X120669313Y-49519633D01*
X120530766Y-49427059D01*
X120412941Y-49309234D01*
X120320367Y-49170687D01*
X120256601Y-49016742D01*
X120224093Y-48853315D01*
X120224093Y-48686685D01*
X120256601Y-48523258D01*
X120320367Y-48369313D01*
X120412941Y-48230766D01*
X120530766Y-48112941D01*
X120669313Y-48020367D01*
X120823258Y-47956601D01*
X120986685Y-47924093D01*
X121153315Y-47924093D01*
X121316742Y-47956601D01*
G37*
G36*
X123856742Y-47956601D02*
G01*
X124010687Y-48020367D01*
X124149234Y-48112941D01*
X124267059Y-48230766D01*
X124359633Y-48369313D01*
X124423399Y-48523258D01*
X124455907Y-48686685D01*
X124455907Y-48853315D01*
X124423399Y-49016742D01*
X124359633Y-49170687D01*
X124267059Y-49309234D01*
X124149234Y-49427059D01*
X124010687Y-49519633D01*
X123856742Y-49583399D01*
X123693315Y-49615907D01*
X123526685Y-49615907D01*
X123363258Y-49583399D01*
X123209313Y-49519633D01*
X123070766Y-49427059D01*
X122952941Y-49309234D01*
X122860367Y-49170687D01*
X122796601Y-49016742D01*
X122764093Y-48853315D01*
X122764093Y-48686685D01*
X122796601Y-48523258D01*
X122860367Y-48369313D01*
X122952941Y-48230766D01*
X123070766Y-48112941D01*
X123209313Y-48020367D01*
X123363258Y-47956601D01*
X123526685Y-47924093D01*
X123693315Y-47924093D01*
X123856742Y-47956601D01*
G37*
G36*
X126396742Y-47956601D02*
G01*
X126550687Y-48020367D01*
X126689234Y-48112941D01*
X126807059Y-48230766D01*
X126899633Y-48369313D01*
X126963399Y-48523258D01*
X126995907Y-48686685D01*
X126995907Y-48853315D01*
X126963399Y-49016742D01*
X126899633Y-49170687D01*
X126807059Y-49309234D01*
X126689234Y-49427059D01*
X126550687Y-49519633D01*
X126396742Y-49583399D01*
X126233315Y-49615907D01*
X126066685Y-49615907D01*
X125903258Y-49583399D01*
X125749313Y-49519633D01*
X125610766Y-49427059D01*
X125492941Y-49309234D01*
X125400367Y-49170687D01*
X125336601Y-49016742D01*
X125304093Y-48853315D01*
X125304093Y-48686685D01*
X125336601Y-48523258D01*
X125400367Y-48369313D01*
X125492941Y-48230766D01*
X125610766Y-48112941D01*
X125749313Y-48020367D01*
X125903258Y-47956601D01*
X126066685Y-47924093D01*
X126233315Y-47924093D01*
X126396742Y-47956601D01*
G37*
G36*
X128936742Y-47956601D02*
G01*
X129090687Y-48020367D01*
X129229234Y-48112941D01*
X129347059Y-48230766D01*
X129439633Y-48369313D01*
X129503399Y-48523258D01*
X129535907Y-48686685D01*
X129535907Y-48853315D01*
X129503399Y-49016742D01*
X129439633Y-49170687D01*
X129347059Y-49309234D01*
X129229234Y-49427059D01*
X129090687Y-49519633D01*
X128936742Y-49583399D01*
X128773315Y-49615907D01*
X128606685Y-49615907D01*
X128443258Y-49583399D01*
X128289313Y-49519633D01*
X128150766Y-49427059D01*
X128032941Y-49309234D01*
X127940367Y-49170687D01*
X127876601Y-49016742D01*
X127844093Y-48853315D01*
X127844093Y-48686685D01*
X127876601Y-48523258D01*
X127940367Y-48369313D01*
X128032941Y-48230766D01*
X128150766Y-48112941D01*
X128289313Y-48020367D01*
X128443258Y-47956601D01*
X128606685Y-47924093D01*
X128773315Y-47924093D01*
X128936742Y-47956601D01*
G37*
G36*
X131476742Y-47956601D02*
G01*
X131630687Y-48020367D01*
X131769234Y-48112941D01*
X131887059Y-48230766D01*
X131979633Y-48369313D01*
X132043399Y-48523258D01*
X132075907Y-48686685D01*
X132075907Y-48853315D01*
X132043399Y-49016742D01*
X131979633Y-49170687D01*
X131887059Y-49309234D01*
X131769234Y-49427059D01*
X131630687Y-49519633D01*
X131476742Y-49583399D01*
X131313315Y-49615907D01*
X131146685Y-49615907D01*
X130983258Y-49583399D01*
X130829313Y-49519633D01*
X130690766Y-49427059D01*
X130572941Y-49309234D01*
X130480367Y-49170687D01*
X130416601Y-49016742D01*
X130384093Y-48853315D01*
X130384093Y-48686685D01*
X130416601Y-48523258D01*
X130480367Y-48369313D01*
X130572941Y-48230766D01*
X130690766Y-48112941D01*
X130829313Y-48020367D01*
X130983258Y-47956601D01*
X131146685Y-47924093D01*
X131313315Y-47924093D01*
X131476742Y-47956601D01*
G37*
G36*
X134016742Y-47956601D02*
G01*
X134170687Y-48020367D01*
X134309234Y-48112941D01*
X134427059Y-48230766D01*
X134519633Y-48369313D01*
X134583399Y-48523258D01*
X134615907Y-48686685D01*
X134615907Y-48853315D01*
X134583399Y-49016742D01*
X134519633Y-49170687D01*
X134427059Y-49309234D01*
X134309234Y-49427059D01*
X134170687Y-49519633D01*
X134016742Y-49583399D01*
X133853315Y-49615907D01*
X133686685Y-49615907D01*
X133523258Y-49583399D01*
X133369313Y-49519633D01*
X133230766Y-49427059D01*
X133112941Y-49309234D01*
X133020367Y-49170687D01*
X132956601Y-49016742D01*
X132924093Y-48853315D01*
X132924093Y-48686685D01*
X132956601Y-48523258D01*
X133020367Y-48369313D01*
X133112941Y-48230766D01*
X133230766Y-48112941D01*
X133369313Y-48020367D01*
X133523258Y-47956601D01*
X133686685Y-47924093D01*
X133853315Y-47924093D01*
X134016742Y-47956601D01*
G37*
G36*
X136556742Y-47956601D02*
G01*
X136710687Y-48020367D01*
X136849234Y-48112941D01*
X136967059Y-48230766D01*
X137059633Y-48369313D01*
X137123399Y-48523258D01*
X137155907Y-48686685D01*
X137155907Y-48853315D01*
X137123399Y-49016742D01*
X137059633Y-49170687D01*
X136967059Y-49309234D01*
X136849234Y-49427059D01*
X136710687Y-49519633D01*
X136556742Y-49583399D01*
X136393315Y-49615907D01*
X136226685Y-49615907D01*
X136063258Y-49583399D01*
X135909313Y-49519633D01*
X135770766Y-49427059D01*
X135652941Y-49309234D01*
X135560367Y-49170687D01*
X135496601Y-49016742D01*
X135464093Y-48853315D01*
X135464093Y-48686685D01*
X135496601Y-48523258D01*
X135560367Y-48369313D01*
X135652941Y-48230766D01*
X135770766Y-48112941D01*
X135909313Y-48020367D01*
X136063258Y-47956601D01*
X136226685Y-47924093D01*
X136393315Y-47924093D01*
X136556742Y-47956601D01*
G37*
G36*
X139096742Y-47956601D02*
G01*
X139250687Y-48020367D01*
X139389234Y-48112941D01*
X139507059Y-48230766D01*
X139599633Y-48369313D01*
X139663399Y-48523258D01*
X139695907Y-48686685D01*
X139695907Y-48853315D01*
X139663399Y-49016742D01*
X139599633Y-49170687D01*
X139507059Y-49309234D01*
X139389234Y-49427059D01*
X139250687Y-49519633D01*
X139096742Y-49583399D01*
X138933315Y-49615907D01*
X138766685Y-49615907D01*
X138603258Y-49583399D01*
X138449313Y-49519633D01*
X138310766Y-49427059D01*
X138192941Y-49309234D01*
X138100367Y-49170687D01*
X138036601Y-49016742D01*
X138004093Y-48853315D01*
X138004093Y-48686685D01*
X138036601Y-48523258D01*
X138100367Y-48369313D01*
X138192941Y-48230766D01*
X138310766Y-48112941D01*
X138449313Y-48020367D01*
X138603258Y-47956601D01*
X138766685Y-47924093D01*
X138933315Y-47924093D01*
X139096742Y-47956601D01*
G37*
G36*
X141636742Y-47956601D02*
G01*
X141790687Y-48020367D01*
X141929234Y-48112941D01*
X142047059Y-48230766D01*
X142139633Y-48369313D01*
X142203399Y-48523258D01*
X142235907Y-48686685D01*
X142235907Y-48853315D01*
X142203399Y-49016742D01*
X142139633Y-49170687D01*
X142047059Y-49309234D01*
X141929234Y-49427059D01*
X141790687Y-49519633D01*
X141636742Y-49583399D01*
X141473315Y-49615907D01*
X141306685Y-49615907D01*
X141143258Y-49583399D01*
X140989313Y-49519633D01*
X140850766Y-49427059D01*
X140732941Y-49309234D01*
X140640367Y-49170687D01*
X140576601Y-49016742D01*
X140544093Y-48853315D01*
X140544093Y-48686685D01*
X140576601Y-48523258D01*
X140640367Y-48369313D01*
X140732941Y-48230766D01*
X140850766Y-48112941D01*
X140989313Y-48020367D01*
X141143258Y-47956601D01*
X141306685Y-47924093D01*
X141473315Y-47924093D01*
X141636742Y-47956601D01*
G37*
G36*
X144176742Y-47956601D02*
G01*
X144330687Y-48020367D01*
X144469234Y-48112941D01*
X144587059Y-48230766D01*
X144679633Y-48369313D01*
X144743399Y-48523258D01*
X144775907Y-48686685D01*
X144775907Y-48853315D01*
X144743399Y-49016742D01*
X144679633Y-49170687D01*
X144587059Y-49309234D01*
X144469234Y-49427059D01*
X144330687Y-49519633D01*
X144176742Y-49583399D01*
X144013315Y-49615907D01*
X143846685Y-49615907D01*
X143683258Y-49583399D01*
X143529313Y-49519633D01*
X143390766Y-49427059D01*
X143272941Y-49309234D01*
X143180367Y-49170687D01*
X143116601Y-49016742D01*
X143084093Y-48853315D01*
X143084093Y-48686685D01*
X143116601Y-48523258D01*
X143180367Y-48369313D01*
X143272941Y-48230766D01*
X143390766Y-48112941D01*
X143529313Y-48020367D01*
X143683258Y-47956601D01*
X143846685Y-47924093D01*
X144013315Y-47924093D01*
X144176742Y-47956601D01*
G37*
G36*
X146716742Y-47956601D02*
G01*
X146870687Y-48020367D01*
X147009234Y-48112941D01*
X147127059Y-48230766D01*
X147219633Y-48369313D01*
X147283399Y-48523258D01*
X147315907Y-48686685D01*
X147315907Y-48853315D01*
X147283399Y-49016742D01*
X147219633Y-49170687D01*
X147127059Y-49309234D01*
X147009234Y-49427059D01*
X146870687Y-49519633D01*
X146716742Y-49583399D01*
X146553315Y-49615907D01*
X146386685Y-49615907D01*
X146223258Y-49583399D01*
X146069313Y-49519633D01*
X145930766Y-49427059D01*
X145812941Y-49309234D01*
X145720367Y-49170687D01*
X145656601Y-49016742D01*
X145624093Y-48853315D01*
X145624093Y-48686685D01*
X145656601Y-48523258D01*
X145720367Y-48369313D01*
X145812941Y-48230766D01*
X145930766Y-48112941D01*
X146069313Y-48020367D01*
X146223258Y-47956601D01*
X146386685Y-47924093D01*
X146553315Y-47924093D01*
X146716742Y-47956601D01*
G37*
G36*
X149256742Y-47956601D02*
G01*
X149410687Y-48020367D01*
X149549234Y-48112941D01*
X149667059Y-48230766D01*
X149759633Y-48369313D01*
X149823399Y-48523258D01*
X149855907Y-48686685D01*
X149855907Y-48853315D01*
X149823399Y-49016742D01*
X149759633Y-49170687D01*
X149667059Y-49309234D01*
X149549234Y-49427059D01*
X149410687Y-49519633D01*
X149256742Y-49583399D01*
X149093315Y-49615907D01*
X148926685Y-49615907D01*
X148763258Y-49583399D01*
X148609313Y-49519633D01*
X148470766Y-49427059D01*
X148352941Y-49309234D01*
X148260367Y-49170687D01*
X148196601Y-49016742D01*
X148164093Y-48853315D01*
X148164093Y-48686685D01*
X148196601Y-48523258D01*
X148260367Y-48369313D01*
X148352941Y-48230766D01*
X148470766Y-48112941D01*
X148609313Y-48020367D01*
X148763258Y-47956601D01*
X148926685Y-47924093D01*
X149093315Y-47924093D01*
X149256742Y-47956601D01*
G37*
G36*
X151796742Y-47956601D02*
G01*
X151950687Y-48020367D01*
X152089234Y-48112941D01*
X152207059Y-48230766D01*
X152299633Y-48369313D01*
X152363399Y-48523258D01*
X152395907Y-48686685D01*
X152395907Y-48853315D01*
X152363399Y-49016742D01*
X152299633Y-49170687D01*
X152207059Y-49309234D01*
X152089234Y-49427059D01*
X151950687Y-49519633D01*
X151796742Y-49583399D01*
X151633315Y-49615907D01*
X151466685Y-49615907D01*
X151303258Y-49583399D01*
X151149313Y-49519633D01*
X151010766Y-49427059D01*
X150892941Y-49309234D01*
X150800367Y-49170687D01*
X150736601Y-49016742D01*
X150704093Y-48853315D01*
X150704093Y-48686685D01*
X150736601Y-48523258D01*
X150800367Y-48369313D01*
X150892941Y-48230766D01*
X151010766Y-48112941D01*
X151149313Y-48020367D01*
X151303258Y-47956601D01*
X151466685Y-47924093D01*
X151633315Y-47924093D01*
X151796742Y-47956601D01*
G37*
G36*
X154336742Y-47956601D02*
G01*
X154490687Y-48020367D01*
X154629234Y-48112941D01*
X154747059Y-48230766D01*
X154839633Y-48369313D01*
X154903399Y-48523258D01*
X154935907Y-48686685D01*
X154935907Y-48853315D01*
X154903399Y-49016742D01*
X154839633Y-49170687D01*
X154747059Y-49309234D01*
X154629234Y-49427059D01*
X154490687Y-49519633D01*
X154336742Y-49583399D01*
X154173315Y-49615907D01*
X154006685Y-49615907D01*
X153843258Y-49583399D01*
X153689313Y-49519633D01*
X153550766Y-49427059D01*
X153432941Y-49309234D01*
X153340367Y-49170687D01*
X153276601Y-49016742D01*
X153244093Y-48853315D01*
X153244093Y-48686685D01*
X153276601Y-48523258D01*
X153340367Y-48369313D01*
X153432941Y-48230766D01*
X153550766Y-48112941D01*
X153689313Y-48020367D01*
X153843258Y-47956601D01*
X154006685Y-47924093D01*
X154173315Y-47924093D01*
X154336742Y-47956601D01*
G37*
G36*
X156876742Y-47956601D02*
G01*
X157030687Y-48020367D01*
X157169234Y-48112941D01*
X157287059Y-48230766D01*
X157379633Y-48369313D01*
X157443399Y-48523258D01*
X157475907Y-48686685D01*
X157475907Y-48853315D01*
X157443399Y-49016742D01*
X157379633Y-49170687D01*
X157287059Y-49309234D01*
X157169234Y-49427059D01*
X157030687Y-49519633D01*
X156876742Y-49583399D01*
X156713315Y-49615907D01*
X156546685Y-49615907D01*
X156383258Y-49583399D01*
X156229313Y-49519633D01*
X156090766Y-49427059D01*
X155972941Y-49309234D01*
X155880367Y-49170687D01*
X155816601Y-49016742D01*
X155784093Y-48853315D01*
X155784093Y-48686685D01*
X155816601Y-48523258D01*
X155880367Y-48369313D01*
X155972941Y-48230766D01*
X156090766Y-48112941D01*
X156229313Y-48020367D01*
X156383258Y-47956601D01*
X156546685Y-47924093D01*
X156713315Y-47924093D01*
X156876742Y-47956601D01*
G37*
G36*
X103815151Y-46187301D02*
G01*
X104016623Y-46252763D01*
X104205373Y-46348936D01*
X104376755Y-46473452D01*
X104526548Y-46623245D01*
X104651064Y-46794627D01*
X104747237Y-46983377D01*
X104812699Y-47184849D01*
X104845838Y-47394080D01*
X104845838Y-47605920D01*
X104812699Y-47815151D01*
X104747237Y-48016623D01*
X104651064Y-48205373D01*
X104526548Y-48376755D01*
X104376755Y-48526548D01*
X104205373Y-48651064D01*
X104016623Y-48747237D01*
X103815151Y-48812699D01*
X103605920Y-48845838D01*
X103394080Y-48845838D01*
X103184849Y-48812699D01*
X102983377Y-48747237D01*
X102794627Y-48651064D01*
X102623245Y-48526548D01*
X102473452Y-48376755D01*
X102348936Y-48205373D01*
X102252763Y-48016623D01*
X102187301Y-47815151D01*
X102154162Y-47605920D01*
X102154162Y-47394080D01*
X102187301Y-47184849D01*
X102252763Y-46983377D01*
X102348936Y-46794627D01*
X102473452Y-46623245D01*
X102623245Y-46473452D01*
X102794627Y-46348936D01*
X102983377Y-46252763D01*
X103184849Y-46187301D01*
X103394080Y-46154162D01*
X103605920Y-46154162D01*
X103815151Y-46187301D01*
G37*
G36*
X161815151Y-46187301D02*
G01*
X162016623Y-46252763D01*
X162205373Y-46348936D01*
X162376755Y-46473452D01*
X162526548Y-46623245D01*
X162651064Y-46794627D01*
X162747237Y-46983377D01*
X162812699Y-47184849D01*
X162845838Y-47394080D01*
X162845838Y-47605920D01*
X162812699Y-47815151D01*
X162747237Y-48016623D01*
X162651064Y-48205373D01*
X162526548Y-48376755D01*
X162376755Y-48526548D01*
X162205373Y-48651064D01*
X162016623Y-48747237D01*
X161815151Y-48812699D01*
X161605920Y-48845838D01*
X161394080Y-48845838D01*
X161184849Y-48812699D01*
X160983377Y-48747237D01*
X160794627Y-48651064D01*
X160623245Y-48526548D01*
X160473452Y-48376755D01*
X160348936Y-48205373D01*
X160252763Y-48016623D01*
X160187301Y-47815151D01*
X160154162Y-47605920D01*
X160154162Y-47394080D01*
X160187301Y-47184849D01*
X160252763Y-46983377D01*
X160348936Y-46794627D01*
X160473452Y-46623245D01*
X160623245Y-46473452D01*
X160794627Y-46348936D01*
X160983377Y-46252763D01*
X161184849Y-46187301D01*
X161394080Y-46154162D01*
X161605920Y-46154162D01*
X161815151Y-46187301D01*
G37*
G36*
X108616742Y-45416601D02*
G01*
X108770687Y-45480367D01*
X108909234Y-45572941D01*
X109027059Y-45690766D01*
X109119633Y-45829313D01*
X109183399Y-45983258D01*
X109215907Y-46146685D01*
X109215907Y-46313315D01*
X109183399Y-46476742D01*
X109119633Y-46630687D01*
X109027059Y-46769234D01*
X108909234Y-46887059D01*
X108770687Y-46979633D01*
X108616742Y-47043399D01*
X108453315Y-47075907D01*
X108286685Y-47075907D01*
X108123258Y-47043399D01*
X107969313Y-46979633D01*
X107830766Y-46887059D01*
X107712941Y-46769234D01*
X107620367Y-46630687D01*
X107556601Y-46476742D01*
X107524093Y-46313315D01*
X107524093Y-46146685D01*
X107556601Y-45983258D01*
X107620367Y-45829313D01*
X107712941Y-45690766D01*
X107830766Y-45572941D01*
X107969313Y-45480367D01*
X108123258Y-45416601D01*
X108286685Y-45384093D01*
X108453315Y-45384093D01*
X108616742Y-45416601D01*
G37*
G36*
X111156742Y-45416601D02*
G01*
X111310687Y-45480367D01*
X111449234Y-45572941D01*
X111567059Y-45690766D01*
X111659633Y-45829313D01*
X111723399Y-45983258D01*
X111755907Y-46146685D01*
X111755907Y-46313315D01*
X111723399Y-46476742D01*
X111659633Y-46630687D01*
X111567059Y-46769234D01*
X111449234Y-46887059D01*
X111310687Y-46979633D01*
X111156742Y-47043399D01*
X110993315Y-47075907D01*
X110826685Y-47075907D01*
X110663258Y-47043399D01*
X110509313Y-46979633D01*
X110370766Y-46887059D01*
X110252941Y-46769234D01*
X110160367Y-46630687D01*
X110096601Y-46476742D01*
X110064093Y-46313315D01*
X110064093Y-46146685D01*
X110096601Y-45983258D01*
X110160367Y-45829313D01*
X110252941Y-45690766D01*
X110370766Y-45572941D01*
X110509313Y-45480367D01*
X110663258Y-45416601D01*
X110826685Y-45384093D01*
X110993315Y-45384093D01*
X111156742Y-45416601D01*
G37*
G36*
X113696742Y-45416601D02*
G01*
X113850687Y-45480367D01*
X113989234Y-45572941D01*
X114107059Y-45690766D01*
X114199633Y-45829313D01*
X114263399Y-45983258D01*
X114295907Y-46146685D01*
X114295907Y-46313315D01*
X114263399Y-46476742D01*
X114199633Y-46630687D01*
X114107059Y-46769234D01*
X113989234Y-46887059D01*
X113850687Y-46979633D01*
X113696742Y-47043399D01*
X113533315Y-47075907D01*
X113366685Y-47075907D01*
X113203258Y-47043399D01*
X113049313Y-46979633D01*
X112910766Y-46887059D01*
X112792941Y-46769234D01*
X112700367Y-46630687D01*
X112636601Y-46476742D01*
X112604093Y-46313315D01*
X112604093Y-46146685D01*
X112636601Y-45983258D01*
X112700367Y-45829313D01*
X112792941Y-45690766D01*
X112910766Y-45572941D01*
X113049313Y-45480367D01*
X113203258Y-45416601D01*
X113366685Y-45384093D01*
X113533315Y-45384093D01*
X113696742Y-45416601D01*
G37*
G36*
X116236742Y-45416601D02*
G01*
X116390687Y-45480367D01*
X116529234Y-45572941D01*
X116647059Y-45690766D01*
X116739633Y-45829313D01*
X116803399Y-45983258D01*
X116835907Y-46146685D01*
X116835907Y-46313315D01*
X116803399Y-46476742D01*
X116739633Y-46630687D01*
X116647059Y-46769234D01*
X116529234Y-46887059D01*
X116390687Y-46979633D01*
X116236742Y-47043399D01*
X116073315Y-47075907D01*
X115906685Y-47075907D01*
X115743258Y-47043399D01*
X115589313Y-46979633D01*
X115450766Y-46887059D01*
X115332941Y-46769234D01*
X115240367Y-46630687D01*
X115176601Y-46476742D01*
X115144093Y-46313315D01*
X115144093Y-46146685D01*
X115176601Y-45983258D01*
X115240367Y-45829313D01*
X115332941Y-45690766D01*
X115450766Y-45572941D01*
X115589313Y-45480367D01*
X115743258Y-45416601D01*
X115906685Y-45384093D01*
X116073315Y-45384093D01*
X116236742Y-45416601D01*
G37*
G36*
X118776742Y-45416601D02*
G01*
X118930687Y-45480367D01*
X119069234Y-45572941D01*
X119187059Y-45690766D01*
X119279633Y-45829313D01*
X119343399Y-45983258D01*
X119375907Y-46146685D01*
X119375907Y-46313315D01*
X119343399Y-46476742D01*
X119279633Y-46630687D01*
X119187059Y-46769234D01*
X119069234Y-46887059D01*
X118930687Y-46979633D01*
X118776742Y-47043399D01*
X118613315Y-47075907D01*
X118446685Y-47075907D01*
X118283258Y-47043399D01*
X118129313Y-46979633D01*
X117990766Y-46887059D01*
X117872941Y-46769234D01*
X117780367Y-46630687D01*
X117716601Y-46476742D01*
X117684093Y-46313315D01*
X117684093Y-46146685D01*
X117716601Y-45983258D01*
X117780367Y-45829313D01*
X117872941Y-45690766D01*
X117990766Y-45572941D01*
X118129313Y-45480367D01*
X118283258Y-45416601D01*
X118446685Y-45384093D01*
X118613315Y-45384093D01*
X118776742Y-45416601D01*
G37*
G36*
X121316742Y-45416601D02*
G01*
X121470687Y-45480367D01*
X121609234Y-45572941D01*
X121727059Y-45690766D01*
X121819633Y-45829313D01*
X121883399Y-45983258D01*
X121915907Y-46146685D01*
X121915907Y-46313315D01*
X121883399Y-46476742D01*
X121819633Y-46630687D01*
X121727059Y-46769234D01*
X121609234Y-46887059D01*
X121470687Y-46979633D01*
X121316742Y-47043399D01*
X121153315Y-47075907D01*
X120986685Y-47075907D01*
X120823258Y-47043399D01*
X120669313Y-46979633D01*
X120530766Y-46887059D01*
X120412941Y-46769234D01*
X120320367Y-46630687D01*
X120256601Y-46476742D01*
X120224093Y-46313315D01*
X120224093Y-46146685D01*
X120256601Y-45983258D01*
X120320367Y-45829313D01*
X120412941Y-45690766D01*
X120530766Y-45572941D01*
X120669313Y-45480367D01*
X120823258Y-45416601D01*
X120986685Y-45384093D01*
X121153315Y-45384093D01*
X121316742Y-45416601D01*
G37*
G36*
X123856742Y-45416601D02*
G01*
X124010687Y-45480367D01*
X124149234Y-45572941D01*
X124267059Y-45690766D01*
X124359633Y-45829313D01*
X124423399Y-45983258D01*
X124455907Y-46146685D01*
X124455907Y-46313315D01*
X124423399Y-46476742D01*
X124359633Y-46630687D01*
X124267059Y-46769234D01*
X124149234Y-46887059D01*
X124010687Y-46979633D01*
X123856742Y-47043399D01*
X123693315Y-47075907D01*
X123526685Y-47075907D01*
X123363258Y-47043399D01*
X123209313Y-46979633D01*
X123070766Y-46887059D01*
X122952941Y-46769234D01*
X122860367Y-46630687D01*
X122796601Y-46476742D01*
X122764093Y-46313315D01*
X122764093Y-46146685D01*
X122796601Y-45983258D01*
X122860367Y-45829313D01*
X122952941Y-45690766D01*
X123070766Y-45572941D01*
X123209313Y-45480367D01*
X123363258Y-45416601D01*
X123526685Y-45384093D01*
X123693315Y-45384093D01*
X123856742Y-45416601D01*
G37*
G36*
X126396742Y-45416601D02*
G01*
X126550687Y-45480367D01*
X126689234Y-45572941D01*
X126807059Y-45690766D01*
X126899633Y-45829313D01*
X126963399Y-45983258D01*
X126995907Y-46146685D01*
X126995907Y-46313315D01*
X126963399Y-46476742D01*
X126899633Y-46630687D01*
X126807059Y-46769234D01*
X126689234Y-46887059D01*
X126550687Y-46979633D01*
X126396742Y-47043399D01*
X126233315Y-47075907D01*
X126066685Y-47075907D01*
X125903258Y-47043399D01*
X125749313Y-46979633D01*
X125610766Y-46887059D01*
X125492941Y-46769234D01*
X125400367Y-46630687D01*
X125336601Y-46476742D01*
X125304093Y-46313315D01*
X125304093Y-46146685D01*
X125336601Y-45983258D01*
X125400367Y-45829313D01*
X125492941Y-45690766D01*
X125610766Y-45572941D01*
X125749313Y-45480367D01*
X125903258Y-45416601D01*
X126066685Y-45384093D01*
X126233315Y-45384093D01*
X126396742Y-45416601D01*
G37*
G36*
X128936742Y-45416601D02*
G01*
X129090687Y-45480367D01*
X129229234Y-45572941D01*
X129347059Y-45690766D01*
X129439633Y-45829313D01*
X129503399Y-45983258D01*
X129535907Y-46146685D01*
X129535907Y-46313315D01*
X129503399Y-46476742D01*
X129439633Y-46630687D01*
X129347059Y-46769234D01*
X129229234Y-46887059D01*
X129090687Y-46979633D01*
X128936742Y-47043399D01*
X128773315Y-47075907D01*
X128606685Y-47075907D01*
X128443258Y-47043399D01*
X128289313Y-46979633D01*
X128150766Y-46887059D01*
X128032941Y-46769234D01*
X127940367Y-46630687D01*
X127876601Y-46476742D01*
X127844093Y-46313315D01*
X127844093Y-46146685D01*
X127876601Y-45983258D01*
X127940367Y-45829313D01*
X128032941Y-45690766D01*
X128150766Y-45572941D01*
X128289313Y-45480367D01*
X128443258Y-45416601D01*
X128606685Y-45384093D01*
X128773315Y-45384093D01*
X128936742Y-45416601D01*
G37*
G36*
X131476742Y-45416601D02*
G01*
X131630687Y-45480367D01*
X131769234Y-45572941D01*
X131887059Y-45690766D01*
X131979633Y-45829313D01*
X132043399Y-45983258D01*
X132075907Y-46146685D01*
X132075907Y-46313315D01*
X132043399Y-46476742D01*
X131979633Y-46630687D01*
X131887059Y-46769234D01*
X131769234Y-46887059D01*
X131630687Y-46979633D01*
X131476742Y-47043399D01*
X131313315Y-47075907D01*
X131146685Y-47075907D01*
X130983258Y-47043399D01*
X130829313Y-46979633D01*
X130690766Y-46887059D01*
X130572941Y-46769234D01*
X130480367Y-46630687D01*
X130416601Y-46476742D01*
X130384093Y-46313315D01*
X130384093Y-46146685D01*
X130416601Y-45983258D01*
X130480367Y-45829313D01*
X130572941Y-45690766D01*
X130690766Y-45572941D01*
X130829313Y-45480367D01*
X130983258Y-45416601D01*
X131146685Y-45384093D01*
X131313315Y-45384093D01*
X131476742Y-45416601D01*
G37*
G36*
X134016742Y-45416601D02*
G01*
X134170687Y-45480367D01*
X134309234Y-45572941D01*
X134427059Y-45690766D01*
X134519633Y-45829313D01*
X134583399Y-45983258D01*
X134615907Y-46146685D01*
X134615907Y-46313315D01*
X134583399Y-46476742D01*
X134519633Y-46630687D01*
X134427059Y-46769234D01*
X134309234Y-46887059D01*
X134170687Y-46979633D01*
X134016742Y-47043399D01*
X133853315Y-47075907D01*
X133686685Y-47075907D01*
X133523258Y-47043399D01*
X133369313Y-46979633D01*
X133230766Y-46887059D01*
X133112941Y-46769234D01*
X133020367Y-46630687D01*
X132956601Y-46476742D01*
X132924093Y-46313315D01*
X132924093Y-46146685D01*
X132956601Y-45983258D01*
X133020367Y-45829313D01*
X133112941Y-45690766D01*
X133230766Y-45572941D01*
X133369313Y-45480367D01*
X133523258Y-45416601D01*
X133686685Y-45384093D01*
X133853315Y-45384093D01*
X134016742Y-45416601D01*
G37*
G36*
X136556742Y-45416601D02*
G01*
X136710687Y-45480367D01*
X136849234Y-45572941D01*
X136967059Y-45690766D01*
X137059633Y-45829313D01*
X137123399Y-45983258D01*
X137155907Y-46146685D01*
X137155907Y-46313315D01*
X137123399Y-46476742D01*
X137059633Y-46630687D01*
X136967059Y-46769234D01*
X136849234Y-46887059D01*
X136710687Y-46979633D01*
X136556742Y-47043399D01*
X136393315Y-47075907D01*
X136226685Y-47075907D01*
X136063258Y-47043399D01*
X135909313Y-46979633D01*
X135770766Y-46887059D01*
X135652941Y-46769234D01*
X135560367Y-46630687D01*
X135496601Y-46476742D01*
X135464093Y-46313315D01*
X135464093Y-46146685D01*
X135496601Y-45983258D01*
X135560367Y-45829313D01*
X135652941Y-45690766D01*
X135770766Y-45572941D01*
X135909313Y-45480367D01*
X136063258Y-45416601D01*
X136226685Y-45384093D01*
X136393315Y-45384093D01*
X136556742Y-45416601D01*
G37*
G36*
X139096742Y-45416601D02*
G01*
X139250687Y-45480367D01*
X139389234Y-45572941D01*
X139507059Y-45690766D01*
X139599633Y-45829313D01*
X139663399Y-45983258D01*
X139695907Y-46146685D01*
X139695907Y-46313315D01*
X139663399Y-46476742D01*
X139599633Y-46630687D01*
X139507059Y-46769234D01*
X139389234Y-46887059D01*
X139250687Y-46979633D01*
X139096742Y-47043399D01*
X138933315Y-47075907D01*
X138766685Y-47075907D01*
X138603258Y-47043399D01*
X138449313Y-46979633D01*
X138310766Y-46887059D01*
X138192941Y-46769234D01*
X138100367Y-46630687D01*
X138036601Y-46476742D01*
X138004093Y-46313315D01*
X138004093Y-46146685D01*
X138036601Y-45983258D01*
X138100367Y-45829313D01*
X138192941Y-45690766D01*
X138310766Y-45572941D01*
X138449313Y-45480367D01*
X138603258Y-45416601D01*
X138766685Y-45384093D01*
X138933315Y-45384093D01*
X139096742Y-45416601D01*
G37*
G36*
X141636742Y-45416601D02*
G01*
X141790687Y-45480367D01*
X141929234Y-45572941D01*
X142047059Y-45690766D01*
X142139633Y-45829313D01*
X142203399Y-45983258D01*
X142235907Y-46146685D01*
X142235907Y-46313315D01*
X142203399Y-46476742D01*
X142139633Y-46630687D01*
X142047059Y-46769234D01*
X141929234Y-46887059D01*
X141790687Y-46979633D01*
X141636742Y-47043399D01*
X141473315Y-47075907D01*
X141306685Y-47075907D01*
X141143258Y-47043399D01*
X140989313Y-46979633D01*
X140850766Y-46887059D01*
X140732941Y-46769234D01*
X140640367Y-46630687D01*
X140576601Y-46476742D01*
X140544093Y-46313315D01*
X140544093Y-46146685D01*
X140576601Y-45983258D01*
X140640367Y-45829313D01*
X140732941Y-45690766D01*
X140850766Y-45572941D01*
X140989313Y-45480367D01*
X141143258Y-45416601D01*
X141306685Y-45384093D01*
X141473315Y-45384093D01*
X141636742Y-45416601D01*
G37*
G36*
X144176742Y-45416601D02*
G01*
X144330687Y-45480367D01*
X144469234Y-45572941D01*
X144587059Y-45690766D01*
X144679633Y-45829313D01*
X144743399Y-45983258D01*
X144775907Y-46146685D01*
X144775907Y-46313315D01*
X144743399Y-46476742D01*
X144679633Y-46630687D01*
X144587059Y-46769234D01*
X144469234Y-46887059D01*
X144330687Y-46979633D01*
X144176742Y-47043399D01*
X144013315Y-47075907D01*
X143846685Y-47075907D01*
X143683258Y-47043399D01*
X143529313Y-46979633D01*
X143390766Y-46887059D01*
X143272941Y-46769234D01*
X143180367Y-46630687D01*
X143116601Y-46476742D01*
X143084093Y-46313315D01*
X143084093Y-46146685D01*
X143116601Y-45983258D01*
X143180367Y-45829313D01*
X143272941Y-45690766D01*
X143390766Y-45572941D01*
X143529313Y-45480367D01*
X143683258Y-45416601D01*
X143846685Y-45384093D01*
X144013315Y-45384093D01*
X144176742Y-45416601D01*
G37*
G36*
X146716742Y-45416601D02*
G01*
X146870687Y-45480367D01*
X147009234Y-45572941D01*
X147127059Y-45690766D01*
X147219633Y-45829313D01*
X147283399Y-45983258D01*
X147315907Y-46146685D01*
X147315907Y-46313315D01*
X147283399Y-46476742D01*
X147219633Y-46630687D01*
X147127059Y-46769234D01*
X147009234Y-46887059D01*
X146870687Y-46979633D01*
X146716742Y-47043399D01*
X146553315Y-47075907D01*
X146386685Y-47075907D01*
X146223258Y-47043399D01*
X146069313Y-46979633D01*
X145930766Y-46887059D01*
X145812941Y-46769234D01*
X145720367Y-46630687D01*
X145656601Y-46476742D01*
X145624093Y-46313315D01*
X145624093Y-46146685D01*
X145656601Y-45983258D01*
X145720367Y-45829313D01*
X145812941Y-45690766D01*
X145930766Y-45572941D01*
X146069313Y-45480367D01*
X146223258Y-45416601D01*
X146386685Y-45384093D01*
X146553315Y-45384093D01*
X146716742Y-45416601D01*
G37*
G36*
X149256742Y-45416601D02*
G01*
X149410687Y-45480367D01*
X149549234Y-45572941D01*
X149667059Y-45690766D01*
X149759633Y-45829313D01*
X149823399Y-45983258D01*
X149855907Y-46146685D01*
X149855907Y-46313315D01*
X149823399Y-46476742D01*
X149759633Y-46630687D01*
X149667059Y-46769234D01*
X149549234Y-46887059D01*
X149410687Y-46979633D01*
X149256742Y-47043399D01*
X149093315Y-47075907D01*
X148926685Y-47075907D01*
X148763258Y-47043399D01*
X148609313Y-46979633D01*
X148470766Y-46887059D01*
X148352941Y-46769234D01*
X148260367Y-46630687D01*
X148196601Y-46476742D01*
X148164093Y-46313315D01*
X148164093Y-46146685D01*
X148196601Y-45983258D01*
X148260367Y-45829313D01*
X148352941Y-45690766D01*
X148470766Y-45572941D01*
X148609313Y-45480367D01*
X148763258Y-45416601D01*
X148926685Y-45384093D01*
X149093315Y-45384093D01*
X149256742Y-45416601D01*
G37*
G36*
X151796742Y-45416601D02*
G01*
X151950687Y-45480367D01*
X152089234Y-45572941D01*
X152207059Y-45690766D01*
X152299633Y-45829313D01*
X152363399Y-45983258D01*
X152395907Y-46146685D01*
X152395907Y-46313315D01*
X152363399Y-46476742D01*
X152299633Y-46630687D01*
X152207059Y-46769234D01*
X152089234Y-46887059D01*
X151950687Y-46979633D01*
X151796742Y-47043399D01*
X151633315Y-47075907D01*
X151466685Y-47075907D01*
X151303258Y-47043399D01*
X151149313Y-46979633D01*
X151010766Y-46887059D01*
X150892941Y-46769234D01*
X150800367Y-46630687D01*
X150736601Y-46476742D01*
X150704093Y-46313315D01*
X150704093Y-46146685D01*
X150736601Y-45983258D01*
X150800367Y-45829313D01*
X150892941Y-45690766D01*
X151010766Y-45572941D01*
X151149313Y-45480367D01*
X151303258Y-45416601D01*
X151466685Y-45384093D01*
X151633315Y-45384093D01*
X151796742Y-45416601D01*
G37*
G36*
X154336742Y-45416601D02*
G01*
X154490687Y-45480367D01*
X154629234Y-45572941D01*
X154747059Y-45690766D01*
X154839633Y-45829313D01*
X154903399Y-45983258D01*
X154935907Y-46146685D01*
X154935907Y-46313315D01*
X154903399Y-46476742D01*
X154839633Y-46630687D01*
X154747059Y-46769234D01*
X154629234Y-46887059D01*
X154490687Y-46979633D01*
X154336742Y-47043399D01*
X154173315Y-47075907D01*
X154006685Y-47075907D01*
X153843258Y-47043399D01*
X153689313Y-46979633D01*
X153550766Y-46887059D01*
X153432941Y-46769234D01*
X153340367Y-46630687D01*
X153276601Y-46476742D01*
X153244093Y-46313315D01*
X153244093Y-46146685D01*
X153276601Y-45983258D01*
X153340367Y-45829313D01*
X153432941Y-45690766D01*
X153550766Y-45572941D01*
X153689313Y-45480367D01*
X153843258Y-45416601D01*
X154006685Y-45384093D01*
X154173315Y-45384093D01*
X154336742Y-45416601D01*
G37*
G36*
X156876742Y-45416601D02*
G01*
X157030687Y-45480367D01*
X157169234Y-45572941D01*
X157287059Y-45690766D01*
X157379633Y-45829313D01*
X157443399Y-45983258D01*
X157475907Y-46146685D01*
X157475907Y-46313315D01*
X157443399Y-46476742D01*
X157379633Y-46630687D01*
X157287059Y-46769234D01*
X157169234Y-46887059D01*
X157030687Y-46979633D01*
X156876742Y-47043399D01*
X156713315Y-47075907D01*
X156546685Y-47075907D01*
X156383258Y-47043399D01*
X156229313Y-46979633D01*
X156090766Y-46887059D01*
X155972941Y-46769234D01*
X155880367Y-46630687D01*
X155816601Y-46476742D01*
X155784093Y-46313315D01*
X155784093Y-46146685D01*
X155816601Y-45983258D01*
X155880367Y-45829313D01*
X155972941Y-45690766D01*
X156090766Y-45572941D01*
X156229313Y-45480367D01*
X156383258Y-45416601D01*
X156546685Y-45384093D01*
X156713315Y-45384093D01*
X156876742Y-45416601D01*
G37*
%LPD*%
M02*
