M48
; DRILL file {KiCad 9.0.1-9.0.1-0~ubuntu24.04.1} date 2025-04-16T21:58:44-0500
; FORMAT={-:-/ absolute / inch / decimal}
; #@! TF.CreationDate,2025-04-16T21:58:44-05:00
; #@! TF.GenerationSoftware,Kicad,Pcbnew,9.0.1-9.0.1-0~ubuntu24.04.1
; #@! TF.FileFunction,Plated,1,2,PTH
FMAT,2
INCH
; #@! TA.AperFunction,Plated,PTH,ViaDrill
T1C0.0236
; #@! TA.AperFunction,Plated,PTH,ViaDrill
T2C0.0276
; #@! TA.AperFunction,Plated,PTH,ComponentDrill
T3C0.0315
; #@! TA.AperFunction,Plated,PTH,ComponentDrill
T4C0.0354
; #@! TA.AperFunction,Plated,PTH,ComponentDrill
T5C0.0394
; #@! TA.AperFunction,Plated,PTH,ComponentDrill
T6C0.0402
; #@! TA.AperFunction,Plated,PTH,ComponentDrill
T7C0.0433
%
G90
G05
T1
X4.4693Y-2.0239
X4.7256Y-3.3083
X4.9016Y-3.2677
X5.0984Y-2.2638
X5.1969Y-2.2441
X5.2479Y-2.0808
T2
X4.2126Y-3.3268
T3
X4.0079Y-3.2874
X4.0079Y-3.3858
X4.0079Y-3.4843
X4.1339Y-3.2874
X4.1339Y-3.3858
X4.1339Y-3.4843
T4
X4.9213Y-3.5902
X4.9213Y-3.6402
X4.9213Y-3.6902
X4.9213Y-3.7402
T5
X4.2665Y-1.8201
X4.2665Y-1.9201
X4.3665Y-1.8201
X4.3665Y-1.9201
X4.4665Y-1.8201
X4.4665Y-1.9201
X4.4685Y-3.6386
X4.4685Y-3.7386
X4.4685Y-3.8386
X4.5665Y-1.8201
X4.5665Y-1.9201
X4.626Y-3.6386
X4.626Y-3.7386
X4.626Y-3.8386
X4.6665Y-1.8201
X4.6665Y-1.9201
X4.7665Y-1.8201
X4.7665Y-1.9201
X4.8665Y-1.8201
X4.8665Y-1.9201
X4.9665Y-1.8201
X4.9665Y-1.9201
X5.0665Y-1.8201
X5.0665Y-1.9201
X5.1665Y-1.8201
X5.1665Y-1.9201
X5.2665Y-1.8201
X5.2665Y-1.9201
X5.3665Y-1.8201
X5.3665Y-1.9201
X5.4665Y-1.8201
X5.4665Y-1.9201
X5.5665Y-1.8201
X5.5665Y-1.9201
X5.6665Y-1.8201
X5.6665Y-1.9201
X5.7665Y-1.8201
X5.7665Y-1.9201
X5.8665Y-1.8201
X5.8665Y-1.9201
X5.9665Y-1.8201
X5.9665Y-1.9201
X6.0665Y-1.8201
X6.0665Y-1.9201
X6.1665Y-1.8201
X6.1665Y-1.9201
X6.3976Y-2.1016
X6.3976Y-2.2016
X6.3976Y-2.3016
X6.3976Y-2.4016
X6.3976Y-2.5016
X6.3976Y-2.6016
X6.3976Y-2.7016
X6.3976Y-2.8016
X6.3976Y-2.9016
X6.3976Y-3.0016
X6.3976Y-3.1016
X6.3976Y-3.2016
X6.3976Y-3.3843
X6.3976Y-3.4843
T6
X4.3213Y-2.4213
X4.3213Y-3.1213
X4.3303Y-2.6713
X4.3303Y-2.7713
X4.3303Y-2.8713
X4.4213Y-2.4213
X4.4213Y-3.1213
X4.5213Y-2.4213
X4.5213Y-3.1213
X4.6213Y-2.4213
X4.6213Y-3.1213
X4.7213Y-2.4213
X4.7213Y-3.1213
X4.8213Y-2.4213
X4.8213Y-3.1213
X4.9213Y-2.4213
X4.9213Y-3.1213
X5.0213Y-2.4213
X5.0213Y-3.1213
X5.1213Y-2.4213
X5.1213Y-3.1213
X5.2213Y-2.4213
X5.2213Y-3.1213
X5.3213Y-2.4213
X5.3213Y-3.1213
X5.4213Y-2.4213
X5.4213Y-3.1213
X5.5213Y-2.4213
X5.5213Y-3.1213
X5.6213Y-2.4213
X5.6213Y-3.1213
X5.7213Y-2.4213
X5.7213Y-3.1213
X5.8213Y-2.4213
X5.8213Y-3.1213
X5.9213Y-2.4213
X5.9213Y-3.1213
X6.0213Y-2.4213
X6.0213Y-3.1213
X6.1213Y-2.4213
X6.1213Y-3.1213
X6.2213Y-2.4213
X6.2213Y-3.1213
T7
X5.1575Y-3.3661
X5.1575Y-3.622
X5.3346Y-3.3661
X5.3346Y-3.622
X5.4921Y-3.3661
X5.4921Y-3.622
X5.6693Y-3.3661
X5.6693Y-3.622
M30
