M48
; DRILL file {KiCad 9.0.1-1.fc42} date 2025-04-24T00:42:52-0500
; FORMAT={-:-/ absolute / metric / decimal}
; #@! TF.CreationDate,2025-04-24T00:42:52-05:00
; #@! TF.GenerationSoftware,Kicad,Pcbnew,9.0.1-1.fc42
; #@! TF.FileFunction,Plated,1,4,PTH
FMAT,2
METRIC
; #@! TA.AperFunction,Plated,PTH,ViaDrill
T1C0.300
; #@! TA.AperFunction,Plated,PTH,ComponentDrill
T2C0.800
; #@! TA.AperFunction,Plated,PTH,ComponentDrill
T3C0.900
; #@! TA.AperFunction,Plated,PTH,ComponentDrill
T4C1.000
; #@! TA.AperFunction,Plated,PTH,ComponentDrill
T5C1.020
; #@! TA.AperFunction,Plated,PTH,ComponentDrill
T6C1.100
%
G90
G05
T1
X111.3Y-55.4
X128.6Y-57.5
X130.9Y-55.0
X131.0Y-57.5
X138.812Y-51.8
T2
X101.65Y-83.35
X101.65Y-85.85
X101.65Y-88.35
X104.85Y-83.35
X104.85Y-85.85
X104.85Y-88.35
T3
X118.973Y-94.3
X121.132Y-94.3
X123.291Y-94.3
X125.45Y-94.3
T4
X108.37Y-46.23
X108.37Y-48.77
X110.32Y-90.56
X110.32Y-93.1
X110.32Y-95.64
X110.91Y-46.23
X110.91Y-48.77
X113.45Y-46.23
X113.45Y-48.77
X115.41Y-90.56
X115.41Y-93.1
X115.41Y-95.64
X115.99Y-46.23
X115.99Y-48.77
X118.53Y-46.23
X118.53Y-48.77
X121.07Y-46.23
X121.07Y-48.77
X123.61Y-46.23
X123.61Y-48.77
X126.15Y-46.23
X126.15Y-48.77
X128.69Y-46.23
X128.69Y-48.77
X131.23Y-46.23
X131.23Y-48.77
X133.77Y-46.23
X133.77Y-48.77
X136.31Y-46.23
X136.31Y-48.77
X138.85Y-46.23
X138.85Y-48.77
X141.39Y-46.23
X141.39Y-48.77
X143.93Y-46.23
X143.93Y-48.77
X146.47Y-46.23
X146.47Y-48.77
X149.01Y-46.23
X149.01Y-48.77
X151.55Y-46.23
X151.55Y-48.77
X154.09Y-46.23
X154.09Y-48.77
X156.63Y-46.23
X156.63Y-48.77
X162.5Y-53.38
X162.5Y-55.92
X162.5Y-58.46
X162.5Y-61.0
X162.5Y-63.54
X162.5Y-66.08
X162.5Y-68.62
X162.5Y-71.16
X162.5Y-73.7
X162.5Y-76.24
X162.5Y-78.78
X162.5Y-81.32
X162.5Y-85.96
X162.5Y-88.5
T5
X108.8Y-61.67
X108.8Y-79.45
X109.03Y-68.02
X109.03Y-70.56
X109.03Y-73.1
X111.34Y-61.67
X111.34Y-79.45
X113.88Y-61.67
X113.88Y-79.45
X116.42Y-61.67
X116.42Y-79.45
X118.96Y-61.67
X118.96Y-79.45
X121.5Y-61.67
X121.5Y-79.45
X124.04Y-61.67
X124.04Y-79.45
X126.58Y-61.67
X126.58Y-79.45
X129.12Y-61.67
X129.12Y-79.45
X131.66Y-61.67
X131.66Y-79.45
X134.2Y-61.67
X134.2Y-79.45
X136.74Y-61.67
X136.74Y-79.45
X139.28Y-61.67
X139.28Y-79.45
X141.82Y-61.67
X141.82Y-79.45
X144.36Y-61.67
X144.36Y-79.45
X146.9Y-61.67
X146.9Y-79.45
X149.44Y-61.67
X149.44Y-79.45
X151.98Y-61.67
X151.98Y-79.45
X154.52Y-61.67
X154.52Y-79.45
X157.06Y-61.67
X157.06Y-79.45
T6
X129.55Y-90.8
X129.55Y-97.3
X134.05Y-90.8
X134.05Y-97.3
X138.65Y-90.75
X138.65Y-97.25
X143.15Y-90.75
X143.15Y-97.25
M30
