G04 #@! TF.GenerationSoftware,KiCad,Pcbnew,9.0.1-9.0.1-0~ubuntu24.04.1*
G04 #@! TF.CreationDate,2025-04-16T21:59:29-05:00*
G04 #@! TF.ProjectId,pico_driver,7069636f-5f64-4726-9976-65722e6b6963,rev?*
G04 #@! TF.SameCoordinates,Original*
G04 #@! TF.FileFunction,Legend,Bot*
G04 #@! TF.FilePolarity,Positive*
%FSLAX46Y46*%
G04 Gerber Fmt 4.6, Leading zero omitted, Abs format (unit mm)*
G04 Created by KiCad (PCBNEW 9.0.1-9.0.1-0~ubuntu24.04.1) date 2025-04-16 21:59:29*
%MOMM*%
%LPD*%
G01*
G04 APERTURE LIST*
%ADD10C,0.150000*%
%ADD11C,0.120000*%
G04 APERTURE END LIST*
D10*
X160291792Y-55632390D02*
X160367982Y-55594295D01*
X160367982Y-55594295D02*
X160482268Y-55594295D01*
X160482268Y-55594295D02*
X160596554Y-55632390D01*
X160596554Y-55632390D02*
X160672744Y-55708580D01*
X160672744Y-55708580D02*
X160710839Y-55784771D01*
X160710839Y-55784771D02*
X160748935Y-55937152D01*
X160748935Y-55937152D02*
X160748935Y-56051438D01*
X160748935Y-56051438D02*
X160710839Y-56203819D01*
X160710839Y-56203819D02*
X160672744Y-56280009D01*
X160672744Y-56280009D02*
X160596554Y-56356200D01*
X160596554Y-56356200D02*
X160482268Y-56394295D01*
X160482268Y-56394295D02*
X160406077Y-56394295D01*
X160406077Y-56394295D02*
X160291792Y-56356200D01*
X160291792Y-56356200D02*
X160253696Y-56318104D01*
X160253696Y-56318104D02*
X160253696Y-56051438D01*
X160253696Y-56051438D02*
X160406077Y-56051438D01*
X159910839Y-56394295D02*
X159910839Y-55594295D01*
X159910839Y-55594295D02*
X159606077Y-55594295D01*
X159606077Y-55594295D02*
X159529887Y-55632390D01*
X159529887Y-55632390D02*
X159491792Y-55670485D01*
X159491792Y-55670485D02*
X159453696Y-55746676D01*
X159453696Y-55746676D02*
X159453696Y-55860961D01*
X159453696Y-55860961D02*
X159491792Y-55937152D01*
X159491792Y-55937152D02*
X159529887Y-55975247D01*
X159529887Y-55975247D02*
X159606077Y-56013342D01*
X159606077Y-56013342D02*
X159910839Y-56013342D01*
X158958458Y-55594295D02*
X158882268Y-55594295D01*
X158882268Y-55594295D02*
X158806077Y-55632390D01*
X158806077Y-55632390D02*
X158767982Y-55670485D01*
X158767982Y-55670485D02*
X158729887Y-55746676D01*
X158729887Y-55746676D02*
X158691792Y-55899057D01*
X158691792Y-55899057D02*
X158691792Y-56089533D01*
X158691792Y-56089533D02*
X158729887Y-56241914D01*
X158729887Y-56241914D02*
X158767982Y-56318104D01*
X158767982Y-56318104D02*
X158806077Y-56356200D01*
X158806077Y-56356200D02*
X158882268Y-56394295D01*
X158882268Y-56394295D02*
X158958458Y-56394295D01*
X158958458Y-56394295D02*
X159034649Y-56356200D01*
X159034649Y-56356200D02*
X159072744Y-56318104D01*
X159072744Y-56318104D02*
X159110839Y-56241914D01*
X159110839Y-56241914D02*
X159148935Y-56089533D01*
X159148935Y-56089533D02*
X159148935Y-55899057D01*
X159148935Y-55899057D02*
X159110839Y-55746676D01*
X159110839Y-55746676D02*
X159072744Y-55670485D01*
X159072744Y-55670485D02*
X159034649Y-55632390D01*
X159034649Y-55632390D02*
X158958458Y-55594295D01*
X161248935Y-81665723D02*
X160867982Y-81665723D01*
X161325125Y-81894295D02*
X161058458Y-81094295D01*
X161058458Y-81094295D02*
X160791792Y-81894295D01*
X160525125Y-81894295D02*
X160525125Y-81094295D01*
X160525125Y-81094295D02*
X160334649Y-81094295D01*
X160334649Y-81094295D02*
X160220363Y-81132390D01*
X160220363Y-81132390D02*
X160144173Y-81208580D01*
X160144173Y-81208580D02*
X160106078Y-81284771D01*
X160106078Y-81284771D02*
X160067982Y-81437152D01*
X160067982Y-81437152D02*
X160067982Y-81551438D01*
X160067982Y-81551438D02*
X160106078Y-81703819D01*
X160106078Y-81703819D02*
X160144173Y-81780009D01*
X160144173Y-81780009D02*
X160220363Y-81856200D01*
X160220363Y-81856200D02*
X160334649Y-81894295D01*
X160334649Y-81894295D02*
X160525125Y-81894295D01*
X159267982Y-81818104D02*
X159306078Y-81856200D01*
X159306078Y-81856200D02*
X159420363Y-81894295D01*
X159420363Y-81894295D02*
X159496554Y-81894295D01*
X159496554Y-81894295D02*
X159610840Y-81856200D01*
X159610840Y-81856200D02*
X159687030Y-81780009D01*
X159687030Y-81780009D02*
X159725125Y-81703819D01*
X159725125Y-81703819D02*
X159763221Y-81551438D01*
X159763221Y-81551438D02*
X159763221Y-81437152D01*
X159763221Y-81437152D02*
X159725125Y-81284771D01*
X159725125Y-81284771D02*
X159687030Y-81208580D01*
X159687030Y-81208580D02*
X159610840Y-81132390D01*
X159610840Y-81132390D02*
X159496554Y-81094295D01*
X159496554Y-81094295D02*
X159420363Y-81094295D01*
X159420363Y-81094295D02*
X159306078Y-81132390D01*
X159306078Y-81132390D02*
X159267982Y-81170485D01*
X159115602Y-81970485D02*
X158506078Y-81970485D01*
X158429887Y-81094295D02*
X158163220Y-81894295D01*
X158163220Y-81894295D02*
X157896554Y-81094295D01*
X157172744Y-81894295D02*
X157439411Y-81513342D01*
X157629887Y-81894295D02*
X157629887Y-81094295D01*
X157629887Y-81094295D02*
X157325125Y-81094295D01*
X157325125Y-81094295D02*
X157248935Y-81132390D01*
X157248935Y-81132390D02*
X157210840Y-81170485D01*
X157210840Y-81170485D02*
X157172744Y-81246676D01*
X157172744Y-81246676D02*
X157172744Y-81360961D01*
X157172744Y-81360961D02*
X157210840Y-81437152D01*
X157210840Y-81437152D02*
X157248935Y-81475247D01*
X157248935Y-81475247D02*
X157325125Y-81513342D01*
X157325125Y-81513342D02*
X157629887Y-81513342D01*
X156829887Y-81475247D02*
X156563221Y-81475247D01*
X156448935Y-81894295D02*
X156829887Y-81894295D01*
X156829887Y-81894295D02*
X156829887Y-81094295D01*
X156829887Y-81094295D02*
X156448935Y-81094295D01*
X155839411Y-81475247D02*
X156106077Y-81475247D01*
X156106077Y-81894295D02*
X156106077Y-81094295D01*
X156106077Y-81094295D02*
X155725125Y-81094295D01*
X160791792Y-77632390D02*
X160867982Y-77594295D01*
X160867982Y-77594295D02*
X160982268Y-77594295D01*
X160982268Y-77594295D02*
X161096554Y-77632390D01*
X161096554Y-77632390D02*
X161172744Y-77708580D01*
X161172744Y-77708580D02*
X161210839Y-77784771D01*
X161210839Y-77784771D02*
X161248935Y-77937152D01*
X161248935Y-77937152D02*
X161248935Y-78051438D01*
X161248935Y-78051438D02*
X161210839Y-78203819D01*
X161210839Y-78203819D02*
X161172744Y-78280009D01*
X161172744Y-78280009D02*
X161096554Y-78356200D01*
X161096554Y-78356200D02*
X160982268Y-78394295D01*
X160982268Y-78394295D02*
X160906077Y-78394295D01*
X160906077Y-78394295D02*
X160791792Y-78356200D01*
X160791792Y-78356200D02*
X160753696Y-78318104D01*
X160753696Y-78318104D02*
X160753696Y-78051438D01*
X160753696Y-78051438D02*
X160906077Y-78051438D01*
X160410839Y-78394295D02*
X160410839Y-77594295D01*
X160410839Y-77594295D02*
X160106077Y-77594295D01*
X160106077Y-77594295D02*
X160029887Y-77632390D01*
X160029887Y-77632390D02*
X159991792Y-77670485D01*
X159991792Y-77670485D02*
X159953696Y-77746676D01*
X159953696Y-77746676D02*
X159953696Y-77860961D01*
X159953696Y-77860961D02*
X159991792Y-77937152D01*
X159991792Y-77937152D02*
X160029887Y-77975247D01*
X160029887Y-77975247D02*
X160106077Y-78013342D01*
X160106077Y-78013342D02*
X160410839Y-78013342D01*
X159648935Y-77670485D02*
X159610839Y-77632390D01*
X159610839Y-77632390D02*
X159534649Y-77594295D01*
X159534649Y-77594295D02*
X159344173Y-77594295D01*
X159344173Y-77594295D02*
X159267982Y-77632390D01*
X159267982Y-77632390D02*
X159229887Y-77670485D01*
X159229887Y-77670485D02*
X159191792Y-77746676D01*
X159191792Y-77746676D02*
X159191792Y-77822866D01*
X159191792Y-77822866D02*
X159229887Y-77937152D01*
X159229887Y-77937152D02*
X159687030Y-78394295D01*
X159687030Y-78394295D02*
X159191792Y-78394295D01*
X158734649Y-77937152D02*
X158810839Y-77899057D01*
X158810839Y-77899057D02*
X158848934Y-77860961D01*
X158848934Y-77860961D02*
X158887030Y-77784771D01*
X158887030Y-77784771D02*
X158887030Y-77746676D01*
X158887030Y-77746676D02*
X158848934Y-77670485D01*
X158848934Y-77670485D02*
X158810839Y-77632390D01*
X158810839Y-77632390D02*
X158734649Y-77594295D01*
X158734649Y-77594295D02*
X158582268Y-77594295D01*
X158582268Y-77594295D02*
X158506077Y-77632390D01*
X158506077Y-77632390D02*
X158467982Y-77670485D01*
X158467982Y-77670485D02*
X158429887Y-77746676D01*
X158429887Y-77746676D02*
X158429887Y-77784771D01*
X158429887Y-77784771D02*
X158467982Y-77860961D01*
X158467982Y-77860961D02*
X158506077Y-77899057D01*
X158506077Y-77899057D02*
X158582268Y-77937152D01*
X158582268Y-77937152D02*
X158734649Y-77937152D01*
X158734649Y-77937152D02*
X158810839Y-77975247D01*
X158810839Y-77975247D02*
X158848934Y-78013342D01*
X158848934Y-78013342D02*
X158887030Y-78089533D01*
X158887030Y-78089533D02*
X158887030Y-78241914D01*
X158887030Y-78241914D02*
X158848934Y-78318104D01*
X158848934Y-78318104D02*
X158810839Y-78356200D01*
X158810839Y-78356200D02*
X158734649Y-78394295D01*
X158734649Y-78394295D02*
X158582268Y-78394295D01*
X158582268Y-78394295D02*
X158506077Y-78356200D01*
X158506077Y-78356200D02*
X158467982Y-78318104D01*
X158467982Y-78318104D02*
X158429887Y-78241914D01*
X158429887Y-78241914D02*
X158429887Y-78089533D01*
X158429887Y-78089533D02*
X158467982Y-78013342D01*
X158467982Y-78013342D02*
X158506077Y-77975247D01*
X158506077Y-77975247D02*
X158582268Y-77937152D01*
X160791792Y-76132390D02*
X160867982Y-76094295D01*
X160867982Y-76094295D02*
X160982268Y-76094295D01*
X160982268Y-76094295D02*
X161096554Y-76132390D01*
X161096554Y-76132390D02*
X161172744Y-76208580D01*
X161172744Y-76208580D02*
X161210839Y-76284771D01*
X161210839Y-76284771D02*
X161248935Y-76437152D01*
X161248935Y-76437152D02*
X161248935Y-76551438D01*
X161248935Y-76551438D02*
X161210839Y-76703819D01*
X161210839Y-76703819D02*
X161172744Y-76780009D01*
X161172744Y-76780009D02*
X161096554Y-76856200D01*
X161096554Y-76856200D02*
X160982268Y-76894295D01*
X160982268Y-76894295D02*
X160906077Y-76894295D01*
X160906077Y-76894295D02*
X160791792Y-76856200D01*
X160791792Y-76856200D02*
X160753696Y-76818104D01*
X160753696Y-76818104D02*
X160753696Y-76551438D01*
X160753696Y-76551438D02*
X160906077Y-76551438D01*
X160410839Y-76894295D02*
X160410839Y-76094295D01*
X160410839Y-76094295D02*
X160106077Y-76094295D01*
X160106077Y-76094295D02*
X160029887Y-76132390D01*
X160029887Y-76132390D02*
X159991792Y-76170485D01*
X159991792Y-76170485D02*
X159953696Y-76246676D01*
X159953696Y-76246676D02*
X159953696Y-76360961D01*
X159953696Y-76360961D02*
X159991792Y-76437152D01*
X159991792Y-76437152D02*
X160029887Y-76475247D01*
X160029887Y-76475247D02*
X160106077Y-76513342D01*
X160106077Y-76513342D02*
X160410839Y-76513342D01*
X159648935Y-76170485D02*
X159610839Y-76132390D01*
X159610839Y-76132390D02*
X159534649Y-76094295D01*
X159534649Y-76094295D02*
X159344173Y-76094295D01*
X159344173Y-76094295D02*
X159267982Y-76132390D01*
X159267982Y-76132390D02*
X159229887Y-76170485D01*
X159229887Y-76170485D02*
X159191792Y-76246676D01*
X159191792Y-76246676D02*
X159191792Y-76322866D01*
X159191792Y-76322866D02*
X159229887Y-76437152D01*
X159229887Y-76437152D02*
X159687030Y-76894295D01*
X159687030Y-76894295D02*
X159191792Y-76894295D01*
X158887030Y-76170485D02*
X158848934Y-76132390D01*
X158848934Y-76132390D02*
X158772744Y-76094295D01*
X158772744Y-76094295D02*
X158582268Y-76094295D01*
X158582268Y-76094295D02*
X158506077Y-76132390D01*
X158506077Y-76132390D02*
X158467982Y-76170485D01*
X158467982Y-76170485D02*
X158429887Y-76246676D01*
X158429887Y-76246676D02*
X158429887Y-76322866D01*
X158429887Y-76322866D02*
X158467982Y-76437152D01*
X158467982Y-76437152D02*
X158925125Y-76894295D01*
X158925125Y-76894295D02*
X158429887Y-76894295D01*
X160791792Y-74132390D02*
X160867982Y-74094295D01*
X160867982Y-74094295D02*
X160982268Y-74094295D01*
X160982268Y-74094295D02*
X161096554Y-74132390D01*
X161096554Y-74132390D02*
X161172744Y-74208580D01*
X161172744Y-74208580D02*
X161210839Y-74284771D01*
X161210839Y-74284771D02*
X161248935Y-74437152D01*
X161248935Y-74437152D02*
X161248935Y-74551438D01*
X161248935Y-74551438D02*
X161210839Y-74703819D01*
X161210839Y-74703819D02*
X161172744Y-74780009D01*
X161172744Y-74780009D02*
X161096554Y-74856200D01*
X161096554Y-74856200D02*
X160982268Y-74894295D01*
X160982268Y-74894295D02*
X160906077Y-74894295D01*
X160906077Y-74894295D02*
X160791792Y-74856200D01*
X160791792Y-74856200D02*
X160753696Y-74818104D01*
X160753696Y-74818104D02*
X160753696Y-74551438D01*
X160753696Y-74551438D02*
X160906077Y-74551438D01*
X160410839Y-74894295D02*
X160410839Y-74094295D01*
X160410839Y-74094295D02*
X160106077Y-74094295D01*
X160106077Y-74094295D02*
X160029887Y-74132390D01*
X160029887Y-74132390D02*
X159991792Y-74170485D01*
X159991792Y-74170485D02*
X159953696Y-74246676D01*
X159953696Y-74246676D02*
X159953696Y-74360961D01*
X159953696Y-74360961D02*
X159991792Y-74437152D01*
X159991792Y-74437152D02*
X160029887Y-74475247D01*
X160029887Y-74475247D02*
X160106077Y-74513342D01*
X160106077Y-74513342D02*
X160410839Y-74513342D01*
X159191792Y-74894295D02*
X159648935Y-74894295D01*
X159420363Y-74894295D02*
X159420363Y-74094295D01*
X159420363Y-74094295D02*
X159496554Y-74208580D01*
X159496554Y-74208580D02*
X159572744Y-74284771D01*
X159572744Y-74284771D02*
X159648935Y-74322866D01*
X158925125Y-74094295D02*
X158391791Y-74094295D01*
X158391791Y-74094295D02*
X158734649Y-74894295D01*
X160791792Y-70632390D02*
X160867982Y-70594295D01*
X160867982Y-70594295D02*
X160982268Y-70594295D01*
X160982268Y-70594295D02*
X161096554Y-70632390D01*
X161096554Y-70632390D02*
X161172744Y-70708580D01*
X161172744Y-70708580D02*
X161210839Y-70784771D01*
X161210839Y-70784771D02*
X161248935Y-70937152D01*
X161248935Y-70937152D02*
X161248935Y-71051438D01*
X161248935Y-71051438D02*
X161210839Y-71203819D01*
X161210839Y-71203819D02*
X161172744Y-71280009D01*
X161172744Y-71280009D02*
X161096554Y-71356200D01*
X161096554Y-71356200D02*
X160982268Y-71394295D01*
X160982268Y-71394295D02*
X160906077Y-71394295D01*
X160906077Y-71394295D02*
X160791792Y-71356200D01*
X160791792Y-71356200D02*
X160753696Y-71318104D01*
X160753696Y-71318104D02*
X160753696Y-71051438D01*
X160753696Y-71051438D02*
X160906077Y-71051438D01*
X160410839Y-71394295D02*
X160410839Y-70594295D01*
X160410839Y-70594295D02*
X160106077Y-70594295D01*
X160106077Y-70594295D02*
X160029887Y-70632390D01*
X160029887Y-70632390D02*
X159991792Y-70670485D01*
X159991792Y-70670485D02*
X159953696Y-70746676D01*
X159953696Y-70746676D02*
X159953696Y-70860961D01*
X159953696Y-70860961D02*
X159991792Y-70937152D01*
X159991792Y-70937152D02*
X160029887Y-70975247D01*
X160029887Y-70975247D02*
X160106077Y-71013342D01*
X160106077Y-71013342D02*
X160410839Y-71013342D01*
X159687030Y-70594295D02*
X159153696Y-70594295D01*
X159153696Y-70594295D02*
X159496554Y-71394295D01*
X160791792Y-68632390D02*
X160867982Y-68594295D01*
X160867982Y-68594295D02*
X160982268Y-68594295D01*
X160982268Y-68594295D02*
X161096554Y-68632390D01*
X161096554Y-68632390D02*
X161172744Y-68708580D01*
X161172744Y-68708580D02*
X161210839Y-68784771D01*
X161210839Y-68784771D02*
X161248935Y-68937152D01*
X161248935Y-68937152D02*
X161248935Y-69051438D01*
X161248935Y-69051438D02*
X161210839Y-69203819D01*
X161210839Y-69203819D02*
X161172744Y-69280009D01*
X161172744Y-69280009D02*
X161096554Y-69356200D01*
X161096554Y-69356200D02*
X160982268Y-69394295D01*
X160982268Y-69394295D02*
X160906077Y-69394295D01*
X160906077Y-69394295D02*
X160791792Y-69356200D01*
X160791792Y-69356200D02*
X160753696Y-69318104D01*
X160753696Y-69318104D02*
X160753696Y-69051438D01*
X160753696Y-69051438D02*
X160906077Y-69051438D01*
X160410839Y-69394295D02*
X160410839Y-68594295D01*
X160410839Y-68594295D02*
X160106077Y-68594295D01*
X160106077Y-68594295D02*
X160029887Y-68632390D01*
X160029887Y-68632390D02*
X159991792Y-68670485D01*
X159991792Y-68670485D02*
X159953696Y-68746676D01*
X159953696Y-68746676D02*
X159953696Y-68860961D01*
X159953696Y-68860961D02*
X159991792Y-68937152D01*
X159991792Y-68937152D02*
X160029887Y-68975247D01*
X160029887Y-68975247D02*
X160106077Y-69013342D01*
X160106077Y-69013342D02*
X160410839Y-69013342D01*
X159267982Y-68594295D02*
X159420363Y-68594295D01*
X159420363Y-68594295D02*
X159496554Y-68632390D01*
X159496554Y-68632390D02*
X159534649Y-68670485D01*
X159534649Y-68670485D02*
X159610839Y-68784771D01*
X159610839Y-68784771D02*
X159648935Y-68937152D01*
X159648935Y-68937152D02*
X159648935Y-69241914D01*
X159648935Y-69241914D02*
X159610839Y-69318104D01*
X159610839Y-69318104D02*
X159572744Y-69356200D01*
X159572744Y-69356200D02*
X159496554Y-69394295D01*
X159496554Y-69394295D02*
X159344173Y-69394295D01*
X159344173Y-69394295D02*
X159267982Y-69356200D01*
X159267982Y-69356200D02*
X159229887Y-69318104D01*
X159229887Y-69318104D02*
X159191792Y-69241914D01*
X159191792Y-69241914D02*
X159191792Y-69051438D01*
X159191792Y-69051438D02*
X159229887Y-68975247D01*
X159229887Y-68975247D02*
X159267982Y-68937152D01*
X159267982Y-68937152D02*
X159344173Y-68899057D01*
X159344173Y-68899057D02*
X159496554Y-68899057D01*
X159496554Y-68899057D02*
X159572744Y-68937152D01*
X159572744Y-68937152D02*
X159610839Y-68975247D01*
X159610839Y-68975247D02*
X159648935Y-69051438D01*
X160791792Y-65632390D02*
X160867982Y-65594295D01*
X160867982Y-65594295D02*
X160982268Y-65594295D01*
X160982268Y-65594295D02*
X161096554Y-65632390D01*
X161096554Y-65632390D02*
X161172744Y-65708580D01*
X161172744Y-65708580D02*
X161210839Y-65784771D01*
X161210839Y-65784771D02*
X161248935Y-65937152D01*
X161248935Y-65937152D02*
X161248935Y-66051438D01*
X161248935Y-66051438D02*
X161210839Y-66203819D01*
X161210839Y-66203819D02*
X161172744Y-66280009D01*
X161172744Y-66280009D02*
X161096554Y-66356200D01*
X161096554Y-66356200D02*
X160982268Y-66394295D01*
X160982268Y-66394295D02*
X160906077Y-66394295D01*
X160906077Y-66394295D02*
X160791792Y-66356200D01*
X160791792Y-66356200D02*
X160753696Y-66318104D01*
X160753696Y-66318104D02*
X160753696Y-66051438D01*
X160753696Y-66051438D02*
X160906077Y-66051438D01*
X160410839Y-66394295D02*
X160410839Y-65594295D01*
X160410839Y-65594295D02*
X160106077Y-65594295D01*
X160106077Y-65594295D02*
X160029887Y-65632390D01*
X160029887Y-65632390D02*
X159991792Y-65670485D01*
X159991792Y-65670485D02*
X159953696Y-65746676D01*
X159953696Y-65746676D02*
X159953696Y-65860961D01*
X159953696Y-65860961D02*
X159991792Y-65937152D01*
X159991792Y-65937152D02*
X160029887Y-65975247D01*
X160029887Y-65975247D02*
X160106077Y-66013342D01*
X160106077Y-66013342D02*
X160410839Y-66013342D01*
X159229887Y-65594295D02*
X159610839Y-65594295D01*
X159610839Y-65594295D02*
X159648935Y-65975247D01*
X159648935Y-65975247D02*
X159610839Y-65937152D01*
X159610839Y-65937152D02*
X159534649Y-65899057D01*
X159534649Y-65899057D02*
X159344173Y-65899057D01*
X159344173Y-65899057D02*
X159267982Y-65937152D01*
X159267982Y-65937152D02*
X159229887Y-65975247D01*
X159229887Y-65975247D02*
X159191792Y-66051438D01*
X159191792Y-66051438D02*
X159191792Y-66241914D01*
X159191792Y-66241914D02*
X159229887Y-66318104D01*
X159229887Y-66318104D02*
X159267982Y-66356200D01*
X159267982Y-66356200D02*
X159344173Y-66394295D01*
X159344173Y-66394295D02*
X159534649Y-66394295D01*
X159534649Y-66394295D02*
X159610839Y-66356200D01*
X159610839Y-66356200D02*
X159648935Y-66318104D01*
X160791792Y-63132390D02*
X160867982Y-63094295D01*
X160867982Y-63094295D02*
X160982268Y-63094295D01*
X160982268Y-63094295D02*
X161096554Y-63132390D01*
X161096554Y-63132390D02*
X161172744Y-63208580D01*
X161172744Y-63208580D02*
X161210839Y-63284771D01*
X161210839Y-63284771D02*
X161248935Y-63437152D01*
X161248935Y-63437152D02*
X161248935Y-63551438D01*
X161248935Y-63551438D02*
X161210839Y-63703819D01*
X161210839Y-63703819D02*
X161172744Y-63780009D01*
X161172744Y-63780009D02*
X161096554Y-63856200D01*
X161096554Y-63856200D02*
X160982268Y-63894295D01*
X160982268Y-63894295D02*
X160906077Y-63894295D01*
X160906077Y-63894295D02*
X160791792Y-63856200D01*
X160791792Y-63856200D02*
X160753696Y-63818104D01*
X160753696Y-63818104D02*
X160753696Y-63551438D01*
X160753696Y-63551438D02*
X160906077Y-63551438D01*
X160410839Y-63894295D02*
X160410839Y-63094295D01*
X160410839Y-63094295D02*
X160106077Y-63094295D01*
X160106077Y-63094295D02*
X160029887Y-63132390D01*
X160029887Y-63132390D02*
X159991792Y-63170485D01*
X159991792Y-63170485D02*
X159953696Y-63246676D01*
X159953696Y-63246676D02*
X159953696Y-63360961D01*
X159953696Y-63360961D02*
X159991792Y-63437152D01*
X159991792Y-63437152D02*
X160029887Y-63475247D01*
X160029887Y-63475247D02*
X160106077Y-63513342D01*
X160106077Y-63513342D02*
X160410839Y-63513342D01*
X159267982Y-63360961D02*
X159267982Y-63894295D01*
X159458458Y-63056200D02*
X159648935Y-63627628D01*
X159648935Y-63627628D02*
X159153696Y-63627628D01*
X160791792Y-59632390D02*
X160867982Y-59594295D01*
X160867982Y-59594295D02*
X160982268Y-59594295D01*
X160982268Y-59594295D02*
X161096554Y-59632390D01*
X161096554Y-59632390D02*
X161172744Y-59708580D01*
X161172744Y-59708580D02*
X161210839Y-59784771D01*
X161210839Y-59784771D02*
X161248935Y-59937152D01*
X161248935Y-59937152D02*
X161248935Y-60051438D01*
X161248935Y-60051438D02*
X161210839Y-60203819D01*
X161210839Y-60203819D02*
X161172744Y-60280009D01*
X161172744Y-60280009D02*
X161096554Y-60356200D01*
X161096554Y-60356200D02*
X160982268Y-60394295D01*
X160982268Y-60394295D02*
X160906077Y-60394295D01*
X160906077Y-60394295D02*
X160791792Y-60356200D01*
X160791792Y-60356200D02*
X160753696Y-60318104D01*
X160753696Y-60318104D02*
X160753696Y-60051438D01*
X160753696Y-60051438D02*
X160906077Y-60051438D01*
X160410839Y-60394295D02*
X160410839Y-59594295D01*
X160410839Y-59594295D02*
X160106077Y-59594295D01*
X160106077Y-59594295D02*
X160029887Y-59632390D01*
X160029887Y-59632390D02*
X159991792Y-59670485D01*
X159991792Y-59670485D02*
X159953696Y-59746676D01*
X159953696Y-59746676D02*
X159953696Y-59860961D01*
X159953696Y-59860961D02*
X159991792Y-59937152D01*
X159991792Y-59937152D02*
X160029887Y-59975247D01*
X160029887Y-59975247D02*
X160106077Y-60013342D01*
X160106077Y-60013342D02*
X160410839Y-60013342D01*
X159687030Y-59594295D02*
X159191792Y-59594295D01*
X159191792Y-59594295D02*
X159458458Y-59899057D01*
X159458458Y-59899057D02*
X159344173Y-59899057D01*
X159344173Y-59899057D02*
X159267982Y-59937152D01*
X159267982Y-59937152D02*
X159229887Y-59975247D01*
X159229887Y-59975247D02*
X159191792Y-60051438D01*
X159191792Y-60051438D02*
X159191792Y-60241914D01*
X159191792Y-60241914D02*
X159229887Y-60318104D01*
X159229887Y-60318104D02*
X159267982Y-60356200D01*
X159267982Y-60356200D02*
X159344173Y-60394295D01*
X159344173Y-60394295D02*
X159572744Y-60394295D01*
X159572744Y-60394295D02*
X159648935Y-60356200D01*
X159648935Y-60356200D02*
X159687030Y-60318104D01*
X160791792Y-58132390D02*
X160867982Y-58094295D01*
X160867982Y-58094295D02*
X160982268Y-58094295D01*
X160982268Y-58094295D02*
X161096554Y-58132390D01*
X161096554Y-58132390D02*
X161172744Y-58208580D01*
X161172744Y-58208580D02*
X161210839Y-58284771D01*
X161210839Y-58284771D02*
X161248935Y-58437152D01*
X161248935Y-58437152D02*
X161248935Y-58551438D01*
X161248935Y-58551438D02*
X161210839Y-58703819D01*
X161210839Y-58703819D02*
X161172744Y-58780009D01*
X161172744Y-58780009D02*
X161096554Y-58856200D01*
X161096554Y-58856200D02*
X160982268Y-58894295D01*
X160982268Y-58894295D02*
X160906077Y-58894295D01*
X160906077Y-58894295D02*
X160791792Y-58856200D01*
X160791792Y-58856200D02*
X160753696Y-58818104D01*
X160753696Y-58818104D02*
X160753696Y-58551438D01*
X160753696Y-58551438D02*
X160906077Y-58551438D01*
X160410839Y-58894295D02*
X160410839Y-58094295D01*
X160410839Y-58094295D02*
X160106077Y-58094295D01*
X160106077Y-58094295D02*
X160029887Y-58132390D01*
X160029887Y-58132390D02*
X159991792Y-58170485D01*
X159991792Y-58170485D02*
X159953696Y-58246676D01*
X159953696Y-58246676D02*
X159953696Y-58360961D01*
X159953696Y-58360961D02*
X159991792Y-58437152D01*
X159991792Y-58437152D02*
X160029887Y-58475247D01*
X160029887Y-58475247D02*
X160106077Y-58513342D01*
X160106077Y-58513342D02*
X160410839Y-58513342D01*
X159648935Y-58170485D02*
X159610839Y-58132390D01*
X159610839Y-58132390D02*
X159534649Y-58094295D01*
X159534649Y-58094295D02*
X159344173Y-58094295D01*
X159344173Y-58094295D02*
X159267982Y-58132390D01*
X159267982Y-58132390D02*
X159229887Y-58170485D01*
X159229887Y-58170485D02*
X159191792Y-58246676D01*
X159191792Y-58246676D02*
X159191792Y-58322866D01*
X159191792Y-58322866D02*
X159229887Y-58437152D01*
X159229887Y-58437152D02*
X159687030Y-58894295D01*
X159687030Y-58894295D02*
X159191792Y-58894295D01*
X160291792Y-53132390D02*
X160367982Y-53094295D01*
X160367982Y-53094295D02*
X160482268Y-53094295D01*
X160482268Y-53094295D02*
X160596554Y-53132390D01*
X160596554Y-53132390D02*
X160672744Y-53208580D01*
X160672744Y-53208580D02*
X160710839Y-53284771D01*
X160710839Y-53284771D02*
X160748935Y-53437152D01*
X160748935Y-53437152D02*
X160748935Y-53551438D01*
X160748935Y-53551438D02*
X160710839Y-53703819D01*
X160710839Y-53703819D02*
X160672744Y-53780009D01*
X160672744Y-53780009D02*
X160596554Y-53856200D01*
X160596554Y-53856200D02*
X160482268Y-53894295D01*
X160482268Y-53894295D02*
X160406077Y-53894295D01*
X160406077Y-53894295D02*
X160291792Y-53856200D01*
X160291792Y-53856200D02*
X160253696Y-53818104D01*
X160253696Y-53818104D02*
X160253696Y-53551438D01*
X160253696Y-53551438D02*
X160406077Y-53551438D01*
X159910839Y-53894295D02*
X159910839Y-53094295D01*
X159910839Y-53094295D02*
X159606077Y-53094295D01*
X159606077Y-53094295D02*
X159529887Y-53132390D01*
X159529887Y-53132390D02*
X159491792Y-53170485D01*
X159491792Y-53170485D02*
X159453696Y-53246676D01*
X159453696Y-53246676D02*
X159453696Y-53360961D01*
X159453696Y-53360961D02*
X159491792Y-53437152D01*
X159491792Y-53437152D02*
X159529887Y-53475247D01*
X159529887Y-53475247D02*
X159606077Y-53513342D01*
X159606077Y-53513342D02*
X159910839Y-53513342D01*
X158958458Y-53094295D02*
X158882268Y-53094295D01*
X158882268Y-53094295D02*
X158806077Y-53132390D01*
X158806077Y-53132390D02*
X158767982Y-53170485D01*
X158767982Y-53170485D02*
X158729887Y-53246676D01*
X158729887Y-53246676D02*
X158691792Y-53399057D01*
X158691792Y-53399057D02*
X158691792Y-53589533D01*
X158691792Y-53589533D02*
X158729887Y-53741914D01*
X158729887Y-53741914D02*
X158767982Y-53818104D01*
X158767982Y-53818104D02*
X158806077Y-53856200D01*
X158806077Y-53856200D02*
X158882268Y-53894295D01*
X158882268Y-53894295D02*
X158958458Y-53894295D01*
X158958458Y-53894295D02*
X159034649Y-53856200D01*
X159034649Y-53856200D02*
X159072744Y-53818104D01*
X159072744Y-53818104D02*
X159110839Y-53741914D01*
X159110839Y-53741914D02*
X159148935Y-53589533D01*
X159148935Y-53589533D02*
X159148935Y-53399057D01*
X159148935Y-53399057D02*
X159110839Y-53246676D01*
X159110839Y-53246676D02*
X159072744Y-53170485D01*
X159072744Y-53170485D02*
X159034649Y-53132390D01*
X159034649Y-53132390D02*
X158958458Y-53094295D01*
X108703333Y-50724819D02*
X108703333Y-51439104D01*
X108703333Y-51439104D02*
X108750952Y-51581961D01*
X108750952Y-51581961D02*
X108846190Y-51677200D01*
X108846190Y-51677200D02*
X108989047Y-51724819D01*
X108989047Y-51724819D02*
X109084285Y-51724819D01*
X107703333Y-51724819D02*
X108274761Y-51724819D01*
X107989047Y-51724819D02*
X107989047Y-50724819D01*
X107989047Y-50724819D02*
X108084285Y-50867676D01*
X108084285Y-50867676D02*
X108179523Y-50962914D01*
X108179523Y-50962914D02*
X108274761Y-51010533D01*
D11*
X107040000Y-44900000D02*
X107040000Y-47500000D01*
X107040000Y-44900000D02*
X157960000Y-44900000D01*
X107040000Y-47500000D02*
X109640000Y-47500000D01*
X107040000Y-48770000D02*
X107040000Y-50100000D01*
X107040000Y-50100000D02*
X108370000Y-50100000D01*
X109640000Y-47500000D02*
X109640000Y-50100000D01*
X109640000Y-50100000D02*
X157960000Y-50100000D01*
X157960000Y-44900000D02*
X157960000Y-50100000D01*
M02*
