M48
; DRILL file {KiCad 9.0.1-9.0.1-0~ubuntu24.04.1} date 2025-04-25T17:19:23-0500
; FORMAT={-:-/ absolute / metric / decimal}
; #@! TF.CreationDate,2025-04-25T17:19:23-05:00
; #@! TF.GenerationSoftware,Kicad,Pcbnew,9.0.1-9.0.1-0~ubuntu24.04.1
; #@! TF.FileFunction,Plated,1,4,PTH
FMAT,2
METRIC
; #@! TA.AperFunction,Plated,PTH,ViaDrill
T1C0.300
; #@! TA.AperFunction,Plated,PTH,ComponentDrill
T2C0.800
; #@! TA.AperFunction,Plated,PTH,ComponentDrill
T3C0.900
; #@! TA.AperFunction,Plated,PTH,ComponentDrill
T4C1.000
; #@! TA.AperFunction,Plated,PTH,ComponentDrill
T5C1.100
%
G90
G05
T1
X135.6Y-85.4
X136.6Y-87.6
T2
X106.3Y-67.35
X106.3Y-69.85
X106.3Y-72.35
X109.5Y-67.35
X109.5Y-69.85
X109.5Y-72.35
T3
X108.8Y-78.083
X108.8Y-80.242
X108.8Y-82.401
X108.8Y-84.56
T4
X108.37Y-46.23
X108.37Y-48.77
X109.24Y-90.42
X109.24Y-95.5
X110.91Y-46.23
X110.91Y-48.77
X111.78Y-90.42
X111.78Y-95.5
X113.45Y-46.23
X113.45Y-48.77
X114.32Y-90.42
X114.32Y-95.5
X114.76Y-58.52
X114.76Y-76.3
X115.99Y-46.23
X115.99Y-48.77
X117.3Y-58.52
X117.3Y-76.3
X118.53Y-46.23
X118.53Y-48.77
X119.84Y-58.52
X119.84Y-76.3
X121.07Y-46.23
X121.07Y-48.77
X122.38Y-58.52
X122.38Y-76.3
X123.61Y-46.23
X123.61Y-48.77
X124.92Y-58.52
X124.92Y-76.3
X126.15Y-46.23
X126.15Y-48.77
X127.46Y-58.52
X127.46Y-76.3
X128.69Y-46.23
X128.69Y-48.77
X130.0Y-58.52
X130.0Y-76.3
X131.23Y-46.23
X131.23Y-48.77
X132.54Y-58.52
X132.54Y-76.3
X133.77Y-46.23
X133.77Y-48.77
X135.08Y-58.52
X135.08Y-76.3
X136.31Y-46.23
X136.31Y-48.77
X137.62Y-58.52
X137.62Y-76.3
X138.85Y-46.23
X138.85Y-48.77
X140.16Y-53.3
X140.16Y-58.52
X140.16Y-76.3
X140.16Y-80.9
X141.39Y-46.23
X141.39Y-48.77
X142.7Y-53.3
X142.7Y-58.52
X142.7Y-76.3
X142.7Y-80.9
X143.93Y-46.23
X143.93Y-48.77
X145.24Y-53.3
X145.24Y-58.52
X145.24Y-76.3
X145.24Y-80.9
X146.47Y-46.23
X146.47Y-48.77
X147.78Y-53.3
X147.78Y-58.52
X147.78Y-68.05
X147.78Y-76.3
X147.78Y-80.9
X149.01Y-46.23
X149.01Y-48.77
X150.32Y-53.3
X150.32Y-58.52
X150.32Y-68.05
X150.32Y-76.3
X150.32Y-80.9
X151.55Y-46.23
X151.55Y-48.77
X152.86Y-53.3
X152.86Y-58.52
X152.86Y-68.05
X152.86Y-76.3
X154.09Y-46.23
X154.09Y-48.77
X154.125Y-80.9
X155.4Y-53.3
X155.4Y-58.52
X155.4Y-68.05
X155.4Y-76.3
X156.63Y-46.23
X156.63Y-48.77
X156.665Y-80.9
X157.94Y-53.3
X157.94Y-58.52
X157.94Y-76.3
X160.48Y-53.3
X160.48Y-58.52
X160.48Y-76.3
X160.48Y-86.4
X163.02Y-53.3
X163.02Y-58.52
X163.02Y-76.3
X163.02Y-86.4
T5
X129.537Y-89.25
X129.537Y-95.75
X134.037Y-89.25
X134.037Y-95.75
X139.15Y-89.25
X139.15Y-95.75
X143.65Y-89.25
X143.65Y-95.75
M30
