G04 #@! TF.GenerationSoftware,KiCad,Pcbnew,9.0.2-1.fc42*
G04 #@! TF.CreationDate,2025-05-23T23:47:44-05:00*
G04 #@! TF.ProjectId,pico_driver,7069636f-5f64-4726-9976-65722e6b6963,rev?*
G04 #@! TF.SameCoordinates,Original*
G04 #@! TF.FileFunction,Soldermask,Top*
G04 #@! TF.FilePolarity,Negative*
%FSLAX46Y46*%
G04 Gerber Fmt 4.6, Leading zero omitted, Abs format (unit mm)*
G04 Created by KiCad (PCBNEW 9.0.2-1.fc42) date 2025-05-23 23:47:44*
%MOMM*%
%LPD*%
G01*
G04 APERTURE LIST*
G04 APERTURE END LIST*
G36*
X103815151Y-95187301D02*
G01*
X104016623Y-95252763D01*
X104205373Y-95348936D01*
X104376755Y-95473452D01*
X104526548Y-95623245D01*
X104651064Y-95794627D01*
X104747237Y-95983377D01*
X104812699Y-96184849D01*
X104845838Y-96394080D01*
X104845838Y-96605920D01*
X104812699Y-96815151D01*
X104747237Y-97016623D01*
X104651064Y-97205373D01*
X104526548Y-97376755D01*
X104376755Y-97526548D01*
X104205373Y-97651064D01*
X104016623Y-97747237D01*
X103815151Y-97812699D01*
X103605920Y-97845838D01*
X103394080Y-97845838D01*
X103184849Y-97812699D01*
X102983377Y-97747237D01*
X102794627Y-97651064D01*
X102623245Y-97526548D01*
X102473452Y-97376755D01*
X102348936Y-97205373D01*
X102252763Y-97016623D01*
X102187301Y-96815151D01*
X102154162Y-96605920D01*
X102154162Y-96394080D01*
X102187301Y-96184849D01*
X102252763Y-95983377D01*
X102348936Y-95794627D01*
X102473452Y-95623245D01*
X102623245Y-95473452D01*
X102794627Y-95348936D01*
X102983377Y-95252763D01*
X103184849Y-95187301D01*
X103394080Y-95154162D01*
X103605920Y-95154162D01*
X103815151Y-95187301D01*
G37*
G36*
X161815151Y-95187301D02*
G01*
X162016623Y-95252763D01*
X162205373Y-95348936D01*
X162376755Y-95473452D01*
X162526548Y-95623245D01*
X162651064Y-95794627D01*
X162747237Y-95983377D01*
X162812699Y-96184849D01*
X162845838Y-96394080D01*
X162845838Y-96605920D01*
X162812699Y-96815151D01*
X162747237Y-97016623D01*
X162651064Y-97205373D01*
X162526548Y-97376755D01*
X162376755Y-97526548D01*
X162205373Y-97651064D01*
X162016623Y-97747237D01*
X161815151Y-97812699D01*
X161605920Y-97845838D01*
X161394080Y-97845838D01*
X161184849Y-97812699D01*
X160983377Y-97747237D01*
X160794627Y-97651064D01*
X160623245Y-97526548D01*
X160473452Y-97376755D01*
X160348936Y-97205373D01*
X160252763Y-97016623D01*
X160187301Y-96815151D01*
X160154162Y-96605920D01*
X160154162Y-96394080D01*
X160187301Y-96184849D01*
X160252763Y-95983377D01*
X160348936Y-95794627D01*
X160473452Y-95623245D01*
X160623245Y-95473452D01*
X160794627Y-95348936D01*
X160983377Y-95252763D01*
X161184849Y-95187301D01*
X161394080Y-95154162D01*
X161605920Y-95154162D01*
X161815151Y-95187301D01*
G37*
G36*
X129440285Y-94693060D02*
G01*
X129621397Y-94768079D01*
X129784393Y-94876990D01*
X129923010Y-95015607D01*
X130031921Y-95178603D01*
X130106940Y-95359715D01*
X130145185Y-95551983D01*
X130145185Y-95748017D01*
X130106940Y-95940285D01*
X130031921Y-96121397D01*
X129923010Y-96284393D01*
X129784393Y-96423010D01*
X129621397Y-96531921D01*
X129440285Y-96606940D01*
X129248017Y-96645185D01*
X129051983Y-96645185D01*
X128859715Y-96606940D01*
X128678603Y-96531921D01*
X128515607Y-96423010D01*
X128376990Y-96284393D01*
X128268079Y-96121397D01*
X128193060Y-95940285D01*
X128154815Y-95748017D01*
X128154815Y-95551983D01*
X128193060Y-95359715D01*
X128268079Y-95178603D01*
X128376990Y-95015607D01*
X128515607Y-94876990D01*
X128678603Y-94768079D01*
X128859715Y-94693060D01*
X129051983Y-94654815D01*
X129248017Y-94654815D01*
X129440285Y-94693060D01*
G37*
G36*
X133940285Y-94693060D02*
G01*
X134121397Y-94768079D01*
X134284393Y-94876990D01*
X134423010Y-95015607D01*
X134531921Y-95178603D01*
X134606940Y-95359715D01*
X134645185Y-95551983D01*
X134645185Y-95748017D01*
X134606940Y-95940285D01*
X134531921Y-96121397D01*
X134423010Y-96284393D01*
X134284393Y-96423010D01*
X134121397Y-96531921D01*
X133940285Y-96606940D01*
X133748017Y-96645185D01*
X133551983Y-96645185D01*
X133359715Y-96606940D01*
X133178603Y-96531921D01*
X133015607Y-96423010D01*
X132876990Y-96284393D01*
X132768079Y-96121397D01*
X132693060Y-95940285D01*
X132654815Y-95748017D01*
X132654815Y-95551983D01*
X132693060Y-95359715D01*
X132768079Y-95178603D01*
X132876990Y-95015607D01*
X133015607Y-94876990D01*
X133178603Y-94768079D01*
X133359715Y-94693060D01*
X133551983Y-94654815D01*
X133748017Y-94654815D01*
X133940285Y-94693060D01*
G37*
G36*
X139640285Y-94693060D02*
G01*
X139821397Y-94768079D01*
X139984393Y-94876990D01*
X140123010Y-95015607D01*
X140231921Y-95178603D01*
X140306940Y-95359715D01*
X140345185Y-95551983D01*
X140345185Y-95748017D01*
X140306940Y-95940285D01*
X140231921Y-96121397D01*
X140123010Y-96284393D01*
X139984393Y-96423010D01*
X139821397Y-96531921D01*
X139640285Y-96606940D01*
X139448017Y-96645185D01*
X139251983Y-96645185D01*
X139059715Y-96606940D01*
X138878603Y-96531921D01*
X138715607Y-96423010D01*
X138576990Y-96284393D01*
X138468079Y-96121397D01*
X138393060Y-95940285D01*
X138354815Y-95748017D01*
X138354815Y-95551983D01*
X138393060Y-95359715D01*
X138468079Y-95178603D01*
X138576990Y-95015607D01*
X138715607Y-94876990D01*
X138878603Y-94768079D01*
X139059715Y-94693060D01*
X139251983Y-94654815D01*
X139448017Y-94654815D01*
X139640285Y-94693060D01*
G37*
G36*
X144140285Y-94693060D02*
G01*
X144321397Y-94768079D01*
X144484393Y-94876990D01*
X144623010Y-95015607D01*
X144731921Y-95178603D01*
X144806940Y-95359715D01*
X144845185Y-95551983D01*
X144845185Y-95748017D01*
X144806940Y-95940285D01*
X144731921Y-96121397D01*
X144623010Y-96284393D01*
X144484393Y-96423010D01*
X144321397Y-96531921D01*
X144140285Y-96606940D01*
X143948017Y-96645185D01*
X143751983Y-96645185D01*
X143559715Y-96606940D01*
X143378603Y-96531921D01*
X143215607Y-96423010D01*
X143076990Y-96284393D01*
X142968079Y-96121397D01*
X142893060Y-95940285D01*
X142854815Y-95748017D01*
X142854815Y-95551983D01*
X142893060Y-95359715D01*
X142968079Y-95178603D01*
X143076990Y-95015607D01*
X143215607Y-94876990D01*
X143378603Y-94768079D01*
X143559715Y-94693060D01*
X143751983Y-94654815D01*
X143948017Y-94654815D01*
X144140285Y-94693060D01*
G37*
G36*
X115170000Y-96350000D02*
G01*
X113470000Y-96350000D01*
X113470000Y-94650000D01*
X115170000Y-94650000D01*
X115170000Y-96350000D01*
G37*
G36*
X109486742Y-94686601D02*
G01*
X109640687Y-94750367D01*
X109779234Y-94842941D01*
X109897059Y-94960766D01*
X109989633Y-95099313D01*
X110053399Y-95253258D01*
X110085907Y-95416685D01*
X110085907Y-95583315D01*
X110053399Y-95746742D01*
X109989633Y-95900687D01*
X109897059Y-96039234D01*
X109779234Y-96157059D01*
X109640687Y-96249633D01*
X109486742Y-96313399D01*
X109323315Y-96345907D01*
X109156685Y-96345907D01*
X108993258Y-96313399D01*
X108839313Y-96249633D01*
X108700766Y-96157059D01*
X108582941Y-96039234D01*
X108490367Y-95900687D01*
X108426601Y-95746742D01*
X108394093Y-95583315D01*
X108394093Y-95416685D01*
X108426601Y-95253258D01*
X108490367Y-95099313D01*
X108582941Y-94960766D01*
X108700766Y-94842941D01*
X108839313Y-94750367D01*
X108993258Y-94686601D01*
X109156685Y-94654093D01*
X109323315Y-94654093D01*
X109486742Y-94686601D01*
G37*
G36*
X112026742Y-94686601D02*
G01*
X112180687Y-94750367D01*
X112319234Y-94842941D01*
X112437059Y-94960766D01*
X112529633Y-95099313D01*
X112593399Y-95253258D01*
X112625907Y-95416685D01*
X112625907Y-95583315D01*
X112593399Y-95746742D01*
X112529633Y-95900687D01*
X112437059Y-96039234D01*
X112319234Y-96157059D01*
X112180687Y-96249633D01*
X112026742Y-96313399D01*
X111863315Y-96345907D01*
X111696685Y-96345907D01*
X111533258Y-96313399D01*
X111379313Y-96249633D01*
X111240766Y-96157059D01*
X111122941Y-96039234D01*
X111030367Y-95900687D01*
X110966601Y-95746742D01*
X110934093Y-95583315D01*
X110934093Y-95416685D01*
X110966601Y-95253258D01*
X111030367Y-95099313D01*
X111122941Y-94960766D01*
X111240766Y-94842941D01*
X111379313Y-94750367D01*
X111533258Y-94686601D01*
X111696685Y-94654093D01*
X111863315Y-94654093D01*
X112026742Y-94686601D01*
G37*
G36*
X115170000Y-91270000D02*
G01*
X113470000Y-91270000D01*
X113470000Y-89570000D01*
X115170000Y-89570000D01*
X115170000Y-91270000D01*
G37*
G36*
X109486742Y-89606601D02*
G01*
X109640687Y-89670367D01*
X109779234Y-89762941D01*
X109897059Y-89880766D01*
X109989633Y-90019313D01*
X110053399Y-90173258D01*
X110085907Y-90336685D01*
X110085907Y-90503315D01*
X110053399Y-90666742D01*
X109989633Y-90820687D01*
X109897059Y-90959234D01*
X109779234Y-91077059D01*
X109640687Y-91169633D01*
X109486742Y-91233399D01*
X109323315Y-91265907D01*
X109156685Y-91265907D01*
X108993258Y-91233399D01*
X108839313Y-91169633D01*
X108700766Y-91077059D01*
X108582941Y-90959234D01*
X108490367Y-90820687D01*
X108426601Y-90666742D01*
X108394093Y-90503315D01*
X108394093Y-90336685D01*
X108426601Y-90173258D01*
X108490367Y-90019313D01*
X108582941Y-89880766D01*
X108700766Y-89762941D01*
X108839313Y-89670367D01*
X108993258Y-89606601D01*
X109156685Y-89574093D01*
X109323315Y-89574093D01*
X109486742Y-89606601D01*
G37*
G36*
X112026742Y-89606601D02*
G01*
X112180687Y-89670367D01*
X112319234Y-89762941D01*
X112437059Y-89880766D01*
X112529633Y-90019313D01*
X112593399Y-90173258D01*
X112625907Y-90336685D01*
X112625907Y-90503315D01*
X112593399Y-90666742D01*
X112529633Y-90820687D01*
X112437059Y-90959234D01*
X112319234Y-91077059D01*
X112180687Y-91169633D01*
X112026742Y-91233399D01*
X111863315Y-91265907D01*
X111696685Y-91265907D01*
X111533258Y-91233399D01*
X111379313Y-91169633D01*
X111240766Y-91077059D01*
X111122941Y-90959234D01*
X111030367Y-90820687D01*
X110966601Y-90666742D01*
X110934093Y-90503315D01*
X110934093Y-90336685D01*
X110966601Y-90173258D01*
X111030367Y-90019313D01*
X111122941Y-89880766D01*
X111240766Y-89762941D01*
X111379313Y-89670367D01*
X111533258Y-89606601D01*
X111696685Y-89574093D01*
X111863315Y-89574093D01*
X112026742Y-89606601D01*
G37*
G36*
X121950000Y-90550000D02*
G01*
X120450000Y-90550000D01*
X120450000Y-89550000D01*
X121950000Y-89550000D01*
X121950000Y-90550000D01*
G37*
G36*
X125450000Y-90550000D02*
G01*
X123950000Y-90550000D01*
X123950000Y-89550000D01*
X125450000Y-89550000D01*
X125450000Y-90550000D01*
G37*
G36*
X129440285Y-88193060D02*
G01*
X129621397Y-88268079D01*
X129784393Y-88376990D01*
X129923010Y-88515607D01*
X130031921Y-88678603D01*
X130106940Y-88859715D01*
X130145185Y-89051983D01*
X130145185Y-89248017D01*
X130106940Y-89440285D01*
X130031921Y-89621397D01*
X129923010Y-89784393D01*
X129784393Y-89923010D01*
X129621397Y-90031921D01*
X129440285Y-90106940D01*
X129248017Y-90145185D01*
X129051983Y-90145185D01*
X128859715Y-90106940D01*
X128678603Y-90031921D01*
X128515607Y-89923010D01*
X128376990Y-89784393D01*
X128268079Y-89621397D01*
X128193060Y-89440285D01*
X128154815Y-89248017D01*
X128154815Y-89051983D01*
X128193060Y-88859715D01*
X128268079Y-88678603D01*
X128376990Y-88515607D01*
X128515607Y-88376990D01*
X128678603Y-88268079D01*
X128859715Y-88193060D01*
X129051983Y-88154815D01*
X129248017Y-88154815D01*
X129440285Y-88193060D01*
G37*
G36*
X133940285Y-88193060D02*
G01*
X134121397Y-88268079D01*
X134284393Y-88376990D01*
X134423010Y-88515607D01*
X134531921Y-88678603D01*
X134606940Y-88859715D01*
X134645185Y-89051983D01*
X134645185Y-89248017D01*
X134606940Y-89440285D01*
X134531921Y-89621397D01*
X134423010Y-89784393D01*
X134284393Y-89923010D01*
X134121397Y-90031921D01*
X133940285Y-90106940D01*
X133748017Y-90145185D01*
X133551983Y-90145185D01*
X133359715Y-90106940D01*
X133178603Y-90031921D01*
X133015607Y-89923010D01*
X132876990Y-89784393D01*
X132768079Y-89621397D01*
X132693060Y-89440285D01*
X132654815Y-89248017D01*
X132654815Y-89051983D01*
X132693060Y-88859715D01*
X132768079Y-88678603D01*
X132876990Y-88515607D01*
X133015607Y-88376990D01*
X133178603Y-88268079D01*
X133359715Y-88193060D01*
X133551983Y-88154815D01*
X133748017Y-88154815D01*
X133940285Y-88193060D01*
G37*
G36*
X139640285Y-88193060D02*
G01*
X139821397Y-88268079D01*
X139984393Y-88376990D01*
X140123010Y-88515607D01*
X140231921Y-88678603D01*
X140306940Y-88859715D01*
X140345185Y-89051983D01*
X140345185Y-89248017D01*
X140306940Y-89440285D01*
X140231921Y-89621397D01*
X140123010Y-89784393D01*
X139984393Y-89923010D01*
X139821397Y-90031921D01*
X139640285Y-90106940D01*
X139448017Y-90145185D01*
X139251983Y-90145185D01*
X139059715Y-90106940D01*
X138878603Y-90031921D01*
X138715607Y-89923010D01*
X138576990Y-89784393D01*
X138468079Y-89621397D01*
X138393060Y-89440285D01*
X138354815Y-89248017D01*
X138354815Y-89051983D01*
X138393060Y-88859715D01*
X138468079Y-88678603D01*
X138576990Y-88515607D01*
X138715607Y-88376990D01*
X138878603Y-88268079D01*
X139059715Y-88193060D01*
X139251983Y-88154815D01*
X139448017Y-88154815D01*
X139640285Y-88193060D01*
G37*
G36*
X144140285Y-88193060D02*
G01*
X144321397Y-88268079D01*
X144484393Y-88376990D01*
X144623010Y-88515607D01*
X144731921Y-88678603D01*
X144806940Y-88859715D01*
X144845185Y-89051983D01*
X144845185Y-89248017D01*
X144806940Y-89440285D01*
X144731921Y-89621397D01*
X144623010Y-89784393D01*
X144484393Y-89923010D01*
X144321397Y-90031921D01*
X144140285Y-90106940D01*
X143948017Y-90145185D01*
X143751983Y-90145185D01*
X143559715Y-90106940D01*
X143378603Y-90031921D01*
X143215607Y-89923010D01*
X143076990Y-89784393D01*
X142968079Y-89621397D01*
X142893060Y-89440285D01*
X142854815Y-89248017D01*
X142854815Y-89051983D01*
X142893060Y-88859715D01*
X142968079Y-88678603D01*
X143076990Y-88515607D01*
X143215607Y-88376990D01*
X143378603Y-88268079D01*
X143559715Y-88193060D01*
X143751983Y-88154815D01*
X143948017Y-88154815D01*
X144140285Y-88193060D01*
G37*
G36*
X121950000Y-89150000D02*
G01*
X120450000Y-89150000D01*
X120450000Y-88150000D01*
X121950000Y-88150000D01*
X121950000Y-89150000D01*
G37*
G36*
X125450000Y-89150000D02*
G01*
X123950000Y-89150000D01*
X123950000Y-88150000D01*
X125450000Y-88150000D01*
X125450000Y-89150000D01*
G37*
G36*
X163870000Y-87250000D02*
G01*
X162170000Y-87250000D01*
X162170000Y-85550000D01*
X163870000Y-85550000D01*
X163870000Y-87250000D01*
G37*
G36*
X160726742Y-85586601D02*
G01*
X160880687Y-85650367D01*
X161019234Y-85742941D01*
X161137059Y-85860766D01*
X161229633Y-85999313D01*
X161293399Y-86153258D01*
X161325907Y-86316685D01*
X161325907Y-86483315D01*
X161293399Y-86646742D01*
X161229633Y-86800687D01*
X161137059Y-86939234D01*
X161019234Y-87057059D01*
X160880687Y-87149633D01*
X160726742Y-87213399D01*
X160563315Y-87245907D01*
X160396685Y-87245907D01*
X160233258Y-87213399D01*
X160079313Y-87149633D01*
X159940766Y-87057059D01*
X159822941Y-86939234D01*
X159730367Y-86800687D01*
X159666601Y-86646742D01*
X159634093Y-86483315D01*
X159634093Y-86316685D01*
X159666601Y-86153258D01*
X159730367Y-85999313D01*
X159822941Y-85860766D01*
X159940766Y-85742941D01*
X160079313Y-85650367D01*
X160233258Y-85586601D01*
X160396685Y-85554093D01*
X160563315Y-85554093D01*
X160726742Y-85586601D01*
G37*
G36*
X120829116Y-83800818D02*
G01*
X120880379Y-83806766D01*
X120897892Y-83814499D01*
X120920671Y-83819030D01*
X120945057Y-83835324D01*
X120965788Y-83844478D01*
X120979946Y-83858636D01*
X121001777Y-83873223D01*
X121016363Y-83895053D01*
X121030521Y-83909211D01*
X121039673Y-83929939D01*
X121055970Y-83954329D01*
X121060501Y-83977109D01*
X121068233Y-83994620D01*
X121074178Y-84045872D01*
X121075000Y-84050000D01*
X121075000Y-84850000D01*
X121074178Y-84854128D01*
X121068233Y-84905379D01*
X121060501Y-84922888D01*
X121055970Y-84945671D01*
X121039672Y-84970062D01*
X121030521Y-84990788D01*
X121016365Y-85004943D01*
X121001777Y-85026777D01*
X120979943Y-85041365D01*
X120965788Y-85055521D01*
X120945062Y-85064672D01*
X120920671Y-85080970D01*
X120897888Y-85085501D01*
X120880379Y-85093233D01*
X120829129Y-85099178D01*
X120825000Y-85100000D01*
X119575000Y-85100000D01*
X119570873Y-85099179D01*
X119519620Y-85093233D01*
X119502109Y-85085501D01*
X119479329Y-85080970D01*
X119454939Y-85064673D01*
X119434211Y-85055521D01*
X119420053Y-85041363D01*
X119398223Y-85026777D01*
X119383636Y-85004946D01*
X119369478Y-84990788D01*
X119360324Y-84970057D01*
X119344030Y-84945671D01*
X119339499Y-84922892D01*
X119331766Y-84905379D01*
X119325818Y-84854117D01*
X119325000Y-84850000D01*
X119325000Y-84050000D01*
X119325818Y-84045885D01*
X119331766Y-83994620D01*
X119339499Y-83977105D01*
X119344030Y-83954329D01*
X119360323Y-83929944D01*
X119369478Y-83909211D01*
X119383638Y-83895050D01*
X119398223Y-83873223D01*
X119420050Y-83858638D01*
X119434211Y-83844478D01*
X119454944Y-83835323D01*
X119479329Y-83819030D01*
X119502105Y-83814499D01*
X119519620Y-83806766D01*
X119570884Y-83800818D01*
X119575000Y-83800000D01*
X120825000Y-83800000D01*
X120829116Y-83800818D01*
G37*
G36*
X123629116Y-83800818D02*
G01*
X123680379Y-83806766D01*
X123697892Y-83814499D01*
X123720671Y-83819030D01*
X123745057Y-83835324D01*
X123765788Y-83844478D01*
X123779946Y-83858636D01*
X123801777Y-83873223D01*
X123816363Y-83895053D01*
X123830521Y-83909211D01*
X123839673Y-83929939D01*
X123855970Y-83954329D01*
X123860501Y-83977109D01*
X123868233Y-83994620D01*
X123874178Y-84045872D01*
X123875000Y-84050000D01*
X123875000Y-84850000D01*
X123874178Y-84854128D01*
X123868233Y-84905379D01*
X123860501Y-84922888D01*
X123855970Y-84945671D01*
X123839672Y-84970062D01*
X123830521Y-84990788D01*
X123816365Y-85004943D01*
X123801777Y-85026777D01*
X123779943Y-85041365D01*
X123765788Y-85055521D01*
X123745062Y-85064672D01*
X123720671Y-85080970D01*
X123697888Y-85085501D01*
X123680379Y-85093233D01*
X123629129Y-85099178D01*
X123625000Y-85100000D01*
X122375000Y-85100000D01*
X122370873Y-85099179D01*
X122319620Y-85093233D01*
X122302109Y-85085501D01*
X122279329Y-85080970D01*
X122254939Y-85064673D01*
X122234211Y-85055521D01*
X122220053Y-85041363D01*
X122198223Y-85026777D01*
X122183636Y-85004946D01*
X122169478Y-84990788D01*
X122160324Y-84970057D01*
X122144030Y-84945671D01*
X122139499Y-84922892D01*
X122131766Y-84905379D01*
X122125818Y-84854117D01*
X122125000Y-84850000D01*
X122125000Y-84050000D01*
X122125818Y-84045885D01*
X122131766Y-83994620D01*
X122139499Y-83977105D01*
X122144030Y-83954329D01*
X122160323Y-83929944D01*
X122169478Y-83909211D01*
X122183638Y-83895050D01*
X122198223Y-83873223D01*
X122220050Y-83858638D01*
X122234211Y-83844478D01*
X122254944Y-83835323D01*
X122279329Y-83819030D01*
X122302105Y-83814499D01*
X122319620Y-83806766D01*
X122370884Y-83800818D01*
X122375000Y-83800000D01*
X123625000Y-83800000D01*
X123629116Y-83800818D01*
G37*
G36*
X126379116Y-83800818D02*
G01*
X126430379Y-83806766D01*
X126447892Y-83814499D01*
X126470671Y-83819030D01*
X126495057Y-83835324D01*
X126515788Y-83844478D01*
X126529946Y-83858636D01*
X126551777Y-83873223D01*
X126566363Y-83895053D01*
X126580521Y-83909211D01*
X126589673Y-83929939D01*
X126605970Y-83954329D01*
X126610501Y-83977109D01*
X126618233Y-83994620D01*
X126624178Y-84045872D01*
X126625000Y-84050000D01*
X126625000Y-84850000D01*
X126624178Y-84854128D01*
X126618233Y-84905379D01*
X126610501Y-84922888D01*
X126605970Y-84945671D01*
X126589672Y-84970062D01*
X126580521Y-84990788D01*
X126566365Y-85004943D01*
X126551777Y-85026777D01*
X126529943Y-85041365D01*
X126515788Y-85055521D01*
X126495062Y-85064672D01*
X126470671Y-85080970D01*
X126447888Y-85085501D01*
X126430379Y-85093233D01*
X126379129Y-85099178D01*
X126375000Y-85100000D01*
X125125000Y-85100000D01*
X125120873Y-85099179D01*
X125069620Y-85093233D01*
X125052109Y-85085501D01*
X125029329Y-85080970D01*
X125004939Y-85064673D01*
X124984211Y-85055521D01*
X124970053Y-85041363D01*
X124948223Y-85026777D01*
X124933636Y-85004946D01*
X124919478Y-84990788D01*
X124910324Y-84970057D01*
X124894030Y-84945671D01*
X124889499Y-84922892D01*
X124881766Y-84905379D01*
X124875818Y-84854117D01*
X124875000Y-84850000D01*
X124875000Y-84050000D01*
X124875818Y-84045885D01*
X124881766Y-83994620D01*
X124889499Y-83977105D01*
X124894030Y-83954329D01*
X124910323Y-83929944D01*
X124919478Y-83909211D01*
X124933638Y-83895050D01*
X124948223Y-83873223D01*
X124970050Y-83858638D01*
X124984211Y-83844478D01*
X125004944Y-83835323D01*
X125029329Y-83819030D01*
X125052105Y-83814499D01*
X125069620Y-83806766D01*
X125120884Y-83800818D01*
X125125000Y-83800000D01*
X126375000Y-83800000D01*
X126379116Y-83800818D01*
G37*
G36*
X130366616Y-83125818D02*
G01*
X130417879Y-83131766D01*
X130435392Y-83139499D01*
X130458171Y-83144030D01*
X130482557Y-83160324D01*
X130503288Y-83169478D01*
X130517446Y-83183636D01*
X130539277Y-83198223D01*
X130553863Y-83220053D01*
X130568021Y-83234211D01*
X130577173Y-83254939D01*
X130593470Y-83279329D01*
X130598001Y-83302109D01*
X130605733Y-83319620D01*
X130611678Y-83370872D01*
X130612500Y-83375000D01*
X130612500Y-84625000D01*
X130611678Y-84629128D01*
X130605733Y-84680379D01*
X130598001Y-84697888D01*
X130593470Y-84720671D01*
X130577172Y-84745062D01*
X130568021Y-84765788D01*
X130553865Y-84779943D01*
X130539277Y-84801777D01*
X130517443Y-84816365D01*
X130503288Y-84830521D01*
X130482562Y-84839672D01*
X130458171Y-84855970D01*
X130435388Y-84860501D01*
X130417879Y-84868233D01*
X130366629Y-84874178D01*
X130362500Y-84875000D01*
X129562500Y-84875000D01*
X129558373Y-84874179D01*
X129507120Y-84868233D01*
X129489609Y-84860501D01*
X129466829Y-84855970D01*
X129442439Y-84839673D01*
X129421711Y-84830521D01*
X129407553Y-84816363D01*
X129385723Y-84801777D01*
X129371136Y-84779946D01*
X129356978Y-84765788D01*
X129347824Y-84745057D01*
X129331530Y-84720671D01*
X129326999Y-84697892D01*
X129319266Y-84680379D01*
X129313318Y-84629117D01*
X129312500Y-84625000D01*
X129312500Y-83375000D01*
X129313318Y-83370885D01*
X129319266Y-83319620D01*
X129326999Y-83302105D01*
X129331530Y-83279329D01*
X129347823Y-83254944D01*
X129356978Y-83234211D01*
X129371138Y-83220050D01*
X129385723Y-83198223D01*
X129407550Y-83183638D01*
X129421711Y-83169478D01*
X129442444Y-83160323D01*
X129466829Y-83144030D01*
X129489605Y-83139499D01*
X129507120Y-83131766D01*
X129558384Y-83125818D01*
X129562500Y-83125000D01*
X130362500Y-83125000D01*
X130366616Y-83125818D01*
G37*
G36*
X133466616Y-83125818D02*
G01*
X133517879Y-83131766D01*
X133535392Y-83139499D01*
X133558171Y-83144030D01*
X133582557Y-83160324D01*
X133603288Y-83169478D01*
X133617446Y-83183636D01*
X133639277Y-83198223D01*
X133653863Y-83220053D01*
X133668021Y-83234211D01*
X133677173Y-83254939D01*
X133693470Y-83279329D01*
X133698001Y-83302109D01*
X133705733Y-83319620D01*
X133711678Y-83370872D01*
X133712500Y-83375000D01*
X133712500Y-84625000D01*
X133711678Y-84629128D01*
X133705733Y-84680379D01*
X133698001Y-84697888D01*
X133693470Y-84720671D01*
X133677172Y-84745062D01*
X133668021Y-84765788D01*
X133653865Y-84779943D01*
X133639277Y-84801777D01*
X133617443Y-84816365D01*
X133603288Y-84830521D01*
X133582562Y-84839672D01*
X133558171Y-84855970D01*
X133535388Y-84860501D01*
X133517879Y-84868233D01*
X133466629Y-84874178D01*
X133462500Y-84875000D01*
X132662500Y-84875000D01*
X132658373Y-84874179D01*
X132607120Y-84868233D01*
X132589609Y-84860501D01*
X132566829Y-84855970D01*
X132542439Y-84839673D01*
X132521711Y-84830521D01*
X132507553Y-84816363D01*
X132485723Y-84801777D01*
X132471136Y-84779946D01*
X132456978Y-84765788D01*
X132447824Y-84745057D01*
X132431530Y-84720671D01*
X132426999Y-84697892D01*
X132419266Y-84680379D01*
X132413318Y-84629117D01*
X132412500Y-84625000D01*
X132412500Y-83375000D01*
X132413318Y-83370885D01*
X132419266Y-83319620D01*
X132426999Y-83302105D01*
X132431530Y-83279329D01*
X132447823Y-83254944D01*
X132456978Y-83234211D01*
X132471138Y-83220050D01*
X132485723Y-83198223D01*
X132507550Y-83183638D01*
X132521711Y-83169478D01*
X132542444Y-83160323D01*
X132566829Y-83144030D01*
X132589605Y-83139499D01*
X132607120Y-83131766D01*
X132658384Y-83125818D01*
X132662500Y-83125000D01*
X133462500Y-83125000D01*
X133466616Y-83125818D01*
G37*
G36*
X135479116Y-83125818D02*
G01*
X135530379Y-83131766D01*
X135547892Y-83139499D01*
X135570671Y-83144030D01*
X135595057Y-83160324D01*
X135615788Y-83169478D01*
X135629946Y-83183636D01*
X135651777Y-83198223D01*
X135666363Y-83220053D01*
X135680521Y-83234211D01*
X135689673Y-83254939D01*
X135705970Y-83279329D01*
X135710501Y-83302109D01*
X135718233Y-83319620D01*
X135724178Y-83370872D01*
X135725000Y-83375000D01*
X135725000Y-84625000D01*
X135724178Y-84629128D01*
X135718233Y-84680379D01*
X135710501Y-84697888D01*
X135705970Y-84720671D01*
X135689672Y-84745062D01*
X135680521Y-84765788D01*
X135666365Y-84779943D01*
X135651777Y-84801777D01*
X135629943Y-84816365D01*
X135615788Y-84830521D01*
X135595062Y-84839672D01*
X135570671Y-84855970D01*
X135547888Y-84860501D01*
X135530379Y-84868233D01*
X135479129Y-84874178D01*
X135475000Y-84875000D01*
X134675000Y-84875000D01*
X134670873Y-84874179D01*
X134619620Y-84868233D01*
X134602109Y-84860501D01*
X134579329Y-84855970D01*
X134554939Y-84839673D01*
X134534211Y-84830521D01*
X134520053Y-84816363D01*
X134498223Y-84801777D01*
X134483636Y-84779946D01*
X134469478Y-84765788D01*
X134460324Y-84745057D01*
X134444030Y-84720671D01*
X134439499Y-84697892D01*
X134431766Y-84680379D01*
X134425818Y-84629117D01*
X134425000Y-84625000D01*
X134425000Y-83375000D01*
X134425818Y-83370885D01*
X134431766Y-83319620D01*
X134439499Y-83302105D01*
X134444030Y-83279329D01*
X134460323Y-83254944D01*
X134469478Y-83234211D01*
X134483638Y-83220050D01*
X134498223Y-83198223D01*
X134520050Y-83183638D01*
X134534211Y-83169478D01*
X134554944Y-83160323D01*
X134579329Y-83144030D01*
X134602105Y-83139499D01*
X134619620Y-83131766D01*
X134670884Y-83125818D01*
X134675000Y-83125000D01*
X135475000Y-83125000D01*
X135479116Y-83125818D01*
G37*
G36*
X138579116Y-83125818D02*
G01*
X138630379Y-83131766D01*
X138647892Y-83139499D01*
X138670671Y-83144030D01*
X138695057Y-83160324D01*
X138715788Y-83169478D01*
X138729946Y-83183636D01*
X138751777Y-83198223D01*
X138766363Y-83220053D01*
X138780521Y-83234211D01*
X138789673Y-83254939D01*
X138805970Y-83279329D01*
X138810501Y-83302109D01*
X138818233Y-83319620D01*
X138824178Y-83370872D01*
X138825000Y-83375000D01*
X138825000Y-84625000D01*
X138824178Y-84629128D01*
X138818233Y-84680379D01*
X138810501Y-84697888D01*
X138805970Y-84720671D01*
X138789672Y-84745062D01*
X138780521Y-84765788D01*
X138766365Y-84779943D01*
X138751777Y-84801777D01*
X138729943Y-84816365D01*
X138715788Y-84830521D01*
X138695062Y-84839672D01*
X138670671Y-84855970D01*
X138647888Y-84860501D01*
X138630379Y-84868233D01*
X138579129Y-84874178D01*
X138575000Y-84875000D01*
X137775000Y-84875000D01*
X137770873Y-84874179D01*
X137719620Y-84868233D01*
X137702109Y-84860501D01*
X137679329Y-84855970D01*
X137654939Y-84839673D01*
X137634211Y-84830521D01*
X137620053Y-84816363D01*
X137598223Y-84801777D01*
X137583636Y-84779946D01*
X137569478Y-84765788D01*
X137560324Y-84745057D01*
X137544030Y-84720671D01*
X137539499Y-84697892D01*
X137531766Y-84680379D01*
X137525818Y-84629117D01*
X137525000Y-84625000D01*
X137525000Y-83375000D01*
X137525818Y-83370885D01*
X137531766Y-83319620D01*
X137539499Y-83302105D01*
X137544030Y-83279329D01*
X137560323Y-83254944D01*
X137569478Y-83234211D01*
X137583638Y-83220050D01*
X137598223Y-83198223D01*
X137620050Y-83183638D01*
X137634211Y-83169478D01*
X137654944Y-83160323D01*
X137679329Y-83144030D01*
X137702105Y-83139499D01*
X137719620Y-83131766D01*
X137770884Y-83125818D01*
X137775000Y-83125000D01*
X138575000Y-83125000D01*
X138579116Y-83125818D01*
G37*
G36*
X120829116Y-80700818D02*
G01*
X120880379Y-80706766D01*
X120897892Y-80714499D01*
X120920671Y-80719030D01*
X120945057Y-80735324D01*
X120965788Y-80744478D01*
X120979946Y-80758636D01*
X121001777Y-80773223D01*
X121016363Y-80795053D01*
X121030521Y-80809211D01*
X121039673Y-80829939D01*
X121055970Y-80854329D01*
X121060501Y-80877109D01*
X121068233Y-80894620D01*
X121074178Y-80945872D01*
X121075000Y-80950000D01*
X121075000Y-81750000D01*
X121074178Y-81754128D01*
X121068233Y-81805379D01*
X121060501Y-81822888D01*
X121055970Y-81845671D01*
X121039672Y-81870062D01*
X121030521Y-81890788D01*
X121016365Y-81904943D01*
X121001777Y-81926777D01*
X120979943Y-81941365D01*
X120965788Y-81955521D01*
X120945062Y-81964672D01*
X120920671Y-81980970D01*
X120897888Y-81985501D01*
X120880379Y-81993233D01*
X120829129Y-81999178D01*
X120825000Y-82000000D01*
X119575000Y-82000000D01*
X119570873Y-81999179D01*
X119519620Y-81993233D01*
X119502109Y-81985501D01*
X119479329Y-81980970D01*
X119454939Y-81964673D01*
X119434211Y-81955521D01*
X119420053Y-81941363D01*
X119398223Y-81926777D01*
X119383636Y-81904946D01*
X119369478Y-81890788D01*
X119360324Y-81870057D01*
X119344030Y-81845671D01*
X119339499Y-81822892D01*
X119331766Y-81805379D01*
X119325818Y-81754117D01*
X119325000Y-81750000D01*
X119325000Y-80950000D01*
X119325818Y-80945885D01*
X119331766Y-80894620D01*
X119339499Y-80877105D01*
X119344030Y-80854329D01*
X119360323Y-80829944D01*
X119369478Y-80809211D01*
X119383638Y-80795050D01*
X119398223Y-80773223D01*
X119420050Y-80758638D01*
X119434211Y-80744478D01*
X119454944Y-80735323D01*
X119479329Y-80719030D01*
X119502105Y-80714499D01*
X119519620Y-80706766D01*
X119570884Y-80700818D01*
X119575000Y-80700000D01*
X120825000Y-80700000D01*
X120829116Y-80700818D01*
G37*
G36*
X123629116Y-80700818D02*
G01*
X123680379Y-80706766D01*
X123697892Y-80714499D01*
X123720671Y-80719030D01*
X123745057Y-80735324D01*
X123765788Y-80744478D01*
X123779946Y-80758636D01*
X123801777Y-80773223D01*
X123816363Y-80795053D01*
X123830521Y-80809211D01*
X123839673Y-80829939D01*
X123855970Y-80854329D01*
X123860501Y-80877109D01*
X123868233Y-80894620D01*
X123874178Y-80945872D01*
X123875000Y-80950000D01*
X123875000Y-81750000D01*
X123874178Y-81754128D01*
X123868233Y-81805379D01*
X123860501Y-81822888D01*
X123855970Y-81845671D01*
X123839672Y-81870062D01*
X123830521Y-81890788D01*
X123816365Y-81904943D01*
X123801777Y-81926777D01*
X123779943Y-81941365D01*
X123765788Y-81955521D01*
X123745062Y-81964672D01*
X123720671Y-81980970D01*
X123697888Y-81985501D01*
X123680379Y-81993233D01*
X123629129Y-81999178D01*
X123625000Y-82000000D01*
X122375000Y-82000000D01*
X122370873Y-81999179D01*
X122319620Y-81993233D01*
X122302109Y-81985501D01*
X122279329Y-81980970D01*
X122254939Y-81964673D01*
X122234211Y-81955521D01*
X122220053Y-81941363D01*
X122198223Y-81926777D01*
X122183636Y-81904946D01*
X122169478Y-81890788D01*
X122160324Y-81870057D01*
X122144030Y-81845671D01*
X122139499Y-81822892D01*
X122131766Y-81805379D01*
X122125818Y-81754117D01*
X122125000Y-81750000D01*
X122125000Y-80950000D01*
X122125818Y-80945885D01*
X122131766Y-80894620D01*
X122139499Y-80877105D01*
X122144030Y-80854329D01*
X122160323Y-80829944D01*
X122169478Y-80809211D01*
X122183638Y-80795050D01*
X122198223Y-80773223D01*
X122220050Y-80758638D01*
X122234211Y-80744478D01*
X122254944Y-80735323D01*
X122279329Y-80719030D01*
X122302105Y-80714499D01*
X122319620Y-80706766D01*
X122370884Y-80700818D01*
X122375000Y-80700000D01*
X123625000Y-80700000D01*
X123629116Y-80700818D01*
G37*
G36*
X126379116Y-80700818D02*
G01*
X126430379Y-80706766D01*
X126447892Y-80714499D01*
X126470671Y-80719030D01*
X126495057Y-80735324D01*
X126515788Y-80744478D01*
X126529946Y-80758636D01*
X126551777Y-80773223D01*
X126566363Y-80795053D01*
X126580521Y-80809211D01*
X126589673Y-80829939D01*
X126605970Y-80854329D01*
X126610501Y-80877109D01*
X126618233Y-80894620D01*
X126624178Y-80945872D01*
X126625000Y-80950000D01*
X126625000Y-81750000D01*
X126624178Y-81754128D01*
X126618233Y-81805379D01*
X126610501Y-81822888D01*
X126605970Y-81845671D01*
X126589672Y-81870062D01*
X126580521Y-81890788D01*
X126566365Y-81904943D01*
X126551777Y-81926777D01*
X126529943Y-81941365D01*
X126515788Y-81955521D01*
X126495062Y-81964672D01*
X126470671Y-81980970D01*
X126447888Y-81985501D01*
X126430379Y-81993233D01*
X126379129Y-81999178D01*
X126375000Y-82000000D01*
X125125000Y-82000000D01*
X125120873Y-81999179D01*
X125069620Y-81993233D01*
X125052109Y-81985501D01*
X125029329Y-81980970D01*
X125004939Y-81964673D01*
X124984211Y-81955521D01*
X124970053Y-81941363D01*
X124948223Y-81926777D01*
X124933636Y-81904946D01*
X124919478Y-81890788D01*
X124910324Y-81870057D01*
X124894030Y-81845671D01*
X124889499Y-81822892D01*
X124881766Y-81805379D01*
X124875818Y-81754117D01*
X124875000Y-81750000D01*
X124875000Y-80950000D01*
X124875818Y-80945885D01*
X124881766Y-80894620D01*
X124889499Y-80877105D01*
X124894030Y-80854329D01*
X124910323Y-80829944D01*
X124919478Y-80809211D01*
X124933638Y-80795050D01*
X124948223Y-80773223D01*
X124970050Y-80758638D01*
X124984211Y-80744478D01*
X125004944Y-80735323D01*
X125029329Y-80719030D01*
X125052105Y-80714499D01*
X125069620Y-80706766D01*
X125120884Y-80700818D01*
X125125000Y-80700000D01*
X126375000Y-80700000D01*
X126379116Y-80700818D01*
G37*
G36*
X151170000Y-81750000D02*
G01*
X149470000Y-81750000D01*
X149470000Y-80050000D01*
X151170000Y-80050000D01*
X151170000Y-81750000D01*
G37*
G36*
X154975000Y-81750000D02*
G01*
X153275000Y-81750000D01*
X153275000Y-80050000D01*
X154975000Y-80050000D01*
X154975000Y-81750000D01*
G37*
G36*
X140406742Y-80086601D02*
G01*
X140560687Y-80150367D01*
X140699234Y-80242941D01*
X140817059Y-80360766D01*
X140909633Y-80499313D01*
X140973399Y-80653258D01*
X141005907Y-80816685D01*
X141005907Y-80983315D01*
X140973399Y-81146742D01*
X140909633Y-81300687D01*
X140817059Y-81439234D01*
X140699234Y-81557059D01*
X140560687Y-81649633D01*
X140406742Y-81713399D01*
X140243315Y-81745907D01*
X140076685Y-81745907D01*
X139913258Y-81713399D01*
X139759313Y-81649633D01*
X139620766Y-81557059D01*
X139502941Y-81439234D01*
X139410367Y-81300687D01*
X139346601Y-81146742D01*
X139314093Y-80983315D01*
X139314093Y-80816685D01*
X139346601Y-80653258D01*
X139410367Y-80499313D01*
X139502941Y-80360766D01*
X139620766Y-80242941D01*
X139759313Y-80150367D01*
X139913258Y-80086601D01*
X140076685Y-80054093D01*
X140243315Y-80054093D01*
X140406742Y-80086601D01*
G37*
G36*
X142946742Y-80086601D02*
G01*
X143100687Y-80150367D01*
X143239234Y-80242941D01*
X143357059Y-80360766D01*
X143449633Y-80499313D01*
X143513399Y-80653258D01*
X143545907Y-80816685D01*
X143545907Y-80983315D01*
X143513399Y-81146742D01*
X143449633Y-81300687D01*
X143357059Y-81439234D01*
X143239234Y-81557059D01*
X143100687Y-81649633D01*
X142946742Y-81713399D01*
X142783315Y-81745907D01*
X142616685Y-81745907D01*
X142453258Y-81713399D01*
X142299313Y-81649633D01*
X142160766Y-81557059D01*
X142042941Y-81439234D01*
X141950367Y-81300687D01*
X141886601Y-81146742D01*
X141854093Y-80983315D01*
X141854093Y-80816685D01*
X141886601Y-80653258D01*
X141950367Y-80499313D01*
X142042941Y-80360766D01*
X142160766Y-80242941D01*
X142299313Y-80150367D01*
X142453258Y-80086601D01*
X142616685Y-80054093D01*
X142783315Y-80054093D01*
X142946742Y-80086601D01*
G37*
G36*
X145486742Y-80086601D02*
G01*
X145640687Y-80150367D01*
X145779234Y-80242941D01*
X145897059Y-80360766D01*
X145989633Y-80499313D01*
X146053399Y-80653258D01*
X146085907Y-80816685D01*
X146085907Y-80983315D01*
X146053399Y-81146742D01*
X145989633Y-81300687D01*
X145897059Y-81439234D01*
X145779234Y-81557059D01*
X145640687Y-81649633D01*
X145486742Y-81713399D01*
X145323315Y-81745907D01*
X145156685Y-81745907D01*
X144993258Y-81713399D01*
X144839313Y-81649633D01*
X144700766Y-81557059D01*
X144582941Y-81439234D01*
X144490367Y-81300687D01*
X144426601Y-81146742D01*
X144394093Y-80983315D01*
X144394093Y-80816685D01*
X144426601Y-80653258D01*
X144490367Y-80499313D01*
X144582941Y-80360766D01*
X144700766Y-80242941D01*
X144839313Y-80150367D01*
X144993258Y-80086601D01*
X145156685Y-80054093D01*
X145323315Y-80054093D01*
X145486742Y-80086601D01*
G37*
G36*
X148026742Y-80086601D02*
G01*
X148180687Y-80150367D01*
X148319234Y-80242941D01*
X148437059Y-80360766D01*
X148529633Y-80499313D01*
X148593399Y-80653258D01*
X148625907Y-80816685D01*
X148625907Y-80983315D01*
X148593399Y-81146742D01*
X148529633Y-81300687D01*
X148437059Y-81439234D01*
X148319234Y-81557059D01*
X148180687Y-81649633D01*
X148026742Y-81713399D01*
X147863315Y-81745907D01*
X147696685Y-81745907D01*
X147533258Y-81713399D01*
X147379313Y-81649633D01*
X147240766Y-81557059D01*
X147122941Y-81439234D01*
X147030367Y-81300687D01*
X146966601Y-81146742D01*
X146934093Y-80983315D01*
X146934093Y-80816685D01*
X146966601Y-80653258D01*
X147030367Y-80499313D01*
X147122941Y-80360766D01*
X147240766Y-80242941D01*
X147379313Y-80150367D01*
X147533258Y-80086601D01*
X147696685Y-80054093D01*
X147863315Y-80054093D01*
X148026742Y-80086601D01*
G37*
G36*
X156911742Y-80086601D02*
G01*
X157065687Y-80150367D01*
X157204234Y-80242941D01*
X157322059Y-80360766D01*
X157414633Y-80499313D01*
X157478399Y-80653258D01*
X157510907Y-80816685D01*
X157510907Y-80983315D01*
X157478399Y-81146742D01*
X157414633Y-81300687D01*
X157322059Y-81439234D01*
X157204234Y-81557059D01*
X157065687Y-81649633D01*
X156911742Y-81713399D01*
X156748315Y-81745907D01*
X156581685Y-81745907D01*
X156418258Y-81713399D01*
X156264313Y-81649633D01*
X156125766Y-81557059D01*
X156007941Y-81439234D01*
X155915367Y-81300687D01*
X155851601Y-81146742D01*
X155819093Y-80983315D01*
X155819093Y-80816685D01*
X155851601Y-80653258D01*
X155915367Y-80499313D01*
X156007941Y-80360766D01*
X156125766Y-80242941D01*
X156264313Y-80150367D01*
X156418258Y-80086601D01*
X156581685Y-80054093D01*
X156748315Y-80054093D01*
X156911742Y-80086601D01*
G37*
G36*
X130304116Y-79675818D02*
G01*
X130355379Y-79681766D01*
X130372892Y-79689499D01*
X130395671Y-79694030D01*
X130420057Y-79710324D01*
X130440788Y-79719478D01*
X130454946Y-79733636D01*
X130476777Y-79748223D01*
X130491363Y-79770053D01*
X130505521Y-79784211D01*
X130514673Y-79804939D01*
X130530970Y-79829329D01*
X130535501Y-79852109D01*
X130543233Y-79869620D01*
X130549178Y-79920872D01*
X130550000Y-79925000D01*
X130550000Y-80875000D01*
X130549178Y-80879128D01*
X130543233Y-80930379D01*
X130535501Y-80947888D01*
X130530970Y-80970671D01*
X130514672Y-80995062D01*
X130505521Y-81015788D01*
X130491365Y-81029943D01*
X130476777Y-81051777D01*
X130454943Y-81066365D01*
X130440788Y-81080521D01*
X130420062Y-81089672D01*
X130395671Y-81105970D01*
X130372888Y-81110501D01*
X130355379Y-81118233D01*
X130304129Y-81124178D01*
X130300000Y-81125000D01*
X129625000Y-81125000D01*
X129620873Y-81124179D01*
X129569620Y-81118233D01*
X129552109Y-81110501D01*
X129529329Y-81105970D01*
X129504939Y-81089673D01*
X129484211Y-81080521D01*
X129470053Y-81066363D01*
X129448223Y-81051777D01*
X129433636Y-81029946D01*
X129419478Y-81015788D01*
X129410324Y-80995057D01*
X129394030Y-80970671D01*
X129389499Y-80947892D01*
X129381766Y-80930379D01*
X129375818Y-80879117D01*
X129375000Y-80875000D01*
X129375000Y-79925000D01*
X129375818Y-79920885D01*
X129381766Y-79869620D01*
X129389499Y-79852105D01*
X129394030Y-79829329D01*
X129410323Y-79804944D01*
X129419478Y-79784211D01*
X129433638Y-79770050D01*
X129448223Y-79748223D01*
X129470050Y-79733638D01*
X129484211Y-79719478D01*
X129504944Y-79710323D01*
X129529329Y-79694030D01*
X129552105Y-79689499D01*
X129569620Y-79681766D01*
X129620884Y-79675818D01*
X129625000Y-79675000D01*
X130300000Y-79675000D01*
X130304116Y-79675818D01*
G37*
G36*
X132379116Y-79675818D02*
G01*
X132430379Y-79681766D01*
X132447892Y-79689499D01*
X132470671Y-79694030D01*
X132495057Y-79710324D01*
X132515788Y-79719478D01*
X132529946Y-79733636D01*
X132551777Y-79748223D01*
X132566363Y-79770053D01*
X132580521Y-79784211D01*
X132589673Y-79804939D01*
X132605970Y-79829329D01*
X132610501Y-79852109D01*
X132618233Y-79869620D01*
X132624178Y-79920872D01*
X132625000Y-79925000D01*
X132625000Y-80875000D01*
X132624178Y-80879128D01*
X132618233Y-80930379D01*
X132610501Y-80947888D01*
X132605970Y-80970671D01*
X132589672Y-80995062D01*
X132580521Y-81015788D01*
X132566365Y-81029943D01*
X132551777Y-81051777D01*
X132529943Y-81066365D01*
X132515788Y-81080521D01*
X132495062Y-81089672D01*
X132470671Y-81105970D01*
X132447888Y-81110501D01*
X132430379Y-81118233D01*
X132379129Y-81124178D01*
X132375000Y-81125000D01*
X131700000Y-81125000D01*
X131695873Y-81124179D01*
X131644620Y-81118233D01*
X131627109Y-81110501D01*
X131604329Y-81105970D01*
X131579939Y-81089673D01*
X131559211Y-81080521D01*
X131545053Y-81066363D01*
X131523223Y-81051777D01*
X131508636Y-81029946D01*
X131494478Y-81015788D01*
X131485324Y-80995057D01*
X131469030Y-80970671D01*
X131464499Y-80947892D01*
X131456766Y-80930379D01*
X131450818Y-80879117D01*
X131450000Y-80875000D01*
X131450000Y-79925000D01*
X131450818Y-79920885D01*
X131456766Y-79869620D01*
X131464499Y-79852105D01*
X131469030Y-79829329D01*
X131485323Y-79804944D01*
X131494478Y-79784211D01*
X131508638Y-79770050D01*
X131523223Y-79748223D01*
X131545050Y-79733638D01*
X131559211Y-79719478D01*
X131579944Y-79710323D01*
X131604329Y-79694030D01*
X131627105Y-79689499D01*
X131644620Y-79681766D01*
X131695884Y-79675818D01*
X131700000Y-79675000D01*
X132375000Y-79675000D01*
X132379116Y-79675818D01*
G37*
G36*
X135416616Y-79675818D02*
G01*
X135467879Y-79681766D01*
X135485392Y-79689499D01*
X135508171Y-79694030D01*
X135532557Y-79710324D01*
X135553288Y-79719478D01*
X135567446Y-79733636D01*
X135589277Y-79748223D01*
X135603863Y-79770053D01*
X135618021Y-79784211D01*
X135627173Y-79804939D01*
X135643470Y-79829329D01*
X135648001Y-79852109D01*
X135655733Y-79869620D01*
X135661678Y-79920872D01*
X135662500Y-79925000D01*
X135662500Y-80875000D01*
X135661678Y-80879128D01*
X135655733Y-80930379D01*
X135648001Y-80947888D01*
X135643470Y-80970671D01*
X135627172Y-80995062D01*
X135618021Y-81015788D01*
X135603865Y-81029943D01*
X135589277Y-81051777D01*
X135567443Y-81066365D01*
X135553288Y-81080521D01*
X135532562Y-81089672D01*
X135508171Y-81105970D01*
X135485388Y-81110501D01*
X135467879Y-81118233D01*
X135416629Y-81124178D01*
X135412500Y-81125000D01*
X134737500Y-81125000D01*
X134733373Y-81124179D01*
X134682120Y-81118233D01*
X134664609Y-81110501D01*
X134641829Y-81105970D01*
X134617439Y-81089673D01*
X134596711Y-81080521D01*
X134582553Y-81066363D01*
X134560723Y-81051777D01*
X134546136Y-81029946D01*
X134531978Y-81015788D01*
X134522824Y-80995057D01*
X134506530Y-80970671D01*
X134501999Y-80947892D01*
X134494266Y-80930379D01*
X134488318Y-80879117D01*
X134487500Y-80875000D01*
X134487500Y-79925000D01*
X134488318Y-79920885D01*
X134494266Y-79869620D01*
X134501999Y-79852105D01*
X134506530Y-79829329D01*
X134522823Y-79804944D01*
X134531978Y-79784211D01*
X134546138Y-79770050D01*
X134560723Y-79748223D01*
X134582550Y-79733638D01*
X134596711Y-79719478D01*
X134617444Y-79710323D01*
X134641829Y-79694030D01*
X134664605Y-79689499D01*
X134682120Y-79681766D01*
X134733384Y-79675818D01*
X134737500Y-79675000D01*
X135412500Y-79675000D01*
X135416616Y-79675818D01*
G37*
G36*
X137491616Y-79675818D02*
G01*
X137542879Y-79681766D01*
X137560392Y-79689499D01*
X137583171Y-79694030D01*
X137607557Y-79710324D01*
X137628288Y-79719478D01*
X137642446Y-79733636D01*
X137664277Y-79748223D01*
X137678863Y-79770053D01*
X137693021Y-79784211D01*
X137702173Y-79804939D01*
X137718470Y-79829329D01*
X137723001Y-79852109D01*
X137730733Y-79869620D01*
X137736678Y-79920872D01*
X137737500Y-79925000D01*
X137737500Y-80875000D01*
X137736678Y-80879128D01*
X137730733Y-80930379D01*
X137723001Y-80947888D01*
X137718470Y-80970671D01*
X137702172Y-80995062D01*
X137693021Y-81015788D01*
X137678865Y-81029943D01*
X137664277Y-81051777D01*
X137642443Y-81066365D01*
X137628288Y-81080521D01*
X137607562Y-81089672D01*
X137583171Y-81105970D01*
X137560388Y-81110501D01*
X137542879Y-81118233D01*
X137491629Y-81124178D01*
X137487500Y-81125000D01*
X136812500Y-81125000D01*
X136808373Y-81124179D01*
X136757120Y-81118233D01*
X136739609Y-81110501D01*
X136716829Y-81105970D01*
X136692439Y-81089673D01*
X136671711Y-81080521D01*
X136657553Y-81066363D01*
X136635723Y-81051777D01*
X136621136Y-81029946D01*
X136606978Y-81015788D01*
X136597824Y-80995057D01*
X136581530Y-80970671D01*
X136576999Y-80947892D01*
X136569266Y-80930379D01*
X136563318Y-80879117D01*
X136562500Y-80875000D01*
X136562500Y-79925000D01*
X136563318Y-79920885D01*
X136569266Y-79869620D01*
X136576999Y-79852105D01*
X136581530Y-79829329D01*
X136597823Y-79804944D01*
X136606978Y-79784211D01*
X136621138Y-79770050D01*
X136635723Y-79748223D01*
X136657550Y-79733638D01*
X136671711Y-79719478D01*
X136692444Y-79710323D01*
X136716829Y-79694030D01*
X136739605Y-79689499D01*
X136757120Y-79681766D01*
X136808384Y-79675818D01*
X136812500Y-79675000D01*
X137487500Y-79675000D01*
X137491616Y-79675818D01*
G37*
G36*
X120443536Y-75496464D02*
G01*
X120445915Y-75498843D01*
X120474015Y-75498843D01*
X120479018Y-75498843D01*
X120480931Y-75499224D01*
X120485549Y-75501137D01*
X120485554Y-75501138D01*
X120548404Y-75527171D01*
X120548408Y-75527173D01*
X120553027Y-75529087D01*
X120554650Y-75530170D01*
X120609830Y-75585350D01*
X120610913Y-75586973D01*
X120612826Y-75591592D01*
X120612828Y-75591595D01*
X120614105Y-75594679D01*
X120640776Y-75659069D01*
X120641157Y-75660982D01*
X120641157Y-75694085D01*
X120643536Y-75696464D01*
X120645000Y-75700000D01*
X120645000Y-76300000D01*
X120643536Y-76303536D01*
X120641148Y-76304524D01*
X120641148Y-76378414D01*
X120641052Y-76379389D01*
X120610456Y-76533203D01*
X120610171Y-76534141D01*
X120609217Y-76536443D01*
X120609215Y-76536451D01*
X120551115Y-76676717D01*
X120551110Y-76676724D01*
X120550156Y-76679030D01*
X120549694Y-76679895D01*
X120462565Y-76810293D01*
X120461944Y-76811051D01*
X120351051Y-76921944D01*
X120350293Y-76922565D01*
X120219895Y-77009694D01*
X120219030Y-77010156D01*
X120216724Y-77011110D01*
X120216717Y-77011115D01*
X120076451Y-77069215D01*
X120076443Y-77069217D01*
X120074141Y-77070171D01*
X120073203Y-77070456D01*
X119919389Y-77101052D01*
X119918414Y-77101148D01*
X119915924Y-77101148D01*
X119764076Y-77101148D01*
X119761586Y-77101148D01*
X119760611Y-77101052D01*
X119606797Y-77070456D01*
X119605859Y-77070171D01*
X119603559Y-77069218D01*
X119603548Y-77069215D01*
X119463282Y-77011115D01*
X119463270Y-77011109D01*
X119460970Y-77010156D01*
X119460105Y-77009694D01*
X119424463Y-76985879D01*
X119331785Y-76923954D01*
X119331781Y-76923951D01*
X119329707Y-76922565D01*
X119328949Y-76921944D01*
X119218056Y-76811051D01*
X119217435Y-76810293D01*
X119216049Y-76808219D01*
X119216045Y-76808214D01*
X119131695Y-76681974D01*
X119131694Y-76681972D01*
X119130306Y-76679895D01*
X119129844Y-76679030D01*
X119128892Y-76676732D01*
X119128884Y-76676717D01*
X119070784Y-76536451D01*
X119070778Y-76536434D01*
X119069829Y-76534141D01*
X119069544Y-76533203D01*
X119062927Y-76499942D01*
X119039433Y-76381830D01*
X119039432Y-76381824D01*
X119038948Y-76379389D01*
X119038852Y-76378414D01*
X119038852Y-76304524D01*
X119036464Y-76303536D01*
X119035000Y-76300000D01*
X119035000Y-75700000D01*
X119036464Y-75696464D01*
X119038843Y-75694085D01*
X119038843Y-75660982D01*
X119039224Y-75659069D01*
X119041136Y-75654451D01*
X119041138Y-75654445D01*
X119067171Y-75591595D01*
X119067174Y-75591589D01*
X119069087Y-75586973D01*
X119070170Y-75585350D01*
X119073706Y-75581813D01*
X119073709Y-75581810D01*
X119121810Y-75533709D01*
X119121813Y-75533706D01*
X119125350Y-75530170D01*
X119126973Y-75529087D01*
X119131589Y-75527174D01*
X119131595Y-75527171D01*
X119194445Y-75501138D01*
X119194451Y-75501136D01*
X119199069Y-75499224D01*
X119200982Y-75498843D01*
X119234085Y-75498843D01*
X119236464Y-75496464D01*
X119240000Y-75495000D01*
X120440000Y-75495000D01*
X120443536Y-75496464D01*
G37*
G36*
X133143536Y-75496464D02*
G01*
X133145915Y-75498843D01*
X133174015Y-75498843D01*
X133179018Y-75498843D01*
X133180931Y-75499224D01*
X133185549Y-75501137D01*
X133185554Y-75501138D01*
X133248404Y-75527171D01*
X133248408Y-75527173D01*
X133253027Y-75529087D01*
X133254650Y-75530170D01*
X133309830Y-75585350D01*
X133310913Y-75586973D01*
X133312826Y-75591592D01*
X133312828Y-75591595D01*
X133314105Y-75594679D01*
X133340776Y-75659069D01*
X133341157Y-75660982D01*
X133341157Y-75694085D01*
X133343536Y-75696464D01*
X133345000Y-75700000D01*
X133345000Y-76300000D01*
X133343536Y-76303536D01*
X133341148Y-76304524D01*
X133341148Y-76378414D01*
X133341052Y-76379389D01*
X133310456Y-76533203D01*
X133310171Y-76534141D01*
X133309217Y-76536443D01*
X133309215Y-76536451D01*
X133251115Y-76676717D01*
X133251110Y-76676724D01*
X133250156Y-76679030D01*
X133249694Y-76679895D01*
X133162565Y-76810293D01*
X133161944Y-76811051D01*
X133051051Y-76921944D01*
X133050293Y-76922565D01*
X132919895Y-77009694D01*
X132919030Y-77010156D01*
X132916724Y-77011110D01*
X132916717Y-77011115D01*
X132776451Y-77069215D01*
X132776443Y-77069217D01*
X132774141Y-77070171D01*
X132773203Y-77070456D01*
X132619389Y-77101052D01*
X132618414Y-77101148D01*
X132615924Y-77101148D01*
X132464076Y-77101148D01*
X132461586Y-77101148D01*
X132460611Y-77101052D01*
X132306797Y-77070456D01*
X132305859Y-77070171D01*
X132303559Y-77069218D01*
X132303548Y-77069215D01*
X132163282Y-77011115D01*
X132163270Y-77011109D01*
X132160970Y-77010156D01*
X132160105Y-77009694D01*
X132124463Y-76985879D01*
X132031785Y-76923954D01*
X132031781Y-76923951D01*
X132029707Y-76922565D01*
X132028949Y-76921944D01*
X131918056Y-76811051D01*
X131917435Y-76810293D01*
X131916049Y-76808219D01*
X131916045Y-76808214D01*
X131831695Y-76681974D01*
X131831694Y-76681972D01*
X131830306Y-76679895D01*
X131829844Y-76679030D01*
X131828892Y-76676732D01*
X131828884Y-76676717D01*
X131770784Y-76536451D01*
X131770778Y-76536434D01*
X131769829Y-76534141D01*
X131769544Y-76533203D01*
X131762927Y-76499942D01*
X131739433Y-76381830D01*
X131739432Y-76381824D01*
X131738948Y-76379389D01*
X131738852Y-76378414D01*
X131738852Y-76304524D01*
X131736464Y-76303536D01*
X131735000Y-76300000D01*
X131735000Y-75700000D01*
X131736464Y-75696464D01*
X131738843Y-75694085D01*
X131738843Y-75660982D01*
X131739224Y-75659069D01*
X131741136Y-75654451D01*
X131741138Y-75654445D01*
X131767171Y-75591595D01*
X131767174Y-75591589D01*
X131769087Y-75586973D01*
X131770170Y-75585350D01*
X131773706Y-75581813D01*
X131773709Y-75581810D01*
X131821810Y-75533709D01*
X131821813Y-75533706D01*
X131825350Y-75530170D01*
X131826973Y-75529087D01*
X131831589Y-75527174D01*
X131831595Y-75527171D01*
X131894445Y-75501138D01*
X131894451Y-75501136D01*
X131899069Y-75499224D01*
X131900982Y-75498843D01*
X131934085Y-75498843D01*
X131936464Y-75496464D01*
X131940000Y-75495000D01*
X133140000Y-75495000D01*
X133143536Y-75496464D01*
G37*
G36*
X145843536Y-75496464D02*
G01*
X145845915Y-75498843D01*
X145874015Y-75498843D01*
X145879018Y-75498843D01*
X145880931Y-75499224D01*
X145885549Y-75501137D01*
X145885554Y-75501138D01*
X145948404Y-75527171D01*
X145948408Y-75527173D01*
X145953027Y-75529087D01*
X145954650Y-75530170D01*
X146009830Y-75585350D01*
X146010913Y-75586973D01*
X146012826Y-75591592D01*
X146012828Y-75591595D01*
X146014105Y-75594679D01*
X146040776Y-75659069D01*
X146041157Y-75660982D01*
X146041157Y-75694085D01*
X146043536Y-75696464D01*
X146045000Y-75700000D01*
X146045000Y-76300000D01*
X146043536Y-76303536D01*
X146041148Y-76304524D01*
X146041148Y-76378414D01*
X146041052Y-76379389D01*
X146010456Y-76533203D01*
X146010171Y-76534141D01*
X146009217Y-76536443D01*
X146009215Y-76536451D01*
X145951115Y-76676717D01*
X145951110Y-76676724D01*
X145950156Y-76679030D01*
X145949694Y-76679895D01*
X145862565Y-76810293D01*
X145861944Y-76811051D01*
X145751051Y-76921944D01*
X145750293Y-76922565D01*
X145619895Y-77009694D01*
X145619030Y-77010156D01*
X145616724Y-77011110D01*
X145616717Y-77011115D01*
X145476451Y-77069215D01*
X145476443Y-77069217D01*
X145474141Y-77070171D01*
X145473203Y-77070456D01*
X145319389Y-77101052D01*
X145318414Y-77101148D01*
X145315924Y-77101148D01*
X145164076Y-77101148D01*
X145161586Y-77101148D01*
X145160611Y-77101052D01*
X145006797Y-77070456D01*
X145005859Y-77070171D01*
X145003559Y-77069218D01*
X145003548Y-77069215D01*
X144863282Y-77011115D01*
X144863270Y-77011109D01*
X144860970Y-77010156D01*
X144860105Y-77009694D01*
X144824463Y-76985879D01*
X144731785Y-76923954D01*
X144731781Y-76923951D01*
X144729707Y-76922565D01*
X144728949Y-76921944D01*
X144618056Y-76811051D01*
X144617435Y-76810293D01*
X144616049Y-76808219D01*
X144616045Y-76808214D01*
X144531695Y-76681974D01*
X144531694Y-76681972D01*
X144530306Y-76679895D01*
X144529844Y-76679030D01*
X144528892Y-76676732D01*
X144528884Y-76676717D01*
X144470784Y-76536451D01*
X144470778Y-76536434D01*
X144469829Y-76534141D01*
X144469544Y-76533203D01*
X144462927Y-76499942D01*
X144439433Y-76381830D01*
X144439432Y-76381824D01*
X144438948Y-76379389D01*
X144438852Y-76378414D01*
X144438852Y-76304524D01*
X144436464Y-76303536D01*
X144435000Y-76300000D01*
X144435000Y-75700000D01*
X144436464Y-75696464D01*
X144438843Y-75694085D01*
X144438843Y-75660982D01*
X144439224Y-75659069D01*
X144441136Y-75654451D01*
X144441138Y-75654445D01*
X144467171Y-75591595D01*
X144467174Y-75591589D01*
X144469087Y-75586973D01*
X144470170Y-75585350D01*
X144473706Y-75581813D01*
X144473709Y-75581810D01*
X144521810Y-75533709D01*
X144521813Y-75533706D01*
X144525350Y-75530170D01*
X144526973Y-75529087D01*
X144531589Y-75527174D01*
X144531595Y-75527171D01*
X144594445Y-75501138D01*
X144594451Y-75501136D01*
X144599069Y-75499224D01*
X144600982Y-75498843D01*
X144634085Y-75498843D01*
X144636464Y-75496464D01*
X144640000Y-75495000D01*
X145840000Y-75495000D01*
X145843536Y-75496464D01*
G37*
G36*
X158543536Y-75496464D02*
G01*
X158545915Y-75498843D01*
X158574015Y-75498843D01*
X158579018Y-75498843D01*
X158580931Y-75499224D01*
X158585549Y-75501137D01*
X158585554Y-75501138D01*
X158648404Y-75527171D01*
X158648408Y-75527173D01*
X158653027Y-75529087D01*
X158654650Y-75530170D01*
X158709830Y-75585350D01*
X158710913Y-75586973D01*
X158712826Y-75591592D01*
X158712828Y-75591595D01*
X158714105Y-75594679D01*
X158740776Y-75659069D01*
X158741157Y-75660982D01*
X158741157Y-75694085D01*
X158743536Y-75696464D01*
X158745000Y-75700000D01*
X158745000Y-76300000D01*
X158743536Y-76303536D01*
X158741148Y-76304524D01*
X158741148Y-76378414D01*
X158741052Y-76379389D01*
X158710456Y-76533203D01*
X158710171Y-76534141D01*
X158709217Y-76536443D01*
X158709215Y-76536451D01*
X158651115Y-76676717D01*
X158651110Y-76676724D01*
X158650156Y-76679030D01*
X158649694Y-76679895D01*
X158562565Y-76810293D01*
X158561944Y-76811051D01*
X158451051Y-76921944D01*
X158450293Y-76922565D01*
X158319895Y-77009694D01*
X158319030Y-77010156D01*
X158316724Y-77011110D01*
X158316717Y-77011115D01*
X158176451Y-77069215D01*
X158176443Y-77069217D01*
X158174141Y-77070171D01*
X158173203Y-77070456D01*
X158019389Y-77101052D01*
X158018414Y-77101148D01*
X158015924Y-77101148D01*
X157864076Y-77101148D01*
X157861586Y-77101148D01*
X157860611Y-77101052D01*
X157706797Y-77070456D01*
X157705859Y-77070171D01*
X157703559Y-77069218D01*
X157703548Y-77069215D01*
X157563282Y-77011115D01*
X157563270Y-77011109D01*
X157560970Y-77010156D01*
X157560105Y-77009694D01*
X157524463Y-76985879D01*
X157431785Y-76923954D01*
X157431781Y-76923951D01*
X157429707Y-76922565D01*
X157428949Y-76921944D01*
X157318056Y-76811051D01*
X157317435Y-76810293D01*
X157316049Y-76808219D01*
X157316045Y-76808214D01*
X157231695Y-76681974D01*
X157231694Y-76681972D01*
X157230306Y-76679895D01*
X157229844Y-76679030D01*
X157228892Y-76676732D01*
X157228884Y-76676717D01*
X157170784Y-76536451D01*
X157170778Y-76536434D01*
X157169829Y-76534141D01*
X157169544Y-76533203D01*
X157162927Y-76499942D01*
X157139433Y-76381830D01*
X157139432Y-76381824D01*
X157138948Y-76379389D01*
X157138852Y-76378414D01*
X157138852Y-76304524D01*
X157136464Y-76303536D01*
X157135000Y-76300000D01*
X157135000Y-75700000D01*
X157136464Y-75696464D01*
X157138843Y-75694085D01*
X157138843Y-75660982D01*
X157139224Y-75659069D01*
X157141136Y-75654451D01*
X157141138Y-75654445D01*
X157167171Y-75591595D01*
X157167174Y-75591589D01*
X157169087Y-75586973D01*
X157170170Y-75585350D01*
X157173706Y-75581813D01*
X157173709Y-75581810D01*
X157221810Y-75533709D01*
X157221813Y-75533706D01*
X157225350Y-75530170D01*
X157226973Y-75529087D01*
X157231589Y-75527174D01*
X157231595Y-75527171D01*
X157294445Y-75501138D01*
X157294451Y-75501136D01*
X157299069Y-75499224D01*
X157300982Y-75498843D01*
X157334085Y-75498843D01*
X157336464Y-75496464D01*
X157340000Y-75495000D01*
X158540000Y-75495000D01*
X158543536Y-75496464D01*
G37*
G36*
X114992228Y-75534448D02*
G01*
X115137117Y-75594463D01*
X115267515Y-75681592D01*
X115378408Y-75792485D01*
X115465537Y-75922883D01*
X115525552Y-76067772D01*
X115556148Y-76221586D01*
X115556148Y-76378414D01*
X115525552Y-76532228D01*
X115465537Y-76677117D01*
X115378408Y-76807515D01*
X115267515Y-76918408D01*
X115137117Y-77005537D01*
X114992228Y-77065552D01*
X114838414Y-77096148D01*
X114681586Y-77096148D01*
X114527772Y-77065552D01*
X114382883Y-77005537D01*
X114252485Y-76918408D01*
X114141592Y-76807515D01*
X114054463Y-76677117D01*
X113994448Y-76532228D01*
X113963852Y-76378414D01*
X113963852Y-76221586D01*
X113994448Y-76067772D01*
X114054463Y-75922883D01*
X114141592Y-75792485D01*
X114252485Y-75681592D01*
X114382883Y-75594463D01*
X114527772Y-75534448D01*
X114681586Y-75503852D01*
X114838414Y-75503852D01*
X114992228Y-75534448D01*
G37*
G36*
X117532228Y-75534448D02*
G01*
X117677117Y-75594463D01*
X117807515Y-75681592D01*
X117918408Y-75792485D01*
X118005537Y-75922883D01*
X118065552Y-76067772D01*
X118096148Y-76221586D01*
X118096148Y-76378414D01*
X118065552Y-76532228D01*
X118005537Y-76677117D01*
X117918408Y-76807515D01*
X117807515Y-76918408D01*
X117677117Y-77005537D01*
X117532228Y-77065552D01*
X117378414Y-77096148D01*
X117221586Y-77096148D01*
X117067772Y-77065552D01*
X116922883Y-77005537D01*
X116792485Y-76918408D01*
X116681592Y-76807515D01*
X116594463Y-76677117D01*
X116534448Y-76532228D01*
X116503852Y-76378414D01*
X116503852Y-76221586D01*
X116534448Y-76067772D01*
X116594463Y-75922883D01*
X116681592Y-75792485D01*
X116792485Y-75681592D01*
X116922883Y-75594463D01*
X117067772Y-75534448D01*
X117221586Y-75503852D01*
X117378414Y-75503852D01*
X117532228Y-75534448D01*
G37*
G36*
X122612228Y-75534448D02*
G01*
X122757117Y-75594463D01*
X122887515Y-75681592D01*
X122998408Y-75792485D01*
X123085537Y-75922883D01*
X123145552Y-76067772D01*
X123176148Y-76221586D01*
X123176148Y-76378414D01*
X123145552Y-76532228D01*
X123085537Y-76677117D01*
X122998408Y-76807515D01*
X122887515Y-76918408D01*
X122757117Y-77005537D01*
X122612228Y-77065552D01*
X122458414Y-77096148D01*
X122301586Y-77096148D01*
X122147772Y-77065552D01*
X122002883Y-77005537D01*
X121872485Y-76918408D01*
X121761592Y-76807515D01*
X121674463Y-76677117D01*
X121614448Y-76532228D01*
X121583852Y-76378414D01*
X121583852Y-76221586D01*
X121614448Y-76067772D01*
X121674463Y-75922883D01*
X121761592Y-75792485D01*
X121872485Y-75681592D01*
X122002883Y-75594463D01*
X122147772Y-75534448D01*
X122301586Y-75503852D01*
X122458414Y-75503852D01*
X122612228Y-75534448D01*
G37*
G36*
X125152228Y-75534448D02*
G01*
X125297117Y-75594463D01*
X125427515Y-75681592D01*
X125538408Y-75792485D01*
X125625537Y-75922883D01*
X125685552Y-76067772D01*
X125716148Y-76221586D01*
X125716148Y-76378414D01*
X125685552Y-76532228D01*
X125625537Y-76677117D01*
X125538408Y-76807515D01*
X125427515Y-76918408D01*
X125297117Y-77005537D01*
X125152228Y-77065552D01*
X124998414Y-77096148D01*
X124841586Y-77096148D01*
X124687772Y-77065552D01*
X124542883Y-77005537D01*
X124412485Y-76918408D01*
X124301592Y-76807515D01*
X124214463Y-76677117D01*
X124154448Y-76532228D01*
X124123852Y-76378414D01*
X124123852Y-76221586D01*
X124154448Y-76067772D01*
X124214463Y-75922883D01*
X124301592Y-75792485D01*
X124412485Y-75681592D01*
X124542883Y-75594463D01*
X124687772Y-75534448D01*
X124841586Y-75503852D01*
X124998414Y-75503852D01*
X125152228Y-75534448D01*
G37*
G36*
X127692228Y-75534448D02*
G01*
X127837117Y-75594463D01*
X127967515Y-75681592D01*
X128078408Y-75792485D01*
X128165537Y-75922883D01*
X128225552Y-76067772D01*
X128256148Y-76221586D01*
X128256148Y-76378414D01*
X128225552Y-76532228D01*
X128165537Y-76677117D01*
X128078408Y-76807515D01*
X127967515Y-76918408D01*
X127837117Y-77005537D01*
X127692228Y-77065552D01*
X127538414Y-77096148D01*
X127381586Y-77096148D01*
X127227772Y-77065552D01*
X127082883Y-77005537D01*
X126952485Y-76918408D01*
X126841592Y-76807515D01*
X126754463Y-76677117D01*
X126694448Y-76532228D01*
X126663852Y-76378414D01*
X126663852Y-76221586D01*
X126694448Y-76067772D01*
X126754463Y-75922883D01*
X126841592Y-75792485D01*
X126952485Y-75681592D01*
X127082883Y-75594463D01*
X127227772Y-75534448D01*
X127381586Y-75503852D01*
X127538414Y-75503852D01*
X127692228Y-75534448D01*
G37*
G36*
X130232228Y-75534448D02*
G01*
X130377117Y-75594463D01*
X130507515Y-75681592D01*
X130618408Y-75792485D01*
X130705537Y-75922883D01*
X130765552Y-76067772D01*
X130796148Y-76221586D01*
X130796148Y-76378414D01*
X130765552Y-76532228D01*
X130705537Y-76677117D01*
X130618408Y-76807515D01*
X130507515Y-76918408D01*
X130377117Y-77005537D01*
X130232228Y-77065552D01*
X130078414Y-77096148D01*
X129921586Y-77096148D01*
X129767772Y-77065552D01*
X129622883Y-77005537D01*
X129492485Y-76918408D01*
X129381592Y-76807515D01*
X129294463Y-76677117D01*
X129234448Y-76532228D01*
X129203852Y-76378414D01*
X129203852Y-76221586D01*
X129234448Y-76067772D01*
X129294463Y-75922883D01*
X129381592Y-75792485D01*
X129492485Y-75681592D01*
X129622883Y-75594463D01*
X129767772Y-75534448D01*
X129921586Y-75503852D01*
X130078414Y-75503852D01*
X130232228Y-75534448D01*
G37*
G36*
X135312228Y-75534448D02*
G01*
X135457117Y-75594463D01*
X135587515Y-75681592D01*
X135698408Y-75792485D01*
X135785537Y-75922883D01*
X135845552Y-76067772D01*
X135876148Y-76221586D01*
X135876148Y-76378414D01*
X135845552Y-76532228D01*
X135785537Y-76677117D01*
X135698408Y-76807515D01*
X135587515Y-76918408D01*
X135457117Y-77005537D01*
X135312228Y-77065552D01*
X135158414Y-77096148D01*
X135001586Y-77096148D01*
X134847772Y-77065552D01*
X134702883Y-77005537D01*
X134572485Y-76918408D01*
X134461592Y-76807515D01*
X134374463Y-76677117D01*
X134314448Y-76532228D01*
X134283852Y-76378414D01*
X134283852Y-76221586D01*
X134314448Y-76067772D01*
X134374463Y-75922883D01*
X134461592Y-75792485D01*
X134572485Y-75681592D01*
X134702883Y-75594463D01*
X134847772Y-75534448D01*
X135001586Y-75503852D01*
X135158414Y-75503852D01*
X135312228Y-75534448D01*
G37*
G36*
X137852228Y-75534448D02*
G01*
X137997117Y-75594463D01*
X138127515Y-75681592D01*
X138238408Y-75792485D01*
X138325537Y-75922883D01*
X138385552Y-76067772D01*
X138416148Y-76221586D01*
X138416148Y-76378414D01*
X138385552Y-76532228D01*
X138325537Y-76677117D01*
X138238408Y-76807515D01*
X138127515Y-76918408D01*
X137997117Y-77005537D01*
X137852228Y-77065552D01*
X137698414Y-77096148D01*
X137541586Y-77096148D01*
X137387772Y-77065552D01*
X137242883Y-77005537D01*
X137112485Y-76918408D01*
X137001592Y-76807515D01*
X136914463Y-76677117D01*
X136854448Y-76532228D01*
X136823852Y-76378414D01*
X136823852Y-76221586D01*
X136854448Y-76067772D01*
X136914463Y-75922883D01*
X137001592Y-75792485D01*
X137112485Y-75681592D01*
X137242883Y-75594463D01*
X137387772Y-75534448D01*
X137541586Y-75503852D01*
X137698414Y-75503852D01*
X137852228Y-75534448D01*
G37*
G36*
X140392228Y-75534448D02*
G01*
X140537117Y-75594463D01*
X140667515Y-75681592D01*
X140778408Y-75792485D01*
X140865537Y-75922883D01*
X140925552Y-76067772D01*
X140956148Y-76221586D01*
X140956148Y-76378414D01*
X140925552Y-76532228D01*
X140865537Y-76677117D01*
X140778408Y-76807515D01*
X140667515Y-76918408D01*
X140537117Y-77005537D01*
X140392228Y-77065552D01*
X140238414Y-77096148D01*
X140081586Y-77096148D01*
X139927772Y-77065552D01*
X139782883Y-77005537D01*
X139652485Y-76918408D01*
X139541592Y-76807515D01*
X139454463Y-76677117D01*
X139394448Y-76532228D01*
X139363852Y-76378414D01*
X139363852Y-76221586D01*
X139394448Y-76067772D01*
X139454463Y-75922883D01*
X139541592Y-75792485D01*
X139652485Y-75681592D01*
X139782883Y-75594463D01*
X139927772Y-75534448D01*
X140081586Y-75503852D01*
X140238414Y-75503852D01*
X140392228Y-75534448D01*
G37*
G36*
X142932228Y-75534448D02*
G01*
X143077117Y-75594463D01*
X143207515Y-75681592D01*
X143318408Y-75792485D01*
X143405537Y-75922883D01*
X143465552Y-76067772D01*
X143496148Y-76221586D01*
X143496148Y-76378414D01*
X143465552Y-76532228D01*
X143405537Y-76677117D01*
X143318408Y-76807515D01*
X143207515Y-76918408D01*
X143077117Y-77005537D01*
X142932228Y-77065552D01*
X142778414Y-77096148D01*
X142621586Y-77096148D01*
X142467772Y-77065552D01*
X142322883Y-77005537D01*
X142192485Y-76918408D01*
X142081592Y-76807515D01*
X141994463Y-76677117D01*
X141934448Y-76532228D01*
X141903852Y-76378414D01*
X141903852Y-76221586D01*
X141934448Y-76067772D01*
X141994463Y-75922883D01*
X142081592Y-75792485D01*
X142192485Y-75681592D01*
X142322883Y-75594463D01*
X142467772Y-75534448D01*
X142621586Y-75503852D01*
X142778414Y-75503852D01*
X142932228Y-75534448D01*
G37*
G36*
X148012228Y-75534448D02*
G01*
X148157117Y-75594463D01*
X148287515Y-75681592D01*
X148398408Y-75792485D01*
X148485537Y-75922883D01*
X148545552Y-76067772D01*
X148576148Y-76221586D01*
X148576148Y-76378414D01*
X148545552Y-76532228D01*
X148485537Y-76677117D01*
X148398408Y-76807515D01*
X148287515Y-76918408D01*
X148157117Y-77005537D01*
X148012228Y-77065552D01*
X147858414Y-77096148D01*
X147701586Y-77096148D01*
X147547772Y-77065552D01*
X147402883Y-77005537D01*
X147272485Y-76918408D01*
X147161592Y-76807515D01*
X147074463Y-76677117D01*
X147014448Y-76532228D01*
X146983852Y-76378414D01*
X146983852Y-76221586D01*
X147014448Y-76067772D01*
X147074463Y-75922883D01*
X147161592Y-75792485D01*
X147272485Y-75681592D01*
X147402883Y-75594463D01*
X147547772Y-75534448D01*
X147701586Y-75503852D01*
X147858414Y-75503852D01*
X148012228Y-75534448D01*
G37*
G36*
X150552228Y-75534448D02*
G01*
X150697117Y-75594463D01*
X150827515Y-75681592D01*
X150938408Y-75792485D01*
X151025537Y-75922883D01*
X151085552Y-76067772D01*
X151116148Y-76221586D01*
X151116148Y-76378414D01*
X151085552Y-76532228D01*
X151025537Y-76677117D01*
X150938408Y-76807515D01*
X150827515Y-76918408D01*
X150697117Y-77005537D01*
X150552228Y-77065552D01*
X150398414Y-77096148D01*
X150241586Y-77096148D01*
X150087772Y-77065552D01*
X149942883Y-77005537D01*
X149812485Y-76918408D01*
X149701592Y-76807515D01*
X149614463Y-76677117D01*
X149554448Y-76532228D01*
X149523852Y-76378414D01*
X149523852Y-76221586D01*
X149554448Y-76067772D01*
X149614463Y-75922883D01*
X149701592Y-75792485D01*
X149812485Y-75681592D01*
X149942883Y-75594463D01*
X150087772Y-75534448D01*
X150241586Y-75503852D01*
X150398414Y-75503852D01*
X150552228Y-75534448D01*
G37*
G36*
X153092228Y-75534448D02*
G01*
X153237117Y-75594463D01*
X153367515Y-75681592D01*
X153478408Y-75792485D01*
X153565537Y-75922883D01*
X153625552Y-76067772D01*
X153656148Y-76221586D01*
X153656148Y-76378414D01*
X153625552Y-76532228D01*
X153565537Y-76677117D01*
X153478408Y-76807515D01*
X153367515Y-76918408D01*
X153237117Y-77005537D01*
X153092228Y-77065552D01*
X152938414Y-77096148D01*
X152781586Y-77096148D01*
X152627772Y-77065552D01*
X152482883Y-77005537D01*
X152352485Y-76918408D01*
X152241592Y-76807515D01*
X152154463Y-76677117D01*
X152094448Y-76532228D01*
X152063852Y-76378414D01*
X152063852Y-76221586D01*
X152094448Y-76067772D01*
X152154463Y-75922883D01*
X152241592Y-75792485D01*
X152352485Y-75681592D01*
X152482883Y-75594463D01*
X152627772Y-75534448D01*
X152781586Y-75503852D01*
X152938414Y-75503852D01*
X153092228Y-75534448D01*
G37*
G36*
X155632228Y-75534448D02*
G01*
X155777117Y-75594463D01*
X155907515Y-75681592D01*
X156018408Y-75792485D01*
X156105537Y-75922883D01*
X156165552Y-76067772D01*
X156196148Y-76221586D01*
X156196148Y-76378414D01*
X156165552Y-76532228D01*
X156105537Y-76677117D01*
X156018408Y-76807515D01*
X155907515Y-76918408D01*
X155777117Y-77005537D01*
X155632228Y-77065552D01*
X155478414Y-77096148D01*
X155321586Y-77096148D01*
X155167772Y-77065552D01*
X155022883Y-77005537D01*
X154892485Y-76918408D01*
X154781592Y-76807515D01*
X154694463Y-76677117D01*
X154634448Y-76532228D01*
X154603852Y-76378414D01*
X154603852Y-76221586D01*
X154634448Y-76067772D01*
X154694463Y-75922883D01*
X154781592Y-75792485D01*
X154892485Y-75681592D01*
X155022883Y-75594463D01*
X155167772Y-75534448D01*
X155321586Y-75503852D01*
X155478414Y-75503852D01*
X155632228Y-75534448D01*
G37*
G36*
X160712228Y-75534448D02*
G01*
X160857117Y-75594463D01*
X160987515Y-75681592D01*
X161098408Y-75792485D01*
X161185537Y-75922883D01*
X161245552Y-76067772D01*
X161276148Y-76221586D01*
X161276148Y-76378414D01*
X161245552Y-76532228D01*
X161185537Y-76677117D01*
X161098408Y-76807515D01*
X160987515Y-76918408D01*
X160857117Y-77005537D01*
X160712228Y-77065552D01*
X160558414Y-77096148D01*
X160401586Y-77096148D01*
X160247772Y-77065552D01*
X160102883Y-77005537D01*
X159972485Y-76918408D01*
X159861592Y-76807515D01*
X159774463Y-76677117D01*
X159714448Y-76532228D01*
X159683852Y-76378414D01*
X159683852Y-76221586D01*
X159714448Y-76067772D01*
X159774463Y-75922883D01*
X159861592Y-75792485D01*
X159972485Y-75681592D01*
X160102883Y-75594463D01*
X160247772Y-75534448D01*
X160401586Y-75503852D01*
X160558414Y-75503852D01*
X160712228Y-75534448D01*
G37*
G36*
X163252228Y-75534448D02*
G01*
X163397117Y-75594463D01*
X163527515Y-75681592D01*
X163638408Y-75792485D01*
X163725537Y-75922883D01*
X163785552Y-76067772D01*
X163816148Y-76221586D01*
X163816148Y-76378414D01*
X163785552Y-76532228D01*
X163725537Y-76677117D01*
X163638408Y-76807515D01*
X163527515Y-76918408D01*
X163397117Y-77005537D01*
X163252228Y-77065552D01*
X163098414Y-77096148D01*
X162941586Y-77096148D01*
X162787772Y-77065552D01*
X162642883Y-77005537D01*
X162512485Y-76918408D01*
X162401592Y-76807515D01*
X162314463Y-76677117D01*
X162254448Y-76532228D01*
X162223852Y-76378414D01*
X162223852Y-76221586D01*
X162254448Y-76067772D01*
X162314463Y-75922883D01*
X162401592Y-75792485D01*
X162512485Y-75681592D01*
X162642883Y-75594463D01*
X162787772Y-75534448D01*
X162941586Y-75503852D01*
X163098414Y-75503852D01*
X163252228Y-75534448D01*
G37*
G36*
X109125000Y-76250000D02*
G01*
X107425000Y-76250000D01*
X107425000Y-74550000D01*
X109125000Y-74550000D01*
X109125000Y-76250000D01*
G37*
G36*
X108521742Y-72046601D02*
G01*
X108675687Y-72110367D01*
X108814234Y-72202941D01*
X108932059Y-72320766D01*
X109024633Y-72459313D01*
X109088399Y-72613258D01*
X109120907Y-72776685D01*
X109120907Y-72943315D01*
X109088399Y-73106742D01*
X109024633Y-73260687D01*
X108932059Y-73399234D01*
X108814234Y-73517059D01*
X108675687Y-73609633D01*
X108521742Y-73673399D01*
X108358315Y-73705907D01*
X108191685Y-73705907D01*
X108028258Y-73673399D01*
X107874313Y-73609633D01*
X107735766Y-73517059D01*
X107617941Y-73399234D01*
X107525367Y-73260687D01*
X107461601Y-73106742D01*
X107429093Y-72943315D01*
X107429093Y-72776685D01*
X107461601Y-72613258D01*
X107525367Y-72459313D01*
X107617941Y-72320766D01*
X107735766Y-72202941D01*
X107874313Y-72110367D01*
X108028258Y-72046601D01*
X108191685Y-72014093D01*
X108358315Y-72014093D01*
X108521742Y-72046601D01*
G37*
G36*
X108521742Y-69506601D02*
G01*
X108675687Y-69570367D01*
X108814234Y-69662941D01*
X108932059Y-69780766D01*
X109024633Y-69919313D01*
X109088399Y-70073258D01*
X109120907Y-70236685D01*
X109120907Y-70403315D01*
X109088399Y-70566742D01*
X109024633Y-70720687D01*
X108932059Y-70859234D01*
X108814234Y-70977059D01*
X108675687Y-71069633D01*
X108521742Y-71133399D01*
X108358315Y-71165907D01*
X108191685Y-71165907D01*
X108028258Y-71133399D01*
X107874313Y-71069633D01*
X107735766Y-70977059D01*
X107617941Y-70859234D01*
X107525367Y-70720687D01*
X107461601Y-70566742D01*
X107429093Y-70403315D01*
X107429093Y-70236685D01*
X107461601Y-70073258D01*
X107525367Y-69919313D01*
X107617941Y-69780766D01*
X107735766Y-69662941D01*
X107874313Y-69570367D01*
X108028258Y-69506601D01*
X108191685Y-69474093D01*
X108358315Y-69474093D01*
X108521742Y-69506601D01*
G37*
G36*
X156250000Y-68650000D02*
G01*
X154550000Y-68650000D01*
X154550000Y-66950000D01*
X156250000Y-66950000D01*
X156250000Y-68650000D01*
G37*
G36*
X148026742Y-66986601D02*
G01*
X148180687Y-67050367D01*
X148319234Y-67142941D01*
X148437059Y-67260766D01*
X148529633Y-67399313D01*
X148593399Y-67553258D01*
X148625907Y-67716685D01*
X148625907Y-67883315D01*
X148593399Y-68046742D01*
X148529633Y-68200687D01*
X148437059Y-68339234D01*
X148319234Y-68457059D01*
X148180687Y-68549633D01*
X148026742Y-68613399D01*
X147863315Y-68645907D01*
X147696685Y-68645907D01*
X147533258Y-68613399D01*
X147379313Y-68549633D01*
X147240766Y-68457059D01*
X147122941Y-68339234D01*
X147030367Y-68200687D01*
X146966601Y-68046742D01*
X146934093Y-67883315D01*
X146934093Y-67716685D01*
X146966601Y-67553258D01*
X147030367Y-67399313D01*
X147122941Y-67260766D01*
X147240766Y-67142941D01*
X147379313Y-67050367D01*
X147533258Y-66986601D01*
X147696685Y-66954093D01*
X147863315Y-66954093D01*
X148026742Y-66986601D01*
G37*
G36*
X150566742Y-66986601D02*
G01*
X150720687Y-67050367D01*
X150859234Y-67142941D01*
X150977059Y-67260766D01*
X151069633Y-67399313D01*
X151133399Y-67553258D01*
X151165907Y-67716685D01*
X151165907Y-67883315D01*
X151133399Y-68046742D01*
X151069633Y-68200687D01*
X150977059Y-68339234D01*
X150859234Y-68457059D01*
X150720687Y-68549633D01*
X150566742Y-68613399D01*
X150403315Y-68645907D01*
X150236685Y-68645907D01*
X150073258Y-68613399D01*
X149919313Y-68549633D01*
X149780766Y-68457059D01*
X149662941Y-68339234D01*
X149570367Y-68200687D01*
X149506601Y-68046742D01*
X149474093Y-67883315D01*
X149474093Y-67716685D01*
X149506601Y-67553258D01*
X149570367Y-67399313D01*
X149662941Y-67260766D01*
X149780766Y-67142941D01*
X149919313Y-67050367D01*
X150073258Y-66986601D01*
X150236685Y-66954093D01*
X150403315Y-66954093D01*
X150566742Y-66986601D01*
G37*
G36*
X153106742Y-66986601D02*
G01*
X153260687Y-67050367D01*
X153399234Y-67142941D01*
X153517059Y-67260766D01*
X153609633Y-67399313D01*
X153673399Y-67553258D01*
X153705907Y-67716685D01*
X153705907Y-67883315D01*
X153673399Y-68046742D01*
X153609633Y-68200687D01*
X153517059Y-68339234D01*
X153399234Y-68457059D01*
X153260687Y-68549633D01*
X153106742Y-68613399D01*
X152943315Y-68645907D01*
X152776685Y-68645907D01*
X152613258Y-68613399D01*
X152459313Y-68549633D01*
X152320766Y-68457059D01*
X152202941Y-68339234D01*
X152110367Y-68200687D01*
X152046601Y-68046742D01*
X152014093Y-67883315D01*
X152014093Y-67716685D01*
X152046601Y-67553258D01*
X152110367Y-67399313D01*
X152202941Y-67260766D01*
X152320766Y-67142941D01*
X152459313Y-67050367D01*
X152613258Y-66986601D01*
X152776685Y-66954093D01*
X152943315Y-66954093D01*
X153106742Y-66986601D01*
G37*
G36*
X119919389Y-57718948D02*
G01*
X119921824Y-57719432D01*
X119921830Y-57719433D01*
X120039942Y-57742927D01*
X120073203Y-57749544D01*
X120074141Y-57749829D01*
X120076434Y-57750778D01*
X120076451Y-57750784D01*
X120216717Y-57808884D01*
X120216732Y-57808892D01*
X120219030Y-57809844D01*
X120219895Y-57810306D01*
X120221972Y-57811694D01*
X120221974Y-57811695D01*
X120348214Y-57896045D01*
X120348219Y-57896049D01*
X120350293Y-57897435D01*
X120351051Y-57898056D01*
X120461944Y-58008949D01*
X120462565Y-58009707D01*
X120463951Y-58011781D01*
X120463954Y-58011785D01*
X120525879Y-58104463D01*
X120549694Y-58140105D01*
X120550156Y-58140970D01*
X120551109Y-58143270D01*
X120551115Y-58143282D01*
X120609215Y-58283548D01*
X120609218Y-58283559D01*
X120610171Y-58285859D01*
X120610456Y-58286797D01*
X120641052Y-58440611D01*
X120641148Y-58441586D01*
X120641148Y-58515475D01*
X120643536Y-58516464D01*
X120645000Y-58520000D01*
X120645000Y-59120000D01*
X120643536Y-59123536D01*
X120641157Y-59125915D01*
X120641157Y-59159018D01*
X120640776Y-59160931D01*
X120638860Y-59165554D01*
X120638861Y-59165554D01*
X120614016Y-59225537D01*
X120610913Y-59233027D01*
X120609830Y-59234650D01*
X120554650Y-59289830D01*
X120553027Y-59290913D01*
X120480931Y-59320776D01*
X120479018Y-59321157D01*
X120445915Y-59321157D01*
X120443536Y-59323536D01*
X120440000Y-59325000D01*
X120429896Y-59325000D01*
X119250104Y-59325000D01*
X119240000Y-59325000D01*
X119236464Y-59323536D01*
X119234085Y-59321157D01*
X119205985Y-59321157D01*
X119200982Y-59321157D01*
X119199069Y-59320776D01*
X119194446Y-59318861D01*
X119194445Y-59318861D01*
X119131595Y-59292828D01*
X119131592Y-59292826D01*
X119126973Y-59290913D01*
X119125350Y-59289830D01*
X119070170Y-59234650D01*
X119069087Y-59233027D01*
X119067173Y-59228408D01*
X119067171Y-59228404D01*
X119041138Y-59165554D01*
X119041137Y-59165549D01*
X119039224Y-59160931D01*
X119038843Y-59159018D01*
X119038843Y-59125915D01*
X119036464Y-59123536D01*
X119035000Y-59120000D01*
X119035000Y-58520000D01*
X119036464Y-58516464D01*
X119038852Y-58515475D01*
X119038852Y-58441586D01*
X119038948Y-58440611D01*
X119039432Y-58438176D01*
X119039433Y-58438169D01*
X119069057Y-58289245D01*
X119069057Y-58289244D01*
X119069544Y-58286797D01*
X119069829Y-58285859D01*
X119070777Y-58283568D01*
X119070784Y-58283548D01*
X119128884Y-58143282D01*
X119128894Y-58143262D01*
X119129844Y-58140970D01*
X119130306Y-58140105D01*
X119131691Y-58138031D01*
X119131695Y-58138025D01*
X119216045Y-58011785D01*
X119216053Y-58011774D01*
X119217435Y-58009707D01*
X119218056Y-58008949D01*
X119219822Y-58007182D01*
X119219827Y-58007177D01*
X119327177Y-57899827D01*
X119327182Y-57899822D01*
X119328949Y-57898056D01*
X119329707Y-57897435D01*
X119331774Y-57896053D01*
X119331785Y-57896045D01*
X119458025Y-57811695D01*
X119458031Y-57811691D01*
X119460105Y-57810306D01*
X119460970Y-57809844D01*
X119463262Y-57808894D01*
X119463282Y-57808884D01*
X119603548Y-57750784D01*
X119603568Y-57750777D01*
X119605859Y-57749829D01*
X119606797Y-57749544D01*
X119609245Y-57749057D01*
X119758169Y-57719433D01*
X119758176Y-57719432D01*
X119760611Y-57718948D01*
X119761586Y-57718852D01*
X119918414Y-57718852D01*
X119919389Y-57718948D01*
G37*
G36*
X132619389Y-57718948D02*
G01*
X132621824Y-57719432D01*
X132621830Y-57719433D01*
X132739942Y-57742927D01*
X132773203Y-57749544D01*
X132774141Y-57749829D01*
X132776434Y-57750778D01*
X132776451Y-57750784D01*
X132916717Y-57808884D01*
X132916732Y-57808892D01*
X132919030Y-57809844D01*
X132919895Y-57810306D01*
X132921972Y-57811694D01*
X132921974Y-57811695D01*
X133048214Y-57896045D01*
X133048219Y-57896049D01*
X133050293Y-57897435D01*
X133051051Y-57898056D01*
X133161944Y-58008949D01*
X133162565Y-58009707D01*
X133163951Y-58011781D01*
X133163954Y-58011785D01*
X133225879Y-58104463D01*
X133249694Y-58140105D01*
X133250156Y-58140970D01*
X133251109Y-58143270D01*
X133251115Y-58143282D01*
X133309215Y-58283548D01*
X133309218Y-58283559D01*
X133310171Y-58285859D01*
X133310456Y-58286797D01*
X133341052Y-58440611D01*
X133341148Y-58441586D01*
X133341148Y-58515475D01*
X133343536Y-58516464D01*
X133345000Y-58520000D01*
X133345000Y-59120000D01*
X133343536Y-59123536D01*
X133341157Y-59125915D01*
X133341157Y-59159018D01*
X133340776Y-59160931D01*
X133338860Y-59165554D01*
X133338861Y-59165554D01*
X133314016Y-59225537D01*
X133310913Y-59233027D01*
X133309830Y-59234650D01*
X133254650Y-59289830D01*
X133253027Y-59290913D01*
X133180931Y-59320776D01*
X133179018Y-59321157D01*
X133145915Y-59321157D01*
X133143536Y-59323536D01*
X133140000Y-59325000D01*
X133129896Y-59325000D01*
X131950104Y-59325000D01*
X131940000Y-59325000D01*
X131936464Y-59323536D01*
X131934085Y-59321157D01*
X131905985Y-59321157D01*
X131900982Y-59321157D01*
X131899069Y-59320776D01*
X131894446Y-59318861D01*
X131894445Y-59318861D01*
X131831595Y-59292828D01*
X131831592Y-59292826D01*
X131826973Y-59290913D01*
X131825350Y-59289830D01*
X131770170Y-59234650D01*
X131769087Y-59233027D01*
X131767173Y-59228408D01*
X131767171Y-59228404D01*
X131741138Y-59165554D01*
X131741137Y-59165549D01*
X131739224Y-59160931D01*
X131738843Y-59159018D01*
X131738843Y-59125915D01*
X131736464Y-59123536D01*
X131735000Y-59120000D01*
X131735000Y-58520000D01*
X131736464Y-58516464D01*
X131738852Y-58515475D01*
X131738852Y-58441586D01*
X131738948Y-58440611D01*
X131739432Y-58438176D01*
X131739433Y-58438169D01*
X131769057Y-58289245D01*
X131769057Y-58289244D01*
X131769544Y-58286797D01*
X131769829Y-58285859D01*
X131770777Y-58283568D01*
X131770784Y-58283548D01*
X131828884Y-58143282D01*
X131828894Y-58143262D01*
X131829844Y-58140970D01*
X131830306Y-58140105D01*
X131831691Y-58138031D01*
X131831695Y-58138025D01*
X131916045Y-58011785D01*
X131916053Y-58011774D01*
X131917435Y-58009707D01*
X131918056Y-58008949D01*
X131919822Y-58007182D01*
X131919827Y-58007177D01*
X132027177Y-57899827D01*
X132027182Y-57899822D01*
X132028949Y-57898056D01*
X132029707Y-57897435D01*
X132031774Y-57896053D01*
X132031785Y-57896045D01*
X132158025Y-57811695D01*
X132158031Y-57811691D01*
X132160105Y-57810306D01*
X132160970Y-57809844D01*
X132163262Y-57808894D01*
X132163282Y-57808884D01*
X132303548Y-57750784D01*
X132303568Y-57750777D01*
X132305859Y-57749829D01*
X132306797Y-57749544D01*
X132309245Y-57749057D01*
X132458169Y-57719433D01*
X132458176Y-57719432D01*
X132460611Y-57718948D01*
X132461586Y-57718852D01*
X132618414Y-57718852D01*
X132619389Y-57718948D01*
G37*
G36*
X145319389Y-57718948D02*
G01*
X145321824Y-57719432D01*
X145321830Y-57719433D01*
X145439942Y-57742927D01*
X145473203Y-57749544D01*
X145474141Y-57749829D01*
X145476434Y-57750778D01*
X145476451Y-57750784D01*
X145616717Y-57808884D01*
X145616732Y-57808892D01*
X145619030Y-57809844D01*
X145619895Y-57810306D01*
X145621972Y-57811694D01*
X145621974Y-57811695D01*
X145748214Y-57896045D01*
X145748219Y-57896049D01*
X145750293Y-57897435D01*
X145751051Y-57898056D01*
X145861944Y-58008949D01*
X145862565Y-58009707D01*
X145863951Y-58011781D01*
X145863954Y-58011785D01*
X145925879Y-58104463D01*
X145949694Y-58140105D01*
X145950156Y-58140970D01*
X145951109Y-58143270D01*
X145951115Y-58143282D01*
X146009215Y-58283548D01*
X146009218Y-58283559D01*
X146010171Y-58285859D01*
X146010456Y-58286797D01*
X146041052Y-58440611D01*
X146041148Y-58441586D01*
X146041148Y-58515475D01*
X146043536Y-58516464D01*
X146045000Y-58520000D01*
X146045000Y-59120000D01*
X146043536Y-59123536D01*
X146041157Y-59125915D01*
X146041157Y-59159018D01*
X146040776Y-59160931D01*
X146038860Y-59165554D01*
X146038861Y-59165554D01*
X146014016Y-59225537D01*
X146010913Y-59233027D01*
X146009830Y-59234650D01*
X145954650Y-59289830D01*
X145953027Y-59290913D01*
X145880931Y-59320776D01*
X145879018Y-59321157D01*
X145845915Y-59321157D01*
X145843536Y-59323536D01*
X145840000Y-59325000D01*
X145829896Y-59325000D01*
X144650104Y-59325000D01*
X144640000Y-59325000D01*
X144636464Y-59323536D01*
X144634085Y-59321157D01*
X144605985Y-59321157D01*
X144600982Y-59321157D01*
X144599069Y-59320776D01*
X144594446Y-59318861D01*
X144594445Y-59318861D01*
X144531595Y-59292828D01*
X144531592Y-59292826D01*
X144526973Y-59290913D01*
X144525350Y-59289830D01*
X144470170Y-59234650D01*
X144469087Y-59233027D01*
X144467173Y-59228408D01*
X144467171Y-59228404D01*
X144441138Y-59165554D01*
X144441137Y-59165549D01*
X144439224Y-59160931D01*
X144438843Y-59159018D01*
X144438843Y-59125915D01*
X144436464Y-59123536D01*
X144435000Y-59120000D01*
X144435000Y-58520000D01*
X144436464Y-58516464D01*
X144438852Y-58515475D01*
X144438852Y-58441586D01*
X144438948Y-58440611D01*
X144439432Y-58438176D01*
X144439433Y-58438169D01*
X144469057Y-58289245D01*
X144469057Y-58289244D01*
X144469544Y-58286797D01*
X144469829Y-58285859D01*
X144470777Y-58283568D01*
X144470784Y-58283548D01*
X144528884Y-58143282D01*
X144528894Y-58143262D01*
X144529844Y-58140970D01*
X144530306Y-58140105D01*
X144531691Y-58138031D01*
X144531695Y-58138025D01*
X144616045Y-58011785D01*
X144616053Y-58011774D01*
X144617435Y-58009707D01*
X144618056Y-58008949D01*
X144619822Y-58007182D01*
X144619827Y-58007177D01*
X144727177Y-57899827D01*
X144727182Y-57899822D01*
X144728949Y-57898056D01*
X144729707Y-57897435D01*
X144731774Y-57896053D01*
X144731785Y-57896045D01*
X144858025Y-57811695D01*
X144858031Y-57811691D01*
X144860105Y-57810306D01*
X144860970Y-57809844D01*
X144863262Y-57808894D01*
X144863282Y-57808884D01*
X145003548Y-57750784D01*
X145003568Y-57750777D01*
X145005859Y-57749829D01*
X145006797Y-57749544D01*
X145009245Y-57749057D01*
X145158169Y-57719433D01*
X145158176Y-57719432D01*
X145160611Y-57718948D01*
X145161586Y-57718852D01*
X145318414Y-57718852D01*
X145319389Y-57718948D01*
G37*
G36*
X158019389Y-57718948D02*
G01*
X158021824Y-57719432D01*
X158021830Y-57719433D01*
X158139942Y-57742927D01*
X158173203Y-57749544D01*
X158174141Y-57749829D01*
X158176434Y-57750778D01*
X158176451Y-57750784D01*
X158316717Y-57808884D01*
X158316732Y-57808892D01*
X158319030Y-57809844D01*
X158319895Y-57810306D01*
X158321972Y-57811694D01*
X158321974Y-57811695D01*
X158448214Y-57896045D01*
X158448219Y-57896049D01*
X158450293Y-57897435D01*
X158451051Y-57898056D01*
X158561944Y-58008949D01*
X158562565Y-58009707D01*
X158563951Y-58011781D01*
X158563954Y-58011785D01*
X158625879Y-58104463D01*
X158649694Y-58140105D01*
X158650156Y-58140970D01*
X158651109Y-58143270D01*
X158651115Y-58143282D01*
X158709215Y-58283548D01*
X158709218Y-58283559D01*
X158710171Y-58285859D01*
X158710456Y-58286797D01*
X158741052Y-58440611D01*
X158741148Y-58441586D01*
X158741148Y-58515475D01*
X158743536Y-58516464D01*
X158745000Y-58520000D01*
X158745000Y-59120000D01*
X158743536Y-59123536D01*
X158741157Y-59125915D01*
X158741157Y-59159018D01*
X158740776Y-59160931D01*
X158738860Y-59165554D01*
X158738861Y-59165554D01*
X158714016Y-59225537D01*
X158710913Y-59233027D01*
X158709830Y-59234650D01*
X158654650Y-59289830D01*
X158653027Y-59290913D01*
X158580931Y-59320776D01*
X158579018Y-59321157D01*
X158545915Y-59321157D01*
X158543536Y-59323536D01*
X158540000Y-59325000D01*
X158529896Y-59325000D01*
X157350104Y-59325000D01*
X157340000Y-59325000D01*
X157336464Y-59323536D01*
X157334085Y-59321157D01*
X157305985Y-59321157D01*
X157300982Y-59321157D01*
X157299069Y-59320776D01*
X157294446Y-59318861D01*
X157294445Y-59318861D01*
X157231595Y-59292828D01*
X157231592Y-59292826D01*
X157226973Y-59290913D01*
X157225350Y-59289830D01*
X157170170Y-59234650D01*
X157169087Y-59233027D01*
X157167173Y-59228408D01*
X157167171Y-59228404D01*
X157141138Y-59165554D01*
X157141137Y-59165549D01*
X157139224Y-59160931D01*
X157138843Y-59159018D01*
X157138843Y-59125915D01*
X157136464Y-59123536D01*
X157135000Y-59120000D01*
X157135000Y-58520000D01*
X157136464Y-58516464D01*
X157138852Y-58515475D01*
X157138852Y-58441586D01*
X157138948Y-58440611D01*
X157139432Y-58438176D01*
X157139433Y-58438169D01*
X157169057Y-58289245D01*
X157169057Y-58289244D01*
X157169544Y-58286797D01*
X157169829Y-58285859D01*
X157170777Y-58283568D01*
X157170784Y-58283548D01*
X157228884Y-58143282D01*
X157228894Y-58143262D01*
X157229844Y-58140970D01*
X157230306Y-58140105D01*
X157231691Y-58138031D01*
X157231695Y-58138025D01*
X157316045Y-58011785D01*
X157316053Y-58011774D01*
X157317435Y-58009707D01*
X157318056Y-58008949D01*
X157319822Y-58007182D01*
X157319827Y-58007177D01*
X157427177Y-57899827D01*
X157427182Y-57899822D01*
X157428949Y-57898056D01*
X157429707Y-57897435D01*
X157431774Y-57896053D01*
X157431785Y-57896045D01*
X157558025Y-57811695D01*
X157558031Y-57811691D01*
X157560105Y-57810306D01*
X157560970Y-57809844D01*
X157563262Y-57808894D01*
X157563282Y-57808884D01*
X157703548Y-57750784D01*
X157703568Y-57750777D01*
X157705859Y-57749829D01*
X157706797Y-57749544D01*
X157709245Y-57749057D01*
X157858169Y-57719433D01*
X157858176Y-57719432D01*
X157860611Y-57718948D01*
X157861586Y-57718852D01*
X158018414Y-57718852D01*
X158019389Y-57718948D01*
G37*
G36*
X163696537Y-57735224D02*
G01*
X163761421Y-57778579D01*
X163804776Y-57843463D01*
X163820000Y-57920000D01*
X163820000Y-59120000D01*
X163804776Y-59196537D01*
X163761421Y-59261421D01*
X163696537Y-59304776D01*
X163620000Y-59320000D01*
X162420000Y-59320000D01*
X162343463Y-59304776D01*
X162278579Y-59261421D01*
X162235224Y-59196537D01*
X162220000Y-59120000D01*
X162220000Y-57920000D01*
X162235224Y-57843463D01*
X162278579Y-57778579D01*
X162343463Y-57735224D01*
X162420000Y-57720000D01*
X163620000Y-57720000D01*
X163696537Y-57735224D01*
G37*
G36*
X114992228Y-57754448D02*
G01*
X115137117Y-57814463D01*
X115267515Y-57901592D01*
X115378408Y-58012485D01*
X115465537Y-58142883D01*
X115525552Y-58287772D01*
X115556148Y-58441586D01*
X115556148Y-58598414D01*
X115525552Y-58752228D01*
X115465537Y-58897117D01*
X115378408Y-59027515D01*
X115267515Y-59138408D01*
X115137117Y-59225537D01*
X114992228Y-59285552D01*
X114838414Y-59316148D01*
X114681586Y-59316148D01*
X114527772Y-59285552D01*
X114382883Y-59225537D01*
X114252485Y-59138408D01*
X114141592Y-59027515D01*
X114054463Y-58897117D01*
X113994448Y-58752228D01*
X113963852Y-58598414D01*
X113963852Y-58441586D01*
X113994448Y-58287772D01*
X114054463Y-58142883D01*
X114141592Y-58012485D01*
X114252485Y-57901592D01*
X114382883Y-57814463D01*
X114527772Y-57754448D01*
X114681586Y-57723852D01*
X114838414Y-57723852D01*
X114992228Y-57754448D01*
G37*
G36*
X117532228Y-57754448D02*
G01*
X117677117Y-57814463D01*
X117807515Y-57901592D01*
X117918408Y-58012485D01*
X118005537Y-58142883D01*
X118065552Y-58287772D01*
X118096148Y-58441586D01*
X118096148Y-58598414D01*
X118065552Y-58752228D01*
X118005537Y-58897117D01*
X117918408Y-59027515D01*
X117807515Y-59138408D01*
X117677117Y-59225537D01*
X117532228Y-59285552D01*
X117378414Y-59316148D01*
X117221586Y-59316148D01*
X117067772Y-59285552D01*
X116922883Y-59225537D01*
X116792485Y-59138408D01*
X116681592Y-59027515D01*
X116594463Y-58897117D01*
X116534448Y-58752228D01*
X116503852Y-58598414D01*
X116503852Y-58441586D01*
X116534448Y-58287772D01*
X116594463Y-58142883D01*
X116681592Y-58012485D01*
X116792485Y-57901592D01*
X116922883Y-57814463D01*
X117067772Y-57754448D01*
X117221586Y-57723852D01*
X117378414Y-57723852D01*
X117532228Y-57754448D01*
G37*
G36*
X122612228Y-57754448D02*
G01*
X122757117Y-57814463D01*
X122887515Y-57901592D01*
X122998408Y-58012485D01*
X123085537Y-58142883D01*
X123145552Y-58287772D01*
X123176148Y-58441586D01*
X123176148Y-58598414D01*
X123145552Y-58752228D01*
X123085537Y-58897117D01*
X122998408Y-59027515D01*
X122887515Y-59138408D01*
X122757117Y-59225537D01*
X122612228Y-59285552D01*
X122458414Y-59316148D01*
X122301586Y-59316148D01*
X122147772Y-59285552D01*
X122002883Y-59225537D01*
X121872485Y-59138408D01*
X121761592Y-59027515D01*
X121674463Y-58897117D01*
X121614448Y-58752228D01*
X121583852Y-58598414D01*
X121583852Y-58441586D01*
X121614448Y-58287772D01*
X121674463Y-58142883D01*
X121761592Y-58012485D01*
X121872485Y-57901592D01*
X122002883Y-57814463D01*
X122147772Y-57754448D01*
X122301586Y-57723852D01*
X122458414Y-57723852D01*
X122612228Y-57754448D01*
G37*
G36*
X125152228Y-57754448D02*
G01*
X125297117Y-57814463D01*
X125427515Y-57901592D01*
X125538408Y-58012485D01*
X125625537Y-58142883D01*
X125685552Y-58287772D01*
X125716148Y-58441586D01*
X125716148Y-58598414D01*
X125685552Y-58752228D01*
X125625537Y-58897117D01*
X125538408Y-59027515D01*
X125427515Y-59138408D01*
X125297117Y-59225537D01*
X125152228Y-59285552D01*
X124998414Y-59316148D01*
X124841586Y-59316148D01*
X124687772Y-59285552D01*
X124542883Y-59225537D01*
X124412485Y-59138408D01*
X124301592Y-59027515D01*
X124214463Y-58897117D01*
X124154448Y-58752228D01*
X124123852Y-58598414D01*
X124123852Y-58441586D01*
X124154448Y-58287772D01*
X124214463Y-58142883D01*
X124301592Y-58012485D01*
X124412485Y-57901592D01*
X124542883Y-57814463D01*
X124687772Y-57754448D01*
X124841586Y-57723852D01*
X124998414Y-57723852D01*
X125152228Y-57754448D01*
G37*
G36*
X127692228Y-57754448D02*
G01*
X127837117Y-57814463D01*
X127967515Y-57901592D01*
X128078408Y-58012485D01*
X128165537Y-58142883D01*
X128225552Y-58287772D01*
X128256148Y-58441586D01*
X128256148Y-58598414D01*
X128225552Y-58752228D01*
X128165537Y-58897117D01*
X128078408Y-59027515D01*
X127967515Y-59138408D01*
X127837117Y-59225537D01*
X127692228Y-59285552D01*
X127538414Y-59316148D01*
X127381586Y-59316148D01*
X127227772Y-59285552D01*
X127082883Y-59225537D01*
X126952485Y-59138408D01*
X126841592Y-59027515D01*
X126754463Y-58897117D01*
X126694448Y-58752228D01*
X126663852Y-58598414D01*
X126663852Y-58441586D01*
X126694448Y-58287772D01*
X126754463Y-58142883D01*
X126841592Y-58012485D01*
X126952485Y-57901592D01*
X127082883Y-57814463D01*
X127227772Y-57754448D01*
X127381586Y-57723852D01*
X127538414Y-57723852D01*
X127692228Y-57754448D01*
G37*
G36*
X130232228Y-57754448D02*
G01*
X130377117Y-57814463D01*
X130507515Y-57901592D01*
X130618408Y-58012485D01*
X130705537Y-58142883D01*
X130765552Y-58287772D01*
X130796148Y-58441586D01*
X130796148Y-58598414D01*
X130765552Y-58752228D01*
X130705537Y-58897117D01*
X130618408Y-59027515D01*
X130507515Y-59138408D01*
X130377117Y-59225537D01*
X130232228Y-59285552D01*
X130078414Y-59316148D01*
X129921586Y-59316148D01*
X129767772Y-59285552D01*
X129622883Y-59225537D01*
X129492485Y-59138408D01*
X129381592Y-59027515D01*
X129294463Y-58897117D01*
X129234448Y-58752228D01*
X129203852Y-58598414D01*
X129203852Y-58441586D01*
X129234448Y-58287772D01*
X129294463Y-58142883D01*
X129381592Y-58012485D01*
X129492485Y-57901592D01*
X129622883Y-57814463D01*
X129767772Y-57754448D01*
X129921586Y-57723852D01*
X130078414Y-57723852D01*
X130232228Y-57754448D01*
G37*
G36*
X135312228Y-57754448D02*
G01*
X135457117Y-57814463D01*
X135587515Y-57901592D01*
X135698408Y-58012485D01*
X135785537Y-58142883D01*
X135845552Y-58287772D01*
X135876148Y-58441586D01*
X135876148Y-58598414D01*
X135845552Y-58752228D01*
X135785537Y-58897117D01*
X135698408Y-59027515D01*
X135587515Y-59138408D01*
X135457117Y-59225537D01*
X135312228Y-59285552D01*
X135158414Y-59316148D01*
X135001586Y-59316148D01*
X134847772Y-59285552D01*
X134702883Y-59225537D01*
X134572485Y-59138408D01*
X134461592Y-59027515D01*
X134374463Y-58897117D01*
X134314448Y-58752228D01*
X134283852Y-58598414D01*
X134283852Y-58441586D01*
X134314448Y-58287772D01*
X134374463Y-58142883D01*
X134461592Y-58012485D01*
X134572485Y-57901592D01*
X134702883Y-57814463D01*
X134847772Y-57754448D01*
X135001586Y-57723852D01*
X135158414Y-57723852D01*
X135312228Y-57754448D01*
G37*
G36*
X137852228Y-57754448D02*
G01*
X137997117Y-57814463D01*
X138127515Y-57901592D01*
X138238408Y-58012485D01*
X138325537Y-58142883D01*
X138385552Y-58287772D01*
X138416148Y-58441586D01*
X138416148Y-58598414D01*
X138385552Y-58752228D01*
X138325537Y-58897117D01*
X138238408Y-59027515D01*
X138127515Y-59138408D01*
X137997117Y-59225537D01*
X137852228Y-59285552D01*
X137698414Y-59316148D01*
X137541586Y-59316148D01*
X137387772Y-59285552D01*
X137242883Y-59225537D01*
X137112485Y-59138408D01*
X137001592Y-59027515D01*
X136914463Y-58897117D01*
X136854448Y-58752228D01*
X136823852Y-58598414D01*
X136823852Y-58441586D01*
X136854448Y-58287772D01*
X136914463Y-58142883D01*
X137001592Y-58012485D01*
X137112485Y-57901592D01*
X137242883Y-57814463D01*
X137387772Y-57754448D01*
X137541586Y-57723852D01*
X137698414Y-57723852D01*
X137852228Y-57754448D01*
G37*
G36*
X140392228Y-57754448D02*
G01*
X140537117Y-57814463D01*
X140667515Y-57901592D01*
X140778408Y-58012485D01*
X140865537Y-58142883D01*
X140925552Y-58287772D01*
X140956148Y-58441586D01*
X140956148Y-58598414D01*
X140925552Y-58752228D01*
X140865537Y-58897117D01*
X140778408Y-59027515D01*
X140667515Y-59138408D01*
X140537117Y-59225537D01*
X140392228Y-59285552D01*
X140238414Y-59316148D01*
X140081586Y-59316148D01*
X139927772Y-59285552D01*
X139782883Y-59225537D01*
X139652485Y-59138408D01*
X139541592Y-59027515D01*
X139454463Y-58897117D01*
X139394448Y-58752228D01*
X139363852Y-58598414D01*
X139363852Y-58441586D01*
X139394448Y-58287772D01*
X139454463Y-58142883D01*
X139541592Y-58012485D01*
X139652485Y-57901592D01*
X139782883Y-57814463D01*
X139927772Y-57754448D01*
X140081586Y-57723852D01*
X140238414Y-57723852D01*
X140392228Y-57754448D01*
G37*
G36*
X142932228Y-57754448D02*
G01*
X143077117Y-57814463D01*
X143207515Y-57901592D01*
X143318408Y-58012485D01*
X143405537Y-58142883D01*
X143465552Y-58287772D01*
X143496148Y-58441586D01*
X143496148Y-58598414D01*
X143465552Y-58752228D01*
X143405537Y-58897117D01*
X143318408Y-59027515D01*
X143207515Y-59138408D01*
X143077117Y-59225537D01*
X142932228Y-59285552D01*
X142778414Y-59316148D01*
X142621586Y-59316148D01*
X142467772Y-59285552D01*
X142322883Y-59225537D01*
X142192485Y-59138408D01*
X142081592Y-59027515D01*
X141994463Y-58897117D01*
X141934448Y-58752228D01*
X141903852Y-58598414D01*
X141903852Y-58441586D01*
X141934448Y-58287772D01*
X141994463Y-58142883D01*
X142081592Y-58012485D01*
X142192485Y-57901592D01*
X142322883Y-57814463D01*
X142467772Y-57754448D01*
X142621586Y-57723852D01*
X142778414Y-57723852D01*
X142932228Y-57754448D01*
G37*
G36*
X148012228Y-57754448D02*
G01*
X148157117Y-57814463D01*
X148287515Y-57901592D01*
X148398408Y-58012485D01*
X148485537Y-58142883D01*
X148545552Y-58287772D01*
X148576148Y-58441586D01*
X148576148Y-58598414D01*
X148545552Y-58752228D01*
X148485537Y-58897117D01*
X148398408Y-59027515D01*
X148287515Y-59138408D01*
X148157117Y-59225537D01*
X148012228Y-59285552D01*
X147858414Y-59316148D01*
X147701586Y-59316148D01*
X147547772Y-59285552D01*
X147402883Y-59225537D01*
X147272485Y-59138408D01*
X147161592Y-59027515D01*
X147074463Y-58897117D01*
X147014448Y-58752228D01*
X146983852Y-58598414D01*
X146983852Y-58441586D01*
X147014448Y-58287772D01*
X147074463Y-58142883D01*
X147161592Y-58012485D01*
X147272485Y-57901592D01*
X147402883Y-57814463D01*
X147547772Y-57754448D01*
X147701586Y-57723852D01*
X147858414Y-57723852D01*
X148012228Y-57754448D01*
G37*
G36*
X150552228Y-57754448D02*
G01*
X150697117Y-57814463D01*
X150827515Y-57901592D01*
X150938408Y-58012485D01*
X151025537Y-58142883D01*
X151085552Y-58287772D01*
X151116148Y-58441586D01*
X151116148Y-58598414D01*
X151085552Y-58752228D01*
X151025537Y-58897117D01*
X150938408Y-59027515D01*
X150827515Y-59138408D01*
X150697117Y-59225537D01*
X150552228Y-59285552D01*
X150398414Y-59316148D01*
X150241586Y-59316148D01*
X150087772Y-59285552D01*
X149942883Y-59225537D01*
X149812485Y-59138408D01*
X149701592Y-59027515D01*
X149614463Y-58897117D01*
X149554448Y-58752228D01*
X149523852Y-58598414D01*
X149523852Y-58441586D01*
X149554448Y-58287772D01*
X149614463Y-58142883D01*
X149701592Y-58012485D01*
X149812485Y-57901592D01*
X149942883Y-57814463D01*
X150087772Y-57754448D01*
X150241586Y-57723852D01*
X150398414Y-57723852D01*
X150552228Y-57754448D01*
G37*
G36*
X153092228Y-57754448D02*
G01*
X153237117Y-57814463D01*
X153367515Y-57901592D01*
X153478408Y-58012485D01*
X153565537Y-58142883D01*
X153625552Y-58287772D01*
X153656148Y-58441586D01*
X153656148Y-58598414D01*
X153625552Y-58752228D01*
X153565537Y-58897117D01*
X153478408Y-59027515D01*
X153367515Y-59138408D01*
X153237117Y-59225537D01*
X153092228Y-59285552D01*
X152938414Y-59316148D01*
X152781586Y-59316148D01*
X152627772Y-59285552D01*
X152482883Y-59225537D01*
X152352485Y-59138408D01*
X152241592Y-59027515D01*
X152154463Y-58897117D01*
X152094448Y-58752228D01*
X152063852Y-58598414D01*
X152063852Y-58441586D01*
X152094448Y-58287772D01*
X152154463Y-58142883D01*
X152241592Y-58012485D01*
X152352485Y-57901592D01*
X152482883Y-57814463D01*
X152627772Y-57754448D01*
X152781586Y-57723852D01*
X152938414Y-57723852D01*
X153092228Y-57754448D01*
G37*
G36*
X155632228Y-57754448D02*
G01*
X155777117Y-57814463D01*
X155907515Y-57901592D01*
X156018408Y-58012485D01*
X156105537Y-58142883D01*
X156165552Y-58287772D01*
X156196148Y-58441586D01*
X156196148Y-58598414D01*
X156165552Y-58752228D01*
X156105537Y-58897117D01*
X156018408Y-59027515D01*
X155907515Y-59138408D01*
X155777117Y-59225537D01*
X155632228Y-59285552D01*
X155478414Y-59316148D01*
X155321586Y-59316148D01*
X155167772Y-59285552D01*
X155022883Y-59225537D01*
X154892485Y-59138408D01*
X154781592Y-59027515D01*
X154694463Y-58897117D01*
X154634448Y-58752228D01*
X154603852Y-58598414D01*
X154603852Y-58441586D01*
X154634448Y-58287772D01*
X154694463Y-58142883D01*
X154781592Y-58012485D01*
X154892485Y-57901592D01*
X155022883Y-57814463D01*
X155167772Y-57754448D01*
X155321586Y-57723852D01*
X155478414Y-57723852D01*
X155632228Y-57754448D01*
G37*
G36*
X160712228Y-57754448D02*
G01*
X160857117Y-57814463D01*
X160987515Y-57901592D01*
X161098408Y-58012485D01*
X161185537Y-58142883D01*
X161245552Y-58287772D01*
X161276148Y-58441586D01*
X161276148Y-58598414D01*
X161245552Y-58752228D01*
X161185537Y-58897117D01*
X161098408Y-59027515D01*
X160987515Y-59138408D01*
X160857117Y-59225537D01*
X160712228Y-59285552D01*
X160558414Y-59316148D01*
X160401586Y-59316148D01*
X160247772Y-59285552D01*
X160102883Y-59225537D01*
X159972485Y-59138408D01*
X159861592Y-59027515D01*
X159774463Y-58897117D01*
X159714448Y-58752228D01*
X159683852Y-58598414D01*
X159683852Y-58441586D01*
X159714448Y-58287772D01*
X159774463Y-58142883D01*
X159861592Y-58012485D01*
X159972485Y-57901592D01*
X160102883Y-57814463D01*
X160247772Y-57754448D01*
X160401586Y-57723852D01*
X160558414Y-57723852D01*
X160712228Y-57754448D01*
G37*
G36*
X163870000Y-54150000D02*
G01*
X162170000Y-54150000D01*
X162170000Y-52450000D01*
X163870000Y-52450000D01*
X163870000Y-54150000D01*
G37*
G36*
X140406742Y-52486601D02*
G01*
X140560687Y-52550367D01*
X140699234Y-52642941D01*
X140817059Y-52760766D01*
X140909633Y-52899313D01*
X140973399Y-53053258D01*
X141005907Y-53216685D01*
X141005907Y-53383315D01*
X140973399Y-53546742D01*
X140909633Y-53700687D01*
X140817059Y-53839234D01*
X140699234Y-53957059D01*
X140560687Y-54049633D01*
X140406742Y-54113399D01*
X140243315Y-54145907D01*
X140076685Y-54145907D01*
X139913258Y-54113399D01*
X139759313Y-54049633D01*
X139620766Y-53957059D01*
X139502941Y-53839234D01*
X139410367Y-53700687D01*
X139346601Y-53546742D01*
X139314093Y-53383315D01*
X139314093Y-53216685D01*
X139346601Y-53053258D01*
X139410367Y-52899313D01*
X139502941Y-52760766D01*
X139620766Y-52642941D01*
X139759313Y-52550367D01*
X139913258Y-52486601D01*
X140076685Y-52454093D01*
X140243315Y-52454093D01*
X140406742Y-52486601D01*
G37*
G36*
X142946742Y-52486601D02*
G01*
X143100687Y-52550367D01*
X143239234Y-52642941D01*
X143357059Y-52760766D01*
X143449633Y-52899313D01*
X143513399Y-53053258D01*
X143545907Y-53216685D01*
X143545907Y-53383315D01*
X143513399Y-53546742D01*
X143449633Y-53700687D01*
X143357059Y-53839234D01*
X143239234Y-53957059D01*
X143100687Y-54049633D01*
X142946742Y-54113399D01*
X142783315Y-54145907D01*
X142616685Y-54145907D01*
X142453258Y-54113399D01*
X142299313Y-54049633D01*
X142160766Y-53957059D01*
X142042941Y-53839234D01*
X141950367Y-53700687D01*
X141886601Y-53546742D01*
X141854093Y-53383315D01*
X141854093Y-53216685D01*
X141886601Y-53053258D01*
X141950367Y-52899313D01*
X142042941Y-52760766D01*
X142160766Y-52642941D01*
X142299313Y-52550367D01*
X142453258Y-52486601D01*
X142616685Y-52454093D01*
X142783315Y-52454093D01*
X142946742Y-52486601D01*
G37*
G36*
X145486742Y-52486601D02*
G01*
X145640687Y-52550367D01*
X145779234Y-52642941D01*
X145897059Y-52760766D01*
X145989633Y-52899313D01*
X146053399Y-53053258D01*
X146085907Y-53216685D01*
X146085907Y-53383315D01*
X146053399Y-53546742D01*
X145989633Y-53700687D01*
X145897059Y-53839234D01*
X145779234Y-53957059D01*
X145640687Y-54049633D01*
X145486742Y-54113399D01*
X145323315Y-54145907D01*
X145156685Y-54145907D01*
X144993258Y-54113399D01*
X144839313Y-54049633D01*
X144700766Y-53957059D01*
X144582941Y-53839234D01*
X144490367Y-53700687D01*
X144426601Y-53546742D01*
X144394093Y-53383315D01*
X144394093Y-53216685D01*
X144426601Y-53053258D01*
X144490367Y-52899313D01*
X144582941Y-52760766D01*
X144700766Y-52642941D01*
X144839313Y-52550367D01*
X144993258Y-52486601D01*
X145156685Y-52454093D01*
X145323315Y-52454093D01*
X145486742Y-52486601D01*
G37*
G36*
X148026742Y-52486601D02*
G01*
X148180687Y-52550367D01*
X148319234Y-52642941D01*
X148437059Y-52760766D01*
X148529633Y-52899313D01*
X148593399Y-53053258D01*
X148625907Y-53216685D01*
X148625907Y-53383315D01*
X148593399Y-53546742D01*
X148529633Y-53700687D01*
X148437059Y-53839234D01*
X148319234Y-53957059D01*
X148180687Y-54049633D01*
X148026742Y-54113399D01*
X147863315Y-54145907D01*
X147696685Y-54145907D01*
X147533258Y-54113399D01*
X147379313Y-54049633D01*
X147240766Y-53957059D01*
X147122941Y-53839234D01*
X147030367Y-53700687D01*
X146966601Y-53546742D01*
X146934093Y-53383315D01*
X146934093Y-53216685D01*
X146966601Y-53053258D01*
X147030367Y-52899313D01*
X147122941Y-52760766D01*
X147240766Y-52642941D01*
X147379313Y-52550367D01*
X147533258Y-52486601D01*
X147696685Y-52454093D01*
X147863315Y-52454093D01*
X148026742Y-52486601D01*
G37*
G36*
X150566742Y-52486601D02*
G01*
X150720687Y-52550367D01*
X150859234Y-52642941D01*
X150977059Y-52760766D01*
X151069633Y-52899313D01*
X151133399Y-53053258D01*
X151165907Y-53216685D01*
X151165907Y-53383315D01*
X151133399Y-53546742D01*
X151069633Y-53700687D01*
X150977059Y-53839234D01*
X150859234Y-53957059D01*
X150720687Y-54049633D01*
X150566742Y-54113399D01*
X150403315Y-54145907D01*
X150236685Y-54145907D01*
X150073258Y-54113399D01*
X149919313Y-54049633D01*
X149780766Y-53957059D01*
X149662941Y-53839234D01*
X149570367Y-53700687D01*
X149506601Y-53546742D01*
X149474093Y-53383315D01*
X149474093Y-53216685D01*
X149506601Y-53053258D01*
X149570367Y-52899313D01*
X149662941Y-52760766D01*
X149780766Y-52642941D01*
X149919313Y-52550367D01*
X150073258Y-52486601D01*
X150236685Y-52454093D01*
X150403315Y-52454093D01*
X150566742Y-52486601D01*
G37*
G36*
X153106742Y-52486601D02*
G01*
X153260687Y-52550367D01*
X153399234Y-52642941D01*
X153517059Y-52760766D01*
X153609633Y-52899313D01*
X153673399Y-53053258D01*
X153705907Y-53216685D01*
X153705907Y-53383315D01*
X153673399Y-53546742D01*
X153609633Y-53700687D01*
X153517059Y-53839234D01*
X153399234Y-53957059D01*
X153260687Y-54049633D01*
X153106742Y-54113399D01*
X152943315Y-54145907D01*
X152776685Y-54145907D01*
X152613258Y-54113399D01*
X152459313Y-54049633D01*
X152320766Y-53957059D01*
X152202941Y-53839234D01*
X152110367Y-53700687D01*
X152046601Y-53546742D01*
X152014093Y-53383315D01*
X152014093Y-53216685D01*
X152046601Y-53053258D01*
X152110367Y-52899313D01*
X152202941Y-52760766D01*
X152320766Y-52642941D01*
X152459313Y-52550367D01*
X152613258Y-52486601D01*
X152776685Y-52454093D01*
X152943315Y-52454093D01*
X153106742Y-52486601D01*
G37*
G36*
X155646742Y-52486601D02*
G01*
X155800687Y-52550367D01*
X155939234Y-52642941D01*
X156057059Y-52760766D01*
X156149633Y-52899313D01*
X156213399Y-53053258D01*
X156245907Y-53216685D01*
X156245907Y-53383315D01*
X156213399Y-53546742D01*
X156149633Y-53700687D01*
X156057059Y-53839234D01*
X155939234Y-53957059D01*
X155800687Y-54049633D01*
X155646742Y-54113399D01*
X155483315Y-54145907D01*
X155316685Y-54145907D01*
X155153258Y-54113399D01*
X154999313Y-54049633D01*
X154860766Y-53957059D01*
X154742941Y-53839234D01*
X154650367Y-53700687D01*
X154586601Y-53546742D01*
X154554093Y-53383315D01*
X154554093Y-53216685D01*
X154586601Y-53053258D01*
X154650367Y-52899313D01*
X154742941Y-52760766D01*
X154860766Y-52642941D01*
X154999313Y-52550367D01*
X155153258Y-52486601D01*
X155316685Y-52454093D01*
X155483315Y-52454093D01*
X155646742Y-52486601D01*
G37*
G36*
X158186742Y-52486601D02*
G01*
X158340687Y-52550367D01*
X158479234Y-52642941D01*
X158597059Y-52760766D01*
X158689633Y-52899313D01*
X158753399Y-53053258D01*
X158785907Y-53216685D01*
X158785907Y-53383315D01*
X158753399Y-53546742D01*
X158689633Y-53700687D01*
X158597059Y-53839234D01*
X158479234Y-53957059D01*
X158340687Y-54049633D01*
X158186742Y-54113399D01*
X158023315Y-54145907D01*
X157856685Y-54145907D01*
X157693258Y-54113399D01*
X157539313Y-54049633D01*
X157400766Y-53957059D01*
X157282941Y-53839234D01*
X157190367Y-53700687D01*
X157126601Y-53546742D01*
X157094093Y-53383315D01*
X157094093Y-53216685D01*
X157126601Y-53053258D01*
X157190367Y-52899313D01*
X157282941Y-52760766D01*
X157400766Y-52642941D01*
X157539313Y-52550367D01*
X157693258Y-52486601D01*
X157856685Y-52454093D01*
X158023315Y-52454093D01*
X158186742Y-52486601D01*
G37*
G36*
X160726742Y-52486601D02*
G01*
X160880687Y-52550367D01*
X161019234Y-52642941D01*
X161137059Y-52760766D01*
X161229633Y-52899313D01*
X161293399Y-53053258D01*
X161325907Y-53216685D01*
X161325907Y-53383315D01*
X161293399Y-53546742D01*
X161229633Y-53700687D01*
X161137059Y-53839234D01*
X161019234Y-53957059D01*
X160880687Y-54049633D01*
X160726742Y-54113399D01*
X160563315Y-54145907D01*
X160396685Y-54145907D01*
X160233258Y-54113399D01*
X160079313Y-54049633D01*
X159940766Y-53957059D01*
X159822941Y-53839234D01*
X159730367Y-53700687D01*
X159666601Y-53546742D01*
X159634093Y-53383315D01*
X159634093Y-53216685D01*
X159666601Y-53053258D01*
X159730367Y-52899313D01*
X159822941Y-52760766D01*
X159940766Y-52642941D01*
X160079313Y-52550367D01*
X160233258Y-52486601D01*
X160396685Y-52454093D01*
X160563315Y-52454093D01*
X160726742Y-52486601D01*
G37*
G36*
X109220000Y-49620000D02*
G01*
X107520000Y-49620000D01*
X107520000Y-47920000D01*
X109220000Y-47920000D01*
X109220000Y-49620000D01*
G37*
G36*
X111156742Y-47956601D02*
G01*
X111310687Y-48020367D01*
X111449234Y-48112941D01*
X111567059Y-48230766D01*
X111659633Y-48369313D01*
X111723399Y-48523258D01*
X111755907Y-48686685D01*
X111755907Y-48853315D01*
X111723399Y-49016742D01*
X111659633Y-49170687D01*
X111567059Y-49309234D01*
X111449234Y-49427059D01*
X111310687Y-49519633D01*
X111156742Y-49583399D01*
X110993315Y-49615907D01*
X110826685Y-49615907D01*
X110663258Y-49583399D01*
X110509313Y-49519633D01*
X110370766Y-49427059D01*
X110252941Y-49309234D01*
X110160367Y-49170687D01*
X110096601Y-49016742D01*
X110064093Y-48853315D01*
X110064093Y-48686685D01*
X110096601Y-48523258D01*
X110160367Y-48369313D01*
X110252941Y-48230766D01*
X110370766Y-48112941D01*
X110509313Y-48020367D01*
X110663258Y-47956601D01*
X110826685Y-47924093D01*
X110993315Y-47924093D01*
X111156742Y-47956601D01*
G37*
G36*
X113696742Y-47956601D02*
G01*
X113850687Y-48020367D01*
X113989234Y-48112941D01*
X114107059Y-48230766D01*
X114199633Y-48369313D01*
X114263399Y-48523258D01*
X114295907Y-48686685D01*
X114295907Y-48853315D01*
X114263399Y-49016742D01*
X114199633Y-49170687D01*
X114107059Y-49309234D01*
X113989234Y-49427059D01*
X113850687Y-49519633D01*
X113696742Y-49583399D01*
X113533315Y-49615907D01*
X113366685Y-49615907D01*
X113203258Y-49583399D01*
X113049313Y-49519633D01*
X112910766Y-49427059D01*
X112792941Y-49309234D01*
X112700367Y-49170687D01*
X112636601Y-49016742D01*
X112604093Y-48853315D01*
X112604093Y-48686685D01*
X112636601Y-48523258D01*
X112700367Y-48369313D01*
X112792941Y-48230766D01*
X112910766Y-48112941D01*
X113049313Y-48020367D01*
X113203258Y-47956601D01*
X113366685Y-47924093D01*
X113533315Y-47924093D01*
X113696742Y-47956601D01*
G37*
G36*
X116236742Y-47956601D02*
G01*
X116390687Y-48020367D01*
X116529234Y-48112941D01*
X116647059Y-48230766D01*
X116739633Y-48369313D01*
X116803399Y-48523258D01*
X116835907Y-48686685D01*
X116835907Y-48853315D01*
X116803399Y-49016742D01*
X116739633Y-49170687D01*
X116647059Y-49309234D01*
X116529234Y-49427059D01*
X116390687Y-49519633D01*
X116236742Y-49583399D01*
X116073315Y-49615907D01*
X115906685Y-49615907D01*
X115743258Y-49583399D01*
X115589313Y-49519633D01*
X115450766Y-49427059D01*
X115332941Y-49309234D01*
X115240367Y-49170687D01*
X115176601Y-49016742D01*
X115144093Y-48853315D01*
X115144093Y-48686685D01*
X115176601Y-48523258D01*
X115240367Y-48369313D01*
X115332941Y-48230766D01*
X115450766Y-48112941D01*
X115589313Y-48020367D01*
X115743258Y-47956601D01*
X115906685Y-47924093D01*
X116073315Y-47924093D01*
X116236742Y-47956601D01*
G37*
G36*
X118776742Y-47956601D02*
G01*
X118930687Y-48020367D01*
X119069234Y-48112941D01*
X119187059Y-48230766D01*
X119279633Y-48369313D01*
X119343399Y-48523258D01*
X119375907Y-48686685D01*
X119375907Y-48853315D01*
X119343399Y-49016742D01*
X119279633Y-49170687D01*
X119187059Y-49309234D01*
X119069234Y-49427059D01*
X118930687Y-49519633D01*
X118776742Y-49583399D01*
X118613315Y-49615907D01*
X118446685Y-49615907D01*
X118283258Y-49583399D01*
X118129313Y-49519633D01*
X117990766Y-49427059D01*
X117872941Y-49309234D01*
X117780367Y-49170687D01*
X117716601Y-49016742D01*
X117684093Y-48853315D01*
X117684093Y-48686685D01*
X117716601Y-48523258D01*
X117780367Y-48369313D01*
X117872941Y-48230766D01*
X117990766Y-48112941D01*
X118129313Y-48020367D01*
X118283258Y-47956601D01*
X118446685Y-47924093D01*
X118613315Y-47924093D01*
X118776742Y-47956601D01*
G37*
G36*
X121316742Y-47956601D02*
G01*
X121470687Y-48020367D01*
X121609234Y-48112941D01*
X121727059Y-48230766D01*
X121819633Y-48369313D01*
X121883399Y-48523258D01*
X121915907Y-48686685D01*
X121915907Y-48853315D01*
X121883399Y-49016742D01*
X121819633Y-49170687D01*
X121727059Y-49309234D01*
X121609234Y-49427059D01*
X121470687Y-49519633D01*
X121316742Y-49583399D01*
X121153315Y-49615907D01*
X120986685Y-49615907D01*
X120823258Y-49583399D01*
X120669313Y-49519633D01*
X120530766Y-49427059D01*
X120412941Y-49309234D01*
X120320367Y-49170687D01*
X120256601Y-49016742D01*
X120224093Y-48853315D01*
X120224093Y-48686685D01*
X120256601Y-48523258D01*
X120320367Y-48369313D01*
X120412941Y-48230766D01*
X120530766Y-48112941D01*
X120669313Y-48020367D01*
X120823258Y-47956601D01*
X120986685Y-47924093D01*
X121153315Y-47924093D01*
X121316742Y-47956601D01*
G37*
G36*
X123856742Y-47956601D02*
G01*
X124010687Y-48020367D01*
X124149234Y-48112941D01*
X124267059Y-48230766D01*
X124359633Y-48369313D01*
X124423399Y-48523258D01*
X124455907Y-48686685D01*
X124455907Y-48853315D01*
X124423399Y-49016742D01*
X124359633Y-49170687D01*
X124267059Y-49309234D01*
X124149234Y-49427059D01*
X124010687Y-49519633D01*
X123856742Y-49583399D01*
X123693315Y-49615907D01*
X123526685Y-49615907D01*
X123363258Y-49583399D01*
X123209313Y-49519633D01*
X123070766Y-49427059D01*
X122952941Y-49309234D01*
X122860367Y-49170687D01*
X122796601Y-49016742D01*
X122764093Y-48853315D01*
X122764093Y-48686685D01*
X122796601Y-48523258D01*
X122860367Y-48369313D01*
X122952941Y-48230766D01*
X123070766Y-48112941D01*
X123209313Y-48020367D01*
X123363258Y-47956601D01*
X123526685Y-47924093D01*
X123693315Y-47924093D01*
X123856742Y-47956601D01*
G37*
G36*
X126396742Y-47956601D02*
G01*
X126550687Y-48020367D01*
X126689234Y-48112941D01*
X126807059Y-48230766D01*
X126899633Y-48369313D01*
X126963399Y-48523258D01*
X126995907Y-48686685D01*
X126995907Y-48853315D01*
X126963399Y-49016742D01*
X126899633Y-49170687D01*
X126807059Y-49309234D01*
X126689234Y-49427059D01*
X126550687Y-49519633D01*
X126396742Y-49583399D01*
X126233315Y-49615907D01*
X126066685Y-49615907D01*
X125903258Y-49583399D01*
X125749313Y-49519633D01*
X125610766Y-49427059D01*
X125492941Y-49309234D01*
X125400367Y-49170687D01*
X125336601Y-49016742D01*
X125304093Y-48853315D01*
X125304093Y-48686685D01*
X125336601Y-48523258D01*
X125400367Y-48369313D01*
X125492941Y-48230766D01*
X125610766Y-48112941D01*
X125749313Y-48020367D01*
X125903258Y-47956601D01*
X126066685Y-47924093D01*
X126233315Y-47924093D01*
X126396742Y-47956601D01*
G37*
G36*
X128936742Y-47956601D02*
G01*
X129090687Y-48020367D01*
X129229234Y-48112941D01*
X129347059Y-48230766D01*
X129439633Y-48369313D01*
X129503399Y-48523258D01*
X129535907Y-48686685D01*
X129535907Y-48853315D01*
X129503399Y-49016742D01*
X129439633Y-49170687D01*
X129347059Y-49309234D01*
X129229234Y-49427059D01*
X129090687Y-49519633D01*
X128936742Y-49583399D01*
X128773315Y-49615907D01*
X128606685Y-49615907D01*
X128443258Y-49583399D01*
X128289313Y-49519633D01*
X128150766Y-49427059D01*
X128032941Y-49309234D01*
X127940367Y-49170687D01*
X127876601Y-49016742D01*
X127844093Y-48853315D01*
X127844093Y-48686685D01*
X127876601Y-48523258D01*
X127940367Y-48369313D01*
X128032941Y-48230766D01*
X128150766Y-48112941D01*
X128289313Y-48020367D01*
X128443258Y-47956601D01*
X128606685Y-47924093D01*
X128773315Y-47924093D01*
X128936742Y-47956601D01*
G37*
G36*
X131476742Y-47956601D02*
G01*
X131630687Y-48020367D01*
X131769234Y-48112941D01*
X131887059Y-48230766D01*
X131979633Y-48369313D01*
X132043399Y-48523258D01*
X132075907Y-48686685D01*
X132075907Y-48853315D01*
X132043399Y-49016742D01*
X131979633Y-49170687D01*
X131887059Y-49309234D01*
X131769234Y-49427059D01*
X131630687Y-49519633D01*
X131476742Y-49583399D01*
X131313315Y-49615907D01*
X131146685Y-49615907D01*
X130983258Y-49583399D01*
X130829313Y-49519633D01*
X130690766Y-49427059D01*
X130572941Y-49309234D01*
X130480367Y-49170687D01*
X130416601Y-49016742D01*
X130384093Y-48853315D01*
X130384093Y-48686685D01*
X130416601Y-48523258D01*
X130480367Y-48369313D01*
X130572941Y-48230766D01*
X130690766Y-48112941D01*
X130829313Y-48020367D01*
X130983258Y-47956601D01*
X131146685Y-47924093D01*
X131313315Y-47924093D01*
X131476742Y-47956601D01*
G37*
G36*
X134016742Y-47956601D02*
G01*
X134170687Y-48020367D01*
X134309234Y-48112941D01*
X134427059Y-48230766D01*
X134519633Y-48369313D01*
X134583399Y-48523258D01*
X134615907Y-48686685D01*
X134615907Y-48853315D01*
X134583399Y-49016742D01*
X134519633Y-49170687D01*
X134427059Y-49309234D01*
X134309234Y-49427059D01*
X134170687Y-49519633D01*
X134016742Y-49583399D01*
X133853315Y-49615907D01*
X133686685Y-49615907D01*
X133523258Y-49583399D01*
X133369313Y-49519633D01*
X133230766Y-49427059D01*
X133112941Y-49309234D01*
X133020367Y-49170687D01*
X132956601Y-49016742D01*
X132924093Y-48853315D01*
X132924093Y-48686685D01*
X132956601Y-48523258D01*
X133020367Y-48369313D01*
X133112941Y-48230766D01*
X133230766Y-48112941D01*
X133369313Y-48020367D01*
X133523258Y-47956601D01*
X133686685Y-47924093D01*
X133853315Y-47924093D01*
X134016742Y-47956601D01*
G37*
G36*
X136556742Y-47956601D02*
G01*
X136710687Y-48020367D01*
X136849234Y-48112941D01*
X136967059Y-48230766D01*
X137059633Y-48369313D01*
X137123399Y-48523258D01*
X137155907Y-48686685D01*
X137155907Y-48853315D01*
X137123399Y-49016742D01*
X137059633Y-49170687D01*
X136967059Y-49309234D01*
X136849234Y-49427059D01*
X136710687Y-49519633D01*
X136556742Y-49583399D01*
X136393315Y-49615907D01*
X136226685Y-49615907D01*
X136063258Y-49583399D01*
X135909313Y-49519633D01*
X135770766Y-49427059D01*
X135652941Y-49309234D01*
X135560367Y-49170687D01*
X135496601Y-49016742D01*
X135464093Y-48853315D01*
X135464093Y-48686685D01*
X135496601Y-48523258D01*
X135560367Y-48369313D01*
X135652941Y-48230766D01*
X135770766Y-48112941D01*
X135909313Y-48020367D01*
X136063258Y-47956601D01*
X136226685Y-47924093D01*
X136393315Y-47924093D01*
X136556742Y-47956601D01*
G37*
G36*
X139096742Y-47956601D02*
G01*
X139250687Y-48020367D01*
X139389234Y-48112941D01*
X139507059Y-48230766D01*
X139599633Y-48369313D01*
X139663399Y-48523258D01*
X139695907Y-48686685D01*
X139695907Y-48853315D01*
X139663399Y-49016742D01*
X139599633Y-49170687D01*
X139507059Y-49309234D01*
X139389234Y-49427059D01*
X139250687Y-49519633D01*
X139096742Y-49583399D01*
X138933315Y-49615907D01*
X138766685Y-49615907D01*
X138603258Y-49583399D01*
X138449313Y-49519633D01*
X138310766Y-49427059D01*
X138192941Y-49309234D01*
X138100367Y-49170687D01*
X138036601Y-49016742D01*
X138004093Y-48853315D01*
X138004093Y-48686685D01*
X138036601Y-48523258D01*
X138100367Y-48369313D01*
X138192941Y-48230766D01*
X138310766Y-48112941D01*
X138449313Y-48020367D01*
X138603258Y-47956601D01*
X138766685Y-47924093D01*
X138933315Y-47924093D01*
X139096742Y-47956601D01*
G37*
G36*
X141636742Y-47956601D02*
G01*
X141790687Y-48020367D01*
X141929234Y-48112941D01*
X142047059Y-48230766D01*
X142139633Y-48369313D01*
X142203399Y-48523258D01*
X142235907Y-48686685D01*
X142235907Y-48853315D01*
X142203399Y-49016742D01*
X142139633Y-49170687D01*
X142047059Y-49309234D01*
X141929234Y-49427059D01*
X141790687Y-49519633D01*
X141636742Y-49583399D01*
X141473315Y-49615907D01*
X141306685Y-49615907D01*
X141143258Y-49583399D01*
X140989313Y-49519633D01*
X140850766Y-49427059D01*
X140732941Y-49309234D01*
X140640367Y-49170687D01*
X140576601Y-49016742D01*
X140544093Y-48853315D01*
X140544093Y-48686685D01*
X140576601Y-48523258D01*
X140640367Y-48369313D01*
X140732941Y-48230766D01*
X140850766Y-48112941D01*
X140989313Y-48020367D01*
X141143258Y-47956601D01*
X141306685Y-47924093D01*
X141473315Y-47924093D01*
X141636742Y-47956601D01*
G37*
G36*
X144176742Y-47956601D02*
G01*
X144330687Y-48020367D01*
X144469234Y-48112941D01*
X144587059Y-48230766D01*
X144679633Y-48369313D01*
X144743399Y-48523258D01*
X144775907Y-48686685D01*
X144775907Y-48853315D01*
X144743399Y-49016742D01*
X144679633Y-49170687D01*
X144587059Y-49309234D01*
X144469234Y-49427059D01*
X144330687Y-49519633D01*
X144176742Y-49583399D01*
X144013315Y-49615907D01*
X143846685Y-49615907D01*
X143683258Y-49583399D01*
X143529313Y-49519633D01*
X143390766Y-49427059D01*
X143272941Y-49309234D01*
X143180367Y-49170687D01*
X143116601Y-49016742D01*
X143084093Y-48853315D01*
X143084093Y-48686685D01*
X143116601Y-48523258D01*
X143180367Y-48369313D01*
X143272941Y-48230766D01*
X143390766Y-48112941D01*
X143529313Y-48020367D01*
X143683258Y-47956601D01*
X143846685Y-47924093D01*
X144013315Y-47924093D01*
X144176742Y-47956601D01*
G37*
G36*
X146716742Y-47956601D02*
G01*
X146870687Y-48020367D01*
X147009234Y-48112941D01*
X147127059Y-48230766D01*
X147219633Y-48369313D01*
X147283399Y-48523258D01*
X147315907Y-48686685D01*
X147315907Y-48853315D01*
X147283399Y-49016742D01*
X147219633Y-49170687D01*
X147127059Y-49309234D01*
X147009234Y-49427059D01*
X146870687Y-49519633D01*
X146716742Y-49583399D01*
X146553315Y-49615907D01*
X146386685Y-49615907D01*
X146223258Y-49583399D01*
X146069313Y-49519633D01*
X145930766Y-49427059D01*
X145812941Y-49309234D01*
X145720367Y-49170687D01*
X145656601Y-49016742D01*
X145624093Y-48853315D01*
X145624093Y-48686685D01*
X145656601Y-48523258D01*
X145720367Y-48369313D01*
X145812941Y-48230766D01*
X145930766Y-48112941D01*
X146069313Y-48020367D01*
X146223258Y-47956601D01*
X146386685Y-47924093D01*
X146553315Y-47924093D01*
X146716742Y-47956601D01*
G37*
G36*
X149256742Y-47956601D02*
G01*
X149410687Y-48020367D01*
X149549234Y-48112941D01*
X149667059Y-48230766D01*
X149759633Y-48369313D01*
X149823399Y-48523258D01*
X149855907Y-48686685D01*
X149855907Y-48853315D01*
X149823399Y-49016742D01*
X149759633Y-49170687D01*
X149667059Y-49309234D01*
X149549234Y-49427059D01*
X149410687Y-49519633D01*
X149256742Y-49583399D01*
X149093315Y-49615907D01*
X148926685Y-49615907D01*
X148763258Y-49583399D01*
X148609313Y-49519633D01*
X148470766Y-49427059D01*
X148352941Y-49309234D01*
X148260367Y-49170687D01*
X148196601Y-49016742D01*
X148164093Y-48853315D01*
X148164093Y-48686685D01*
X148196601Y-48523258D01*
X148260367Y-48369313D01*
X148352941Y-48230766D01*
X148470766Y-48112941D01*
X148609313Y-48020367D01*
X148763258Y-47956601D01*
X148926685Y-47924093D01*
X149093315Y-47924093D01*
X149256742Y-47956601D01*
G37*
G36*
X151796742Y-47956601D02*
G01*
X151950687Y-48020367D01*
X152089234Y-48112941D01*
X152207059Y-48230766D01*
X152299633Y-48369313D01*
X152363399Y-48523258D01*
X152395907Y-48686685D01*
X152395907Y-48853315D01*
X152363399Y-49016742D01*
X152299633Y-49170687D01*
X152207059Y-49309234D01*
X152089234Y-49427059D01*
X151950687Y-49519633D01*
X151796742Y-49583399D01*
X151633315Y-49615907D01*
X151466685Y-49615907D01*
X151303258Y-49583399D01*
X151149313Y-49519633D01*
X151010766Y-49427059D01*
X150892941Y-49309234D01*
X150800367Y-49170687D01*
X150736601Y-49016742D01*
X150704093Y-48853315D01*
X150704093Y-48686685D01*
X150736601Y-48523258D01*
X150800367Y-48369313D01*
X150892941Y-48230766D01*
X151010766Y-48112941D01*
X151149313Y-48020367D01*
X151303258Y-47956601D01*
X151466685Y-47924093D01*
X151633315Y-47924093D01*
X151796742Y-47956601D01*
G37*
G36*
X154336742Y-47956601D02*
G01*
X154490687Y-48020367D01*
X154629234Y-48112941D01*
X154747059Y-48230766D01*
X154839633Y-48369313D01*
X154903399Y-48523258D01*
X154935907Y-48686685D01*
X154935907Y-48853315D01*
X154903399Y-49016742D01*
X154839633Y-49170687D01*
X154747059Y-49309234D01*
X154629234Y-49427059D01*
X154490687Y-49519633D01*
X154336742Y-49583399D01*
X154173315Y-49615907D01*
X154006685Y-49615907D01*
X153843258Y-49583399D01*
X153689313Y-49519633D01*
X153550766Y-49427059D01*
X153432941Y-49309234D01*
X153340367Y-49170687D01*
X153276601Y-49016742D01*
X153244093Y-48853315D01*
X153244093Y-48686685D01*
X153276601Y-48523258D01*
X153340367Y-48369313D01*
X153432941Y-48230766D01*
X153550766Y-48112941D01*
X153689313Y-48020367D01*
X153843258Y-47956601D01*
X154006685Y-47924093D01*
X154173315Y-47924093D01*
X154336742Y-47956601D01*
G37*
G36*
X156876742Y-47956601D02*
G01*
X157030687Y-48020367D01*
X157169234Y-48112941D01*
X157287059Y-48230766D01*
X157379633Y-48369313D01*
X157443399Y-48523258D01*
X157475907Y-48686685D01*
X157475907Y-48853315D01*
X157443399Y-49016742D01*
X157379633Y-49170687D01*
X157287059Y-49309234D01*
X157169234Y-49427059D01*
X157030687Y-49519633D01*
X156876742Y-49583399D01*
X156713315Y-49615907D01*
X156546685Y-49615907D01*
X156383258Y-49583399D01*
X156229313Y-49519633D01*
X156090766Y-49427059D01*
X155972941Y-49309234D01*
X155880367Y-49170687D01*
X155816601Y-49016742D01*
X155784093Y-48853315D01*
X155784093Y-48686685D01*
X155816601Y-48523258D01*
X155880367Y-48369313D01*
X155972941Y-48230766D01*
X156090766Y-48112941D01*
X156229313Y-48020367D01*
X156383258Y-47956601D01*
X156546685Y-47924093D01*
X156713315Y-47924093D01*
X156876742Y-47956601D01*
G37*
G36*
X103815151Y-46187301D02*
G01*
X104016623Y-46252763D01*
X104205373Y-46348936D01*
X104376755Y-46473452D01*
X104526548Y-46623245D01*
X104651064Y-46794627D01*
X104747237Y-46983377D01*
X104812699Y-47184849D01*
X104845838Y-47394080D01*
X104845838Y-47605920D01*
X104812699Y-47815151D01*
X104747237Y-48016623D01*
X104651064Y-48205373D01*
X104526548Y-48376755D01*
X104376755Y-48526548D01*
X104205373Y-48651064D01*
X104016623Y-48747237D01*
X103815151Y-48812699D01*
X103605920Y-48845838D01*
X103394080Y-48845838D01*
X103184849Y-48812699D01*
X102983377Y-48747237D01*
X102794627Y-48651064D01*
X102623245Y-48526548D01*
X102473452Y-48376755D01*
X102348936Y-48205373D01*
X102252763Y-48016623D01*
X102187301Y-47815151D01*
X102154162Y-47605920D01*
X102154162Y-47394080D01*
X102187301Y-47184849D01*
X102252763Y-46983377D01*
X102348936Y-46794627D01*
X102473452Y-46623245D01*
X102623245Y-46473452D01*
X102794627Y-46348936D01*
X102983377Y-46252763D01*
X103184849Y-46187301D01*
X103394080Y-46154162D01*
X103605920Y-46154162D01*
X103815151Y-46187301D01*
G37*
G36*
X161815151Y-46187301D02*
G01*
X162016623Y-46252763D01*
X162205373Y-46348936D01*
X162376755Y-46473452D01*
X162526548Y-46623245D01*
X162651064Y-46794627D01*
X162747237Y-46983377D01*
X162812699Y-47184849D01*
X162845838Y-47394080D01*
X162845838Y-47605920D01*
X162812699Y-47815151D01*
X162747237Y-48016623D01*
X162651064Y-48205373D01*
X162526548Y-48376755D01*
X162376755Y-48526548D01*
X162205373Y-48651064D01*
X162016623Y-48747237D01*
X161815151Y-48812699D01*
X161605920Y-48845838D01*
X161394080Y-48845838D01*
X161184849Y-48812699D01*
X160983377Y-48747237D01*
X160794627Y-48651064D01*
X160623245Y-48526548D01*
X160473452Y-48376755D01*
X160348936Y-48205373D01*
X160252763Y-48016623D01*
X160187301Y-47815151D01*
X160154162Y-47605920D01*
X160154162Y-47394080D01*
X160187301Y-47184849D01*
X160252763Y-46983377D01*
X160348936Y-46794627D01*
X160473452Y-46623245D01*
X160623245Y-46473452D01*
X160794627Y-46348936D01*
X160983377Y-46252763D01*
X161184849Y-46187301D01*
X161394080Y-46154162D01*
X161605920Y-46154162D01*
X161815151Y-46187301D01*
G37*
G36*
X108616742Y-45416601D02*
G01*
X108770687Y-45480367D01*
X108909234Y-45572941D01*
X109027059Y-45690766D01*
X109119633Y-45829313D01*
X109183399Y-45983258D01*
X109215907Y-46146685D01*
X109215907Y-46313315D01*
X109183399Y-46476742D01*
X109119633Y-46630687D01*
X109027059Y-46769234D01*
X108909234Y-46887059D01*
X108770687Y-46979633D01*
X108616742Y-47043399D01*
X108453315Y-47075907D01*
X108286685Y-47075907D01*
X108123258Y-47043399D01*
X107969313Y-46979633D01*
X107830766Y-46887059D01*
X107712941Y-46769234D01*
X107620367Y-46630687D01*
X107556601Y-46476742D01*
X107524093Y-46313315D01*
X107524093Y-46146685D01*
X107556601Y-45983258D01*
X107620367Y-45829313D01*
X107712941Y-45690766D01*
X107830766Y-45572941D01*
X107969313Y-45480367D01*
X108123258Y-45416601D01*
X108286685Y-45384093D01*
X108453315Y-45384093D01*
X108616742Y-45416601D01*
G37*
G36*
X111156742Y-45416601D02*
G01*
X111310687Y-45480367D01*
X111449234Y-45572941D01*
X111567059Y-45690766D01*
X111659633Y-45829313D01*
X111723399Y-45983258D01*
X111755907Y-46146685D01*
X111755907Y-46313315D01*
X111723399Y-46476742D01*
X111659633Y-46630687D01*
X111567059Y-46769234D01*
X111449234Y-46887059D01*
X111310687Y-46979633D01*
X111156742Y-47043399D01*
X110993315Y-47075907D01*
X110826685Y-47075907D01*
X110663258Y-47043399D01*
X110509313Y-46979633D01*
X110370766Y-46887059D01*
X110252941Y-46769234D01*
X110160367Y-46630687D01*
X110096601Y-46476742D01*
X110064093Y-46313315D01*
X110064093Y-46146685D01*
X110096601Y-45983258D01*
X110160367Y-45829313D01*
X110252941Y-45690766D01*
X110370766Y-45572941D01*
X110509313Y-45480367D01*
X110663258Y-45416601D01*
X110826685Y-45384093D01*
X110993315Y-45384093D01*
X111156742Y-45416601D01*
G37*
G36*
X113696742Y-45416601D02*
G01*
X113850687Y-45480367D01*
X113989234Y-45572941D01*
X114107059Y-45690766D01*
X114199633Y-45829313D01*
X114263399Y-45983258D01*
X114295907Y-46146685D01*
X114295907Y-46313315D01*
X114263399Y-46476742D01*
X114199633Y-46630687D01*
X114107059Y-46769234D01*
X113989234Y-46887059D01*
X113850687Y-46979633D01*
X113696742Y-47043399D01*
X113533315Y-47075907D01*
X113366685Y-47075907D01*
X113203258Y-47043399D01*
X113049313Y-46979633D01*
X112910766Y-46887059D01*
X112792941Y-46769234D01*
X112700367Y-46630687D01*
X112636601Y-46476742D01*
X112604093Y-46313315D01*
X112604093Y-46146685D01*
X112636601Y-45983258D01*
X112700367Y-45829313D01*
X112792941Y-45690766D01*
X112910766Y-45572941D01*
X113049313Y-45480367D01*
X113203258Y-45416601D01*
X113366685Y-45384093D01*
X113533315Y-45384093D01*
X113696742Y-45416601D01*
G37*
G36*
X116236742Y-45416601D02*
G01*
X116390687Y-45480367D01*
X116529234Y-45572941D01*
X116647059Y-45690766D01*
X116739633Y-45829313D01*
X116803399Y-45983258D01*
X116835907Y-46146685D01*
X116835907Y-46313315D01*
X116803399Y-46476742D01*
X116739633Y-46630687D01*
X116647059Y-46769234D01*
X116529234Y-46887059D01*
X116390687Y-46979633D01*
X116236742Y-47043399D01*
X116073315Y-47075907D01*
X115906685Y-47075907D01*
X115743258Y-47043399D01*
X115589313Y-46979633D01*
X115450766Y-46887059D01*
X115332941Y-46769234D01*
X115240367Y-46630687D01*
X115176601Y-46476742D01*
X115144093Y-46313315D01*
X115144093Y-46146685D01*
X115176601Y-45983258D01*
X115240367Y-45829313D01*
X115332941Y-45690766D01*
X115450766Y-45572941D01*
X115589313Y-45480367D01*
X115743258Y-45416601D01*
X115906685Y-45384093D01*
X116073315Y-45384093D01*
X116236742Y-45416601D01*
G37*
G36*
X118776742Y-45416601D02*
G01*
X118930687Y-45480367D01*
X119069234Y-45572941D01*
X119187059Y-45690766D01*
X119279633Y-45829313D01*
X119343399Y-45983258D01*
X119375907Y-46146685D01*
X119375907Y-46313315D01*
X119343399Y-46476742D01*
X119279633Y-46630687D01*
X119187059Y-46769234D01*
X119069234Y-46887059D01*
X118930687Y-46979633D01*
X118776742Y-47043399D01*
X118613315Y-47075907D01*
X118446685Y-47075907D01*
X118283258Y-47043399D01*
X118129313Y-46979633D01*
X117990766Y-46887059D01*
X117872941Y-46769234D01*
X117780367Y-46630687D01*
X117716601Y-46476742D01*
X117684093Y-46313315D01*
X117684093Y-46146685D01*
X117716601Y-45983258D01*
X117780367Y-45829313D01*
X117872941Y-45690766D01*
X117990766Y-45572941D01*
X118129313Y-45480367D01*
X118283258Y-45416601D01*
X118446685Y-45384093D01*
X118613315Y-45384093D01*
X118776742Y-45416601D01*
G37*
G36*
X121316742Y-45416601D02*
G01*
X121470687Y-45480367D01*
X121609234Y-45572941D01*
X121727059Y-45690766D01*
X121819633Y-45829313D01*
X121883399Y-45983258D01*
X121915907Y-46146685D01*
X121915907Y-46313315D01*
X121883399Y-46476742D01*
X121819633Y-46630687D01*
X121727059Y-46769234D01*
X121609234Y-46887059D01*
X121470687Y-46979633D01*
X121316742Y-47043399D01*
X121153315Y-47075907D01*
X120986685Y-47075907D01*
X120823258Y-47043399D01*
X120669313Y-46979633D01*
X120530766Y-46887059D01*
X120412941Y-46769234D01*
X120320367Y-46630687D01*
X120256601Y-46476742D01*
X120224093Y-46313315D01*
X120224093Y-46146685D01*
X120256601Y-45983258D01*
X120320367Y-45829313D01*
X120412941Y-45690766D01*
X120530766Y-45572941D01*
X120669313Y-45480367D01*
X120823258Y-45416601D01*
X120986685Y-45384093D01*
X121153315Y-45384093D01*
X121316742Y-45416601D01*
G37*
G36*
X123856742Y-45416601D02*
G01*
X124010687Y-45480367D01*
X124149234Y-45572941D01*
X124267059Y-45690766D01*
X124359633Y-45829313D01*
X124423399Y-45983258D01*
X124455907Y-46146685D01*
X124455907Y-46313315D01*
X124423399Y-46476742D01*
X124359633Y-46630687D01*
X124267059Y-46769234D01*
X124149234Y-46887059D01*
X124010687Y-46979633D01*
X123856742Y-47043399D01*
X123693315Y-47075907D01*
X123526685Y-47075907D01*
X123363258Y-47043399D01*
X123209313Y-46979633D01*
X123070766Y-46887059D01*
X122952941Y-46769234D01*
X122860367Y-46630687D01*
X122796601Y-46476742D01*
X122764093Y-46313315D01*
X122764093Y-46146685D01*
X122796601Y-45983258D01*
X122860367Y-45829313D01*
X122952941Y-45690766D01*
X123070766Y-45572941D01*
X123209313Y-45480367D01*
X123363258Y-45416601D01*
X123526685Y-45384093D01*
X123693315Y-45384093D01*
X123856742Y-45416601D01*
G37*
G36*
X126396742Y-45416601D02*
G01*
X126550687Y-45480367D01*
X126689234Y-45572941D01*
X126807059Y-45690766D01*
X126899633Y-45829313D01*
X126963399Y-45983258D01*
X126995907Y-46146685D01*
X126995907Y-46313315D01*
X126963399Y-46476742D01*
X126899633Y-46630687D01*
X126807059Y-46769234D01*
X126689234Y-46887059D01*
X126550687Y-46979633D01*
X126396742Y-47043399D01*
X126233315Y-47075907D01*
X126066685Y-47075907D01*
X125903258Y-47043399D01*
X125749313Y-46979633D01*
X125610766Y-46887059D01*
X125492941Y-46769234D01*
X125400367Y-46630687D01*
X125336601Y-46476742D01*
X125304093Y-46313315D01*
X125304093Y-46146685D01*
X125336601Y-45983258D01*
X125400367Y-45829313D01*
X125492941Y-45690766D01*
X125610766Y-45572941D01*
X125749313Y-45480367D01*
X125903258Y-45416601D01*
X126066685Y-45384093D01*
X126233315Y-45384093D01*
X126396742Y-45416601D01*
G37*
G36*
X128936742Y-45416601D02*
G01*
X129090687Y-45480367D01*
X129229234Y-45572941D01*
X129347059Y-45690766D01*
X129439633Y-45829313D01*
X129503399Y-45983258D01*
X129535907Y-46146685D01*
X129535907Y-46313315D01*
X129503399Y-46476742D01*
X129439633Y-46630687D01*
X129347059Y-46769234D01*
X129229234Y-46887059D01*
X129090687Y-46979633D01*
X128936742Y-47043399D01*
X128773315Y-47075907D01*
X128606685Y-47075907D01*
X128443258Y-47043399D01*
X128289313Y-46979633D01*
X128150766Y-46887059D01*
X128032941Y-46769234D01*
X127940367Y-46630687D01*
X127876601Y-46476742D01*
X127844093Y-46313315D01*
X127844093Y-46146685D01*
X127876601Y-45983258D01*
X127940367Y-45829313D01*
X128032941Y-45690766D01*
X128150766Y-45572941D01*
X128289313Y-45480367D01*
X128443258Y-45416601D01*
X128606685Y-45384093D01*
X128773315Y-45384093D01*
X128936742Y-45416601D01*
G37*
G36*
X131476742Y-45416601D02*
G01*
X131630687Y-45480367D01*
X131769234Y-45572941D01*
X131887059Y-45690766D01*
X131979633Y-45829313D01*
X132043399Y-45983258D01*
X132075907Y-46146685D01*
X132075907Y-46313315D01*
X132043399Y-46476742D01*
X131979633Y-46630687D01*
X131887059Y-46769234D01*
X131769234Y-46887059D01*
X131630687Y-46979633D01*
X131476742Y-47043399D01*
X131313315Y-47075907D01*
X131146685Y-47075907D01*
X130983258Y-47043399D01*
X130829313Y-46979633D01*
X130690766Y-46887059D01*
X130572941Y-46769234D01*
X130480367Y-46630687D01*
X130416601Y-46476742D01*
X130384093Y-46313315D01*
X130384093Y-46146685D01*
X130416601Y-45983258D01*
X130480367Y-45829313D01*
X130572941Y-45690766D01*
X130690766Y-45572941D01*
X130829313Y-45480367D01*
X130983258Y-45416601D01*
X131146685Y-45384093D01*
X131313315Y-45384093D01*
X131476742Y-45416601D01*
G37*
G36*
X134016742Y-45416601D02*
G01*
X134170687Y-45480367D01*
X134309234Y-45572941D01*
X134427059Y-45690766D01*
X134519633Y-45829313D01*
X134583399Y-45983258D01*
X134615907Y-46146685D01*
X134615907Y-46313315D01*
X134583399Y-46476742D01*
X134519633Y-46630687D01*
X134427059Y-46769234D01*
X134309234Y-46887059D01*
X134170687Y-46979633D01*
X134016742Y-47043399D01*
X133853315Y-47075907D01*
X133686685Y-47075907D01*
X133523258Y-47043399D01*
X133369313Y-46979633D01*
X133230766Y-46887059D01*
X133112941Y-46769234D01*
X133020367Y-46630687D01*
X132956601Y-46476742D01*
X132924093Y-46313315D01*
X132924093Y-46146685D01*
X132956601Y-45983258D01*
X133020367Y-45829313D01*
X133112941Y-45690766D01*
X133230766Y-45572941D01*
X133369313Y-45480367D01*
X133523258Y-45416601D01*
X133686685Y-45384093D01*
X133853315Y-45384093D01*
X134016742Y-45416601D01*
G37*
G36*
X136556742Y-45416601D02*
G01*
X136710687Y-45480367D01*
X136849234Y-45572941D01*
X136967059Y-45690766D01*
X137059633Y-45829313D01*
X137123399Y-45983258D01*
X137155907Y-46146685D01*
X137155907Y-46313315D01*
X137123399Y-46476742D01*
X137059633Y-46630687D01*
X136967059Y-46769234D01*
X136849234Y-46887059D01*
X136710687Y-46979633D01*
X136556742Y-47043399D01*
X136393315Y-47075907D01*
X136226685Y-47075907D01*
X136063258Y-47043399D01*
X135909313Y-46979633D01*
X135770766Y-46887059D01*
X135652941Y-46769234D01*
X135560367Y-46630687D01*
X135496601Y-46476742D01*
X135464093Y-46313315D01*
X135464093Y-46146685D01*
X135496601Y-45983258D01*
X135560367Y-45829313D01*
X135652941Y-45690766D01*
X135770766Y-45572941D01*
X135909313Y-45480367D01*
X136063258Y-45416601D01*
X136226685Y-45384093D01*
X136393315Y-45384093D01*
X136556742Y-45416601D01*
G37*
G36*
X139096742Y-45416601D02*
G01*
X139250687Y-45480367D01*
X139389234Y-45572941D01*
X139507059Y-45690766D01*
X139599633Y-45829313D01*
X139663399Y-45983258D01*
X139695907Y-46146685D01*
X139695907Y-46313315D01*
X139663399Y-46476742D01*
X139599633Y-46630687D01*
X139507059Y-46769234D01*
X139389234Y-46887059D01*
X139250687Y-46979633D01*
X139096742Y-47043399D01*
X138933315Y-47075907D01*
X138766685Y-47075907D01*
X138603258Y-47043399D01*
X138449313Y-46979633D01*
X138310766Y-46887059D01*
X138192941Y-46769234D01*
X138100367Y-46630687D01*
X138036601Y-46476742D01*
X138004093Y-46313315D01*
X138004093Y-46146685D01*
X138036601Y-45983258D01*
X138100367Y-45829313D01*
X138192941Y-45690766D01*
X138310766Y-45572941D01*
X138449313Y-45480367D01*
X138603258Y-45416601D01*
X138766685Y-45384093D01*
X138933315Y-45384093D01*
X139096742Y-45416601D01*
G37*
G36*
X141636742Y-45416601D02*
G01*
X141790687Y-45480367D01*
X141929234Y-45572941D01*
X142047059Y-45690766D01*
X142139633Y-45829313D01*
X142203399Y-45983258D01*
X142235907Y-46146685D01*
X142235907Y-46313315D01*
X142203399Y-46476742D01*
X142139633Y-46630687D01*
X142047059Y-46769234D01*
X141929234Y-46887059D01*
X141790687Y-46979633D01*
X141636742Y-47043399D01*
X141473315Y-47075907D01*
X141306685Y-47075907D01*
X141143258Y-47043399D01*
X140989313Y-46979633D01*
X140850766Y-46887059D01*
X140732941Y-46769234D01*
X140640367Y-46630687D01*
X140576601Y-46476742D01*
X140544093Y-46313315D01*
X140544093Y-46146685D01*
X140576601Y-45983258D01*
X140640367Y-45829313D01*
X140732941Y-45690766D01*
X140850766Y-45572941D01*
X140989313Y-45480367D01*
X141143258Y-45416601D01*
X141306685Y-45384093D01*
X141473315Y-45384093D01*
X141636742Y-45416601D01*
G37*
G36*
X144176742Y-45416601D02*
G01*
X144330687Y-45480367D01*
X144469234Y-45572941D01*
X144587059Y-45690766D01*
X144679633Y-45829313D01*
X144743399Y-45983258D01*
X144775907Y-46146685D01*
X144775907Y-46313315D01*
X144743399Y-46476742D01*
X144679633Y-46630687D01*
X144587059Y-46769234D01*
X144469234Y-46887059D01*
X144330687Y-46979633D01*
X144176742Y-47043399D01*
X144013315Y-47075907D01*
X143846685Y-47075907D01*
X143683258Y-47043399D01*
X143529313Y-46979633D01*
X143390766Y-46887059D01*
X143272941Y-46769234D01*
X143180367Y-46630687D01*
X143116601Y-46476742D01*
X143084093Y-46313315D01*
X143084093Y-46146685D01*
X143116601Y-45983258D01*
X143180367Y-45829313D01*
X143272941Y-45690766D01*
X143390766Y-45572941D01*
X143529313Y-45480367D01*
X143683258Y-45416601D01*
X143846685Y-45384093D01*
X144013315Y-45384093D01*
X144176742Y-45416601D01*
G37*
G36*
X146716742Y-45416601D02*
G01*
X146870687Y-45480367D01*
X147009234Y-45572941D01*
X147127059Y-45690766D01*
X147219633Y-45829313D01*
X147283399Y-45983258D01*
X147315907Y-46146685D01*
X147315907Y-46313315D01*
X147283399Y-46476742D01*
X147219633Y-46630687D01*
X147127059Y-46769234D01*
X147009234Y-46887059D01*
X146870687Y-46979633D01*
X146716742Y-47043399D01*
X146553315Y-47075907D01*
X146386685Y-47075907D01*
X146223258Y-47043399D01*
X146069313Y-46979633D01*
X145930766Y-46887059D01*
X145812941Y-46769234D01*
X145720367Y-46630687D01*
X145656601Y-46476742D01*
X145624093Y-46313315D01*
X145624093Y-46146685D01*
X145656601Y-45983258D01*
X145720367Y-45829313D01*
X145812941Y-45690766D01*
X145930766Y-45572941D01*
X146069313Y-45480367D01*
X146223258Y-45416601D01*
X146386685Y-45384093D01*
X146553315Y-45384093D01*
X146716742Y-45416601D01*
G37*
G36*
X149256742Y-45416601D02*
G01*
X149410687Y-45480367D01*
X149549234Y-45572941D01*
X149667059Y-45690766D01*
X149759633Y-45829313D01*
X149823399Y-45983258D01*
X149855907Y-46146685D01*
X149855907Y-46313315D01*
X149823399Y-46476742D01*
X149759633Y-46630687D01*
X149667059Y-46769234D01*
X149549234Y-46887059D01*
X149410687Y-46979633D01*
X149256742Y-47043399D01*
X149093315Y-47075907D01*
X148926685Y-47075907D01*
X148763258Y-47043399D01*
X148609313Y-46979633D01*
X148470766Y-46887059D01*
X148352941Y-46769234D01*
X148260367Y-46630687D01*
X148196601Y-46476742D01*
X148164093Y-46313315D01*
X148164093Y-46146685D01*
X148196601Y-45983258D01*
X148260367Y-45829313D01*
X148352941Y-45690766D01*
X148470766Y-45572941D01*
X148609313Y-45480367D01*
X148763258Y-45416601D01*
X148926685Y-45384093D01*
X149093315Y-45384093D01*
X149256742Y-45416601D01*
G37*
G36*
X151796742Y-45416601D02*
G01*
X151950687Y-45480367D01*
X152089234Y-45572941D01*
X152207059Y-45690766D01*
X152299633Y-45829313D01*
X152363399Y-45983258D01*
X152395907Y-46146685D01*
X152395907Y-46313315D01*
X152363399Y-46476742D01*
X152299633Y-46630687D01*
X152207059Y-46769234D01*
X152089234Y-46887059D01*
X151950687Y-46979633D01*
X151796742Y-47043399D01*
X151633315Y-47075907D01*
X151466685Y-47075907D01*
X151303258Y-47043399D01*
X151149313Y-46979633D01*
X151010766Y-46887059D01*
X150892941Y-46769234D01*
X150800367Y-46630687D01*
X150736601Y-46476742D01*
X150704093Y-46313315D01*
X150704093Y-46146685D01*
X150736601Y-45983258D01*
X150800367Y-45829313D01*
X150892941Y-45690766D01*
X151010766Y-45572941D01*
X151149313Y-45480367D01*
X151303258Y-45416601D01*
X151466685Y-45384093D01*
X151633315Y-45384093D01*
X151796742Y-45416601D01*
G37*
G36*
X154336742Y-45416601D02*
G01*
X154490687Y-45480367D01*
X154629234Y-45572941D01*
X154747059Y-45690766D01*
X154839633Y-45829313D01*
X154903399Y-45983258D01*
X154935907Y-46146685D01*
X154935907Y-46313315D01*
X154903399Y-46476742D01*
X154839633Y-46630687D01*
X154747059Y-46769234D01*
X154629234Y-46887059D01*
X154490687Y-46979633D01*
X154336742Y-47043399D01*
X154173315Y-47075907D01*
X154006685Y-47075907D01*
X153843258Y-47043399D01*
X153689313Y-46979633D01*
X153550766Y-46887059D01*
X153432941Y-46769234D01*
X153340367Y-46630687D01*
X153276601Y-46476742D01*
X153244093Y-46313315D01*
X153244093Y-46146685D01*
X153276601Y-45983258D01*
X153340367Y-45829313D01*
X153432941Y-45690766D01*
X153550766Y-45572941D01*
X153689313Y-45480367D01*
X153843258Y-45416601D01*
X154006685Y-45384093D01*
X154173315Y-45384093D01*
X154336742Y-45416601D01*
G37*
G36*
X156876742Y-45416601D02*
G01*
X157030687Y-45480367D01*
X157169234Y-45572941D01*
X157287059Y-45690766D01*
X157379633Y-45829313D01*
X157443399Y-45983258D01*
X157475907Y-46146685D01*
X157475907Y-46313315D01*
X157443399Y-46476742D01*
X157379633Y-46630687D01*
X157287059Y-46769234D01*
X157169234Y-46887059D01*
X157030687Y-46979633D01*
X156876742Y-47043399D01*
X156713315Y-47075907D01*
X156546685Y-47075907D01*
X156383258Y-47043399D01*
X156229313Y-46979633D01*
X156090766Y-46887059D01*
X155972941Y-46769234D01*
X155880367Y-46630687D01*
X155816601Y-46476742D01*
X155784093Y-46313315D01*
X155784093Y-46146685D01*
X155816601Y-45983258D01*
X155880367Y-45829313D01*
X155972941Y-45690766D01*
X156090766Y-45572941D01*
X156229313Y-45480367D01*
X156383258Y-45416601D01*
X156546685Y-45384093D01*
X156713315Y-45384093D01*
X156876742Y-45416601D01*
G37*
M02*
